%TF.GenerationSoftware,KiCad,Pcbnew,9.0.3-9.0.3-0~ubuntu22.04.1*%
%TF.CreationDate,2025-10-17T13:32:11+04:00*%
%TF.ProjectId,GPSComputer_3.2.01,47505343-6f6d-4707-9574-65725f332e32,rev?*%
%TF.SameCoordinates,Original*%
%TF.FileFunction,Legend,Top*%
%TF.FilePolarity,Positive*%
%FSLAX46Y46*%
G04 Gerber Fmt 4.6, Leading zero omitted, Abs format (unit mm)*
G04 Created by KiCad (PCBNEW 9.0.3-9.0.3-0~ubuntu22.04.1) date 2025-10-17 13:32:11*
%MOMM*%
%LPD*%
G01*
G04 APERTURE LIST*
%ADD10C,0.150000*%
%ADD11C,0.120000*%
%ADD12C,0.200000*%
%ADD13C,0.100000*%
%ADD14C,0.127000*%
G04 APERTURE END LIST*
D10*
X145356639Y-78533825D02*
X145356639Y-77466175D01*
X145890464Y-78000000D02*
X144822813Y-78000000D01*
X116356639Y-114033825D02*
X116356639Y-112966175D01*
X116890464Y-113500000D02*
X115822813Y-113500000D01*
X133856639Y-114033825D02*
X133856639Y-112966175D01*
X134390464Y-113500000D02*
X133322813Y-113500000D01*
X151216174Y-115106639D02*
X152283825Y-115106639D01*
X151749999Y-115640464D02*
X151749999Y-114572813D01*
D11*
%TO.C,J2*%
X147510000Y-48300000D02*
X146400000Y-48300000D01*
X147510000Y-52010000D02*
X146400000Y-52010000D01*
X150300000Y-48300000D02*
X149190000Y-48300000D01*
X150300000Y-52010000D02*
X149190000Y-52010000D01*
%TO.C,C2*%
X148361252Y-118765000D02*
X147838748Y-118765000D01*
X148361252Y-120235000D02*
X147838748Y-120235000D01*
D12*
%TO.C,U1*%
X145850000Y-124200000D02*
X145850000Y-133800000D01*
D13*
X155300000Y-122800000D02*
X155300000Y-122800000D01*
X155300000Y-122900000D02*
X155300000Y-122900000D01*
D12*
X155950000Y-124200000D02*
X155950000Y-133800000D01*
D13*
X155300000Y-122800000D02*
G75*
G02*
X155300000Y-122900000I0J-50000D01*
G01*
X155300000Y-122900000D02*
G75*
G02*
X155300000Y-122800000I0J50000D01*
G01*
D11*
%TO.C,JP1*%
X135250000Y-81205000D02*
X137250000Y-81205000D01*
X135250000Y-84005000D02*
X135250000Y-81205000D01*
X137250000Y-81205000D02*
X137250000Y-84005000D01*
X137250000Y-84005000D02*
X135250000Y-84005000D01*
%TO.C,C13*%
X131407836Y-96840000D02*
X131192164Y-96840000D01*
X131407836Y-97560000D02*
X131192164Y-97560000D01*
%TO.C,C1*%
X150267164Y-137515000D02*
X150482836Y-137515000D01*
X150267164Y-138235000D02*
X150482836Y-138235000D01*
%TO.C,C10*%
X128342164Y-89240000D02*
X128557836Y-89240000D01*
X128342164Y-89960000D02*
X128557836Y-89960000D01*
%TO.C,C14*%
X144542164Y-100490000D02*
X144757836Y-100490000D01*
X144542164Y-101210000D02*
X144757836Y-101210000D01*
D12*
%TO.C,U4*%
X129350000Y-124200000D02*
X129350000Y-133800000D01*
D13*
X138800000Y-122800000D02*
X138800000Y-122800000D01*
X138800000Y-122900000D02*
X138800000Y-122900000D01*
D12*
X139450000Y-124200000D02*
X139450000Y-133800000D01*
D13*
X138800000Y-122800000D02*
G75*
G02*
X138800000Y-122900000I0J-50000D01*
G01*
X138800000Y-122900000D02*
G75*
G02*
X138800000Y-122800000I0J50000D01*
G01*
D11*
%TO.C,TP4*%
X184450000Y-81300000D02*
G75*
G02*
X183050000Y-81300000I-700000J0D01*
G01*
X183050000Y-81300000D02*
G75*
G02*
X184450000Y-81300000I700000J0D01*
G01*
%TO.C,R16*%
X134495000Y-119672936D02*
X134495000Y-120127064D01*
X135965000Y-119672936D02*
X135965000Y-120127064D01*
D12*
%TO.C,U3*%
X112450000Y-124200000D02*
X112450000Y-133800000D01*
D13*
X121900000Y-122800000D02*
X121900000Y-122800000D01*
X121900000Y-122900000D02*
X121900000Y-122900000D01*
D12*
X122550000Y-124200000D02*
X122550000Y-133800000D01*
D13*
X121900000Y-122800000D02*
G75*
G02*
X121900000Y-122900000I0J-50000D01*
G01*
X121900000Y-122900000D02*
G75*
G02*
X121900000Y-122800000I0J50000D01*
G01*
D11*
%TO.C,J3*%
X112250000Y-140140000D02*
X113360000Y-140140000D01*
X112250000Y-143850000D02*
X113360000Y-143850000D01*
X115040000Y-140140000D02*
X116150000Y-140140000D01*
X115040000Y-143850000D02*
X116150000Y-143850000D01*
%TO.C,R17*%
X131477064Y-115415000D02*
X131022936Y-115415000D01*
X131477064Y-116885000D02*
X131022936Y-116885000D01*
%TO.C,J5*%
X109770000Y-50825000D02*
X110340000Y-50825000D01*
X109770000Y-56025000D02*
X109770000Y-50825000D01*
X109770000Y-56025000D02*
X110340000Y-56025000D01*
X110340000Y-57465000D02*
X110340000Y-56025000D01*
X111860000Y-50825000D02*
X112880000Y-50825000D01*
X111860000Y-56025000D02*
X112880000Y-56025000D01*
X114400000Y-50825000D02*
X115420000Y-50825000D01*
X114400000Y-56025000D02*
X115420000Y-56025000D01*
X116940000Y-50825000D02*
X117960000Y-50825000D01*
X116940000Y-56025000D02*
X117960000Y-56025000D01*
X119480000Y-50825000D02*
X120500000Y-50825000D01*
X119480000Y-56025000D02*
X120500000Y-56025000D01*
X122020000Y-50825000D02*
X123040000Y-50825000D01*
X122020000Y-56025000D02*
X123040000Y-56025000D01*
X124560000Y-50825000D02*
X125580000Y-50825000D01*
X124560000Y-56025000D02*
X125580000Y-56025000D01*
X127100000Y-50825000D02*
X128120000Y-50825000D01*
X127100000Y-56025000D02*
X128120000Y-56025000D01*
X129640000Y-50825000D02*
X130210000Y-50825000D01*
X129640000Y-56025000D02*
X130210000Y-56025000D01*
X130210000Y-56025000D02*
X130210000Y-50825000D01*
%TO.C,U7*%
X134140000Y-89640000D02*
X134140000Y-90590000D01*
X134140000Y-90590000D02*
X132800000Y-90590000D01*
X134140000Y-99860000D02*
X134140000Y-98910000D01*
X135090000Y-89640000D02*
X134140000Y-89640000D01*
X135090000Y-99860000D02*
X134140000Y-99860000D01*
X143410000Y-89640000D02*
X144360000Y-89640000D01*
X143410000Y-99860000D02*
X144360000Y-99860000D01*
X144360000Y-89640000D02*
X144360000Y-90590000D01*
X144360000Y-99860000D02*
X144360000Y-98910000D01*
D12*
%TO.C,D6*%
X111000000Y-115375000D02*
X108300000Y-115375000D01*
X111950000Y-116925000D02*
X108300000Y-116925000D01*
D11*
%TO.C,R9*%
X114227064Y-115415000D02*
X113772936Y-115415000D01*
X114227064Y-116885000D02*
X113772936Y-116885000D01*
%TO.C,R14*%
X106370000Y-59643641D02*
X106370000Y-59336359D01*
X107130000Y-59643641D02*
X107130000Y-59336359D01*
%TO.C,C21*%
X146590000Y-89790580D02*
X146590000Y-89509420D01*
X147610000Y-89790580D02*
X147610000Y-89509420D01*
%TO.C,C6*%
X142140000Y-126761252D02*
X142140000Y-125338748D01*
X144860000Y-126761252D02*
X144860000Y-125338748D01*
%TO.C,Y1*%
X126600000Y-90150000D02*
X126600000Y-95450000D01*
X130300000Y-90150000D02*
X126600000Y-90150000D01*
%TO.C,C19*%
X144890000Y-89407836D02*
X144890000Y-89192164D01*
X145610000Y-89407836D02*
X145610000Y-89192164D01*
%TO.C,C7*%
X145682836Y-53915000D02*
X145467164Y-53915000D01*
X145682836Y-54635000D02*
X145467164Y-54635000D01*
%TO.C,J1*%
X145650000Y-140090000D02*
X146760000Y-140090000D01*
X145650000Y-143800000D02*
X146760000Y-143800000D01*
X148440000Y-140090000D02*
X149550000Y-140090000D01*
X148440000Y-143800000D02*
X149550000Y-143800000D01*
%TO.C,C17*%
X134140000Y-87707836D02*
X134140000Y-87492164D01*
X134860000Y-87707836D02*
X134860000Y-87492164D01*
%TO.C,C4*%
X151165000Y-65838748D02*
X151165000Y-67261252D01*
X153885000Y-65838748D02*
X153885000Y-67261252D01*
%TO.C,J7*%
X129145000Y-140090000D02*
X130255000Y-140090000D01*
X129145000Y-143800000D02*
X130255000Y-143800000D01*
X131935000Y-140090000D02*
X133045000Y-140090000D01*
X131935000Y-143800000D02*
X133045000Y-143800000D01*
%TO.C,C16*%
X136007836Y-101840000D02*
X135792164Y-101840000D01*
X136007836Y-102560000D02*
X135792164Y-102560000D01*
D12*
%TO.C,D2*%
X145500000Y-115075000D02*
X145500000Y-111425000D01*
X147050000Y-114125000D02*
X147050000Y-111425000D01*
D11*
%TO.C,R2*%
X150915000Y-119672936D02*
X150915000Y-120127064D01*
X152385000Y-119672936D02*
X152385000Y-120127064D01*
%TO.C,R3*%
X148327064Y-115415000D02*
X147872936Y-115415000D01*
X148327064Y-116885000D02*
X147872936Y-116885000D01*
D14*
%TO.C,BT2*%
X148583000Y-76240000D02*
G75*
G02*
X149630000Y-76390000I98151J-3043933D01*
G01*
X150439999Y-80400000D02*
G75*
G02*
X146400000Y-78590000I-1645136J1741712D01*
G01*
D11*
%TO.C,R15*%
X133721359Y-136470000D02*
X134028641Y-136470000D01*
X133721359Y-137230000D02*
X134028641Y-137230000D01*
%TO.C,R5*%
X143665000Y-71702064D02*
X143665000Y-71247936D01*
X145135000Y-71702064D02*
X145135000Y-71247936D01*
%TO.C,C15*%
X132407836Y-89590000D02*
X132192164Y-89590000D01*
X132407836Y-90310000D02*
X132192164Y-90310000D01*
D14*
%TO.C,BT4*%
X111160001Y-110179388D02*
G75*
G02*
X115200000Y-111989388I1645136J-1741712D01*
G01*
X113017000Y-114339388D02*
G75*
G02*
X111970000Y-114189388I-98151J3043933D01*
G01*
D11*
%TO.C,D5*%
X134295000Y-114515000D02*
X134295000Y-117375000D01*
X136215000Y-114515000D02*
X134295000Y-114515000D01*
X136215000Y-117375000D02*
X136215000Y-114515000D01*
%TO.C,C24*%
X108640000Y-126761252D02*
X108640000Y-125338748D01*
X111360000Y-126761252D02*
X111360000Y-125338748D01*
%TO.C,C9*%
X116842164Y-137515000D02*
X117057836Y-137515000D01*
X116842164Y-138235000D02*
X117057836Y-138235000D01*
%TO.C,C20*%
X143934420Y-102265000D02*
X144215580Y-102265000D01*
X143934420Y-103285000D02*
X144215580Y-103285000D01*
%TO.C,C28*%
X125640000Y-126761252D02*
X125640000Y-125338748D01*
X128360000Y-126761252D02*
X128360000Y-125338748D01*
%TO.C,R7*%
X116821359Y-136445000D02*
X117128641Y-136445000D01*
X116821359Y-137205000D02*
X117128641Y-137205000D01*
%TO.C,C25*%
X133742164Y-137540000D02*
X133957836Y-137540000D01*
X133742164Y-138260000D02*
X133957836Y-138260000D01*
%TO.C,D7*%
X104640000Y-58415000D02*
X104640000Y-60700000D01*
X104640000Y-60700000D02*
X106110000Y-60700000D01*
X106110000Y-60700000D02*
X106110000Y-58415000D01*
%TO.C,R12*%
X139596359Y-101780000D02*
X139903641Y-101780000D01*
X139596359Y-102540000D02*
X139903641Y-102540000D01*
D13*
%TO.C,RCS1*%
X187000000Y-63642500D02*
X188500000Y-63642500D01*
X187000000Y-65742500D02*
X187000000Y-63642500D01*
X187000000Y-69242500D02*
X187000000Y-70742500D01*
X187000000Y-70742500D02*
X187000000Y-70842500D01*
X187000000Y-70842500D02*
X188500000Y-70842500D01*
X191000000Y-70842500D02*
X191000000Y-63642500D01*
X191050000Y-64242500D02*
X192000000Y-64242500D01*
X191050000Y-70242500D02*
X192000000Y-70242500D01*
X192000000Y-70242500D02*
X192000000Y-64242500D01*
D11*
%TO.C,D8*%
X117240000Y-114515000D02*
X117240000Y-117375000D01*
X119160000Y-114515000D02*
X117240000Y-114515000D01*
X119160000Y-117375000D02*
X119160000Y-114515000D01*
%TO.C,D3*%
X143465000Y-74100000D02*
X143465000Y-76960000D01*
X143465000Y-76960000D02*
X145385000Y-76960000D01*
X145385000Y-76960000D02*
X145385000Y-74100000D01*
%TO.C,R11*%
X135903641Y-84600000D02*
X135596359Y-84600000D01*
X135903641Y-85360000D02*
X135596359Y-85360000D01*
%TO.C,R6*%
X147397936Y-73565000D02*
X147852064Y-73565000D01*
X147397936Y-75035000D02*
X147852064Y-75035000D01*
D14*
%TO.C,BT3*%
X128360001Y-110179388D02*
G75*
G02*
X132400000Y-111989388I1645136J-1741712D01*
G01*
X130217000Y-114339388D02*
G75*
G02*
X129170000Y-114189388I-98151J3043933D01*
G01*
D11*
%TO.C,R1*%
X150246359Y-136445000D02*
X150553641Y-136445000D01*
X150246359Y-137205000D02*
X150553641Y-137205000D01*
%TO.C,C18*%
X133040000Y-87707836D02*
X133040000Y-87492164D01*
X133760000Y-87707836D02*
X133760000Y-87492164D01*
%TO.C,C22*%
X114261252Y-119015000D02*
X113738748Y-119015000D01*
X114261252Y-120485000D02*
X113738748Y-120485000D01*
%TO.C,C8*%
X147388748Y-71015000D02*
X147911252Y-71015000D01*
X147388748Y-72485000D02*
X147911252Y-72485000D01*
%TO.C,C26*%
X131461252Y-118515000D02*
X130938748Y-118515000D01*
X131461252Y-119985000D02*
X130938748Y-119985000D01*
%TO.C,R8*%
X117465000Y-119672936D02*
X117465000Y-120127064D01*
X118935000Y-119672936D02*
X118935000Y-120127064D01*
D12*
%TO.C,D9*%
X149700000Y-73525000D02*
X153350000Y-73525000D01*
X150650000Y-75075000D02*
X153350000Y-75075000D01*
D14*
%TO.C,BT1*%
X148690000Y-112146388D02*
G75*
G02*
X148840000Y-111099388I3043933J98151D01*
G01*
X152850000Y-110289389D02*
G75*
G02*
X151040000Y-114329388I-1741712J-1645136D01*
G01*
D11*
%TO.C,D1*%
X151650000Y-118110000D02*
X154510000Y-118110000D01*
X154510000Y-116190000D02*
X151650000Y-116190000D01*
X154510000Y-118110000D02*
X154510000Y-116190000D01*
D12*
%TO.C,U2*%
X140000000Y-67800000D02*
X140000000Y-58200000D01*
D13*
X140650000Y-69100000D02*
X140650000Y-69100000D01*
X140650000Y-69200000D02*
X140650000Y-69200000D01*
D12*
X150100000Y-67800000D02*
X150100000Y-58200000D01*
D13*
X140650000Y-69100000D02*
G75*
G02*
X140650000Y-69200000I0J-50000D01*
G01*
X140650000Y-69200000D02*
G75*
G02*
X140650000Y-69100000I0J50000D01*
G01*
D11*
%TO.C,C11*%
X128557836Y-95740000D02*
X128342164Y-95740000D01*
X128557836Y-96460000D02*
X128342164Y-96460000D01*
%TO.C,R4*%
X145703641Y-54920000D02*
X145396359Y-54920000D01*
X145703641Y-55680000D02*
X145396359Y-55680000D01*
D12*
%TO.C,D4*%
X128275000Y-115375000D02*
X125575000Y-115375000D01*
X129225000Y-116925000D02*
X125575000Y-116925000D01*
D11*
%TO.C,R13*%
X130720000Y-93196359D02*
X130720000Y-93503641D01*
X131480000Y-93196359D02*
X131480000Y-93503641D01*
D14*
%TO.C,J4*%
X164600000Y-54010000D02*
X164600000Y-54610000D01*
X164600000Y-54610000D02*
X165100000Y-54310000D01*
X165100000Y-54310000D02*
X164600000Y-54010000D01*
X165575000Y-45410000D02*
X190425000Y-45410000D01*
X165575000Y-55320000D02*
X165575000Y-45410000D01*
X165575000Y-55320000D02*
X166300000Y-55320000D01*
X190425000Y-45410000D02*
X190425000Y-55320000D01*
X190425000Y-55320000D02*
X189700000Y-55320000D01*
%TD*%
M02*
