%TF.GenerationSoftware,KiCad,Pcbnew,9.0.7-9.0.7~ubuntu22.04.1*%
%TF.CreationDate,2026-03-18T15:25:34+04:00*%
%TF.ProjectId,GPSComputer_3.2.01,47505343-6f6d-4707-9574-65725f332e32,rev?*%
%TF.SameCoordinates,Original*%
%TF.FileFunction,OtherDrawing,Comment*%
%FSLAX46Y46*%
G04 Gerber Fmt 4.6, Leading zero omitted, Abs format (unit mm)*
G04 Created by KiCad (PCBNEW 9.0.7-9.0.7~ubuntu22.04.1) date 2026-03-18 15:25:34*
%MOMM*%
%LPD*%
G01*
G04 APERTURE LIST*
%ADD10C,0.150000*%
%ADD11C,0.100000*%
G04 APERTURE END LIST*
D10*
X200273809Y-68478628D02*
X200273809Y-68954819D01*
X199940476Y-67954819D02*
X200273809Y-68478628D01*
X200273809Y-68478628D02*
X200607142Y-67954819D01*
X201702381Y-68431009D02*
X202464286Y-68431009D01*
X202464286Y-68716723D02*
X201702381Y-68716723D01*
X204130952Y-67954819D02*
X203940476Y-67954819D01*
X203940476Y-67954819D02*
X203845238Y-68002438D01*
X203845238Y-68002438D02*
X203797619Y-68050057D01*
X203797619Y-68050057D02*
X203702381Y-68192914D01*
X203702381Y-68192914D02*
X203654762Y-68383390D01*
X203654762Y-68383390D02*
X203654762Y-68764342D01*
X203654762Y-68764342D02*
X203702381Y-68859580D01*
X203702381Y-68859580D02*
X203750000Y-68907200D01*
X203750000Y-68907200D02*
X203845238Y-68954819D01*
X203845238Y-68954819D02*
X204035714Y-68954819D01*
X204035714Y-68954819D02*
X204130952Y-68907200D01*
X204130952Y-68907200D02*
X204178571Y-68859580D01*
X204178571Y-68859580D02*
X204226190Y-68764342D01*
X204226190Y-68764342D02*
X204226190Y-68526247D01*
X204226190Y-68526247D02*
X204178571Y-68431009D01*
X204178571Y-68431009D02*
X204130952Y-68383390D01*
X204130952Y-68383390D02*
X204035714Y-68335771D01*
X204035714Y-68335771D02*
X203845238Y-68335771D01*
X203845238Y-68335771D02*
X203750000Y-68383390D01*
X203750000Y-68383390D02*
X203702381Y-68431009D01*
X203702381Y-68431009D02*
X203654762Y-68526247D01*
X204559524Y-67954819D02*
X205226190Y-67954819D01*
X205226190Y-67954819D02*
X204797619Y-68954819D01*
X205607143Y-68859580D02*
X205654762Y-68907200D01*
X205654762Y-68907200D02*
X205607143Y-68954819D01*
X205607143Y-68954819D02*
X205559524Y-68907200D01*
X205559524Y-68907200D02*
X205607143Y-68859580D01*
X205607143Y-68859580D02*
X205607143Y-68954819D01*
X206035714Y-68050057D02*
X206083333Y-68002438D01*
X206083333Y-68002438D02*
X206178571Y-67954819D01*
X206178571Y-67954819D02*
X206416666Y-67954819D01*
X206416666Y-67954819D02*
X206511904Y-68002438D01*
X206511904Y-68002438D02*
X206559523Y-68050057D01*
X206559523Y-68050057D02*
X206607142Y-68145295D01*
X206607142Y-68145295D02*
X206607142Y-68240533D01*
X206607142Y-68240533D02*
X206559523Y-68383390D01*
X206559523Y-68383390D02*
X205988095Y-68954819D01*
X205988095Y-68954819D02*
X206607142Y-68954819D01*
X207464285Y-68288152D02*
X207464285Y-68954819D01*
X207226190Y-67907200D02*
X206988095Y-68621485D01*
X206988095Y-68621485D02*
X207607142Y-68621485D01*
X207940476Y-68050057D02*
X207988095Y-68002438D01*
X207988095Y-68002438D02*
X208083333Y-67954819D01*
X208083333Y-67954819D02*
X208321428Y-67954819D01*
X208321428Y-67954819D02*
X208416666Y-68002438D01*
X208416666Y-68002438D02*
X208464285Y-68050057D01*
X208464285Y-68050057D02*
X208511904Y-68145295D01*
X208511904Y-68145295D02*
X208511904Y-68240533D01*
X208511904Y-68240533D02*
X208464285Y-68383390D01*
X208464285Y-68383390D02*
X207892857Y-68954819D01*
X207892857Y-68954819D02*
X208511904Y-68954819D01*
X209416666Y-67954819D02*
X208940476Y-67954819D01*
X208940476Y-67954819D02*
X208892857Y-68431009D01*
X208892857Y-68431009D02*
X208940476Y-68383390D01*
X208940476Y-68383390D02*
X209035714Y-68335771D01*
X209035714Y-68335771D02*
X209273809Y-68335771D01*
X209273809Y-68335771D02*
X209369047Y-68383390D01*
X209369047Y-68383390D02*
X209416666Y-68431009D01*
X209416666Y-68431009D02*
X209464285Y-68526247D01*
X209464285Y-68526247D02*
X209464285Y-68764342D01*
X209464285Y-68764342D02*
X209416666Y-68859580D01*
X209416666Y-68859580D02*
X209369047Y-68907200D01*
X209369047Y-68907200D02*
X209273809Y-68954819D01*
X209273809Y-68954819D02*
X209035714Y-68954819D01*
X209035714Y-68954819D02*
X208940476Y-68907200D01*
X208940476Y-68907200D02*
X208892857Y-68859580D01*
X161600057Y-50792856D02*
X161552438Y-50745237D01*
X161552438Y-50745237D02*
X161504819Y-50649999D01*
X161504819Y-50649999D02*
X161504819Y-50411904D01*
X161504819Y-50411904D02*
X161552438Y-50316666D01*
X161552438Y-50316666D02*
X161600057Y-50269047D01*
X161600057Y-50269047D02*
X161695295Y-50221428D01*
X161695295Y-50221428D02*
X161790533Y-50221428D01*
X161790533Y-50221428D02*
X161933390Y-50269047D01*
X161933390Y-50269047D02*
X162504819Y-50840475D01*
X162504819Y-50840475D02*
X162504819Y-50221428D01*
X162409580Y-49792856D02*
X162457200Y-49745237D01*
X162457200Y-49745237D02*
X162504819Y-49792856D01*
X162504819Y-49792856D02*
X162457200Y-49840475D01*
X162457200Y-49840475D02*
X162409580Y-49792856D01*
X162409580Y-49792856D02*
X162504819Y-49792856D01*
X161504819Y-48840476D02*
X161504819Y-49316666D01*
X161504819Y-49316666D02*
X161981009Y-49364285D01*
X161981009Y-49364285D02*
X161933390Y-49316666D01*
X161933390Y-49316666D02*
X161885771Y-49221428D01*
X161885771Y-49221428D02*
X161885771Y-48983333D01*
X161885771Y-48983333D02*
X161933390Y-48888095D01*
X161933390Y-48888095D02*
X161981009Y-48840476D01*
X161981009Y-48840476D02*
X162076247Y-48792857D01*
X162076247Y-48792857D02*
X162314342Y-48792857D01*
X162314342Y-48792857D02*
X162409580Y-48840476D01*
X162409580Y-48840476D02*
X162457200Y-48888095D01*
X162457200Y-48888095D02*
X162504819Y-48983333D01*
X162504819Y-48983333D02*
X162504819Y-49221428D01*
X162504819Y-49221428D02*
X162457200Y-49316666D01*
X162457200Y-49316666D02*
X162409580Y-49364285D01*
X161504819Y-48173809D02*
X161504819Y-48078571D01*
X161504819Y-48078571D02*
X161552438Y-47983333D01*
X161552438Y-47983333D02*
X161600057Y-47935714D01*
X161600057Y-47935714D02*
X161695295Y-47888095D01*
X161695295Y-47888095D02*
X161885771Y-47840476D01*
X161885771Y-47840476D02*
X162123866Y-47840476D01*
X162123866Y-47840476D02*
X162314342Y-47888095D01*
X162314342Y-47888095D02*
X162409580Y-47935714D01*
X162409580Y-47935714D02*
X162457200Y-47983333D01*
X162457200Y-47983333D02*
X162504819Y-48078571D01*
X162504819Y-48078571D02*
X162504819Y-48173809D01*
X162504819Y-48173809D02*
X162457200Y-48269047D01*
X162457200Y-48269047D02*
X162409580Y-48316666D01*
X162409580Y-48316666D02*
X162314342Y-48364285D01*
X162314342Y-48364285D02*
X162123866Y-48411904D01*
X162123866Y-48411904D02*
X161885771Y-48411904D01*
X161885771Y-48411904D02*
X161695295Y-48364285D01*
X161695295Y-48364285D02*
X161600057Y-48316666D01*
X161600057Y-48316666D02*
X161552438Y-48269047D01*
X161552438Y-48269047D02*
X161504819Y-48173809D01*
X161504819Y-47221428D02*
X161504819Y-47126190D01*
X161504819Y-47126190D02*
X161552438Y-47030952D01*
X161552438Y-47030952D02*
X161600057Y-46983333D01*
X161600057Y-46983333D02*
X161695295Y-46935714D01*
X161695295Y-46935714D02*
X161885771Y-46888095D01*
X161885771Y-46888095D02*
X162123866Y-46888095D01*
X162123866Y-46888095D02*
X162314342Y-46935714D01*
X162314342Y-46935714D02*
X162409580Y-46983333D01*
X162409580Y-46983333D02*
X162457200Y-47030952D01*
X162457200Y-47030952D02*
X162504819Y-47126190D01*
X162504819Y-47126190D02*
X162504819Y-47221428D01*
X162504819Y-47221428D02*
X162457200Y-47316666D01*
X162457200Y-47316666D02*
X162409580Y-47364285D01*
X162409580Y-47364285D02*
X162314342Y-47411904D01*
X162314342Y-47411904D02*
X162123866Y-47459523D01*
X162123866Y-47459523D02*
X161885771Y-47459523D01*
X161885771Y-47459523D02*
X161695295Y-47411904D01*
X161695295Y-47411904D02*
X161600057Y-47364285D01*
X161600057Y-47364285D02*
X161552438Y-47316666D01*
X161552438Y-47316666D02*
X161504819Y-47221428D01*
X161504819Y-46269047D02*
X161504819Y-46173809D01*
X161504819Y-46173809D02*
X161552438Y-46078571D01*
X161552438Y-46078571D02*
X161600057Y-46030952D01*
X161600057Y-46030952D02*
X161695295Y-45983333D01*
X161695295Y-45983333D02*
X161885771Y-45935714D01*
X161885771Y-45935714D02*
X162123866Y-45935714D01*
X162123866Y-45935714D02*
X162314342Y-45983333D01*
X162314342Y-45983333D02*
X162409580Y-46030952D01*
X162409580Y-46030952D02*
X162457200Y-46078571D01*
X162457200Y-46078571D02*
X162504819Y-46173809D01*
X162504819Y-46173809D02*
X162504819Y-46269047D01*
X162504819Y-46269047D02*
X162457200Y-46364285D01*
X162457200Y-46364285D02*
X162409580Y-46411904D01*
X162409580Y-46411904D02*
X162314342Y-46459523D01*
X162314342Y-46459523D02*
X162123866Y-46507142D01*
X162123866Y-46507142D02*
X161885771Y-46507142D01*
X161885771Y-46507142D02*
X161695295Y-46459523D01*
X161695295Y-46459523D02*
X161600057Y-46411904D01*
X161600057Y-46411904D02*
X161552438Y-46364285D01*
X161552438Y-46364285D02*
X161504819Y-46269047D01*
X162504819Y-44745237D02*
X161838152Y-44745237D01*
X161933390Y-44745237D02*
X161885771Y-44697618D01*
X161885771Y-44697618D02*
X161838152Y-44602380D01*
X161838152Y-44602380D02*
X161838152Y-44459523D01*
X161838152Y-44459523D02*
X161885771Y-44364285D01*
X161885771Y-44364285D02*
X161981009Y-44316666D01*
X161981009Y-44316666D02*
X162504819Y-44316666D01*
X161981009Y-44316666D02*
X161885771Y-44269047D01*
X161885771Y-44269047D02*
X161838152Y-44173809D01*
X161838152Y-44173809D02*
X161838152Y-44030952D01*
X161838152Y-44030952D02*
X161885771Y-43935713D01*
X161885771Y-43935713D02*
X161981009Y-43888094D01*
X161981009Y-43888094D02*
X162504819Y-43888094D01*
X162504819Y-43411904D02*
X161838152Y-43411904D01*
X161933390Y-43411904D02*
X161885771Y-43364285D01*
X161885771Y-43364285D02*
X161838152Y-43269047D01*
X161838152Y-43269047D02*
X161838152Y-43126190D01*
X161838152Y-43126190D02*
X161885771Y-43030952D01*
X161885771Y-43030952D02*
X161981009Y-42983333D01*
X161981009Y-42983333D02*
X162504819Y-42983333D01*
X161981009Y-42983333D02*
X161885771Y-42935714D01*
X161885771Y-42935714D02*
X161838152Y-42840476D01*
X161838152Y-42840476D02*
X161838152Y-42697619D01*
X161838152Y-42697619D02*
X161885771Y-42602380D01*
X161885771Y-42602380D02*
X161981009Y-42554761D01*
X161981009Y-42554761D02*
X162504819Y-42554761D01*
X189700000Y-47900000D02*
X162613580Y-47900000D01*
X189700000Y-45400000D02*
X162613580Y-45400000D01*
X163200000Y-47900000D02*
X163200000Y-45400000D01*
X163200000Y-47900000D02*
X162613579Y-46773496D01*
X163200000Y-47900000D02*
X163786421Y-46773496D01*
X163200000Y-45400000D02*
X163786421Y-46526504D01*
X163200000Y-45400000D02*
X162613579Y-46526504D01*
X88500057Y-149492856D02*
X88452438Y-149445237D01*
X88452438Y-149445237D02*
X88404819Y-149349999D01*
X88404819Y-149349999D02*
X88404819Y-149111904D01*
X88404819Y-149111904D02*
X88452438Y-149016666D01*
X88452438Y-149016666D02*
X88500057Y-148969047D01*
X88500057Y-148969047D02*
X88595295Y-148921428D01*
X88595295Y-148921428D02*
X88690533Y-148921428D01*
X88690533Y-148921428D02*
X88833390Y-148969047D01*
X88833390Y-148969047D02*
X89404819Y-149540475D01*
X89404819Y-149540475D02*
X89404819Y-148921428D01*
X89309580Y-148492856D02*
X89357200Y-148445237D01*
X89357200Y-148445237D02*
X89404819Y-148492856D01*
X89404819Y-148492856D02*
X89357200Y-148540475D01*
X89357200Y-148540475D02*
X89309580Y-148492856D01*
X89309580Y-148492856D02*
X89404819Y-148492856D01*
X88404819Y-147540476D02*
X88404819Y-148016666D01*
X88404819Y-148016666D02*
X88881009Y-148064285D01*
X88881009Y-148064285D02*
X88833390Y-148016666D01*
X88833390Y-148016666D02*
X88785771Y-147921428D01*
X88785771Y-147921428D02*
X88785771Y-147683333D01*
X88785771Y-147683333D02*
X88833390Y-147588095D01*
X88833390Y-147588095D02*
X88881009Y-147540476D01*
X88881009Y-147540476D02*
X88976247Y-147492857D01*
X88976247Y-147492857D02*
X89214342Y-147492857D01*
X89214342Y-147492857D02*
X89309580Y-147540476D01*
X89309580Y-147540476D02*
X89357200Y-147588095D01*
X89357200Y-147588095D02*
X89404819Y-147683333D01*
X89404819Y-147683333D02*
X89404819Y-147921428D01*
X89404819Y-147921428D02*
X89357200Y-148016666D01*
X89357200Y-148016666D02*
X89309580Y-148064285D01*
X88404819Y-146873809D02*
X88404819Y-146778571D01*
X88404819Y-146778571D02*
X88452438Y-146683333D01*
X88452438Y-146683333D02*
X88500057Y-146635714D01*
X88500057Y-146635714D02*
X88595295Y-146588095D01*
X88595295Y-146588095D02*
X88785771Y-146540476D01*
X88785771Y-146540476D02*
X89023866Y-146540476D01*
X89023866Y-146540476D02*
X89214342Y-146588095D01*
X89214342Y-146588095D02*
X89309580Y-146635714D01*
X89309580Y-146635714D02*
X89357200Y-146683333D01*
X89357200Y-146683333D02*
X89404819Y-146778571D01*
X89404819Y-146778571D02*
X89404819Y-146873809D01*
X89404819Y-146873809D02*
X89357200Y-146969047D01*
X89357200Y-146969047D02*
X89309580Y-147016666D01*
X89309580Y-147016666D02*
X89214342Y-147064285D01*
X89214342Y-147064285D02*
X89023866Y-147111904D01*
X89023866Y-147111904D02*
X88785771Y-147111904D01*
X88785771Y-147111904D02*
X88595295Y-147064285D01*
X88595295Y-147064285D02*
X88500057Y-147016666D01*
X88500057Y-147016666D02*
X88452438Y-146969047D01*
X88452438Y-146969047D02*
X88404819Y-146873809D01*
X88404819Y-145921428D02*
X88404819Y-145826190D01*
X88404819Y-145826190D02*
X88452438Y-145730952D01*
X88452438Y-145730952D02*
X88500057Y-145683333D01*
X88500057Y-145683333D02*
X88595295Y-145635714D01*
X88595295Y-145635714D02*
X88785771Y-145588095D01*
X88785771Y-145588095D02*
X89023866Y-145588095D01*
X89023866Y-145588095D02*
X89214342Y-145635714D01*
X89214342Y-145635714D02*
X89309580Y-145683333D01*
X89309580Y-145683333D02*
X89357200Y-145730952D01*
X89357200Y-145730952D02*
X89404819Y-145826190D01*
X89404819Y-145826190D02*
X89404819Y-145921428D01*
X89404819Y-145921428D02*
X89357200Y-146016666D01*
X89357200Y-146016666D02*
X89309580Y-146064285D01*
X89309580Y-146064285D02*
X89214342Y-146111904D01*
X89214342Y-146111904D02*
X89023866Y-146159523D01*
X89023866Y-146159523D02*
X88785771Y-146159523D01*
X88785771Y-146159523D02*
X88595295Y-146111904D01*
X88595295Y-146111904D02*
X88500057Y-146064285D01*
X88500057Y-146064285D02*
X88452438Y-146016666D01*
X88452438Y-146016666D02*
X88404819Y-145921428D01*
X88404819Y-144969047D02*
X88404819Y-144873809D01*
X88404819Y-144873809D02*
X88452438Y-144778571D01*
X88452438Y-144778571D02*
X88500057Y-144730952D01*
X88500057Y-144730952D02*
X88595295Y-144683333D01*
X88595295Y-144683333D02*
X88785771Y-144635714D01*
X88785771Y-144635714D02*
X89023866Y-144635714D01*
X89023866Y-144635714D02*
X89214342Y-144683333D01*
X89214342Y-144683333D02*
X89309580Y-144730952D01*
X89309580Y-144730952D02*
X89357200Y-144778571D01*
X89357200Y-144778571D02*
X89404819Y-144873809D01*
X89404819Y-144873809D02*
X89404819Y-144969047D01*
X89404819Y-144969047D02*
X89357200Y-145064285D01*
X89357200Y-145064285D02*
X89309580Y-145111904D01*
X89309580Y-145111904D02*
X89214342Y-145159523D01*
X89214342Y-145159523D02*
X89023866Y-145207142D01*
X89023866Y-145207142D02*
X88785771Y-145207142D01*
X88785771Y-145207142D02*
X88595295Y-145159523D01*
X88595295Y-145159523D02*
X88500057Y-145111904D01*
X88500057Y-145111904D02*
X88452438Y-145064285D01*
X88452438Y-145064285D02*
X88404819Y-144969047D01*
X89404819Y-143445237D02*
X88738152Y-143445237D01*
X88833390Y-143445237D02*
X88785771Y-143397618D01*
X88785771Y-143397618D02*
X88738152Y-143302380D01*
X88738152Y-143302380D02*
X88738152Y-143159523D01*
X88738152Y-143159523D02*
X88785771Y-143064285D01*
X88785771Y-143064285D02*
X88881009Y-143016666D01*
X88881009Y-143016666D02*
X89404819Y-143016666D01*
X88881009Y-143016666D02*
X88785771Y-142969047D01*
X88785771Y-142969047D02*
X88738152Y-142873809D01*
X88738152Y-142873809D02*
X88738152Y-142730952D01*
X88738152Y-142730952D02*
X88785771Y-142635713D01*
X88785771Y-142635713D02*
X88881009Y-142588094D01*
X88881009Y-142588094D02*
X89404819Y-142588094D01*
X89404819Y-142111904D02*
X88738152Y-142111904D01*
X88833390Y-142111904D02*
X88785771Y-142064285D01*
X88785771Y-142064285D02*
X88738152Y-141969047D01*
X88738152Y-141969047D02*
X88738152Y-141826190D01*
X88738152Y-141826190D02*
X88785771Y-141730952D01*
X88785771Y-141730952D02*
X88881009Y-141683333D01*
X88881009Y-141683333D02*
X89404819Y-141683333D01*
X88881009Y-141683333D02*
X88785771Y-141635714D01*
X88785771Y-141635714D02*
X88738152Y-141540476D01*
X88738152Y-141540476D02*
X88738152Y-141397619D01*
X88738152Y-141397619D02*
X88785771Y-141302380D01*
X88785771Y-141302380D02*
X88881009Y-141254761D01*
X88881009Y-141254761D02*
X89404819Y-141254761D01*
X152100000Y-144100000D02*
X89513580Y-144100000D01*
X152100000Y-146600000D02*
X89513580Y-146600000D01*
X90100000Y-144100000D02*
X90100000Y-146600000D01*
X90100000Y-144100000D02*
X90686421Y-145226504D01*
X90100000Y-144100000D02*
X89513579Y-145226504D01*
X90100000Y-146600000D02*
X89513579Y-145473496D01*
X90100000Y-146600000D02*
X90686421Y-145473496D01*
X170982143Y-164388152D02*
X170982143Y-165054819D01*
X170744048Y-164007200D02*
X170505953Y-164721485D01*
X170505953Y-164721485D02*
X171125000Y-164721485D01*
X171982143Y-164054819D02*
X171505953Y-164054819D01*
X171505953Y-164054819D02*
X171458334Y-164531009D01*
X171458334Y-164531009D02*
X171505953Y-164483390D01*
X171505953Y-164483390D02*
X171601191Y-164435771D01*
X171601191Y-164435771D02*
X171839286Y-164435771D01*
X171839286Y-164435771D02*
X171934524Y-164483390D01*
X171934524Y-164483390D02*
X171982143Y-164531009D01*
X171982143Y-164531009D02*
X172029762Y-164626247D01*
X172029762Y-164626247D02*
X172029762Y-164864342D01*
X172029762Y-164864342D02*
X171982143Y-164959580D01*
X171982143Y-164959580D02*
X171934524Y-165007200D01*
X171934524Y-165007200D02*
X171839286Y-165054819D01*
X171839286Y-165054819D02*
X171601191Y-165054819D01*
X171601191Y-165054819D02*
X171505953Y-165007200D01*
X171505953Y-165007200D02*
X171458334Y-164959580D01*
X172458334Y-164959580D02*
X172505953Y-165007200D01*
X172505953Y-165007200D02*
X172458334Y-165054819D01*
X172458334Y-165054819D02*
X172410715Y-165007200D01*
X172410715Y-165007200D02*
X172458334Y-164959580D01*
X172458334Y-164959580D02*
X172458334Y-165054819D01*
X172839286Y-164054819D02*
X173505952Y-164054819D01*
X173505952Y-164054819D02*
X173077381Y-165054819D01*
X174363095Y-164054819D02*
X173886905Y-164054819D01*
X173886905Y-164054819D02*
X173839286Y-164531009D01*
X173839286Y-164531009D02*
X173886905Y-164483390D01*
X173886905Y-164483390D02*
X173982143Y-164435771D01*
X173982143Y-164435771D02*
X174220238Y-164435771D01*
X174220238Y-164435771D02*
X174315476Y-164483390D01*
X174315476Y-164483390D02*
X174363095Y-164531009D01*
X174363095Y-164531009D02*
X174410714Y-164626247D01*
X174410714Y-164626247D02*
X174410714Y-164864342D01*
X174410714Y-164864342D02*
X174363095Y-164959580D01*
X174363095Y-164959580D02*
X174315476Y-165007200D01*
X174315476Y-165007200D02*
X174220238Y-165054819D01*
X174220238Y-165054819D02*
X173982143Y-165054819D01*
X173982143Y-165054819D02*
X173886905Y-165007200D01*
X173886905Y-165007200D02*
X173839286Y-164959580D01*
X175029762Y-164054819D02*
X175125000Y-164054819D01*
X175125000Y-164054819D02*
X175220238Y-164102438D01*
X175220238Y-164102438D02*
X175267857Y-164150057D01*
X175267857Y-164150057D02*
X175315476Y-164245295D01*
X175315476Y-164245295D02*
X175363095Y-164435771D01*
X175363095Y-164435771D02*
X175363095Y-164673866D01*
X175363095Y-164673866D02*
X175315476Y-164864342D01*
X175315476Y-164864342D02*
X175267857Y-164959580D01*
X175267857Y-164959580D02*
X175220238Y-165007200D01*
X175220238Y-165007200D02*
X175125000Y-165054819D01*
X175125000Y-165054819D02*
X175029762Y-165054819D01*
X175029762Y-165054819D02*
X174934524Y-165007200D01*
X174934524Y-165007200D02*
X174886905Y-164959580D01*
X174886905Y-164959580D02*
X174839286Y-164864342D01*
X174839286Y-164864342D02*
X174791667Y-164673866D01*
X174791667Y-164673866D02*
X174791667Y-164435771D01*
X174791667Y-164435771D02*
X174839286Y-164245295D01*
X174839286Y-164245295D02*
X174886905Y-164150057D01*
X174886905Y-164150057D02*
X174934524Y-164102438D01*
X174934524Y-164102438D02*
X175029762Y-164054819D01*
X175982143Y-164054819D02*
X176077381Y-164054819D01*
X176077381Y-164054819D02*
X176172619Y-164102438D01*
X176172619Y-164102438D02*
X176220238Y-164150057D01*
X176220238Y-164150057D02*
X176267857Y-164245295D01*
X176267857Y-164245295D02*
X176315476Y-164435771D01*
X176315476Y-164435771D02*
X176315476Y-164673866D01*
X176315476Y-164673866D02*
X176267857Y-164864342D01*
X176267857Y-164864342D02*
X176220238Y-164959580D01*
X176220238Y-164959580D02*
X176172619Y-165007200D01*
X176172619Y-165007200D02*
X176077381Y-165054819D01*
X176077381Y-165054819D02*
X175982143Y-165054819D01*
X175982143Y-165054819D02*
X175886905Y-165007200D01*
X175886905Y-165007200D02*
X175839286Y-164959580D01*
X175839286Y-164959580D02*
X175791667Y-164864342D01*
X175791667Y-164864342D02*
X175744048Y-164673866D01*
X175744048Y-164673866D02*
X175744048Y-164435771D01*
X175744048Y-164435771D02*
X175791667Y-164245295D01*
X175791667Y-164245295D02*
X175839286Y-164150057D01*
X175839286Y-164150057D02*
X175886905Y-164102438D01*
X175886905Y-164102438D02*
X175982143Y-164054819D01*
X177505953Y-165054819D02*
X177505953Y-164388152D01*
X177505953Y-164483390D02*
X177553572Y-164435771D01*
X177553572Y-164435771D02*
X177648810Y-164388152D01*
X177648810Y-164388152D02*
X177791667Y-164388152D01*
X177791667Y-164388152D02*
X177886905Y-164435771D01*
X177886905Y-164435771D02*
X177934524Y-164531009D01*
X177934524Y-164531009D02*
X177934524Y-165054819D01*
X177934524Y-164531009D02*
X177982143Y-164435771D01*
X177982143Y-164435771D02*
X178077381Y-164388152D01*
X178077381Y-164388152D02*
X178220238Y-164388152D01*
X178220238Y-164388152D02*
X178315477Y-164435771D01*
X178315477Y-164435771D02*
X178363096Y-164531009D01*
X178363096Y-164531009D02*
X178363096Y-165054819D01*
X178839286Y-165054819D02*
X178839286Y-164388152D01*
X178839286Y-164483390D02*
X178886905Y-164435771D01*
X178886905Y-164435771D02*
X178982143Y-164388152D01*
X178982143Y-164388152D02*
X179125000Y-164388152D01*
X179125000Y-164388152D02*
X179220238Y-164435771D01*
X179220238Y-164435771D02*
X179267857Y-164531009D01*
X179267857Y-164531009D02*
X179267857Y-165054819D01*
X179267857Y-164531009D02*
X179315476Y-164435771D01*
X179315476Y-164435771D02*
X179410714Y-164388152D01*
X179410714Y-164388152D02*
X179553571Y-164388152D01*
X179553571Y-164388152D02*
X179648810Y-164435771D01*
X179648810Y-164435771D02*
X179696429Y-164531009D01*
X179696429Y-164531009D02*
X179696429Y-165054819D01*
X198000000Y-144500000D02*
X198000000Y-166336420D01*
X152250000Y-144500000D02*
X152250000Y-166336420D01*
X198000000Y-165750000D02*
X152250000Y-165750000D01*
X198000000Y-165750000D02*
X196873496Y-166336421D01*
X198000000Y-165750000D02*
X196873496Y-165163579D01*
X152250000Y-165750000D02*
X153376504Y-165163579D01*
X152250000Y-165750000D02*
X153376504Y-166336421D01*
X174833334Y-157704819D02*
X175452381Y-157704819D01*
X175452381Y-157704819D02*
X175119048Y-158085771D01*
X175119048Y-158085771D02*
X175261905Y-158085771D01*
X175261905Y-158085771D02*
X175357143Y-158133390D01*
X175357143Y-158133390D02*
X175404762Y-158181009D01*
X175404762Y-158181009D02*
X175452381Y-158276247D01*
X175452381Y-158276247D02*
X175452381Y-158514342D01*
X175452381Y-158514342D02*
X175404762Y-158609580D01*
X175404762Y-158609580D02*
X175357143Y-158657200D01*
X175357143Y-158657200D02*
X175261905Y-158704819D01*
X175261905Y-158704819D02*
X174976191Y-158704819D01*
X174976191Y-158704819D02*
X174880953Y-158657200D01*
X174880953Y-158657200D02*
X174833334Y-158609580D01*
X175785715Y-157704819D02*
X176452381Y-157704819D01*
X176452381Y-157704819D02*
X176023810Y-158704819D01*
X176833334Y-158609580D02*
X176880953Y-158657200D01*
X176880953Y-158657200D02*
X176833334Y-158704819D01*
X176833334Y-158704819D02*
X176785715Y-158657200D01*
X176785715Y-158657200D02*
X176833334Y-158609580D01*
X176833334Y-158609580D02*
X176833334Y-158704819D01*
X177500000Y-157704819D02*
X177595238Y-157704819D01*
X177595238Y-157704819D02*
X177690476Y-157752438D01*
X177690476Y-157752438D02*
X177738095Y-157800057D01*
X177738095Y-157800057D02*
X177785714Y-157895295D01*
X177785714Y-157895295D02*
X177833333Y-158085771D01*
X177833333Y-158085771D02*
X177833333Y-158323866D01*
X177833333Y-158323866D02*
X177785714Y-158514342D01*
X177785714Y-158514342D02*
X177738095Y-158609580D01*
X177738095Y-158609580D02*
X177690476Y-158657200D01*
X177690476Y-158657200D02*
X177595238Y-158704819D01*
X177595238Y-158704819D02*
X177500000Y-158704819D01*
X177500000Y-158704819D02*
X177404762Y-158657200D01*
X177404762Y-158657200D02*
X177357143Y-158609580D01*
X177357143Y-158609580D02*
X177309524Y-158514342D01*
X177309524Y-158514342D02*
X177261905Y-158323866D01*
X177261905Y-158323866D02*
X177261905Y-158085771D01*
X177261905Y-158085771D02*
X177309524Y-157895295D01*
X177309524Y-157895295D02*
X177357143Y-157800057D01*
X177357143Y-157800057D02*
X177404762Y-157752438D01*
X177404762Y-157752438D02*
X177500000Y-157704819D01*
X178452381Y-157704819D02*
X178547619Y-157704819D01*
X178547619Y-157704819D02*
X178642857Y-157752438D01*
X178642857Y-157752438D02*
X178690476Y-157800057D01*
X178690476Y-157800057D02*
X178738095Y-157895295D01*
X178738095Y-157895295D02*
X178785714Y-158085771D01*
X178785714Y-158085771D02*
X178785714Y-158323866D01*
X178785714Y-158323866D02*
X178738095Y-158514342D01*
X178738095Y-158514342D02*
X178690476Y-158609580D01*
X178690476Y-158609580D02*
X178642857Y-158657200D01*
X178642857Y-158657200D02*
X178547619Y-158704819D01*
X178547619Y-158704819D02*
X178452381Y-158704819D01*
X178452381Y-158704819D02*
X178357143Y-158657200D01*
X178357143Y-158657200D02*
X178309524Y-158609580D01*
X178309524Y-158609580D02*
X178261905Y-158514342D01*
X178261905Y-158514342D02*
X178214286Y-158323866D01*
X178214286Y-158323866D02*
X178214286Y-158085771D01*
X178214286Y-158085771D02*
X178261905Y-157895295D01*
X178261905Y-157895295D02*
X178309524Y-157800057D01*
X178309524Y-157800057D02*
X178357143Y-157752438D01*
X178357143Y-157752438D02*
X178452381Y-157704819D01*
X179404762Y-157704819D02*
X179500000Y-157704819D01*
X179500000Y-157704819D02*
X179595238Y-157752438D01*
X179595238Y-157752438D02*
X179642857Y-157800057D01*
X179642857Y-157800057D02*
X179690476Y-157895295D01*
X179690476Y-157895295D02*
X179738095Y-158085771D01*
X179738095Y-158085771D02*
X179738095Y-158323866D01*
X179738095Y-158323866D02*
X179690476Y-158514342D01*
X179690476Y-158514342D02*
X179642857Y-158609580D01*
X179642857Y-158609580D02*
X179595238Y-158657200D01*
X179595238Y-158657200D02*
X179500000Y-158704819D01*
X179500000Y-158704819D02*
X179404762Y-158704819D01*
X179404762Y-158704819D02*
X179309524Y-158657200D01*
X179309524Y-158657200D02*
X179261905Y-158609580D01*
X179261905Y-158609580D02*
X179214286Y-158514342D01*
X179214286Y-158514342D02*
X179166667Y-158323866D01*
X179166667Y-158323866D02*
X179166667Y-158085771D01*
X179166667Y-158085771D02*
X179214286Y-157895295D01*
X179214286Y-157895295D02*
X179261905Y-157800057D01*
X179261905Y-157800057D02*
X179309524Y-157752438D01*
X179309524Y-157752438D02*
X179404762Y-157704819D01*
X180357143Y-157704819D02*
X180452381Y-157704819D01*
X180452381Y-157704819D02*
X180547619Y-157752438D01*
X180547619Y-157752438D02*
X180595238Y-157800057D01*
X180595238Y-157800057D02*
X180642857Y-157895295D01*
X180642857Y-157895295D02*
X180690476Y-158085771D01*
X180690476Y-158085771D02*
X180690476Y-158323866D01*
X180690476Y-158323866D02*
X180642857Y-158514342D01*
X180642857Y-158514342D02*
X180595238Y-158609580D01*
X180595238Y-158609580D02*
X180547619Y-158657200D01*
X180547619Y-158657200D02*
X180452381Y-158704819D01*
X180452381Y-158704819D02*
X180357143Y-158704819D01*
X180357143Y-158704819D02*
X180261905Y-158657200D01*
X180261905Y-158657200D02*
X180214286Y-158609580D01*
X180214286Y-158609580D02*
X180166667Y-158514342D01*
X180166667Y-158514342D02*
X180119048Y-158323866D01*
X180119048Y-158323866D02*
X180119048Y-158085771D01*
X180119048Y-158085771D02*
X180166667Y-157895295D01*
X180166667Y-157895295D02*
X180214286Y-157800057D01*
X180214286Y-157800057D02*
X180261905Y-157752438D01*
X180261905Y-157752438D02*
X180357143Y-157704819D01*
X181880953Y-158704819D02*
X181880953Y-158038152D01*
X181880953Y-158133390D02*
X181928572Y-158085771D01*
X181928572Y-158085771D02*
X182023810Y-158038152D01*
X182023810Y-158038152D02*
X182166667Y-158038152D01*
X182166667Y-158038152D02*
X182261905Y-158085771D01*
X182261905Y-158085771D02*
X182309524Y-158181009D01*
X182309524Y-158181009D02*
X182309524Y-158704819D01*
X182309524Y-158181009D02*
X182357143Y-158085771D01*
X182357143Y-158085771D02*
X182452381Y-158038152D01*
X182452381Y-158038152D02*
X182595238Y-158038152D01*
X182595238Y-158038152D02*
X182690477Y-158085771D01*
X182690477Y-158085771D02*
X182738096Y-158181009D01*
X182738096Y-158181009D02*
X182738096Y-158704819D01*
X183214286Y-158704819D02*
X183214286Y-158038152D01*
X183214286Y-158133390D02*
X183261905Y-158085771D01*
X183261905Y-158085771D02*
X183357143Y-158038152D01*
X183357143Y-158038152D02*
X183500000Y-158038152D01*
X183500000Y-158038152D02*
X183595238Y-158085771D01*
X183595238Y-158085771D02*
X183642857Y-158181009D01*
X183642857Y-158181009D02*
X183642857Y-158704819D01*
X183642857Y-158181009D02*
X183690476Y-158085771D01*
X183690476Y-158085771D02*
X183785714Y-158038152D01*
X183785714Y-158038152D02*
X183928571Y-158038152D01*
X183928571Y-158038152D02*
X184023810Y-158085771D01*
X184023810Y-158085771D02*
X184071429Y-158181009D01*
X184071429Y-158181009D02*
X184071429Y-158704819D01*
X198000000Y-144500000D02*
X198000000Y-159986420D01*
X161000000Y-159986420D02*
X161000000Y-144500000D01*
X198000000Y-159400000D02*
X161000000Y-159400000D01*
X198000000Y-159400000D02*
X196873496Y-159986421D01*
X198000000Y-159400000D02*
X196873496Y-158813579D01*
X161000000Y-159400000D02*
X162126504Y-158813579D01*
X161000000Y-159400000D02*
X162126504Y-159986421D01*
D11*
X139460714Y-47391109D02*
X139460714Y-46891109D01*
X139460714Y-46891109D02*
X139651190Y-46891109D01*
X139651190Y-46891109D02*
X139698809Y-46914919D01*
X139698809Y-46914919D02*
X139722619Y-46938728D01*
X139722619Y-46938728D02*
X139746428Y-46986347D01*
X139746428Y-46986347D02*
X139746428Y-47057776D01*
X139746428Y-47057776D02*
X139722619Y-47105395D01*
X139722619Y-47105395D02*
X139698809Y-47129204D01*
X139698809Y-47129204D02*
X139651190Y-47153014D01*
X139651190Y-47153014D02*
X139460714Y-47153014D01*
X140246428Y-47343490D02*
X140222619Y-47367300D01*
X140222619Y-47367300D02*
X140151190Y-47391109D01*
X140151190Y-47391109D02*
X140103571Y-47391109D01*
X140103571Y-47391109D02*
X140032143Y-47367300D01*
X140032143Y-47367300D02*
X139984524Y-47319680D01*
X139984524Y-47319680D02*
X139960714Y-47272061D01*
X139960714Y-47272061D02*
X139936905Y-47176823D01*
X139936905Y-47176823D02*
X139936905Y-47105395D01*
X139936905Y-47105395D02*
X139960714Y-47010157D01*
X139960714Y-47010157D02*
X139984524Y-46962538D01*
X139984524Y-46962538D02*
X140032143Y-46914919D01*
X140032143Y-46914919D02*
X140103571Y-46891109D01*
X140103571Y-46891109D02*
X140151190Y-46891109D01*
X140151190Y-46891109D02*
X140222619Y-46914919D01*
X140222619Y-46914919D02*
X140246428Y-46938728D01*
X140627381Y-47129204D02*
X140698809Y-47153014D01*
X140698809Y-47153014D02*
X140722619Y-47176823D01*
X140722619Y-47176823D02*
X140746428Y-47224442D01*
X140746428Y-47224442D02*
X140746428Y-47295871D01*
X140746428Y-47295871D02*
X140722619Y-47343490D01*
X140722619Y-47343490D02*
X140698809Y-47367300D01*
X140698809Y-47367300D02*
X140651190Y-47391109D01*
X140651190Y-47391109D02*
X140460714Y-47391109D01*
X140460714Y-47391109D02*
X140460714Y-46891109D01*
X140460714Y-46891109D02*
X140627381Y-46891109D01*
X140627381Y-46891109D02*
X140675000Y-46914919D01*
X140675000Y-46914919D02*
X140698809Y-46938728D01*
X140698809Y-46938728D02*
X140722619Y-46986347D01*
X140722619Y-46986347D02*
X140722619Y-47033966D01*
X140722619Y-47033966D02*
X140698809Y-47081585D01*
X140698809Y-47081585D02*
X140675000Y-47105395D01*
X140675000Y-47105395D02*
X140627381Y-47129204D01*
X140627381Y-47129204D02*
X140460714Y-47129204D01*
X141341666Y-47129204D02*
X141508333Y-47129204D01*
X141579761Y-47391109D02*
X141341666Y-47391109D01*
X141341666Y-47391109D02*
X141341666Y-46891109D01*
X141341666Y-46891109D02*
X141579761Y-46891109D01*
X142008333Y-47391109D02*
X142008333Y-46891109D01*
X142008333Y-47367300D02*
X141960714Y-47391109D01*
X141960714Y-47391109D02*
X141865476Y-47391109D01*
X141865476Y-47391109D02*
X141817857Y-47367300D01*
X141817857Y-47367300D02*
X141794047Y-47343490D01*
X141794047Y-47343490D02*
X141770238Y-47295871D01*
X141770238Y-47295871D02*
X141770238Y-47153014D01*
X141770238Y-47153014D02*
X141794047Y-47105395D01*
X141794047Y-47105395D02*
X141817857Y-47081585D01*
X141817857Y-47081585D02*
X141865476Y-47057776D01*
X141865476Y-47057776D02*
X141960714Y-47057776D01*
X141960714Y-47057776D02*
X142008333Y-47081585D01*
X142460714Y-47057776D02*
X142460714Y-47462538D01*
X142460714Y-47462538D02*
X142436904Y-47510157D01*
X142436904Y-47510157D02*
X142413095Y-47533966D01*
X142413095Y-47533966D02*
X142365476Y-47557776D01*
X142365476Y-47557776D02*
X142294047Y-47557776D01*
X142294047Y-47557776D02*
X142246428Y-47533966D01*
X142460714Y-47367300D02*
X142413095Y-47391109D01*
X142413095Y-47391109D02*
X142317857Y-47391109D01*
X142317857Y-47391109D02*
X142270238Y-47367300D01*
X142270238Y-47367300D02*
X142246428Y-47343490D01*
X142246428Y-47343490D02*
X142222619Y-47295871D01*
X142222619Y-47295871D02*
X142222619Y-47153014D01*
X142222619Y-47153014D02*
X142246428Y-47105395D01*
X142246428Y-47105395D02*
X142270238Y-47081585D01*
X142270238Y-47081585D02*
X142317857Y-47057776D01*
X142317857Y-47057776D02*
X142413095Y-47057776D01*
X142413095Y-47057776D02*
X142460714Y-47081585D01*
X142889285Y-47367300D02*
X142841666Y-47391109D01*
X142841666Y-47391109D02*
X142746428Y-47391109D01*
X142746428Y-47391109D02*
X142698809Y-47367300D01*
X142698809Y-47367300D02*
X142675000Y-47319680D01*
X142675000Y-47319680D02*
X142675000Y-47129204D01*
X142675000Y-47129204D02*
X142698809Y-47081585D01*
X142698809Y-47081585D02*
X142746428Y-47057776D01*
X142746428Y-47057776D02*
X142841666Y-47057776D01*
X142841666Y-47057776D02*
X142889285Y-47081585D01*
X142889285Y-47081585D02*
X142913095Y-47129204D01*
X142913095Y-47129204D02*
X142913095Y-47176823D01*
X142913095Y-47176823D02*
X142675000Y-47224442D01*
X152685714Y-145076109D02*
X152685714Y-144576109D01*
X152685714Y-144576109D02*
X152876190Y-144576109D01*
X152876190Y-144576109D02*
X152923809Y-144599919D01*
X152923809Y-144599919D02*
X152947619Y-144623728D01*
X152947619Y-144623728D02*
X152971428Y-144671347D01*
X152971428Y-144671347D02*
X152971428Y-144742776D01*
X152971428Y-144742776D02*
X152947619Y-144790395D01*
X152947619Y-144790395D02*
X152923809Y-144814204D01*
X152923809Y-144814204D02*
X152876190Y-144838014D01*
X152876190Y-144838014D02*
X152685714Y-144838014D01*
X153471428Y-145028490D02*
X153447619Y-145052300D01*
X153447619Y-145052300D02*
X153376190Y-145076109D01*
X153376190Y-145076109D02*
X153328571Y-145076109D01*
X153328571Y-145076109D02*
X153257143Y-145052300D01*
X153257143Y-145052300D02*
X153209524Y-145004680D01*
X153209524Y-145004680D02*
X153185714Y-144957061D01*
X153185714Y-144957061D02*
X153161905Y-144861823D01*
X153161905Y-144861823D02*
X153161905Y-144790395D01*
X153161905Y-144790395D02*
X153185714Y-144695157D01*
X153185714Y-144695157D02*
X153209524Y-144647538D01*
X153209524Y-144647538D02*
X153257143Y-144599919D01*
X153257143Y-144599919D02*
X153328571Y-144576109D01*
X153328571Y-144576109D02*
X153376190Y-144576109D01*
X153376190Y-144576109D02*
X153447619Y-144599919D01*
X153447619Y-144599919D02*
X153471428Y-144623728D01*
X153852381Y-144814204D02*
X153923809Y-144838014D01*
X153923809Y-144838014D02*
X153947619Y-144861823D01*
X153947619Y-144861823D02*
X153971428Y-144909442D01*
X153971428Y-144909442D02*
X153971428Y-144980871D01*
X153971428Y-144980871D02*
X153947619Y-145028490D01*
X153947619Y-145028490D02*
X153923809Y-145052300D01*
X153923809Y-145052300D02*
X153876190Y-145076109D01*
X153876190Y-145076109D02*
X153685714Y-145076109D01*
X153685714Y-145076109D02*
X153685714Y-144576109D01*
X153685714Y-144576109D02*
X153852381Y-144576109D01*
X153852381Y-144576109D02*
X153900000Y-144599919D01*
X153900000Y-144599919D02*
X153923809Y-144623728D01*
X153923809Y-144623728D02*
X153947619Y-144671347D01*
X153947619Y-144671347D02*
X153947619Y-144718966D01*
X153947619Y-144718966D02*
X153923809Y-144766585D01*
X153923809Y-144766585D02*
X153900000Y-144790395D01*
X153900000Y-144790395D02*
X153852381Y-144814204D01*
X153852381Y-144814204D02*
X153685714Y-144814204D01*
X154566666Y-144814204D02*
X154733333Y-144814204D01*
X154804761Y-145076109D02*
X154566666Y-145076109D01*
X154566666Y-145076109D02*
X154566666Y-144576109D01*
X154566666Y-144576109D02*
X154804761Y-144576109D01*
X155233333Y-145076109D02*
X155233333Y-144576109D01*
X155233333Y-145052300D02*
X155185714Y-145076109D01*
X155185714Y-145076109D02*
X155090476Y-145076109D01*
X155090476Y-145076109D02*
X155042857Y-145052300D01*
X155042857Y-145052300D02*
X155019047Y-145028490D01*
X155019047Y-145028490D02*
X154995238Y-144980871D01*
X154995238Y-144980871D02*
X154995238Y-144838014D01*
X154995238Y-144838014D02*
X155019047Y-144790395D01*
X155019047Y-144790395D02*
X155042857Y-144766585D01*
X155042857Y-144766585D02*
X155090476Y-144742776D01*
X155090476Y-144742776D02*
X155185714Y-144742776D01*
X155185714Y-144742776D02*
X155233333Y-144766585D01*
X155685714Y-144742776D02*
X155685714Y-145147538D01*
X155685714Y-145147538D02*
X155661904Y-145195157D01*
X155661904Y-145195157D02*
X155638095Y-145218966D01*
X155638095Y-145218966D02*
X155590476Y-145242776D01*
X155590476Y-145242776D02*
X155519047Y-145242776D01*
X155519047Y-145242776D02*
X155471428Y-145218966D01*
X155685714Y-145052300D02*
X155638095Y-145076109D01*
X155638095Y-145076109D02*
X155542857Y-145076109D01*
X155542857Y-145076109D02*
X155495238Y-145052300D01*
X155495238Y-145052300D02*
X155471428Y-145028490D01*
X155471428Y-145028490D02*
X155447619Y-144980871D01*
X155447619Y-144980871D02*
X155447619Y-144838014D01*
X155447619Y-144838014D02*
X155471428Y-144790395D01*
X155471428Y-144790395D02*
X155495238Y-144766585D01*
X155495238Y-144766585D02*
X155542857Y-144742776D01*
X155542857Y-144742776D02*
X155638095Y-144742776D01*
X155638095Y-144742776D02*
X155685714Y-144766585D01*
X156114285Y-145052300D02*
X156066666Y-145076109D01*
X156066666Y-145076109D02*
X155971428Y-145076109D01*
X155971428Y-145076109D02*
X155923809Y-145052300D01*
X155923809Y-145052300D02*
X155900000Y-145004680D01*
X155900000Y-145004680D02*
X155900000Y-144814204D01*
X155900000Y-144814204D02*
X155923809Y-144766585D01*
X155923809Y-144766585D02*
X155971428Y-144742776D01*
X155971428Y-144742776D02*
X156066666Y-144742776D01*
X156066666Y-144742776D02*
X156114285Y-144766585D01*
X156114285Y-144766585D02*
X156138095Y-144814204D01*
X156138095Y-144814204D02*
X156138095Y-144861823D01*
X156138095Y-144861823D02*
X155900000Y-144909442D01*
X124785714Y-145076109D02*
X124785714Y-144576109D01*
X124785714Y-144576109D02*
X124976190Y-144576109D01*
X124976190Y-144576109D02*
X125023809Y-144599919D01*
X125023809Y-144599919D02*
X125047619Y-144623728D01*
X125047619Y-144623728D02*
X125071428Y-144671347D01*
X125071428Y-144671347D02*
X125071428Y-144742776D01*
X125071428Y-144742776D02*
X125047619Y-144790395D01*
X125047619Y-144790395D02*
X125023809Y-144814204D01*
X125023809Y-144814204D02*
X124976190Y-144838014D01*
X124976190Y-144838014D02*
X124785714Y-144838014D01*
X125571428Y-145028490D02*
X125547619Y-145052300D01*
X125547619Y-145052300D02*
X125476190Y-145076109D01*
X125476190Y-145076109D02*
X125428571Y-145076109D01*
X125428571Y-145076109D02*
X125357143Y-145052300D01*
X125357143Y-145052300D02*
X125309524Y-145004680D01*
X125309524Y-145004680D02*
X125285714Y-144957061D01*
X125285714Y-144957061D02*
X125261905Y-144861823D01*
X125261905Y-144861823D02*
X125261905Y-144790395D01*
X125261905Y-144790395D02*
X125285714Y-144695157D01*
X125285714Y-144695157D02*
X125309524Y-144647538D01*
X125309524Y-144647538D02*
X125357143Y-144599919D01*
X125357143Y-144599919D02*
X125428571Y-144576109D01*
X125428571Y-144576109D02*
X125476190Y-144576109D01*
X125476190Y-144576109D02*
X125547619Y-144599919D01*
X125547619Y-144599919D02*
X125571428Y-144623728D01*
X125952381Y-144814204D02*
X126023809Y-144838014D01*
X126023809Y-144838014D02*
X126047619Y-144861823D01*
X126047619Y-144861823D02*
X126071428Y-144909442D01*
X126071428Y-144909442D02*
X126071428Y-144980871D01*
X126071428Y-144980871D02*
X126047619Y-145028490D01*
X126047619Y-145028490D02*
X126023809Y-145052300D01*
X126023809Y-145052300D02*
X125976190Y-145076109D01*
X125976190Y-145076109D02*
X125785714Y-145076109D01*
X125785714Y-145076109D02*
X125785714Y-144576109D01*
X125785714Y-144576109D02*
X125952381Y-144576109D01*
X125952381Y-144576109D02*
X126000000Y-144599919D01*
X126000000Y-144599919D02*
X126023809Y-144623728D01*
X126023809Y-144623728D02*
X126047619Y-144671347D01*
X126047619Y-144671347D02*
X126047619Y-144718966D01*
X126047619Y-144718966D02*
X126023809Y-144766585D01*
X126023809Y-144766585D02*
X126000000Y-144790395D01*
X126000000Y-144790395D02*
X125952381Y-144814204D01*
X125952381Y-144814204D02*
X125785714Y-144814204D01*
X126666666Y-144814204D02*
X126833333Y-144814204D01*
X126904761Y-145076109D02*
X126666666Y-145076109D01*
X126666666Y-145076109D02*
X126666666Y-144576109D01*
X126666666Y-144576109D02*
X126904761Y-144576109D01*
X127333333Y-145076109D02*
X127333333Y-144576109D01*
X127333333Y-145052300D02*
X127285714Y-145076109D01*
X127285714Y-145076109D02*
X127190476Y-145076109D01*
X127190476Y-145076109D02*
X127142857Y-145052300D01*
X127142857Y-145052300D02*
X127119047Y-145028490D01*
X127119047Y-145028490D02*
X127095238Y-144980871D01*
X127095238Y-144980871D02*
X127095238Y-144838014D01*
X127095238Y-144838014D02*
X127119047Y-144790395D01*
X127119047Y-144790395D02*
X127142857Y-144766585D01*
X127142857Y-144766585D02*
X127190476Y-144742776D01*
X127190476Y-144742776D02*
X127285714Y-144742776D01*
X127285714Y-144742776D02*
X127333333Y-144766585D01*
X127785714Y-144742776D02*
X127785714Y-145147538D01*
X127785714Y-145147538D02*
X127761904Y-145195157D01*
X127761904Y-145195157D02*
X127738095Y-145218966D01*
X127738095Y-145218966D02*
X127690476Y-145242776D01*
X127690476Y-145242776D02*
X127619047Y-145242776D01*
X127619047Y-145242776D02*
X127571428Y-145218966D01*
X127785714Y-145052300D02*
X127738095Y-145076109D01*
X127738095Y-145076109D02*
X127642857Y-145076109D01*
X127642857Y-145076109D02*
X127595238Y-145052300D01*
X127595238Y-145052300D02*
X127571428Y-145028490D01*
X127571428Y-145028490D02*
X127547619Y-144980871D01*
X127547619Y-144980871D02*
X127547619Y-144838014D01*
X127547619Y-144838014D02*
X127571428Y-144790395D01*
X127571428Y-144790395D02*
X127595238Y-144766585D01*
X127595238Y-144766585D02*
X127642857Y-144742776D01*
X127642857Y-144742776D02*
X127738095Y-144742776D01*
X127738095Y-144742776D02*
X127785714Y-144766585D01*
X128214285Y-145052300D02*
X128166666Y-145076109D01*
X128166666Y-145076109D02*
X128071428Y-145076109D01*
X128071428Y-145076109D02*
X128023809Y-145052300D01*
X128023809Y-145052300D02*
X128000000Y-145004680D01*
X128000000Y-145004680D02*
X128000000Y-144814204D01*
X128000000Y-144814204D02*
X128023809Y-144766585D01*
X128023809Y-144766585D02*
X128071428Y-144742776D01*
X128071428Y-144742776D02*
X128166666Y-144742776D01*
X128166666Y-144742776D02*
X128214285Y-144766585D01*
X128214285Y-144766585D02*
X128238095Y-144814204D01*
X128238095Y-144814204D02*
X128238095Y-144861823D01*
X128238095Y-144861823D02*
X128000000Y-144909442D01*
%TO.C,J2*%
X137075000Y-47665000D02*
X145275000Y-47665000D01*
%TO.C,J1*%
X158500000Y-144350000D02*
X150300000Y-144350000D01*
%TO.C,J3*%
X130600000Y-144350000D02*
X122400000Y-144350000D01*
%TD*%
M02*
