%TF.GenerationSoftware,KiCad,Pcbnew,9.0.3-9.0.3-0~ubuntu22.04.1*%
%TF.CreationDate,2025-10-17T13:32:10+04:00*%
%TF.ProjectId,GPSComputer_3.2.01,47505343-6f6d-4707-9574-65725f332e32,rev?*%
%TF.SameCoordinates,Original*%
%TF.FileFunction,Copper,L4,Bot*%
%TF.FilePolarity,Positive*%
%FSLAX46Y46*%
G04 Gerber Fmt 4.6, Leading zero omitted, Abs format (unit mm)*
G04 Created by KiCad (PCBNEW 9.0.3-9.0.3-0~ubuntu22.04.1) date 2025-10-17 13:32:10*
%MOMM*%
%LPD*%
G01*
G04 APERTURE LIST*
G04 Aperture macros list*
%AMRoundRect*
0 Rectangle with rounded corners*
0 $1 Rounding radius*
0 $2 $3 $4 $5 $6 $7 $8 $9 X,Y pos of 4 corners*
0 Add a 4 corners polygon primitive as box body*
4,1,4,$2,$3,$4,$5,$6,$7,$8,$9,$2,$3,0*
0 Add four circle primitives for the rounded corners*
1,1,$1+$1,$2,$3*
1,1,$1+$1,$4,$5*
1,1,$1+$1,$6,$7*
1,1,$1+$1,$8,$9*
0 Add four rect primitives between the rounded corners*
20,1,$1+$1,$2,$3,$4,$5,0*
20,1,$1+$1,$4,$5,$6,$7,0*
20,1,$1+$1,$6,$7,$8,$9,0*
20,1,$1+$1,$8,$9,$2,$3,0*%
G04 Aperture macros list end*
%TA.AperFunction,SMDPad,CuDef*%
%ADD10R,1.350000X4.200000*%
%TD*%
%TA.AperFunction,ComponentPad*%
%ADD11C,0.800000*%
%TD*%
%TA.AperFunction,ComponentPad*%
%ADD12C,6.400000*%
%TD*%
%TA.AperFunction,ComponentPad*%
%ADD13R,1.520000X1.520000*%
%TD*%
%TA.AperFunction,ComponentPad*%
%ADD14C,1.520000*%
%TD*%
%TA.AperFunction,SMDPad,CuDef*%
%ADD15RoundRect,0.140000X0.170000X-0.140000X0.170000X0.140000X-0.170000X0.140000X-0.170000X-0.140000X0*%
%TD*%
%TA.AperFunction,SMDPad,CuDef*%
%ADD16R,1.000000X3.000000*%
%TD*%
%TA.AperFunction,SMDPad,CuDef*%
%ADD17RoundRect,0.135000X0.185000X-0.135000X0.185000X0.135000X-0.185000X0.135000X-0.185000X-0.135000X0*%
%TD*%
%TA.AperFunction,ViaPad*%
%ADD18C,0.500000*%
%TD*%
%TA.AperFunction,ViaPad*%
%ADD19C,0.800000*%
%TD*%
%TA.AperFunction,ViaPad*%
%ADD20C,0.600000*%
%TD*%
%TA.AperFunction,Conductor*%
%ADD21C,0.500000*%
%TD*%
%TA.AperFunction,Conductor*%
%ADD22C,0.150000*%
%TD*%
G04 APERTURE END LIST*
D10*
%TO.P,J2,2,Ext*%
%TO.N,GND*%
X151175000Y-50300000D03*
X145525000Y-50300000D03*
%TD*%
D11*
%TO.P,H4,1,1*%
%TO.N,GND*%
X103100000Y-140500000D03*
X103802944Y-138802944D03*
X103802944Y-142197056D03*
X105500000Y-138100000D03*
D12*
X105500000Y-140500000D03*
D11*
X105500000Y-142900000D03*
X107197056Y-138802944D03*
X107197056Y-142197056D03*
X107900000Y-140500000D03*
%TD*%
%TO.P,H2,1,1*%
%TO.N,GND*%
X192100000Y-51500000D03*
X192802944Y-49802944D03*
X192802944Y-53197056D03*
X194500000Y-49100000D03*
D12*
X194500000Y-51500000D03*
D11*
X194500000Y-53900000D03*
X196197056Y-49802944D03*
X196197056Y-53197056D03*
X196900000Y-51500000D03*
%TD*%
D10*
%TO.P,J3,2,Ext*%
%TO.N,GND*%
X111375000Y-141850000D03*
X117025000Y-141850000D03*
%TD*%
D11*
%TO.P,H3,1,1*%
%TO.N,GND*%
X192100000Y-140500000D03*
X192802944Y-138802944D03*
X192802944Y-142197056D03*
X194500000Y-138100000D03*
D12*
X194500000Y-140500000D03*
D11*
X194500000Y-142900000D03*
X196197056Y-138802944D03*
X196197056Y-142197056D03*
X196900000Y-140500000D03*
%TD*%
D10*
%TO.P,J1,2,Ext*%
%TO.N,GND*%
X144775000Y-141800000D03*
X150425000Y-141800000D03*
%TD*%
%TO.P,J7,2,Ext*%
%TO.N,GND*%
X128270000Y-141800000D03*
X133920000Y-141800000D03*
%TD*%
D11*
%TO.P,H1,1,1*%
%TO.N,GND*%
X103100000Y-51500000D03*
X103802944Y-49802944D03*
X103802944Y-53197056D03*
X105500000Y-49100000D03*
D12*
X105500000Y-51500000D03*
D11*
X105500000Y-53900000D03*
X107197056Y-49802944D03*
X107197056Y-53197056D03*
X107900000Y-51500000D03*
%TD*%
D13*
%TO.P,J4,1,1*%
%TO.N,GND*%
X167500000Y-54310000D03*
D14*
%TO.P,J4,2,2*%
%TO.N,unconnected-(J4-Pad2)*%
X170500000Y-54310000D03*
%TO.P,J4,3,3*%
%TO.N,unconnected-(J4-Pad3)*%
X173500000Y-54310000D03*
%TO.P,J4,4,4*%
%TO.N,unconnected-(J4-Pad4)*%
X176500000Y-54310000D03*
%TO.P,J4,5,5*%
%TO.N,GPS_DBG_UART4_RX*%
X179500000Y-54310000D03*
%TO.P,J4,6,6*%
%TO.N,GPS_DBG_UART4_TX*%
X182500000Y-54310000D03*
%TO.P,J4,7,7*%
%TO.N,GPS_NRST*%
X185500000Y-54310000D03*
%TO.P,J4,8,8*%
%TO.N,GND*%
X188500000Y-54310000D03*
%TO.P,J4,9,9*%
%TO.N,unconnected-(J4-Pad9)*%
X167500000Y-57310000D03*
%TO.P,J4,10,10*%
%TO.N,unconnected-(J4-Pad10)*%
X170500000Y-57310000D03*
%TO.P,J4,11,11*%
%TO.N,unconnected-(J4-Pad11)*%
X173500000Y-57310000D03*
%TO.P,J4,12,12*%
%TO.N,unconnected-(J4-Pad12)*%
X176500000Y-57310000D03*
%TO.P,J4,13,13*%
%TO.N,GPS_SWCLK*%
X179500000Y-57310000D03*
%TO.P,J4,14,14*%
%TO.N,GPS_SWDIO*%
X182500000Y-57310000D03*
%TO.P,J4,15,15*%
%TO.N,GND*%
X185500000Y-57310000D03*
%TO.P,J4,16,16*%
X188500000Y-57310000D03*
%TD*%
D15*
%TO.P,C12,1*%
%TO.N,GND*%
X136450000Y-94955000D03*
%TO.P,C12,2*%
%TO.N,GPS_NRST*%
X136450000Y-93995000D03*
%TD*%
D16*
%TO.P,J6,1,Pin_1*%
%TO.N,+3.3V*%
X111100000Y-55940000D03*
%TO.P,J6,2,Pin_2*%
X111100000Y-50900000D03*
%TO.P,J6,3,Pin_3*%
X113640000Y-55940000D03*
%TO.P,J6,4,Pin_4*%
X113640000Y-50900000D03*
%TO.P,J6,5,Pin_5*%
X116180000Y-55940000D03*
%TO.P,J6,6,Pin_6*%
X116180000Y-50900000D03*
%TO.P,J6,7,Pin_7*%
X118720000Y-55940000D03*
%TO.P,J6,8,Pin_8*%
X118720000Y-50900000D03*
%TO.P,J6,9,Pin_9*%
%TO.N,GND*%
X121260000Y-55940000D03*
%TO.P,J6,10,Pin_10*%
X121260000Y-50900000D03*
%TO.P,J6,11,Pin_11*%
X123800000Y-55940000D03*
%TO.P,J6,12,Pin_12*%
X123800000Y-50900000D03*
%TO.P,J6,13,Pin_13*%
X126340000Y-55940000D03*
%TO.P,J6,14,Pin_14*%
X126340000Y-50900000D03*
%TO.P,J6,15,Pin_15*%
X128880000Y-55940000D03*
%TO.P,J6,16,Pin_16*%
X128880000Y-50900000D03*
%TD*%
D17*
%TO.P,R10,1*%
%TO.N,+3.3V*%
X137500000Y-95010000D03*
%TO.P,R10,2*%
%TO.N,GPS_NRST*%
X137500000Y-93990000D03*
%TD*%
D18*
%TO.N,GND*%
X108200000Y-131000000D03*
X112000000Y-131000000D03*
X110100000Y-131000000D03*
X126350000Y-131000000D03*
X128250000Y-131000000D03*
X124450000Y-131000000D03*
X145350000Y-131000000D03*
X143450000Y-131000000D03*
X141550000Y-131000000D03*
D19*
%TO.N,+3.3V*%
X107225000Y-127525000D03*
X108075000Y-126700000D03*
X107250000Y-126700000D03*
X124250000Y-126700000D03*
X125075000Y-126700000D03*
X124225000Y-127525000D03*
X140725000Y-127525000D03*
X140750000Y-126700000D03*
X141575000Y-126700000D03*
X154500000Y-65900000D03*
X155325000Y-65900000D03*
X155325000Y-65075000D03*
D18*
%TO.N,GND*%
X131750000Y-138500000D03*
X113550000Y-136050000D03*
D19*
X116400000Y-131900000D03*
D18*
X148250000Y-137700000D03*
D19*
X150450000Y-108600000D03*
X182000000Y-76500000D03*
D18*
X140600000Y-50350000D03*
D19*
X132750000Y-53250000D03*
X135250000Y-114150000D03*
X128500000Y-88250000D03*
D18*
X152000000Y-59850000D03*
D19*
X122500000Y-52000000D03*
X130000000Y-109200000D03*
X146050000Y-100850000D03*
D18*
X118150000Y-136050000D03*
X157700000Y-54150000D03*
X110200000Y-133000000D03*
X141550000Y-142500000D03*
D19*
X179750000Y-78750000D03*
D18*
X153900000Y-56050000D03*
X114850000Y-135250000D03*
D19*
X126400000Y-62150000D03*
X160000000Y-70000000D03*
D18*
X135850000Y-142500000D03*
X151550000Y-135250000D03*
D19*
X125500000Y-94500000D03*
D18*
X155800000Y-56050000D03*
X113450000Y-136850000D03*
D19*
X126750000Y-119000000D03*
X105100000Y-108450000D03*
X129950000Y-132200000D03*
X126700000Y-112600000D03*
X149800000Y-131900000D03*
X122500000Y-50750000D03*
X122500000Y-62150000D03*
D18*
X159600000Y-56050000D03*
D19*
X160000000Y-100000000D03*
X129100000Y-118050000D03*
X150900000Y-88100000D03*
X135000000Y-70000000D03*
X170000000Y-140000000D03*
X127000000Y-123375000D03*
X170180000Y-77137000D03*
D18*
X147700000Y-56950000D03*
X161500000Y-136800000D03*
D19*
X119350000Y-108500000D03*
D18*
X126350000Y-133000000D03*
X153900000Y-138700000D03*
X122550000Y-142500000D03*
X131750000Y-139300000D03*
X128250000Y-133000000D03*
X114850000Y-139300000D03*
X116900000Y-138700000D03*
D19*
X125500000Y-96250000D03*
D18*
X124450000Y-140600000D03*
D19*
X145950000Y-102750000D03*
D18*
X150250000Y-135250000D03*
X149000000Y-52950000D03*
D19*
X134375000Y-85000000D03*
X134800000Y-80250000D03*
X125100000Y-57250000D03*
D18*
X140600000Y-54150000D03*
D19*
X125100000Y-58400000D03*
X190000000Y-110000000D03*
X147750000Y-121250000D03*
X155250000Y-126000000D03*
X139350000Y-103100000D03*
D18*
X157700000Y-52250000D03*
X135050000Y-135250000D03*
X118750000Y-142500000D03*
X141550000Y-140600000D03*
X136800000Y-56050000D03*
X126350000Y-140600000D03*
D19*
X180000000Y-120000000D03*
D18*
X131750000Y-137700000D03*
D20*
X131140000Y-95150000D03*
D19*
X165000000Y-60000000D03*
X190000000Y-130000000D03*
X130200000Y-59650000D03*
D18*
X138700000Y-50350000D03*
X112100000Y-133000000D03*
X137750000Y-136800000D03*
X147700000Y-56150000D03*
D19*
X190000000Y-100000000D03*
X190000000Y-80000000D03*
D18*
X149000000Y-54550000D03*
X110200000Y-136800000D03*
X142500000Y-50350000D03*
X145700000Y-56050000D03*
D19*
X143500000Y-123350000D03*
D18*
X155800000Y-140600000D03*
D19*
X105500000Y-121000000D03*
X127600000Y-52000000D03*
X146100000Y-60100000D03*
D18*
X133750000Y-135250000D03*
D19*
X137500000Y-92500000D03*
X123800000Y-59650000D03*
D18*
X137750000Y-140600000D03*
D19*
X121250000Y-59650000D03*
X149250000Y-60100000D03*
X155300000Y-72350000D03*
X152250000Y-72350000D03*
D18*
X136800000Y-54150000D03*
X122550000Y-140600000D03*
X141550000Y-134900000D03*
D19*
X190000000Y-140000000D03*
X111300000Y-108500000D03*
X131500000Y-50750000D03*
D18*
X143450000Y-138700000D03*
D19*
X181000000Y-59250000D03*
X142250000Y-72250000D03*
X122500000Y-56000000D03*
X121250000Y-63400000D03*
X126400000Y-53250000D03*
D18*
X143450000Y-134900000D03*
X137750000Y-138700000D03*
X124450000Y-133000000D03*
X141550000Y-136800000D03*
D19*
X130075000Y-97850000D03*
D18*
X147700000Y-53750000D03*
D19*
X167090000Y-67080000D03*
D18*
X144350000Y-53750000D03*
D19*
X133500000Y-120500000D03*
D18*
X150300000Y-138700000D03*
D19*
X132750000Y-54750000D03*
X128900000Y-59650000D03*
X129475000Y-91125000D03*
X165000000Y-65000000D03*
X130200000Y-57250000D03*
X130200000Y-53250000D03*
X135250000Y-105500000D03*
X130750000Y-121000000D03*
X110000000Y-85000000D03*
X127600000Y-56000000D03*
D18*
X112100000Y-136800000D03*
X155800000Y-142500000D03*
X159600000Y-142500000D03*
D19*
X132000000Y-107000000D03*
X138500000Y-105500000D03*
X121250000Y-64650000D03*
X123800000Y-53250000D03*
X135400000Y-131900000D03*
X120000000Y-85000000D03*
D18*
X139650000Y-138700000D03*
D19*
X131500000Y-90875000D03*
X172250000Y-61920000D03*
D18*
X141550000Y-133000000D03*
X135050000Y-136050000D03*
X157940000Y-70510000D03*
D19*
X150900000Y-131900000D03*
D18*
X143450000Y-133000000D03*
X149250000Y-136050000D03*
X124450000Y-134900000D03*
D19*
X170000000Y-110000000D03*
D18*
X188200000Y-66750000D03*
X155800000Y-57950000D03*
D19*
X170000000Y-130000000D03*
D20*
X130260000Y-96450000D03*
D18*
X128250000Y-138700000D03*
D19*
X120000000Y-105000000D03*
D18*
X113550000Y-137700000D03*
D19*
X155000000Y-105000000D03*
X180000000Y-140000000D03*
D18*
X108300000Y-136800000D03*
D19*
X138500000Y-118500000D03*
D18*
X153900000Y-136800000D03*
D19*
X113250000Y-121250000D03*
X122500000Y-59650000D03*
D18*
X143450000Y-142500000D03*
X176400000Y-84850000D03*
X177550000Y-84525000D03*
X149100000Y-137700000D03*
X141550000Y-138700000D03*
X144350000Y-56050000D03*
D19*
X115300000Y-131900000D03*
X121250000Y-58400000D03*
X110000000Y-95000000D03*
X142120000Y-119860000D03*
D18*
X139650000Y-140600000D03*
D19*
X190000000Y-90000000D03*
X125100000Y-63400000D03*
D18*
X120650000Y-142500000D03*
X157700000Y-50350000D03*
D19*
X129825000Y-89575000D03*
D18*
X138700000Y-56050000D03*
X138700000Y-52250000D03*
X139450000Y-91600000D03*
D19*
X179000000Y-74500000D03*
X128900000Y-60900000D03*
X138500000Y-114000000D03*
X127600000Y-59650000D03*
X149000000Y-81500000D03*
X148000000Y-106500000D03*
D18*
X153900000Y-54150000D03*
D19*
X180000000Y-110000000D03*
X130000000Y-84980000D03*
D18*
X144350000Y-55250000D03*
X118200000Y-137900000D03*
D19*
X190920000Y-56760000D03*
D18*
X139650000Y-134900000D03*
X139650000Y-136800000D03*
X155800000Y-50350000D03*
D19*
X170000000Y-90000000D03*
X125100000Y-52000000D03*
D18*
X133800000Y-138700000D03*
X131750000Y-136050000D03*
X135150000Y-137000000D03*
X142500000Y-56050000D03*
D19*
X125100000Y-59650000D03*
X180000000Y-100000000D03*
D18*
X149100000Y-55300000D03*
X142500000Y-52250000D03*
D19*
X126400000Y-59650000D03*
X127600000Y-50750000D03*
D18*
X124450000Y-142500000D03*
X163075000Y-89750000D03*
X144350000Y-52950000D03*
D19*
X133400000Y-86225000D03*
D18*
X146850000Y-136850000D03*
X128250000Y-134900000D03*
D19*
X156400000Y-75250000D03*
X185800000Y-69900000D03*
X133250000Y-131900000D03*
X110000000Y-75000000D03*
X175340000Y-71977000D03*
X125100000Y-60900000D03*
X146000000Y-118050000D03*
D18*
X145350000Y-136800000D03*
X138700000Y-57950000D03*
D19*
X127600000Y-49500000D03*
D18*
X126350000Y-138700000D03*
X138700000Y-54150000D03*
X120650000Y-136800000D03*
X151550000Y-136050000D03*
D19*
X146450000Y-132250000D03*
X142000000Y-109650000D03*
D18*
X153900000Y-142500000D03*
X126350000Y-134900000D03*
X159600000Y-136800000D03*
X118750000Y-138700000D03*
D19*
X170000000Y-120000000D03*
X127000000Y-97500000D03*
X123800000Y-64650000D03*
D18*
X155800000Y-54150000D03*
D19*
X124500000Y-102500000D03*
X125100000Y-64650000D03*
X131500000Y-49500000D03*
X122500000Y-49500000D03*
D18*
X124450000Y-136800000D03*
D19*
X136000000Y-90750000D03*
X189700000Y-72160000D03*
D20*
X144450000Y-88475000D03*
D19*
X151950000Y-131900000D03*
D18*
X156450000Y-71850000D03*
D19*
X123800000Y-60900000D03*
D18*
X152000000Y-54150000D03*
X120650000Y-140600000D03*
X157700000Y-136800000D03*
D19*
X125100000Y-49500000D03*
X103500000Y-118400000D03*
X149000000Y-126250000D03*
D18*
X159600000Y-57950000D03*
X159600000Y-52250000D03*
D19*
X110000000Y-105000000D03*
X130200000Y-60900000D03*
X180000000Y-130000000D03*
X138750000Y-126000000D03*
X130200000Y-54750000D03*
X134350000Y-131900000D03*
X125850000Y-110850000D03*
D18*
X145350000Y-134900000D03*
D19*
X127600000Y-54750000D03*
D18*
X118750000Y-140600000D03*
D19*
X125100000Y-50750000D03*
X154000000Y-79750000D03*
D18*
X155800000Y-138700000D03*
X122550000Y-138700000D03*
D19*
X130200000Y-56000000D03*
X107750000Y-109575000D03*
D18*
X159600000Y-54150000D03*
X148250000Y-135250000D03*
X150100000Y-61750000D03*
D19*
X115050000Y-108500000D03*
X121250000Y-60900000D03*
X130200000Y-58400000D03*
D18*
X112100000Y-138700000D03*
X159600000Y-140600000D03*
X177030000Y-84860000D03*
X147700000Y-54550000D03*
D19*
X131500000Y-52000000D03*
X130750000Y-88750000D03*
D18*
X145350000Y-138700000D03*
D19*
X121200000Y-53250000D03*
D18*
X126350000Y-136800000D03*
X130450000Y-139300000D03*
D19*
X136450000Y-107500000D03*
D18*
X153900000Y-57950000D03*
D19*
X127600000Y-57250000D03*
D18*
X157700000Y-142500000D03*
X157700000Y-59850000D03*
X110200000Y-134900000D03*
D19*
X130200000Y-52000000D03*
X176250000Y-77250000D03*
X147250000Y-60100000D03*
D18*
X146950000Y-136050000D03*
D19*
X142500000Y-92500000D03*
X127600000Y-62150000D03*
D18*
X176325000Y-83000000D03*
D19*
X181600000Y-50000000D03*
X134700000Y-102900000D03*
X125100000Y-62150000D03*
D18*
X130450000Y-136050000D03*
D19*
X135500000Y-95200000D03*
D18*
X115825000Y-136050000D03*
X149000000Y-53750000D03*
D19*
X149750000Y-72200000D03*
D18*
X136800000Y-52250000D03*
D19*
X127600000Y-58400000D03*
D18*
X157700000Y-57950000D03*
D19*
X122500000Y-54750000D03*
D18*
X146950000Y-137700000D03*
D19*
X190000000Y-120000000D03*
X128900000Y-62150000D03*
D18*
X155800000Y-61750000D03*
X155800000Y-59850000D03*
X146050000Y-53450000D03*
X146950000Y-135250000D03*
X112100000Y-134900000D03*
D19*
X131500000Y-53250000D03*
D18*
X113550000Y-135250000D03*
D19*
X189700000Y-62320000D03*
D18*
X152000000Y-138700000D03*
D19*
X132750000Y-50750000D03*
X139500000Y-67750000D03*
X133800000Y-109200000D03*
D18*
X140600000Y-56050000D03*
D19*
X132750000Y-49500000D03*
X105000000Y-125000000D03*
X111850000Y-118050000D03*
X151000000Y-101000000D03*
D18*
X161600000Y-88500000D03*
X135850000Y-138700000D03*
D19*
X154950000Y-117150000D03*
X125500000Y-90500000D03*
D18*
X145700000Y-56850000D03*
D19*
X144150000Y-114700000D03*
D18*
X130450000Y-137700000D03*
X146950000Y-138500000D03*
X115700000Y-137700000D03*
X145350000Y-133000000D03*
D19*
X128000000Y-107000000D03*
D18*
X139650000Y-142500000D03*
D19*
X122500000Y-63400000D03*
D18*
X130450000Y-138500000D03*
D19*
X144400000Y-77300000D03*
D18*
X136800000Y-50350000D03*
X161975000Y-88050000D03*
D19*
X130200000Y-50750000D03*
X125100000Y-56000000D03*
X131250000Y-103750000D03*
X142500000Y-97500000D03*
X117500000Y-131900000D03*
D18*
X135850000Y-140600000D03*
X114850000Y-137700000D03*
D19*
X173250000Y-80250000D03*
D18*
X161500000Y-142500000D03*
D19*
X103500000Y-115000000D03*
X156500000Y-116500000D03*
X127450000Y-94450000D03*
X103500000Y-111800000D03*
D18*
X146850000Y-54550000D03*
X157700000Y-140600000D03*
D19*
X121250000Y-62150000D03*
D18*
X132600000Y-137700000D03*
X140550000Y-91600000D03*
X148250000Y-139300000D03*
D19*
X126400000Y-64650000D03*
X148200000Y-88875000D03*
X122500000Y-58400000D03*
X122500000Y-53250000D03*
D18*
X118150000Y-135250000D03*
D19*
X125500000Y-92500000D03*
X132250000Y-131900000D03*
D18*
X114850000Y-136050000D03*
X153900000Y-50350000D03*
X152000000Y-140600000D03*
D19*
X125100000Y-53250000D03*
X130200000Y-49500000D03*
X128900000Y-58400000D03*
X140000000Y-97500000D03*
D18*
X135100000Y-137900000D03*
D19*
X170000000Y-100000000D03*
D18*
X150250000Y-136050000D03*
D19*
X136000000Y-98750000D03*
D18*
X130350000Y-136850000D03*
D19*
X177600000Y-50000000D03*
X127600000Y-63400000D03*
D18*
X116850000Y-136050000D03*
D19*
X113000000Y-132250000D03*
D18*
X163450000Y-89300000D03*
D19*
X128950000Y-53250000D03*
X126500000Y-88750000D03*
X127600000Y-60900000D03*
D18*
X153900000Y-52250000D03*
X157700000Y-56050000D03*
X157700000Y-138700000D03*
X148250000Y-136050000D03*
X113550000Y-139300000D03*
X122550000Y-136800000D03*
X161500000Y-138700000D03*
D19*
X148750000Y-131900000D03*
X173600000Y-50000000D03*
X128750000Y-97500000D03*
X122000000Y-125750000D03*
D18*
X153900000Y-59850000D03*
X142500000Y-54150000D03*
X149000000Y-56150000D03*
X159600000Y-138700000D03*
D19*
X123800000Y-63400000D03*
D18*
X144350000Y-56850000D03*
D19*
X110000000Y-123375000D03*
X126400000Y-58400000D03*
X107497500Y-58002500D03*
D18*
X110200000Y-138700000D03*
X188200000Y-67750000D03*
X146700000Y-56050000D03*
X146950000Y-139300000D03*
X108300000Y-133000000D03*
X131750000Y-135250000D03*
D19*
X134475000Y-86225000D03*
X180750000Y-65750000D03*
D18*
X150100000Y-59850000D03*
X152000000Y-142500000D03*
X151650000Y-137000000D03*
D19*
X144150000Y-109650000D03*
D18*
X120650000Y-138700000D03*
D19*
X123800000Y-58400000D03*
X120000000Y-95000000D03*
X107100000Y-118500000D03*
D18*
X137750000Y-142500000D03*
D19*
X127600000Y-53250000D03*
D18*
X150100000Y-54150000D03*
D19*
X122500000Y-64650000D03*
D18*
X113550000Y-138500000D03*
X132725000Y-136050000D03*
X140600000Y-52250000D03*
D19*
X122500000Y-60900000D03*
X152150000Y-77750000D03*
X165000000Y-50000000D03*
X196080000Y-56760000D03*
D18*
X159600000Y-50350000D03*
D19*
X138500000Y-110000000D03*
D18*
X143450000Y-140600000D03*
X148250000Y-138500000D03*
D19*
X180000000Y-90000000D03*
D18*
X144350000Y-54550000D03*
D19*
X142000000Y-114700000D03*
D18*
X152000000Y-56050000D03*
X152000000Y-61750000D03*
X130450000Y-135250000D03*
X136800000Y-57950000D03*
X152000000Y-57950000D03*
X149000000Y-56950000D03*
D19*
X127075000Y-96125000D03*
X126400000Y-60900000D03*
X145050000Y-60100000D03*
D18*
X128250000Y-136800000D03*
D19*
X177250000Y-81250000D03*
D18*
X147700000Y-52950000D03*
X153900000Y-140600000D03*
D19*
X135300000Y-96500000D03*
X153000000Y-106500000D03*
X176500000Y-59250000D03*
X132750000Y-52000000D03*
D18*
X150100000Y-56050000D03*
X118250000Y-137000000D03*
X108300000Y-134900000D03*
X155800000Y-52250000D03*
D19*
X126400000Y-63400000D03*
X119000000Y-112500000D03*
D18*
X161500000Y-140600000D03*
D19*
X125100000Y-54750000D03*
X122500000Y-57250000D03*
D18*
X151600000Y-137900000D03*
D19*
X109500000Y-112600000D03*
X143950000Y-60100000D03*
D18*
X124450000Y-138700000D03*
D19*
X123800000Y-62150000D03*
X118250000Y-114150000D03*
D18*
X116850000Y-135250000D03*
D19*
X152530000Y-69260000D03*
D18*
X143450000Y-136800000D03*
X153900000Y-61750000D03*
D19*
X131500000Y-54750000D03*
X118550000Y-131900000D03*
X184200000Y-72950000D03*
X110000000Y-120000000D03*
D18*
X155800000Y-136800000D03*
X114850000Y-138500000D03*
D19*
X156500000Y-110500000D03*
D18*
X126350000Y-142500000D03*
X133750000Y-136050000D03*
D19*
X137000000Y-120500000D03*
%TO.N,+3.3V*%
X114900000Y-55750000D03*
X112400000Y-52150000D03*
X118750000Y-61950000D03*
X146275000Y-109825000D03*
X116250000Y-58250000D03*
X116200000Y-53350000D03*
X118800000Y-53350000D03*
X112400000Y-59450000D03*
X117500000Y-58250000D03*
X116250000Y-59450000D03*
X111000000Y-61950000D03*
X108075000Y-127525000D03*
X118750000Y-60700000D03*
X107875000Y-115100000D03*
X117500000Y-53350000D03*
X131775000Y-96275000D03*
X112400000Y-50950000D03*
X111100000Y-53350000D03*
X112400000Y-54550000D03*
X111000000Y-63200000D03*
X116250000Y-60700000D03*
X117500000Y-54550000D03*
X112400000Y-58250000D03*
X117500000Y-60700000D03*
X114900000Y-59450000D03*
X111000000Y-60700000D03*
X111000000Y-58250000D03*
X117500000Y-61950000D03*
X114900000Y-63200000D03*
X112400000Y-63200000D03*
X117500000Y-56950000D03*
X117500000Y-59450000D03*
X113750000Y-60700000D03*
X114900000Y-54550000D03*
X113700000Y-53350000D03*
X112400000Y-53350000D03*
X118750000Y-63200000D03*
X141550000Y-127525000D03*
X105375000Y-57290000D03*
X112400000Y-60700000D03*
X116250000Y-63200000D03*
X111000000Y-59450000D03*
X125225000Y-115025000D03*
X117500000Y-63200000D03*
X132475000Y-88075000D03*
X117500000Y-55750000D03*
X117500000Y-52150000D03*
X114900000Y-58250000D03*
X113750000Y-63200000D03*
X136350000Y-103150000D03*
X113750000Y-58250000D03*
X112400000Y-56950000D03*
X134850000Y-81880000D03*
D20*
X144450000Y-89775000D03*
D19*
X114900000Y-60700000D03*
X114900000Y-56950000D03*
X117500000Y-50950000D03*
X118750000Y-59450000D03*
X114900000Y-61950000D03*
X114900000Y-52150000D03*
X154925000Y-74300000D03*
X116250000Y-61950000D03*
X112400000Y-55750000D03*
X118750000Y-58250000D03*
X117500000Y-49750000D03*
X113750000Y-61950000D03*
X144175000Y-99925000D03*
X112400000Y-61950000D03*
X114900000Y-53350000D03*
X133675000Y-89950000D03*
X112400000Y-49750000D03*
X113750000Y-59450000D03*
X114900000Y-50950000D03*
X137500000Y-95900000D03*
X125050000Y-127525000D03*
X154500000Y-65075000D03*
X114900000Y-49750000D03*
D18*
%TO.N,GPS_NRST*%
X135675000Y-94000000D03*
%TO.N,FLI_GPS_USART1_RX*%
X162525000Y-88900000D03*
X176750000Y-83895000D03*
%TO.N,GPS0_RESET*%
X140000000Y-90750000D03*
X157250000Y-71250000D03*
%TD*%
D21*
%TO.N,+3.3V*%
X137500000Y-95900000D02*
X137500000Y-95010000D01*
D22*
%TO.N,GPS_NRST*%
X184000000Y-55810000D02*
X185500000Y-54310000D01*
X136450000Y-93995000D02*
X135680000Y-93995000D01*
X184000000Y-60250000D02*
X184000000Y-55810000D01*
X137495000Y-93995000D02*
X137500000Y-93990000D01*
X136450000Y-93995000D02*
X137495000Y-93995000D01*
X150260000Y-93990000D02*
X184000000Y-60250000D01*
X137050000Y-93990000D02*
X150260000Y-93990000D01*
%TO.N,FLI_GPS_USART1_RX*%
X168700000Y-83895000D02*
X167530000Y-83895000D01*
X171050000Y-83895000D02*
X176750000Y-83895000D01*
X167530000Y-83895000D02*
X162525000Y-88900000D01*
X171050000Y-83895000D02*
X168700000Y-83895000D01*
%TO.N,GPS0_RESET*%
X157775000Y-74250000D02*
X157775000Y-72825000D01*
X157775000Y-71775000D02*
X157250000Y-71250000D01*
X140000000Y-90750000D02*
X140000000Y-88250000D01*
X140000000Y-88250000D02*
X144825000Y-83425000D01*
X144825000Y-83425000D02*
X153850000Y-83425000D01*
X157775000Y-74250000D02*
X157775000Y-71775000D01*
X153850000Y-83425000D02*
X157775000Y-79500000D01*
X157775000Y-79500000D02*
X157775000Y-74250000D01*
%TD*%
%TA.AperFunction,Conductor*%
%TO.N,+3.3V*%
G36*
X119515931Y-49020002D02*
G01*
X119536905Y-49036905D01*
X119963095Y-49463095D01*
X119997121Y-49525407D01*
X120000000Y-49552190D01*
X120000000Y-62947810D01*
X119979998Y-63015931D01*
X119963095Y-63036905D01*
X119036905Y-63963095D01*
X118974593Y-63997121D01*
X118947810Y-64000000D01*
X111052190Y-64000000D01*
X110984069Y-63979998D01*
X110963095Y-63963095D01*
X110036905Y-63036905D01*
X110002879Y-62974593D01*
X110000000Y-62947810D01*
X110000000Y-49552190D01*
X110020002Y-49484069D01*
X110036905Y-49463095D01*
X110463095Y-49036905D01*
X110525407Y-49002879D01*
X110552190Y-49000000D01*
X119447810Y-49000000D01*
X119515931Y-49020002D01*
G37*
%TD.AperFunction*%
%TD*%
%TA.AperFunction,Conductor*%
%TO.N,GND*%
G36*
X194503094Y-48000652D02*
G01*
X194806772Y-48015570D01*
X194813719Y-48016105D01*
X194882828Y-48023369D01*
X194888004Y-48024025D01*
X195153407Y-48063393D01*
X195161086Y-48064778D01*
X195223669Y-48078080D01*
X195227912Y-48079062D01*
X195494392Y-48145812D01*
X195502658Y-48148187D01*
X195535119Y-48158735D01*
X195553255Y-48164628D01*
X195556685Y-48165797D01*
X195826003Y-48262161D01*
X195834753Y-48265669D01*
X195865496Y-48279357D01*
X195868084Y-48280544D01*
X196144073Y-48411078D01*
X196154949Y-48416891D01*
X196379349Y-48551391D01*
X196438911Y-48587091D01*
X196449192Y-48593961D01*
X196715086Y-48791162D01*
X196724644Y-48799006D01*
X196784600Y-48853347D01*
X196969939Y-49021328D01*
X196978671Y-49030060D01*
X197079110Y-49140877D01*
X197200993Y-49275355D01*
X197208837Y-49284913D01*
X197406038Y-49550807D01*
X197412908Y-49561088D01*
X197583099Y-49845036D01*
X197588925Y-49855934D01*
X197719446Y-50131898D01*
X197720650Y-50134521D01*
X197734324Y-50165233D01*
X197737852Y-50174034D01*
X197834173Y-50443233D01*
X197835370Y-50446743D01*
X197851806Y-50497325D01*
X197854197Y-50505645D01*
X197920917Y-50772006D01*
X197921934Y-50776401D01*
X197935219Y-50838908D01*
X197936608Y-50846613D01*
X197975963Y-51111916D01*
X197976637Y-51117236D01*
X197983891Y-51186260D01*
X197984429Y-51193246D01*
X197999348Y-51496906D01*
X197999500Y-51503089D01*
X197999500Y-59732786D01*
X197979498Y-59800907D01*
X197962458Y-59822019D01*
X196316674Y-61462733D01*
X196254309Y-61496662D01*
X196227716Y-61499500D01*
X192999791Y-61499500D01*
X192999500Y-61499791D01*
X192999500Y-98742283D01*
X192999791Y-98742574D01*
X192999793Y-98742575D01*
X196227716Y-98742575D01*
X196295837Y-98762577D01*
X196316672Y-98779340D01*
X196758011Y-99219319D01*
X197962458Y-100420054D01*
X197996579Y-100482314D01*
X197999500Y-100509287D01*
X197999500Y-140496910D01*
X197999348Y-140503093D01*
X197984429Y-140806752D01*
X197983891Y-140813737D01*
X197983891Y-140813738D01*
X197976637Y-140882762D01*
X197975963Y-140888082D01*
X197936608Y-141153385D01*
X197935219Y-141161090D01*
X197921934Y-141223597D01*
X197920911Y-141228019D01*
X197854198Y-141494351D01*
X197851806Y-141502673D01*
X197835370Y-141553255D01*
X197834173Y-141556765D01*
X197737852Y-141825964D01*
X197734324Y-141834765D01*
X197720650Y-141865477D01*
X197719446Y-141868100D01*
X197588925Y-142144064D01*
X197583096Y-142154969D01*
X197412908Y-142438912D01*
X197406038Y-142449193D01*
X197208837Y-142715086D01*
X197200993Y-142724644D01*
X196978677Y-142969933D01*
X196969933Y-142978677D01*
X196724644Y-143200993D01*
X196715086Y-143208837D01*
X196449193Y-143406038D01*
X196438912Y-143412908D01*
X196154969Y-143583096D01*
X196144064Y-143588925D01*
X195868100Y-143719446D01*
X195865477Y-143720650D01*
X195834765Y-143734324D01*
X195825964Y-143737852D01*
X195556765Y-143834173D01*
X195553255Y-143835370D01*
X195502673Y-143851806D01*
X195494351Y-143854198D01*
X195228019Y-143920911D01*
X195223597Y-143921934D01*
X195161090Y-143935219D01*
X195153385Y-143936608D01*
X194888082Y-143975963D01*
X194882762Y-143976637D01*
X194813738Y-143983891D01*
X194806752Y-143984429D01*
X194503094Y-143999348D01*
X194496911Y-143999500D01*
X105503089Y-143999500D01*
X105496906Y-143999348D01*
X105193246Y-143984429D01*
X105186260Y-143983891D01*
X105117236Y-143976637D01*
X105111916Y-143975963D01*
X104846613Y-143936608D01*
X104838908Y-143935219D01*
X104776401Y-143921934D01*
X104772006Y-143920917D01*
X104505645Y-143854197D01*
X104497325Y-143851806D01*
X104446743Y-143835370D01*
X104443233Y-143834173D01*
X104347307Y-143799850D01*
X104174024Y-143737848D01*
X104165233Y-143734324D01*
X104134521Y-143720650D01*
X104131898Y-143719446D01*
X103855934Y-143588925D01*
X103845036Y-143583099D01*
X103561088Y-143412908D01*
X103550807Y-143406038D01*
X103284913Y-143208837D01*
X103275355Y-143200993D01*
X103152710Y-143089835D01*
X103030060Y-142978671D01*
X103021328Y-142969939D01*
X102799006Y-142724644D01*
X102791162Y-142715086D01*
X102593961Y-142449192D01*
X102587091Y-142438911D01*
X102504902Y-142301787D01*
X102416891Y-142154949D01*
X102411078Y-142144073D01*
X102280544Y-141868084D01*
X102279348Y-141865477D01*
X102265669Y-141834753D01*
X102262161Y-141826003D01*
X102165797Y-141556685D01*
X102164628Y-141553255D01*
X102158735Y-141535119D01*
X102148187Y-141502658D01*
X102145812Y-141494392D01*
X102079062Y-141227912D01*
X102078080Y-141223669D01*
X102064778Y-141161086D01*
X102063393Y-141153407D01*
X102024025Y-140888004D01*
X102023369Y-140882828D01*
X102016105Y-140813719D01*
X102015570Y-140806772D01*
X102000652Y-140503093D01*
X102000500Y-140496912D01*
X102000500Y-127435518D01*
X106316500Y-127435518D01*
X106316500Y-127435521D01*
X106316500Y-127614479D01*
X106351413Y-127790000D01*
X106419898Y-127955336D01*
X106519322Y-128104135D01*
X106645865Y-128230678D01*
X106794664Y-128330102D01*
X106960000Y-128398587D01*
X107135521Y-128433500D01*
X107135522Y-128433500D01*
X107314478Y-128433500D01*
X107314479Y-128433500D01*
X107490000Y-128398587D01*
X107601781Y-128352284D01*
X107672371Y-128344696D01*
X107698217Y-128352284D01*
X107810000Y-128398587D01*
X107985521Y-128433500D01*
X107985522Y-128433500D01*
X108164478Y-128433500D01*
X108164479Y-128433500D01*
X108340000Y-128398587D01*
X108505336Y-128330102D01*
X108654135Y-128230678D01*
X108780678Y-128104135D01*
X108880102Y-127955336D01*
X108948587Y-127790000D01*
X108983500Y-127614479D01*
X108983500Y-127435521D01*
X108983499Y-127435518D01*
X123316500Y-127435518D01*
X123316500Y-127435521D01*
X123316500Y-127614479D01*
X123351413Y-127790000D01*
X123419898Y-127955336D01*
X123519322Y-128104135D01*
X123645865Y-128230678D01*
X123794664Y-128330102D01*
X123960000Y-128398587D01*
X124135521Y-128433500D01*
X124135522Y-128433500D01*
X124314478Y-128433500D01*
X124314479Y-128433500D01*
X124490000Y-128398587D01*
X124589282Y-128357461D01*
X124659870Y-128349872D01*
X124685712Y-128357459D01*
X124785000Y-128398587D01*
X124960521Y-128433500D01*
X124960522Y-128433500D01*
X125139478Y-128433500D01*
X125139479Y-128433500D01*
X125315000Y-128398587D01*
X125480336Y-128330102D01*
X125629135Y-128230678D01*
X125755678Y-128104135D01*
X125855102Y-127955336D01*
X125923587Y-127790000D01*
X125958500Y-127614479D01*
X125958500Y-127435521D01*
X125958499Y-127435518D01*
X139816500Y-127435518D01*
X139816500Y-127435521D01*
X139816500Y-127614479D01*
X139851413Y-127790000D01*
X139919898Y-127955336D01*
X140019322Y-128104135D01*
X140145865Y-128230678D01*
X140294664Y-128330102D01*
X140460000Y-128398587D01*
X140635521Y-128433500D01*
X140635522Y-128433500D01*
X140814478Y-128433500D01*
X140814479Y-128433500D01*
X140990000Y-128398587D01*
X141089282Y-128357461D01*
X141159870Y-128349872D01*
X141185712Y-128357459D01*
X141285000Y-128398587D01*
X141460521Y-128433500D01*
X141460522Y-128433500D01*
X141639478Y-128433500D01*
X141639479Y-128433500D01*
X141815000Y-128398587D01*
X141980336Y-128330102D01*
X142129135Y-128230678D01*
X142255678Y-128104135D01*
X142355102Y-127955336D01*
X142423587Y-127790000D01*
X142458500Y-127614479D01*
X142458500Y-127435521D01*
X142423587Y-127260000D01*
X142423584Y-127259992D01*
X142394963Y-127190895D01*
X142387373Y-127120306D01*
X142394960Y-127094465D01*
X142448587Y-126965000D01*
X142483500Y-126789479D01*
X142483500Y-126610521D01*
X142448587Y-126435000D01*
X142380102Y-126269664D01*
X142280678Y-126120865D01*
X142154135Y-125994322D01*
X142005336Y-125894898D01*
X141888429Y-125846473D01*
X141840003Y-125826414D01*
X141840001Y-125826413D01*
X141840000Y-125826413D01*
X141751645Y-125808838D01*
X141664481Y-125791500D01*
X141664479Y-125791500D01*
X141485521Y-125791500D01*
X141485518Y-125791500D01*
X141354771Y-125817507D01*
X141310000Y-125826413D01*
X141309999Y-125826413D01*
X141309996Y-125826414D01*
X141210719Y-125867537D01*
X141140129Y-125875126D01*
X141114281Y-125867537D01*
X141015003Y-125826414D01*
X141015001Y-125826413D01*
X141015000Y-125826413D01*
X140926645Y-125808838D01*
X140839481Y-125791500D01*
X140839479Y-125791500D01*
X140660521Y-125791500D01*
X140660518Y-125791500D01*
X140529771Y-125817507D01*
X140485000Y-125826413D01*
X140484999Y-125826413D01*
X140484996Y-125826414D01*
X140319662Y-125894899D01*
X140170869Y-125994319D01*
X140170862Y-125994324D01*
X140044324Y-126120862D01*
X140044319Y-126120869D01*
X139944899Y-126269662D01*
X139876414Y-126434996D01*
X139841500Y-126610518D01*
X139841500Y-126789481D01*
X139876413Y-126965000D01*
X139876415Y-126965005D01*
X139905037Y-127034105D01*
X139912626Y-127104695D01*
X139905037Y-127130539D01*
X139888952Y-127169372D01*
X139851414Y-127259996D01*
X139816500Y-127435518D01*
X125958499Y-127435518D01*
X125923587Y-127260000D01*
X125923584Y-127259992D01*
X125894963Y-127190895D01*
X125887373Y-127120306D01*
X125894960Y-127094465D01*
X125948587Y-126965000D01*
X125983500Y-126789479D01*
X125983500Y-126610521D01*
X125948587Y-126435000D01*
X125880102Y-126269664D01*
X125780678Y-126120865D01*
X125654135Y-125994322D01*
X125505336Y-125894898D01*
X125388429Y-125846473D01*
X125340003Y-125826414D01*
X125340001Y-125826413D01*
X125340000Y-125826413D01*
X125251645Y-125808838D01*
X125164481Y-125791500D01*
X125164479Y-125791500D01*
X124985521Y-125791500D01*
X124985518Y-125791500D01*
X124854771Y-125817507D01*
X124810000Y-125826413D01*
X124809999Y-125826413D01*
X124809996Y-125826414D01*
X124710719Y-125867537D01*
X124640129Y-125875126D01*
X124614281Y-125867537D01*
X124515003Y-125826414D01*
X124515001Y-125826413D01*
X124515000Y-125826413D01*
X124426645Y-125808838D01*
X124339481Y-125791500D01*
X124339479Y-125791500D01*
X124160521Y-125791500D01*
X124160518Y-125791500D01*
X124029771Y-125817507D01*
X123985000Y-125826413D01*
X123984999Y-125826413D01*
X123984996Y-125826414D01*
X123819662Y-125894899D01*
X123670869Y-125994319D01*
X123670862Y-125994324D01*
X123544324Y-126120862D01*
X123544319Y-126120869D01*
X123444899Y-126269662D01*
X123376414Y-126434996D01*
X123341500Y-126610518D01*
X123341500Y-126789481D01*
X123376413Y-126965000D01*
X123376415Y-126965005D01*
X123405037Y-127034105D01*
X123412626Y-127104695D01*
X123405037Y-127130539D01*
X123388952Y-127169372D01*
X123351414Y-127259996D01*
X123316500Y-127435518D01*
X108983499Y-127435518D01*
X108948587Y-127260000D01*
X108907461Y-127160717D01*
X108899872Y-127090130D01*
X108907459Y-127064287D01*
X108948587Y-126965000D01*
X108983500Y-126789479D01*
X108983500Y-126610521D01*
X108948587Y-126435000D01*
X108880102Y-126269664D01*
X108780678Y-126120865D01*
X108654135Y-125994322D01*
X108505336Y-125894898D01*
X108388429Y-125846473D01*
X108340003Y-125826414D01*
X108340001Y-125826413D01*
X108340000Y-125826413D01*
X108251645Y-125808838D01*
X108164481Y-125791500D01*
X108164479Y-125791500D01*
X107985521Y-125791500D01*
X107985518Y-125791500D01*
X107854771Y-125817507D01*
X107810000Y-125826413D01*
X107809999Y-125826413D01*
X107809996Y-125826414D01*
X107710719Y-125867537D01*
X107640129Y-125875126D01*
X107614281Y-125867537D01*
X107515003Y-125826414D01*
X107515001Y-125826413D01*
X107515000Y-125826413D01*
X107426645Y-125808838D01*
X107339481Y-125791500D01*
X107339479Y-125791500D01*
X107160521Y-125791500D01*
X107160518Y-125791500D01*
X107029771Y-125817507D01*
X106985000Y-125826413D01*
X106984999Y-125826413D01*
X106984996Y-125826414D01*
X106819662Y-125894899D01*
X106670869Y-125994319D01*
X106670862Y-125994324D01*
X106544324Y-126120862D01*
X106544319Y-126120869D01*
X106444899Y-126269662D01*
X106376414Y-126434996D01*
X106341500Y-126610518D01*
X106341500Y-126789481D01*
X106376413Y-126965000D01*
X106376415Y-126965005D01*
X106405037Y-127034105D01*
X106412626Y-127104695D01*
X106405037Y-127130539D01*
X106388952Y-127169372D01*
X106351414Y-127259996D01*
X106316500Y-127435518D01*
X102000500Y-127435518D01*
X102000500Y-115010518D01*
X106966500Y-115010518D01*
X106966500Y-115010521D01*
X106966500Y-115189479D01*
X107001413Y-115365000D01*
X107069898Y-115530336D01*
X107169322Y-115679135D01*
X107295865Y-115805678D01*
X107444664Y-115905102D01*
X107610000Y-115973587D01*
X107785521Y-116008500D01*
X107785522Y-116008500D01*
X107964478Y-116008500D01*
X107964479Y-116008500D01*
X108140000Y-115973587D01*
X108305336Y-115905102D01*
X108454135Y-115805678D01*
X108580678Y-115679135D01*
X108680102Y-115530336D01*
X108748587Y-115365000D01*
X108783500Y-115189479D01*
X108783500Y-115010521D01*
X108768581Y-114935518D01*
X124316500Y-114935518D01*
X124316500Y-114935521D01*
X124316500Y-115114479D01*
X124351413Y-115290000D01*
X124419898Y-115455336D01*
X124519322Y-115604135D01*
X124645865Y-115730678D01*
X124794664Y-115830102D01*
X124960000Y-115898587D01*
X125135521Y-115933500D01*
X125135522Y-115933500D01*
X125314478Y-115933500D01*
X125314479Y-115933500D01*
X125490000Y-115898587D01*
X125655336Y-115830102D01*
X125804135Y-115730678D01*
X125930678Y-115604135D01*
X126030102Y-115455336D01*
X126098587Y-115290000D01*
X126133500Y-115114479D01*
X126133500Y-114935521D01*
X126098587Y-114760000D01*
X126030102Y-114594664D01*
X125930678Y-114445865D01*
X125804135Y-114319322D01*
X125655336Y-114219898D01*
X125538429Y-114171473D01*
X125490003Y-114151414D01*
X125490001Y-114151413D01*
X125490000Y-114151413D01*
X125401645Y-114133838D01*
X125314481Y-114116500D01*
X125314479Y-114116500D01*
X125135521Y-114116500D01*
X125135518Y-114116500D01*
X125004771Y-114142507D01*
X124960000Y-114151413D01*
X124959999Y-114151413D01*
X124959996Y-114151414D01*
X124794662Y-114219899D01*
X124645869Y-114319319D01*
X124645862Y-114319324D01*
X124519324Y-114445862D01*
X124519319Y-114445869D01*
X124419899Y-114594662D01*
X124351414Y-114759996D01*
X124316500Y-114935518D01*
X108768581Y-114935518D01*
X108748587Y-114835000D01*
X108680102Y-114669664D01*
X108580678Y-114520865D01*
X108454135Y-114394322D01*
X108305336Y-114294898D01*
X108188429Y-114246473D01*
X108140003Y-114226414D01*
X108140001Y-114226413D01*
X108140000Y-114226413D01*
X108051645Y-114208838D01*
X107964481Y-114191500D01*
X107964479Y-114191500D01*
X107785521Y-114191500D01*
X107785518Y-114191500D01*
X107654771Y-114217507D01*
X107610000Y-114226413D01*
X107609999Y-114226413D01*
X107609996Y-114226414D01*
X107444662Y-114294899D01*
X107295869Y-114394319D01*
X107295862Y-114394324D01*
X107169324Y-114520862D01*
X107169319Y-114520869D01*
X107069899Y-114669662D01*
X107001414Y-114834996D01*
X106966500Y-115010518D01*
X102000500Y-115010518D01*
X102000500Y-109735518D01*
X145366500Y-109735518D01*
X145366500Y-109735521D01*
X145366500Y-109914479D01*
X145401413Y-110090000D01*
X145469898Y-110255336D01*
X145569322Y-110404135D01*
X145695865Y-110530678D01*
X145844664Y-110630102D01*
X146010000Y-110698587D01*
X146185521Y-110733500D01*
X146185522Y-110733500D01*
X146364478Y-110733500D01*
X146364479Y-110733500D01*
X146540000Y-110698587D01*
X146705336Y-110630102D01*
X146854135Y-110530678D01*
X146980678Y-110404135D01*
X147080102Y-110255336D01*
X147148587Y-110090000D01*
X147183500Y-109914479D01*
X147183500Y-109735521D01*
X147148587Y-109560000D01*
X147080102Y-109394664D01*
X146980678Y-109245865D01*
X146854135Y-109119322D01*
X146705336Y-109019898D01*
X146588429Y-108971473D01*
X146540003Y-108951414D01*
X146540001Y-108951413D01*
X146540000Y-108951413D01*
X146451645Y-108933838D01*
X146364481Y-108916500D01*
X146364479Y-108916500D01*
X146185521Y-108916500D01*
X146185518Y-108916500D01*
X146054771Y-108942507D01*
X146010000Y-108951413D01*
X146009999Y-108951413D01*
X146009996Y-108951414D01*
X145844662Y-109019899D01*
X145695869Y-109119319D01*
X145695862Y-109119324D01*
X145569324Y-109245862D01*
X145569319Y-109245869D01*
X145469899Y-109394662D01*
X145401414Y-109559996D01*
X145366500Y-109735518D01*
X102000500Y-109735518D01*
X102000500Y-106517211D01*
X102020502Y-106449090D01*
X102037542Y-106427978D01*
X103683326Y-104787267D01*
X103745691Y-104753338D01*
X103772284Y-104750500D01*
X107000207Y-104750500D01*
X107000500Y-104750207D01*
X107000500Y-103060518D01*
X135441500Y-103060518D01*
X135441500Y-103060521D01*
X135441500Y-103239479D01*
X135476413Y-103415000D01*
X135544898Y-103580336D01*
X135644322Y-103729135D01*
X135770865Y-103855678D01*
X135919664Y-103955102D01*
X136085000Y-104023587D01*
X136260521Y-104058500D01*
X136260522Y-104058500D01*
X136439478Y-104058500D01*
X136439479Y-104058500D01*
X136615000Y-104023587D01*
X136780336Y-103955102D01*
X136929135Y-103855678D01*
X137055678Y-103729135D01*
X137155102Y-103580336D01*
X137223587Y-103415000D01*
X137258500Y-103239479D01*
X137258500Y-103060521D01*
X137223587Y-102885000D01*
X137155102Y-102719664D01*
X137055678Y-102570865D01*
X136929135Y-102444322D01*
X136780336Y-102344898D01*
X136663429Y-102296473D01*
X136615003Y-102276414D01*
X136615001Y-102276413D01*
X136615000Y-102276413D01*
X136526645Y-102258838D01*
X136439481Y-102241500D01*
X136439479Y-102241500D01*
X136260521Y-102241500D01*
X136260518Y-102241500D01*
X136129771Y-102267507D01*
X136085000Y-102276413D01*
X136084999Y-102276413D01*
X136084996Y-102276414D01*
X135919662Y-102344899D01*
X135770869Y-102444319D01*
X135770862Y-102444324D01*
X135644324Y-102570862D01*
X135644319Y-102570869D01*
X135544899Y-102719662D01*
X135476414Y-102884996D01*
X135441500Y-103060518D01*
X107000500Y-103060518D01*
X107000500Y-99835518D01*
X143266500Y-99835518D01*
X143266500Y-99835521D01*
X143266500Y-100014479D01*
X143301413Y-100190000D01*
X143369898Y-100355336D01*
X143469322Y-100504135D01*
X143595865Y-100630678D01*
X143744664Y-100730102D01*
X143910000Y-100798587D01*
X144085521Y-100833500D01*
X144085522Y-100833500D01*
X144264478Y-100833500D01*
X144264479Y-100833500D01*
X144440000Y-100798587D01*
X144605336Y-100730102D01*
X144754135Y-100630678D01*
X144880678Y-100504135D01*
X144980102Y-100355336D01*
X145048587Y-100190000D01*
X145083500Y-100014479D01*
X145083500Y-99835521D01*
X145048587Y-99660000D01*
X144980102Y-99494664D01*
X144880678Y-99345865D01*
X144754135Y-99219322D01*
X144605336Y-99119898D01*
X144488429Y-99071473D01*
X144440003Y-99051414D01*
X144440001Y-99051413D01*
X144440000Y-99051413D01*
X144351645Y-99033838D01*
X144264481Y-99016500D01*
X144264479Y-99016500D01*
X144085521Y-99016500D01*
X144085518Y-99016500D01*
X143954771Y-99042507D01*
X143910000Y-99051413D01*
X143909999Y-99051413D01*
X143909996Y-99051414D01*
X143744662Y-99119899D01*
X143595869Y-99219319D01*
X143595862Y-99219324D01*
X143469324Y-99345862D01*
X143469319Y-99345869D01*
X143369899Y-99494662D01*
X143301414Y-99659996D01*
X143266500Y-99835518D01*
X107000500Y-99835518D01*
X107000500Y-89999998D01*
X126050000Y-89999998D01*
X126050000Y-96000001D01*
X126949998Y-96899999D01*
X126950000Y-96900000D01*
X129325000Y-96900000D01*
X129325001Y-96899999D01*
X130039483Y-96185518D01*
X130866500Y-96185518D01*
X130866500Y-96185521D01*
X130866500Y-96364479D01*
X130901413Y-96540000D01*
X130969898Y-96705336D01*
X131069322Y-96854135D01*
X131195865Y-96980678D01*
X131344664Y-97080102D01*
X131510000Y-97148587D01*
X131685521Y-97183500D01*
X131685522Y-97183500D01*
X131864478Y-97183500D01*
X131864479Y-97183500D01*
X132040000Y-97148587D01*
X132205336Y-97080102D01*
X132354135Y-96980678D01*
X132480678Y-96854135D01*
X132580102Y-96705336D01*
X132648587Y-96540000D01*
X132683500Y-96364479D01*
X132683500Y-96185521D01*
X132648587Y-96010000D01*
X132580102Y-95844664D01*
X132480678Y-95695865D01*
X132354135Y-95569322D01*
X132205336Y-95469898D01*
X132047414Y-95404484D01*
X132040003Y-95401414D01*
X132040001Y-95401413D01*
X132040000Y-95401413D01*
X131951645Y-95383838D01*
X131864481Y-95366500D01*
X131864479Y-95366500D01*
X131685521Y-95366500D01*
X131685518Y-95366500D01*
X131554771Y-95392507D01*
X131510000Y-95401413D01*
X131509999Y-95401413D01*
X131509996Y-95401414D01*
X131378902Y-95455716D01*
X131358411Y-95464204D01*
X131344662Y-95469899D01*
X131195869Y-95569319D01*
X131195862Y-95569324D01*
X131069324Y-95695862D01*
X131069319Y-95695869D01*
X130969899Y-95844662D01*
X130901414Y-96009996D01*
X130866500Y-96185518D01*
X130039483Y-96185518D01*
X130134765Y-96090236D01*
X130649999Y-95575001D01*
X130650000Y-95575000D01*
X130650000Y-95052190D01*
X130670002Y-94984069D01*
X130686905Y-94963095D01*
X131013095Y-94636905D01*
X131075407Y-94602879D01*
X131102190Y-94600000D01*
X131899999Y-94600000D01*
X131900000Y-94600000D01*
X132574710Y-93925290D01*
X134916500Y-93925290D01*
X134916500Y-94074709D01*
X134945649Y-94221246D01*
X135002826Y-94359284D01*
X135085835Y-94483516D01*
X135191484Y-94589165D01*
X135315716Y-94672174D01*
X135453754Y-94729351D01*
X135600294Y-94758500D01*
X135749706Y-94758500D01*
X135896246Y-94729351D01*
X135905580Y-94725484D01*
X135976166Y-94717892D01*
X136017942Y-94733438D01*
X136020403Y-94734894D01*
X136177746Y-94780606D01*
X136214506Y-94783499D01*
X136214507Y-94783500D01*
X136214516Y-94783500D01*
X136545500Y-94783500D01*
X136613621Y-94803502D01*
X136660114Y-94857158D01*
X136671500Y-94909500D01*
X136671500Y-95209987D01*
X136674370Y-95246464D01*
X136709412Y-95367078D01*
X136709209Y-95438075D01*
X136697125Y-95463835D01*
X136697816Y-95464204D01*
X136694901Y-95469657D01*
X136626414Y-95634996D01*
X136591500Y-95810518D01*
X136591500Y-95989481D01*
X136626414Y-96165003D01*
X136646473Y-96213429D01*
X136694898Y-96330336D01*
X136794322Y-96479135D01*
X136920865Y-96605678D01*
X137069664Y-96705102D01*
X137235000Y-96773587D01*
X137410521Y-96808500D01*
X137410522Y-96808500D01*
X137589478Y-96808500D01*
X137589479Y-96808500D01*
X137765000Y-96773587D01*
X137930336Y-96705102D01*
X138079135Y-96605678D01*
X138205678Y-96479135D01*
X138305102Y-96330336D01*
X138373587Y-96165000D01*
X138408500Y-95989479D01*
X138408500Y-95810521D01*
X138373587Y-95635000D01*
X138305102Y-95469664D01*
X138305101Y-95469662D01*
X138305100Y-95469660D01*
X138302185Y-95464207D01*
X138304002Y-95463235D01*
X138285604Y-95404484D01*
X138290586Y-95367083D01*
X138325629Y-95246466D01*
X138328500Y-95209989D01*
X138328499Y-94810012D01*
X138325629Y-94773534D01*
X138314333Y-94734652D01*
X138314536Y-94663656D01*
X138353090Y-94604040D01*
X138417755Y-94574732D01*
X138435330Y-94573500D01*
X150336817Y-94573500D01*
X150336819Y-94573500D01*
X150485223Y-94533735D01*
X150582696Y-94477459D01*
X150618278Y-94456916D01*
X153327384Y-91747810D01*
X156249905Y-88825290D01*
X161766500Y-88825290D01*
X161766500Y-88974709D01*
X161779786Y-89041500D01*
X161795649Y-89121246D01*
X161852826Y-89259284D01*
X161935835Y-89383516D01*
X162041484Y-89489165D01*
X162165716Y-89572174D01*
X162303754Y-89629351D01*
X162450294Y-89658500D01*
X162599706Y-89658500D01*
X162746246Y-89629351D01*
X162884284Y-89572174D01*
X163008516Y-89489165D01*
X163114165Y-89383516D01*
X163197174Y-89259284D01*
X163254351Y-89121246D01*
X163278033Y-89002186D01*
X163310941Y-88939279D01*
X163312460Y-88937732D01*
X167734788Y-84515405D01*
X167797100Y-84481379D01*
X167823883Y-84478500D01*
X168623181Y-84478500D01*
X170973181Y-84478500D01*
X176219784Y-84478500D01*
X176287905Y-84498502D01*
X176289786Y-84499735D01*
X176390716Y-84567174D01*
X176528754Y-84624351D01*
X176675294Y-84653500D01*
X176824706Y-84653500D01*
X176971246Y-84624351D01*
X177109284Y-84567174D01*
X177233516Y-84484165D01*
X177339165Y-84378516D01*
X177422174Y-84254284D01*
X177479351Y-84116246D01*
X177508500Y-83969706D01*
X177508500Y-83820294D01*
X177479351Y-83673754D01*
X177422174Y-83535716D01*
X177339165Y-83411484D01*
X177233516Y-83305835D01*
X177109284Y-83222826D01*
X176971249Y-83165650D01*
X176971246Y-83165649D01*
X176824709Y-83136500D01*
X176824706Y-83136500D01*
X176675294Y-83136500D01*
X176675290Y-83136500D01*
X176528753Y-83165649D01*
X176528750Y-83165650D01*
X176390715Y-83222826D01*
X176289786Y-83290265D01*
X176222033Y-83311480D01*
X176219784Y-83311500D01*
X171126819Y-83311500D01*
X168776819Y-83311500D01*
X167606819Y-83311500D01*
X167453181Y-83311500D01*
X167373655Y-83332808D01*
X167304780Y-83351263D01*
X167304773Y-83351266D01*
X167171726Y-83428081D01*
X167171716Y-83428089D01*
X162487323Y-88112482D01*
X162425011Y-88146508D01*
X162422811Y-88146966D01*
X162303751Y-88170649D01*
X162303750Y-88170650D01*
X162165715Y-88227826D01*
X162041488Y-88310832D01*
X162041481Y-88310837D01*
X161935837Y-88416481D01*
X161935832Y-88416488D01*
X161852826Y-88540715D01*
X161795650Y-88678750D01*
X161795649Y-88678753D01*
X161766500Y-88825290D01*
X156249905Y-88825290D01*
X156345186Y-88730009D01*
X184466910Y-60608283D01*
X184466909Y-60608283D01*
X184466916Y-60608277D01*
X184543736Y-60475222D01*
X184583500Y-60326819D01*
X184583500Y-60173180D01*
X184583500Y-56103884D01*
X184603502Y-56035763D01*
X184620400Y-56014793D01*
X185061541Y-55573651D01*
X185123852Y-55539628D01*
X185189570Y-55542914D01*
X185202959Y-55547265D01*
X185400167Y-55578500D01*
X185400170Y-55578500D01*
X185599830Y-55578500D01*
X185599833Y-55578500D01*
X185797041Y-55547265D01*
X185986935Y-55485565D01*
X186164839Y-55394918D01*
X186326372Y-55277557D01*
X186467557Y-55136372D01*
X186584918Y-54974839D01*
X186675565Y-54796935D01*
X186737265Y-54607041D01*
X186768500Y-54409833D01*
X186768500Y-54210167D01*
X186737265Y-54012959D01*
X186675565Y-53823065D01*
X186584918Y-53645161D01*
X186467557Y-53483628D01*
X186467555Y-53483625D01*
X186326374Y-53342444D01*
X186164842Y-53225084D01*
X186164841Y-53225083D01*
X186164839Y-53225082D01*
X185986935Y-53134435D01*
X185986932Y-53134434D01*
X185986930Y-53134433D01*
X185797046Y-53072736D01*
X185797042Y-53072735D01*
X185797041Y-53072735D01*
X185599833Y-53041500D01*
X185400167Y-53041500D01*
X185202959Y-53072735D01*
X185202953Y-53072736D01*
X185013069Y-53134433D01*
X185013063Y-53134436D01*
X184835157Y-53225084D01*
X184673625Y-53342444D01*
X184532444Y-53483625D01*
X184415084Y-53645157D01*
X184324436Y-53823063D01*
X184324433Y-53823069D01*
X184262736Y-54012953D01*
X184262735Y-54012958D01*
X184262735Y-54012959D01*
X184231500Y-54210167D01*
X184231500Y-54409833D01*
X184262735Y-54607041D01*
X184262736Y-54607044D01*
X184267084Y-54620426D01*
X184269111Y-54691394D01*
X184236347Y-54748457D01*
X183533084Y-55451721D01*
X183529176Y-55458492D01*
X183529171Y-55458500D01*
X183456267Y-55584772D01*
X183456264Y-55584779D01*
X183416500Y-55733182D01*
X183416500Y-56160635D01*
X183396498Y-56228756D01*
X183342842Y-56275249D01*
X183272568Y-56285353D01*
X183216440Y-56262571D01*
X183164845Y-56225085D01*
X183038355Y-56160635D01*
X182986935Y-56134435D01*
X182986932Y-56134434D01*
X182986930Y-56134433D01*
X182797046Y-56072736D01*
X182797042Y-56072735D01*
X182797041Y-56072735D01*
X182599833Y-56041500D01*
X182400167Y-56041500D01*
X182202959Y-56072735D01*
X182202953Y-56072736D01*
X182013069Y-56134433D01*
X182013063Y-56134436D01*
X181835157Y-56225084D01*
X181673625Y-56342444D01*
X181532444Y-56483625D01*
X181415084Y-56645157D01*
X181324436Y-56823063D01*
X181324433Y-56823069D01*
X181262736Y-57012953D01*
X181262735Y-57012958D01*
X181262735Y-57012959D01*
X181231500Y-57210167D01*
X181231500Y-57409833D01*
X181254493Y-57555003D01*
X181262736Y-57607046D01*
X181324433Y-57796930D01*
X181324435Y-57796935D01*
X181361223Y-57869135D01*
X181415084Y-57974842D01*
X181532444Y-58136374D01*
X181673625Y-58277555D01*
X181673628Y-58277557D01*
X181835161Y-58394918D01*
X182013065Y-58485565D01*
X182202959Y-58547265D01*
X182400167Y-58578500D01*
X182400170Y-58578500D01*
X182599830Y-58578500D01*
X182599833Y-58578500D01*
X182797041Y-58547265D01*
X182986935Y-58485565D01*
X183164839Y-58394918D01*
X183216440Y-58357427D01*
X183283306Y-58333570D01*
X183352458Y-58349650D01*
X183401938Y-58400563D01*
X183416500Y-58459364D01*
X183416500Y-59956116D01*
X183396498Y-60024237D01*
X183379595Y-60045211D01*
X150055211Y-93369595D01*
X149992899Y-93403621D01*
X149966116Y-93406500D01*
X138198738Y-93406500D01*
X138130617Y-93386498D01*
X138109643Y-93369595D01*
X138082546Y-93342498D01*
X138082539Y-93342492D01*
X137942600Y-93259732D01*
X137786464Y-93214370D01*
X137749998Y-93211500D01*
X137250012Y-93211500D01*
X137213535Y-93214370D01*
X137057403Y-93259731D01*
X137052816Y-93262444D01*
X137036550Y-93272064D01*
X137036548Y-93272065D01*
X136967732Y-93289523D01*
X136908273Y-93272064D01*
X136879600Y-93255107D01*
X136722252Y-93209393D01*
X136685493Y-93206500D01*
X136685484Y-93206500D01*
X136214516Y-93206500D01*
X136214507Y-93206500D01*
X136177748Y-93209393D01*
X136177747Y-93209393D01*
X136020399Y-93255107D01*
X136007993Y-93262444D01*
X135939176Y-93279901D01*
X135902349Y-93271864D01*
X135902173Y-93272447D01*
X135896246Y-93270649D01*
X135749709Y-93241500D01*
X135749706Y-93241500D01*
X135600294Y-93241500D01*
X135600290Y-93241500D01*
X135453753Y-93270649D01*
X135453750Y-93270650D01*
X135315715Y-93327826D01*
X135191488Y-93410832D01*
X135191481Y-93410837D01*
X135085837Y-93516481D01*
X135085832Y-93516488D01*
X135002826Y-93640715D01*
X134945650Y-93778750D01*
X134945649Y-93778753D01*
X134916500Y-93925290D01*
X132574710Y-93925290D01*
X132713095Y-93786905D01*
X132775407Y-93752879D01*
X132802190Y-93750000D01*
X134450000Y-93750000D01*
X134450000Y-92750000D01*
X132752190Y-92750000D01*
X132684069Y-92729998D01*
X132663099Y-92713099D01*
X132500000Y-92550000D01*
X132102190Y-92550000D01*
X132034069Y-92529998D01*
X132013099Y-92513099D01*
X131600000Y-92100000D01*
X131052190Y-92100000D01*
X130984069Y-92079998D01*
X130963095Y-92063095D01*
X130736905Y-91836905D01*
X130702879Y-91774593D01*
X130700000Y-91747810D01*
X130700000Y-89860518D01*
X132766500Y-89860518D01*
X132766500Y-90039481D01*
X132801414Y-90215003D01*
X132804326Y-90222033D01*
X132869898Y-90380336D01*
X132969322Y-90529135D01*
X133095865Y-90655678D01*
X133244664Y-90755102D01*
X133410000Y-90823587D01*
X133585521Y-90858500D01*
X133585522Y-90858500D01*
X133764478Y-90858500D01*
X133764479Y-90858500D01*
X133940000Y-90823587D01*
X134105336Y-90755102D01*
X134224783Y-90675290D01*
X139241500Y-90675290D01*
X139241500Y-90824709D01*
X139248222Y-90858500D01*
X139270649Y-90971246D01*
X139327826Y-91109284D01*
X139410835Y-91233516D01*
X139516484Y-91339165D01*
X139640716Y-91422174D01*
X139778754Y-91479351D01*
X139925294Y-91508500D01*
X140074706Y-91508500D01*
X140221246Y-91479351D01*
X140359284Y-91422174D01*
X140483516Y-91339165D01*
X140589165Y-91233516D01*
X140672174Y-91109284D01*
X140729351Y-90971246D01*
X140758500Y-90824706D01*
X140758500Y-90675294D01*
X140729351Y-90528754D01*
X140672174Y-90390716D01*
X140624030Y-90318663D01*
X140604735Y-90289786D01*
X140583520Y-90222033D01*
X140583500Y-90219784D01*
X140583500Y-89695367D01*
X143641500Y-89695367D01*
X143641500Y-89854632D01*
X143642672Y-89860522D01*
X143672570Y-90010831D01*
X143733517Y-90157968D01*
X143821594Y-90289786D01*
X143821998Y-90290390D01*
X143822003Y-90290396D01*
X143934603Y-90402996D01*
X143934609Y-90403001D01*
X143934611Y-90403003D01*
X144067032Y-90491483D01*
X144214169Y-90552430D01*
X144370370Y-90583500D01*
X144370371Y-90583500D01*
X144529629Y-90583500D01*
X144529630Y-90583500D01*
X144685831Y-90552430D01*
X144832968Y-90491483D01*
X144965389Y-90403003D01*
X145078003Y-90290389D01*
X145166483Y-90157968D01*
X145227430Y-90010831D01*
X145258500Y-89854630D01*
X145258500Y-89695370D01*
X145227430Y-89539169D01*
X145166483Y-89392032D01*
X145078003Y-89259611D01*
X145078001Y-89259609D01*
X145077996Y-89259603D01*
X144965396Y-89147003D01*
X144965390Y-89146998D01*
X144962249Y-89144899D01*
X144832968Y-89058517D01*
X144685831Y-88997570D01*
X144607730Y-88982035D01*
X144529632Y-88966500D01*
X144529630Y-88966500D01*
X144370370Y-88966500D01*
X144370367Y-88966500D01*
X144284909Y-88983499D01*
X144214169Y-88997570D01*
X144108114Y-89041500D01*
X144067032Y-89058517D01*
X143934609Y-89146998D01*
X143934603Y-89147003D01*
X143822003Y-89259603D01*
X143821998Y-89259609D01*
X143733517Y-89392032D01*
X143672571Y-89539167D01*
X143672570Y-89539170D01*
X143641500Y-89695367D01*
X140583500Y-89695367D01*
X140583500Y-88543884D01*
X140603502Y-88475763D01*
X140620405Y-88454789D01*
X145029789Y-84045405D01*
X145092101Y-84011379D01*
X145118884Y-84008500D01*
X153926817Y-84008500D01*
X153926819Y-84008500D01*
X154075223Y-83968735D01*
X154141750Y-83930325D01*
X154208278Y-83891916D01*
X158241916Y-79858278D01*
X158280324Y-79791752D01*
X158280325Y-79791751D01*
X158318732Y-79725228D01*
X158318731Y-79725228D01*
X158318735Y-79725223D01*
X158358500Y-79576819D01*
X158358500Y-74173181D01*
X158358500Y-71698181D01*
X158318735Y-71549777D01*
X158273395Y-71471246D01*
X158241916Y-71416722D01*
X158037515Y-71212321D01*
X158003492Y-71150012D01*
X158003033Y-71147810D01*
X157979351Y-71028754D01*
X157922174Y-70890716D01*
X157839165Y-70766484D01*
X157733516Y-70660835D01*
X157609284Y-70577826D01*
X157471249Y-70520650D01*
X157471246Y-70520649D01*
X157324709Y-70491500D01*
X157324706Y-70491500D01*
X157175294Y-70491500D01*
X157175290Y-70491500D01*
X157028753Y-70520649D01*
X157028750Y-70520650D01*
X156890715Y-70577826D01*
X156766488Y-70660832D01*
X156766481Y-70660837D01*
X156660837Y-70766481D01*
X156660832Y-70766488D01*
X156577826Y-70890715D01*
X156520650Y-71028750D01*
X156520649Y-71028753D01*
X156491500Y-71175290D01*
X156491500Y-71324709D01*
X156513361Y-71434611D01*
X156520649Y-71471246D01*
X156577826Y-71609284D01*
X156660835Y-71733516D01*
X156766484Y-71839165D01*
X156890716Y-71922174D01*
X157028754Y-71979351D01*
X157090083Y-71991550D01*
X157152990Y-72024456D01*
X157188123Y-72086151D01*
X157191500Y-72115128D01*
X157191500Y-79206116D01*
X157171498Y-79274237D01*
X157154595Y-79295211D01*
X153645211Y-82804595D01*
X153582899Y-82838621D01*
X153556116Y-82841500D01*
X144748181Y-82841500D01*
X144657355Y-82865836D01*
X144599772Y-82881266D01*
X144533250Y-82919674D01*
X144466725Y-82958081D01*
X144466715Y-82958089D01*
X139533089Y-87891715D01*
X139533081Y-87891725D01*
X139494674Y-87958250D01*
X139456266Y-88024772D01*
X139456265Y-88024777D01*
X139417179Y-88170649D01*
X139416500Y-88173182D01*
X139416500Y-90219784D01*
X139396498Y-90287905D01*
X139395265Y-90289786D01*
X139327826Y-90390715D01*
X139270650Y-90528750D01*
X139270649Y-90528753D01*
X139241500Y-90675290D01*
X134224783Y-90675290D01*
X134254135Y-90655678D01*
X134380678Y-90529135D01*
X134480102Y-90380336D01*
X134548587Y-90215000D01*
X134583500Y-90039479D01*
X134583500Y-89860521D01*
X134548587Y-89685000D01*
X134480102Y-89519664D01*
X134380678Y-89370865D01*
X134254135Y-89244322D01*
X134105336Y-89144898D01*
X133988429Y-89096473D01*
X133940003Y-89076414D01*
X133940001Y-89076413D01*
X133940000Y-89076413D01*
X133850030Y-89058517D01*
X133764481Y-89041500D01*
X133764479Y-89041500D01*
X133585521Y-89041500D01*
X133585518Y-89041500D01*
X133454771Y-89067507D01*
X133410000Y-89076413D01*
X133409999Y-89076413D01*
X133409996Y-89076414D01*
X133244662Y-89144899D01*
X133095869Y-89244319D01*
X133095862Y-89244324D01*
X132969324Y-89370862D01*
X132969319Y-89370869D01*
X132869899Y-89519662D01*
X132801414Y-89684996D01*
X132766500Y-89860518D01*
X130700000Y-89860518D01*
X130700000Y-89350000D01*
X130699999Y-89349998D01*
X130150001Y-88800000D01*
X130150000Y-88800000D01*
X127250000Y-88800000D01*
X127249998Y-88800000D01*
X126050000Y-89999998D01*
X107000500Y-89999998D01*
X107000500Y-87985518D01*
X131566500Y-87985518D01*
X131566500Y-87985521D01*
X131566500Y-88164479D01*
X131601413Y-88340000D01*
X131669898Y-88505336D01*
X131769322Y-88654135D01*
X131895865Y-88780678D01*
X132044664Y-88880102D01*
X132210000Y-88948587D01*
X132385521Y-88983500D01*
X132385522Y-88983500D01*
X132564478Y-88983500D01*
X132564479Y-88983500D01*
X132740000Y-88948587D01*
X132905336Y-88880102D01*
X133054135Y-88780678D01*
X133180678Y-88654135D01*
X133280102Y-88505336D01*
X133348587Y-88340000D01*
X133383500Y-88164479D01*
X133383500Y-87985521D01*
X133348587Y-87810000D01*
X133280102Y-87644664D01*
X133180678Y-87495865D01*
X133054135Y-87369322D01*
X132905336Y-87269898D01*
X132788429Y-87221473D01*
X132740003Y-87201414D01*
X132740001Y-87201413D01*
X132740000Y-87201413D01*
X132651645Y-87183838D01*
X132564481Y-87166500D01*
X132564479Y-87166500D01*
X132385521Y-87166500D01*
X132385518Y-87166500D01*
X132254771Y-87192507D01*
X132210000Y-87201413D01*
X132209999Y-87201413D01*
X132209996Y-87201414D01*
X132044662Y-87269899D01*
X131895869Y-87369319D01*
X131895862Y-87369324D01*
X131769324Y-87495862D01*
X131769319Y-87495869D01*
X131669899Y-87644662D01*
X131601414Y-87809996D01*
X131566500Y-87985518D01*
X107000500Y-87985518D01*
X107000500Y-81790518D01*
X133941500Y-81790518D01*
X133941500Y-81790521D01*
X133941500Y-81969479D01*
X133976413Y-82145000D01*
X134044898Y-82310336D01*
X134144322Y-82459135D01*
X134270865Y-82585678D01*
X134419664Y-82685102D01*
X134585000Y-82753587D01*
X134760521Y-82788500D01*
X134760522Y-82788500D01*
X134939478Y-82788500D01*
X134939479Y-82788500D01*
X135115000Y-82753587D01*
X135280336Y-82685102D01*
X135429135Y-82585678D01*
X135555678Y-82459135D01*
X135655102Y-82310336D01*
X135723587Y-82145000D01*
X135758500Y-81969479D01*
X135758500Y-81790521D01*
X135723587Y-81615000D01*
X135655102Y-81449664D01*
X135555678Y-81300865D01*
X135429135Y-81174322D01*
X135280336Y-81074898D01*
X135163429Y-81026473D01*
X135115003Y-81006414D01*
X135115001Y-81006413D01*
X135115000Y-81006413D01*
X135026645Y-80988838D01*
X134939481Y-80971500D01*
X134939479Y-80971500D01*
X134760521Y-80971500D01*
X134760518Y-80971500D01*
X134629771Y-80997507D01*
X134585000Y-81006413D01*
X134584999Y-81006413D01*
X134584996Y-81006414D01*
X134419662Y-81074899D01*
X134270869Y-81174319D01*
X134270862Y-81174324D01*
X134144324Y-81300862D01*
X134144319Y-81300869D01*
X134044899Y-81449662D01*
X133976414Y-81614996D01*
X133941500Y-81790518D01*
X107000500Y-81790518D01*
X107000500Y-74210518D01*
X154016500Y-74210518D01*
X154016500Y-74210521D01*
X154016500Y-74389479D01*
X154051413Y-74565000D01*
X154119898Y-74730336D01*
X154219322Y-74879135D01*
X154345865Y-75005678D01*
X154494664Y-75105102D01*
X154660000Y-75173587D01*
X154835521Y-75208500D01*
X154835522Y-75208500D01*
X155014478Y-75208500D01*
X155014479Y-75208500D01*
X155190000Y-75173587D01*
X155355336Y-75105102D01*
X155504135Y-75005678D01*
X155630678Y-74879135D01*
X155730102Y-74730336D01*
X155798587Y-74565000D01*
X155833500Y-74389479D01*
X155833500Y-74210521D01*
X155798587Y-74035000D01*
X155730102Y-73869664D01*
X155630678Y-73720865D01*
X155504135Y-73594322D01*
X155355336Y-73494898D01*
X155238429Y-73446473D01*
X155190003Y-73426414D01*
X155190001Y-73426413D01*
X155190000Y-73426413D01*
X155101645Y-73408838D01*
X155014481Y-73391500D01*
X155014479Y-73391500D01*
X154835521Y-73391500D01*
X154835518Y-73391500D01*
X154704771Y-73417507D01*
X154660000Y-73426413D01*
X154659999Y-73426413D01*
X154659996Y-73426414D01*
X154494662Y-73494899D01*
X154345869Y-73594319D01*
X154345862Y-73594324D01*
X154219324Y-73720862D01*
X154219319Y-73720869D01*
X154119899Y-73869662D01*
X154051414Y-74034996D01*
X154016500Y-74210518D01*
X107000500Y-74210518D01*
X107000500Y-64985518D01*
X153591500Y-64985518D01*
X153591500Y-64985521D01*
X153591500Y-65164479D01*
X153626413Y-65340000D01*
X153667536Y-65439280D01*
X153667537Y-65439281D01*
X153675126Y-65509871D01*
X153667537Y-65535717D01*
X153660871Y-65551811D01*
X153626414Y-65634996D01*
X153591500Y-65810518D01*
X153591500Y-65810521D01*
X153591500Y-65989479D01*
X153626413Y-66165000D01*
X153694898Y-66330336D01*
X153794322Y-66479135D01*
X153920865Y-66605678D01*
X154069664Y-66705102D01*
X154235000Y-66773587D01*
X154410521Y-66808500D01*
X154410522Y-66808500D01*
X154589478Y-66808500D01*
X154589479Y-66808500D01*
X154765000Y-66773587D01*
X154864282Y-66732461D01*
X154934870Y-66724872D01*
X154960712Y-66732459D01*
X155060000Y-66773587D01*
X155235521Y-66808500D01*
X155235522Y-66808500D01*
X155414478Y-66808500D01*
X155414479Y-66808500D01*
X155590000Y-66773587D01*
X155755336Y-66705102D01*
X155904135Y-66605678D01*
X156030678Y-66479135D01*
X156130102Y-66330336D01*
X156198587Y-66165000D01*
X156233500Y-65989479D01*
X156233500Y-65810521D01*
X156198587Y-65635000D01*
X156157461Y-65535717D01*
X156149872Y-65465130D01*
X156157462Y-65439281D01*
X156198587Y-65340000D01*
X156233500Y-65164479D01*
X156233500Y-64985521D01*
X156198587Y-64810000D01*
X156130102Y-64644664D01*
X156030678Y-64495865D01*
X155904135Y-64369322D01*
X155755336Y-64269898D01*
X155638429Y-64221473D01*
X155590003Y-64201414D01*
X155590001Y-64201413D01*
X155590000Y-64201413D01*
X155501645Y-64183838D01*
X155414481Y-64166500D01*
X155414479Y-64166500D01*
X155235521Y-64166500D01*
X155235518Y-64166500D01*
X155104771Y-64192507D01*
X155060000Y-64201413D01*
X155059999Y-64201413D01*
X155059996Y-64201414D01*
X154960719Y-64242537D01*
X154890129Y-64250126D01*
X154864281Y-64242537D01*
X154765003Y-64201414D01*
X154765001Y-64201413D01*
X154765000Y-64201413D01*
X154676645Y-64183838D01*
X154589481Y-64166500D01*
X154589479Y-64166500D01*
X154410521Y-64166500D01*
X154410518Y-64166500D01*
X154279771Y-64192507D01*
X154235000Y-64201413D01*
X154234999Y-64201413D01*
X154234996Y-64201414D01*
X154069662Y-64269899D01*
X153920869Y-64369319D01*
X153920862Y-64369324D01*
X153794324Y-64495862D01*
X153794319Y-64495869D01*
X153694899Y-64644662D01*
X153626414Y-64809996D01*
X153591500Y-64985518D01*
X107000500Y-64985518D01*
X107000500Y-64741868D01*
X107000499Y-64741866D01*
X107000208Y-64741575D01*
X107000207Y-64741575D01*
X103772284Y-64741575D01*
X103704163Y-64721573D01*
X103683326Y-64704808D01*
X103470562Y-64492700D01*
X102374489Y-63400004D01*
X102037542Y-63064095D01*
X102003421Y-63001835D01*
X102000500Y-62974862D01*
X102000500Y-57200518D01*
X104466500Y-57200518D01*
X104466500Y-57379481D01*
X104483838Y-57466645D01*
X104501413Y-57555000D01*
X104569898Y-57720336D01*
X104669322Y-57869135D01*
X104795865Y-57995678D01*
X104944664Y-58095102D01*
X105110000Y-58163587D01*
X105285521Y-58198500D01*
X105285522Y-58198500D01*
X105464478Y-58198500D01*
X105464479Y-58198500D01*
X105640000Y-58163587D01*
X105805336Y-58095102D01*
X105954135Y-57995678D01*
X106080678Y-57869135D01*
X106180102Y-57720336D01*
X106248587Y-57555000D01*
X106283500Y-57379479D01*
X106283500Y-57200521D01*
X106248587Y-57025000D01*
X106180102Y-56859664D01*
X106080678Y-56710865D01*
X105954135Y-56584322D01*
X105805336Y-56484898D01*
X105679009Y-56432571D01*
X105640003Y-56416414D01*
X105640001Y-56416413D01*
X105640000Y-56416413D01*
X105551645Y-56398838D01*
X105464481Y-56381500D01*
X105464479Y-56381500D01*
X105285521Y-56381500D01*
X105285518Y-56381500D01*
X105154771Y-56407507D01*
X105110000Y-56416413D01*
X105109999Y-56416413D01*
X105109996Y-56416414D01*
X104978902Y-56470716D01*
X104947738Y-56483625D01*
X104944662Y-56484899D01*
X104795869Y-56584319D01*
X104795862Y-56584324D01*
X104669324Y-56710862D01*
X104669319Y-56710869D01*
X104569899Y-56859662D01*
X104501414Y-57024996D01*
X104466500Y-57200518D01*
X102000500Y-57200518D01*
X102000500Y-51503087D01*
X102000652Y-51496905D01*
X102008904Y-51328926D01*
X102015570Y-51193222D01*
X102016105Y-51186286D01*
X102023370Y-51117159D01*
X102024023Y-51112007D01*
X102063395Y-50846581D01*
X102064776Y-50838924D01*
X102078085Y-50776305D01*
X102079055Y-50772113D01*
X102145815Y-50505591D01*
X102148182Y-50497356D01*
X102164635Y-50446721D01*
X102165783Y-50443355D01*
X102262168Y-50173977D01*
X102265661Y-50165264D01*
X102279386Y-50134436D01*
X102280512Y-50131984D01*
X102411082Y-49855917D01*
X102416886Y-49845058D01*
X102587097Y-49561077D01*
X102593034Y-49552192D01*
X109486500Y-49552192D01*
X109486500Y-62947826D01*
X109489439Y-63002670D01*
X109489443Y-63002722D01*
X109492318Y-63029464D01*
X109492319Y-63029469D01*
X109492320Y-63029475D01*
X109497930Y-63064095D01*
X109498377Y-63066849D01*
X109500000Y-63087006D01*
X109500000Y-63250001D01*
X110749998Y-64499999D01*
X110750000Y-64500000D01*
X110949280Y-64500000D01*
X110967210Y-64501281D01*
X111052190Y-64513500D01*
X111052193Y-64513500D01*
X118947820Y-64513500D01*
X118947824Y-64513499D01*
X119002692Y-64510559D01*
X119002714Y-64510556D01*
X119002722Y-64510556D01*
X119017484Y-64508968D01*
X119029475Y-64507680D01*
X119066851Y-64501623D01*
X119087007Y-64500000D01*
X119250000Y-64500000D01*
X120500000Y-63250000D01*
X120500000Y-63050720D01*
X120501282Y-63032789D01*
X120501760Y-63029464D01*
X120513500Y-62947810D01*
X120513500Y-57210167D01*
X166231500Y-57210167D01*
X166231500Y-57409833D01*
X166254493Y-57555003D01*
X166262736Y-57607046D01*
X166324433Y-57796930D01*
X166324435Y-57796935D01*
X166361223Y-57869135D01*
X166415084Y-57974842D01*
X166532444Y-58136374D01*
X166673625Y-58277555D01*
X166673628Y-58277557D01*
X166835161Y-58394918D01*
X167013065Y-58485565D01*
X167202959Y-58547265D01*
X167400167Y-58578500D01*
X167400170Y-58578500D01*
X167599830Y-58578500D01*
X167599833Y-58578500D01*
X167797041Y-58547265D01*
X167986935Y-58485565D01*
X168164839Y-58394918D01*
X168326372Y-58277557D01*
X168467557Y-58136372D01*
X168584918Y-57974839D01*
X168675565Y-57796935D01*
X168737265Y-57607041D01*
X168768500Y-57409833D01*
X168768500Y-57210167D01*
X169231500Y-57210167D01*
X169231500Y-57409833D01*
X169254493Y-57555003D01*
X169262736Y-57607046D01*
X169324433Y-57796930D01*
X169324435Y-57796935D01*
X169361223Y-57869135D01*
X169415084Y-57974842D01*
X169532444Y-58136374D01*
X169673625Y-58277555D01*
X169673628Y-58277557D01*
X169835161Y-58394918D01*
X170013065Y-58485565D01*
X170202959Y-58547265D01*
X170400167Y-58578500D01*
X170400170Y-58578500D01*
X170599830Y-58578500D01*
X170599833Y-58578500D01*
X170797041Y-58547265D01*
X170986935Y-58485565D01*
X171164839Y-58394918D01*
X171326372Y-58277557D01*
X171467557Y-58136372D01*
X171584918Y-57974839D01*
X171675565Y-57796935D01*
X171737265Y-57607041D01*
X171768500Y-57409833D01*
X171768500Y-57210167D01*
X172231500Y-57210167D01*
X172231500Y-57409833D01*
X172254493Y-57555003D01*
X172262736Y-57607046D01*
X172324433Y-57796930D01*
X172324435Y-57796935D01*
X172361223Y-57869135D01*
X172415084Y-57974842D01*
X172532444Y-58136374D01*
X172673625Y-58277555D01*
X172673628Y-58277557D01*
X172835161Y-58394918D01*
X173013065Y-58485565D01*
X173202959Y-58547265D01*
X173400167Y-58578500D01*
X173400170Y-58578500D01*
X173599830Y-58578500D01*
X173599833Y-58578500D01*
X173797041Y-58547265D01*
X173986935Y-58485565D01*
X174164839Y-58394918D01*
X174326372Y-58277557D01*
X174467557Y-58136372D01*
X174584918Y-57974839D01*
X174675565Y-57796935D01*
X174737265Y-57607041D01*
X174768500Y-57409833D01*
X174768500Y-57210167D01*
X175231500Y-57210167D01*
X175231500Y-57409833D01*
X175254493Y-57555003D01*
X175262736Y-57607046D01*
X175324433Y-57796930D01*
X175324435Y-57796935D01*
X175361223Y-57869135D01*
X175415084Y-57974842D01*
X175532444Y-58136374D01*
X175673625Y-58277555D01*
X175673628Y-58277557D01*
X175835161Y-58394918D01*
X176013065Y-58485565D01*
X176202959Y-58547265D01*
X176400167Y-58578500D01*
X176400170Y-58578500D01*
X176599830Y-58578500D01*
X176599833Y-58578500D01*
X176797041Y-58547265D01*
X176986935Y-58485565D01*
X177164839Y-58394918D01*
X177326372Y-58277557D01*
X177467557Y-58136372D01*
X177584918Y-57974839D01*
X177675565Y-57796935D01*
X177737265Y-57607041D01*
X177768500Y-57409833D01*
X177768500Y-57210167D01*
X178231500Y-57210167D01*
X178231500Y-57409833D01*
X178254493Y-57555003D01*
X178262736Y-57607046D01*
X178324433Y-57796930D01*
X178324435Y-57796935D01*
X178361223Y-57869135D01*
X178415084Y-57974842D01*
X178532444Y-58136374D01*
X178673625Y-58277555D01*
X178673628Y-58277557D01*
X178835161Y-58394918D01*
X179013065Y-58485565D01*
X179202959Y-58547265D01*
X179400167Y-58578500D01*
X179400170Y-58578500D01*
X179599830Y-58578500D01*
X179599833Y-58578500D01*
X179797041Y-58547265D01*
X179986935Y-58485565D01*
X180164839Y-58394918D01*
X180326372Y-58277557D01*
X180467557Y-58136372D01*
X180584918Y-57974839D01*
X180675565Y-57796935D01*
X180737265Y-57607041D01*
X180768500Y-57409833D01*
X180768500Y-57210167D01*
X180737265Y-57012959D01*
X180675565Y-56823065D01*
X180584918Y-56645161D01*
X180540714Y-56584319D01*
X180467555Y-56483625D01*
X180326374Y-56342444D01*
X180164842Y-56225084D01*
X180164841Y-56225083D01*
X180164839Y-56225082D01*
X179986935Y-56134435D01*
X179986932Y-56134434D01*
X179986930Y-56134433D01*
X179797046Y-56072736D01*
X179797042Y-56072735D01*
X179797041Y-56072735D01*
X179599833Y-56041500D01*
X179400167Y-56041500D01*
X179202959Y-56072735D01*
X179202953Y-56072736D01*
X179013069Y-56134433D01*
X179013063Y-56134436D01*
X178835157Y-56225084D01*
X178673625Y-56342444D01*
X178532444Y-56483625D01*
X178415084Y-56645157D01*
X178324436Y-56823063D01*
X178324433Y-56823069D01*
X178262736Y-57012953D01*
X178262735Y-57012958D01*
X178262735Y-57012959D01*
X178231500Y-57210167D01*
X177768500Y-57210167D01*
X177737265Y-57012959D01*
X177675565Y-56823065D01*
X177584918Y-56645161D01*
X177540714Y-56584319D01*
X177467555Y-56483625D01*
X177326374Y-56342444D01*
X177164842Y-56225084D01*
X177164841Y-56225083D01*
X177164839Y-56225082D01*
X176986935Y-56134435D01*
X176986932Y-56134434D01*
X176986930Y-56134433D01*
X176797046Y-56072736D01*
X176797042Y-56072735D01*
X176797041Y-56072735D01*
X176599833Y-56041500D01*
X176400167Y-56041500D01*
X176202959Y-56072735D01*
X176202953Y-56072736D01*
X176013069Y-56134433D01*
X176013063Y-56134436D01*
X175835157Y-56225084D01*
X175673625Y-56342444D01*
X175532444Y-56483625D01*
X175415084Y-56645157D01*
X175324436Y-56823063D01*
X175324433Y-56823069D01*
X175262736Y-57012953D01*
X175262735Y-57012958D01*
X175262735Y-57012959D01*
X175231500Y-57210167D01*
X174768500Y-57210167D01*
X174737265Y-57012959D01*
X174675565Y-56823065D01*
X174584918Y-56645161D01*
X174540714Y-56584319D01*
X174467555Y-56483625D01*
X174326374Y-56342444D01*
X174164842Y-56225084D01*
X174164841Y-56225083D01*
X174164839Y-56225082D01*
X173986935Y-56134435D01*
X173986932Y-56134434D01*
X173986930Y-56134433D01*
X173797046Y-56072736D01*
X173797042Y-56072735D01*
X173797041Y-56072735D01*
X173599833Y-56041500D01*
X173400167Y-56041500D01*
X173202959Y-56072735D01*
X173202953Y-56072736D01*
X173013069Y-56134433D01*
X173013063Y-56134436D01*
X172835157Y-56225084D01*
X172673625Y-56342444D01*
X172532444Y-56483625D01*
X172415084Y-56645157D01*
X172324436Y-56823063D01*
X172324433Y-56823069D01*
X172262736Y-57012953D01*
X172262735Y-57012958D01*
X172262735Y-57012959D01*
X172231500Y-57210167D01*
X171768500Y-57210167D01*
X171737265Y-57012959D01*
X171675565Y-56823065D01*
X171584918Y-56645161D01*
X171540714Y-56584319D01*
X171467555Y-56483625D01*
X171326374Y-56342444D01*
X171164842Y-56225084D01*
X171164841Y-56225083D01*
X171164839Y-56225082D01*
X170986935Y-56134435D01*
X170986932Y-56134434D01*
X170986930Y-56134433D01*
X170797046Y-56072736D01*
X170797042Y-56072735D01*
X170797041Y-56072735D01*
X170599833Y-56041500D01*
X170400167Y-56041500D01*
X170202959Y-56072735D01*
X170202953Y-56072736D01*
X170013069Y-56134433D01*
X170013063Y-56134436D01*
X169835157Y-56225084D01*
X169673625Y-56342444D01*
X169532444Y-56483625D01*
X169415084Y-56645157D01*
X169324436Y-56823063D01*
X169324433Y-56823069D01*
X169262736Y-57012953D01*
X169262735Y-57012958D01*
X169262735Y-57012959D01*
X169231500Y-57210167D01*
X168768500Y-57210167D01*
X168737265Y-57012959D01*
X168675565Y-56823065D01*
X168584918Y-56645161D01*
X168540714Y-56584319D01*
X168467555Y-56483625D01*
X168326374Y-56342444D01*
X168164842Y-56225084D01*
X168164841Y-56225083D01*
X168164839Y-56225082D01*
X167986935Y-56134435D01*
X167986932Y-56134434D01*
X167986930Y-56134433D01*
X167797046Y-56072736D01*
X167797042Y-56072735D01*
X167797041Y-56072735D01*
X167599833Y-56041500D01*
X167400167Y-56041500D01*
X167202959Y-56072735D01*
X167202953Y-56072736D01*
X167013069Y-56134433D01*
X167013063Y-56134436D01*
X166835157Y-56225084D01*
X166673625Y-56342444D01*
X166532444Y-56483625D01*
X166415084Y-56645157D01*
X166324436Y-56823063D01*
X166324433Y-56823069D01*
X166262736Y-57012953D01*
X166262735Y-57012958D01*
X166262735Y-57012959D01*
X166231500Y-57210167D01*
X120513500Y-57210167D01*
X120513500Y-54210167D01*
X169231500Y-54210167D01*
X169231500Y-54409833D01*
X169262735Y-54607041D01*
X169262736Y-54607046D01*
X169324433Y-54796930D01*
X169324435Y-54796935D01*
X169324436Y-54796936D01*
X169415084Y-54974842D01*
X169532444Y-55136374D01*
X169673625Y-55277555D01*
X169673628Y-55277557D01*
X169835161Y-55394918D01*
X170013065Y-55485565D01*
X170202959Y-55547265D01*
X170400167Y-55578500D01*
X170400170Y-55578500D01*
X170599830Y-55578500D01*
X170599833Y-55578500D01*
X170797041Y-55547265D01*
X170986935Y-55485565D01*
X171164839Y-55394918D01*
X171326372Y-55277557D01*
X171467557Y-55136372D01*
X171584918Y-54974839D01*
X171675565Y-54796935D01*
X171737265Y-54607041D01*
X171768500Y-54409833D01*
X171768500Y-54210167D01*
X172231500Y-54210167D01*
X172231500Y-54409833D01*
X172262735Y-54607041D01*
X172262736Y-54607046D01*
X172324433Y-54796930D01*
X172324435Y-54796935D01*
X172324436Y-54796936D01*
X172415084Y-54974842D01*
X172532444Y-55136374D01*
X172673625Y-55277555D01*
X172673628Y-55277557D01*
X172835161Y-55394918D01*
X173013065Y-55485565D01*
X173202959Y-55547265D01*
X173400167Y-55578500D01*
X173400170Y-55578500D01*
X173599830Y-55578500D01*
X173599833Y-55578500D01*
X173797041Y-55547265D01*
X173986935Y-55485565D01*
X174164839Y-55394918D01*
X174326372Y-55277557D01*
X174467557Y-55136372D01*
X174584918Y-54974839D01*
X174675565Y-54796935D01*
X174737265Y-54607041D01*
X174768500Y-54409833D01*
X174768500Y-54210167D01*
X175231500Y-54210167D01*
X175231500Y-54409833D01*
X175262735Y-54607041D01*
X175262736Y-54607046D01*
X175324433Y-54796930D01*
X175324435Y-54796935D01*
X175324436Y-54796936D01*
X175415084Y-54974842D01*
X175532444Y-55136374D01*
X175673625Y-55277555D01*
X175673628Y-55277557D01*
X175835161Y-55394918D01*
X176013065Y-55485565D01*
X176202959Y-55547265D01*
X176400167Y-55578500D01*
X176400170Y-55578500D01*
X176599830Y-55578500D01*
X176599833Y-55578500D01*
X176797041Y-55547265D01*
X176986935Y-55485565D01*
X177164839Y-55394918D01*
X177326372Y-55277557D01*
X177467557Y-55136372D01*
X177584918Y-54974839D01*
X177675565Y-54796935D01*
X177737265Y-54607041D01*
X177768500Y-54409833D01*
X177768500Y-54210167D01*
X178231500Y-54210167D01*
X178231500Y-54409833D01*
X178262735Y-54607041D01*
X178262736Y-54607046D01*
X178324433Y-54796930D01*
X178324435Y-54796935D01*
X178324436Y-54796936D01*
X178415084Y-54974842D01*
X178532444Y-55136374D01*
X178673625Y-55277555D01*
X178673628Y-55277557D01*
X178835161Y-55394918D01*
X179013065Y-55485565D01*
X179202959Y-55547265D01*
X179400167Y-55578500D01*
X179400170Y-55578500D01*
X179599830Y-55578500D01*
X179599833Y-55578500D01*
X179797041Y-55547265D01*
X179986935Y-55485565D01*
X180164839Y-55394918D01*
X180326372Y-55277557D01*
X180467557Y-55136372D01*
X180584918Y-54974839D01*
X180675565Y-54796935D01*
X180737265Y-54607041D01*
X180768500Y-54409833D01*
X180768500Y-54210167D01*
X181231500Y-54210167D01*
X181231500Y-54409833D01*
X181262735Y-54607041D01*
X181262736Y-54607046D01*
X181324433Y-54796930D01*
X181324435Y-54796935D01*
X181324436Y-54796936D01*
X181415084Y-54974842D01*
X181532444Y-55136374D01*
X181673625Y-55277555D01*
X181673628Y-55277557D01*
X181835161Y-55394918D01*
X182013065Y-55485565D01*
X182202959Y-55547265D01*
X182400167Y-55578500D01*
X182400170Y-55578500D01*
X182599830Y-55578500D01*
X182599833Y-55578500D01*
X182797041Y-55547265D01*
X182986935Y-55485565D01*
X183164839Y-55394918D01*
X183326372Y-55277557D01*
X183467557Y-55136372D01*
X183584918Y-54974839D01*
X183675565Y-54796935D01*
X183737265Y-54607041D01*
X183768500Y-54409833D01*
X183768500Y-54210167D01*
X183737265Y-54012959D01*
X183675565Y-53823065D01*
X183584918Y-53645161D01*
X183467557Y-53483628D01*
X183467555Y-53483625D01*
X183326374Y-53342444D01*
X183164842Y-53225084D01*
X183164841Y-53225083D01*
X183164839Y-53225082D01*
X182986935Y-53134435D01*
X182986932Y-53134434D01*
X182986930Y-53134433D01*
X182797046Y-53072736D01*
X182797042Y-53072735D01*
X182797041Y-53072735D01*
X182599833Y-53041500D01*
X182400167Y-53041500D01*
X182202959Y-53072735D01*
X182202953Y-53072736D01*
X182013069Y-53134433D01*
X182013063Y-53134436D01*
X181835157Y-53225084D01*
X181673625Y-53342444D01*
X181532444Y-53483625D01*
X181415084Y-53645157D01*
X181324436Y-53823063D01*
X181324433Y-53823069D01*
X181262736Y-54012953D01*
X181262735Y-54012958D01*
X181262735Y-54012959D01*
X181231500Y-54210167D01*
X180768500Y-54210167D01*
X180737265Y-54012959D01*
X180675565Y-53823065D01*
X180584918Y-53645161D01*
X180467557Y-53483628D01*
X180467555Y-53483625D01*
X180326374Y-53342444D01*
X180164842Y-53225084D01*
X180164841Y-53225083D01*
X180164839Y-53225082D01*
X179986935Y-53134435D01*
X179986932Y-53134434D01*
X179986930Y-53134433D01*
X179797046Y-53072736D01*
X179797042Y-53072735D01*
X179797041Y-53072735D01*
X179599833Y-53041500D01*
X179400167Y-53041500D01*
X179202959Y-53072735D01*
X179202953Y-53072736D01*
X179013069Y-53134433D01*
X179013063Y-53134436D01*
X178835157Y-53225084D01*
X178673625Y-53342444D01*
X178532444Y-53483625D01*
X178415084Y-53645157D01*
X178324436Y-53823063D01*
X178324433Y-53823069D01*
X178262736Y-54012953D01*
X178262735Y-54012958D01*
X178262735Y-54012959D01*
X178231500Y-54210167D01*
X177768500Y-54210167D01*
X177737265Y-54012959D01*
X177675565Y-53823065D01*
X177584918Y-53645161D01*
X177467557Y-53483628D01*
X177467555Y-53483625D01*
X177326374Y-53342444D01*
X177164842Y-53225084D01*
X177164841Y-53225083D01*
X177164839Y-53225082D01*
X176986935Y-53134435D01*
X176986932Y-53134434D01*
X176986930Y-53134433D01*
X176797046Y-53072736D01*
X176797042Y-53072735D01*
X176797041Y-53072735D01*
X176599833Y-53041500D01*
X176400167Y-53041500D01*
X176202959Y-53072735D01*
X176202953Y-53072736D01*
X176013069Y-53134433D01*
X176013063Y-53134436D01*
X175835157Y-53225084D01*
X175673625Y-53342444D01*
X175532444Y-53483625D01*
X175415084Y-53645157D01*
X175324436Y-53823063D01*
X175324433Y-53823069D01*
X175262736Y-54012953D01*
X175262735Y-54012958D01*
X175262735Y-54012959D01*
X175231500Y-54210167D01*
X174768500Y-54210167D01*
X174737265Y-54012959D01*
X174675565Y-53823065D01*
X174584918Y-53645161D01*
X174467557Y-53483628D01*
X174467555Y-53483625D01*
X174326374Y-53342444D01*
X174164842Y-53225084D01*
X174164841Y-53225083D01*
X174164839Y-53225082D01*
X173986935Y-53134435D01*
X173986932Y-53134434D01*
X173986930Y-53134433D01*
X173797046Y-53072736D01*
X173797042Y-53072735D01*
X173797041Y-53072735D01*
X173599833Y-53041500D01*
X173400167Y-53041500D01*
X173202959Y-53072735D01*
X173202953Y-53072736D01*
X173013069Y-53134433D01*
X173013063Y-53134436D01*
X172835157Y-53225084D01*
X172673625Y-53342444D01*
X172532444Y-53483625D01*
X172415084Y-53645157D01*
X172324436Y-53823063D01*
X172324433Y-53823069D01*
X172262736Y-54012953D01*
X172262735Y-54012958D01*
X172262735Y-54012959D01*
X172231500Y-54210167D01*
X171768500Y-54210167D01*
X171737265Y-54012959D01*
X171675565Y-53823065D01*
X171584918Y-53645161D01*
X171467557Y-53483628D01*
X171467555Y-53483625D01*
X171326374Y-53342444D01*
X171164842Y-53225084D01*
X171164841Y-53225083D01*
X171164839Y-53225082D01*
X170986935Y-53134435D01*
X170986932Y-53134434D01*
X170986930Y-53134433D01*
X170797046Y-53072736D01*
X170797042Y-53072735D01*
X170797041Y-53072735D01*
X170599833Y-53041500D01*
X170400167Y-53041500D01*
X170202959Y-53072735D01*
X170202953Y-53072736D01*
X170013069Y-53134433D01*
X170013063Y-53134436D01*
X169835157Y-53225084D01*
X169673625Y-53342444D01*
X169532444Y-53483625D01*
X169415084Y-53645157D01*
X169324436Y-53823063D01*
X169324433Y-53823069D01*
X169262736Y-54012953D01*
X169262735Y-54012958D01*
X169262735Y-54012959D01*
X169231500Y-54210167D01*
X120513500Y-54210167D01*
X120513500Y-49895263D01*
X167889500Y-49895263D01*
X167889500Y-50124736D01*
X167919450Y-50352231D01*
X167919452Y-50352238D01*
X167978842Y-50573887D01*
X168066656Y-50785888D01*
X168066657Y-50785889D01*
X168066662Y-50785900D01*
X168181386Y-50984608D01*
X168181391Y-50984615D01*
X168321073Y-51166652D01*
X168321092Y-51166673D01*
X168483326Y-51328907D01*
X168483347Y-51328926D01*
X168665384Y-51468608D01*
X168665391Y-51468613D01*
X168864099Y-51583337D01*
X168864103Y-51583338D01*
X168864112Y-51583344D01*
X169076113Y-51671158D01*
X169297762Y-51730548D01*
X169297766Y-51730548D01*
X169297768Y-51730549D01*
X169356398Y-51738267D01*
X169525266Y-51760500D01*
X169525273Y-51760500D01*
X169754727Y-51760500D01*
X169754734Y-51760500D01*
X169960345Y-51733430D01*
X169982231Y-51730549D01*
X169982231Y-51730548D01*
X169982238Y-51730548D01*
X170203887Y-51671158D01*
X170415888Y-51583344D01*
X170614612Y-51468611D01*
X170796661Y-51328919D01*
X170958919Y-51166661D01*
X171098611Y-50984612D01*
X171213344Y-50785888D01*
X171301158Y-50573887D01*
X171360548Y-50352238D01*
X171390500Y-50124734D01*
X171390500Y-49895266D01*
X171390500Y-49895263D01*
X184589500Y-49895263D01*
X184589500Y-50124736D01*
X184619450Y-50352231D01*
X184619452Y-50352238D01*
X184678842Y-50573887D01*
X184766656Y-50785888D01*
X184766657Y-50785889D01*
X184766662Y-50785900D01*
X184881386Y-50984608D01*
X184881391Y-50984615D01*
X185021073Y-51166652D01*
X185021092Y-51166673D01*
X185183326Y-51328907D01*
X185183347Y-51328926D01*
X185365384Y-51468608D01*
X185365391Y-51468613D01*
X185564099Y-51583337D01*
X185564103Y-51583338D01*
X185564112Y-51583344D01*
X185776113Y-51671158D01*
X185997762Y-51730548D01*
X185997766Y-51730548D01*
X185997768Y-51730549D01*
X186056398Y-51738267D01*
X186225266Y-51760500D01*
X186225273Y-51760500D01*
X186454727Y-51760500D01*
X186454734Y-51760500D01*
X186660345Y-51733430D01*
X186682231Y-51730549D01*
X186682231Y-51730548D01*
X186682238Y-51730548D01*
X186903887Y-51671158D01*
X187115888Y-51583344D01*
X187314612Y-51468611D01*
X187496661Y-51328919D01*
X187658919Y-51166661D01*
X187798611Y-50984612D01*
X187913344Y-50785888D01*
X188001158Y-50573887D01*
X188060548Y-50352238D01*
X188090500Y-50124734D01*
X188090500Y-49895266D01*
X188060548Y-49667762D01*
X188001158Y-49446113D01*
X187913344Y-49234112D01*
X187913338Y-49234103D01*
X187913337Y-49234099D01*
X187798613Y-49035391D01*
X187798608Y-49035384D01*
X187658926Y-48853347D01*
X187658907Y-48853326D01*
X187496673Y-48691092D01*
X187496652Y-48691073D01*
X187314615Y-48551391D01*
X187314608Y-48551386D01*
X187115900Y-48436662D01*
X187115892Y-48436658D01*
X187115888Y-48436656D01*
X186903887Y-48348842D01*
X186682238Y-48289452D01*
X186682231Y-48289450D01*
X186454736Y-48259500D01*
X186454734Y-48259500D01*
X186225266Y-48259500D01*
X186225263Y-48259500D01*
X185997768Y-48289450D01*
X185839831Y-48331769D01*
X185776113Y-48348842D01*
X185611803Y-48416902D01*
X185564110Y-48436657D01*
X185564099Y-48436662D01*
X185365391Y-48551386D01*
X185365384Y-48551391D01*
X185183347Y-48691073D01*
X185183326Y-48691092D01*
X185021092Y-48853326D01*
X185021073Y-48853347D01*
X184881391Y-49035384D01*
X184881386Y-49035391D01*
X184766662Y-49234099D01*
X184766657Y-49234110D01*
X184766656Y-49234112D01*
X184723044Y-49339400D01*
X184678842Y-49446113D01*
X184619450Y-49667768D01*
X184589500Y-49895263D01*
X171390500Y-49895263D01*
X171360548Y-49667762D01*
X171301158Y-49446113D01*
X171213344Y-49234112D01*
X171213338Y-49234103D01*
X171213337Y-49234099D01*
X171098613Y-49035391D01*
X171098608Y-49035384D01*
X170958926Y-48853347D01*
X170958907Y-48853326D01*
X170796673Y-48691092D01*
X170796652Y-48691073D01*
X170614615Y-48551391D01*
X170614608Y-48551386D01*
X170415900Y-48436662D01*
X170415892Y-48436658D01*
X170415888Y-48436656D01*
X170203887Y-48348842D01*
X169982238Y-48289452D01*
X169982231Y-48289450D01*
X169754736Y-48259500D01*
X169754734Y-48259500D01*
X169525266Y-48259500D01*
X169525263Y-48259500D01*
X169297768Y-48289450D01*
X169139831Y-48331769D01*
X169076113Y-48348842D01*
X168911803Y-48416902D01*
X168864110Y-48436657D01*
X168864099Y-48436662D01*
X168665391Y-48551386D01*
X168665384Y-48551391D01*
X168483347Y-48691073D01*
X168483326Y-48691092D01*
X168321092Y-48853326D01*
X168321073Y-48853347D01*
X168181391Y-49035384D01*
X168181386Y-49035391D01*
X168066662Y-49234099D01*
X168066657Y-49234110D01*
X168066656Y-49234112D01*
X168023044Y-49339400D01*
X167978842Y-49446113D01*
X167919450Y-49667768D01*
X167889500Y-49895263D01*
X120513500Y-49895263D01*
X120513500Y-49552190D01*
X120513500Y-49552180D01*
X120513499Y-49552173D01*
X120510560Y-49497329D01*
X120510559Y-49497308D01*
X120507680Y-49470525D01*
X120501623Y-49433149D01*
X120500000Y-49412993D01*
X120500000Y-49250000D01*
X120499999Y-49249998D01*
X119750001Y-48500000D01*
X119750000Y-48500000D01*
X119550720Y-48500000D01*
X119532789Y-48498718D01*
X119530417Y-48498377D01*
X119447810Y-48486500D01*
X110552190Y-48486500D01*
X110552173Y-48486500D01*
X110497329Y-48489439D01*
X110497277Y-48489443D01*
X110470535Y-48492318D01*
X110470524Y-48492320D01*
X110433149Y-48498377D01*
X110412993Y-48500000D01*
X110249998Y-48500000D01*
X109500000Y-49249998D01*
X109500000Y-49449279D01*
X109498718Y-49467210D01*
X109498240Y-49470535D01*
X109486502Y-49552180D01*
X109486500Y-49552192D01*
X102593034Y-49552192D01*
X102593947Y-49550825D01*
X102791167Y-49284906D01*
X102799001Y-49275360D01*
X103021337Y-49030050D01*
X103030050Y-49021337D01*
X103275360Y-48799001D01*
X103284906Y-48791167D01*
X103550816Y-48593954D01*
X103561077Y-48587097D01*
X103845058Y-48416886D01*
X103855917Y-48411082D01*
X104131984Y-48280512D01*
X104134436Y-48279386D01*
X104165264Y-48265661D01*
X104173977Y-48262168D01*
X104443355Y-48165783D01*
X104446721Y-48164635D01*
X104497356Y-48148182D01*
X104505591Y-48145815D01*
X104772113Y-48079055D01*
X104776305Y-48078085D01*
X104838924Y-48064776D01*
X104846581Y-48063395D01*
X105112007Y-48024023D01*
X105117159Y-48023370D01*
X105186286Y-48016105D01*
X105193222Y-48015570D01*
X105496906Y-48000652D01*
X105503088Y-48000500D01*
X194496912Y-48000500D01*
X194503094Y-48000652D01*
G37*
%TD.AperFunction*%
%TD*%
M02*
