M48
; DRILL file {KiCad 9.0.3-9.0.3-0~ubuntu22.04.1} date 2025-10-17T13:31:58+0400
; FORMAT={-:-/ absolute / metric / decimal}
; #@! TF.CreationDate,2025-10-17T13:31:58+04:00
; #@! TF.GenerationSoftware,Kicad,Pcbnew,9.0.3-9.0.3-0~ubuntu22.04.1
; #@! TF.FileFunction,Plated,1,4,PTH
FMAT,2
METRIC
; #@! TA.AperFunction,Plated,PTH,ViaDrill
T1C0.300
; #@! TA.AperFunction,Plated,PTH,ViaDrill
T2C0.400
; #@! TA.AperFunction,Plated,PTH,ComponentDrill
T3C0.500
; #@! TA.AperFunction,Plated,PTH,ComponentDrill
T4C1.020
; #@! TA.AperFunction,Plated,PTH,ComponentDrill
T5C3.200
%
G90
G05
T1
X108.2Y-131.0
X108.3Y-133.0
X108.3Y-134.9
X108.3Y-136.8
X110.1Y-131.0
X110.2Y-133.0
X110.2Y-134.9
X110.2Y-136.8
X110.2Y-138.7
X112.0Y-131.0
X112.1Y-133.0
X112.1Y-134.9
X112.1Y-136.8
X112.1Y-138.7
X113.45Y-136.85
X113.55Y-135.25
X113.55Y-136.05
X113.55Y-137.7
X113.55Y-138.5
X113.55Y-139.3
X114.85Y-135.25
X114.85Y-136.05
X114.85Y-137.7
X114.85Y-138.5
X114.85Y-139.3
X115.7Y-137.7
X115.825Y-136.05
X116.85Y-135.25
X116.85Y-136.05
X116.9Y-138.7
X118.15Y-135.25
X118.15Y-136.05
X118.2Y-137.9
X118.25Y-137.0
X118.75Y-138.7
X118.75Y-140.6
X118.75Y-142.5
X120.65Y-136.8
X120.65Y-138.7
X120.65Y-140.6
X120.65Y-142.5
X122.55Y-136.8
X122.55Y-138.7
X122.55Y-140.6
X122.55Y-142.5
X124.45Y-131.0
X124.45Y-133.0
X124.45Y-134.9
X124.45Y-136.8
X124.45Y-138.7
X124.45Y-140.6
X124.45Y-142.5
X126.35Y-131.0
X126.35Y-133.0
X126.35Y-134.9
X126.35Y-136.8
X126.35Y-138.7
X126.35Y-140.6
X126.35Y-142.5
X128.25Y-131.0
X128.25Y-133.0
X128.25Y-134.9
X128.25Y-136.8
X128.25Y-138.7
X130.26Y-96.45
X130.35Y-136.85
X130.45Y-135.25
X130.45Y-136.05
X130.45Y-137.7
X130.45Y-138.5
X130.45Y-139.3
X131.14Y-95.15
X131.75Y-135.25
X131.75Y-136.05
X131.75Y-137.7
X131.75Y-138.5
X131.75Y-139.3
X132.6Y-137.7
X132.725Y-136.05
X133.75Y-135.25
X133.75Y-136.05
X133.8Y-138.7
X135.05Y-135.25
X135.05Y-136.05
X135.1Y-137.9
X135.15Y-137.0
X135.675Y-94.0
X135.85Y-138.7
X135.85Y-140.6
X135.85Y-142.5
X136.8Y-50.35
X136.8Y-52.25
X136.8Y-54.15
X136.8Y-56.05
X136.8Y-57.95
X137.75Y-136.8
X137.75Y-138.7
X137.75Y-140.6
X137.75Y-142.5
X138.7Y-50.35
X138.7Y-52.25
X138.7Y-54.15
X138.7Y-56.05
X138.7Y-57.95
X139.45Y-91.6
X139.65Y-134.9
X139.65Y-136.8
X139.65Y-138.7
X139.65Y-140.6
X139.65Y-142.5
X140.0Y-90.75
X140.55Y-91.6
X140.6Y-50.35
X140.6Y-52.25
X140.6Y-54.15
X140.6Y-56.05
X141.55Y-131.0
X141.55Y-133.0
X141.55Y-134.9
X141.55Y-136.8
X141.55Y-138.7
X141.55Y-140.6
X141.55Y-142.5
X142.5Y-50.35
X142.5Y-52.25
X142.5Y-54.15
X142.5Y-56.05
X143.45Y-131.0
X143.45Y-133.0
X143.45Y-134.9
X143.45Y-136.8
X143.45Y-138.7
X143.45Y-140.6
X143.45Y-142.5
X144.35Y-52.95
X144.35Y-53.75
X144.35Y-54.55
X144.35Y-55.25
X144.35Y-56.05
X144.35Y-56.85
X144.45Y-88.475
X144.45Y-89.775
X145.35Y-131.0
X145.35Y-133.0
X145.35Y-134.9
X145.35Y-136.8
X145.35Y-138.7
X145.7Y-56.05
X145.7Y-56.85
X146.05Y-53.45
X146.7Y-56.05
X146.85Y-54.55
X146.85Y-136.85
X146.95Y-135.25
X146.95Y-136.05
X146.95Y-137.7
X146.95Y-138.5
X146.95Y-139.3
X147.7Y-52.95
X147.7Y-53.75
X147.7Y-54.55
X147.7Y-56.15
X147.7Y-56.95
X148.25Y-135.25
X148.25Y-136.05
X148.25Y-137.7
X148.25Y-138.5
X148.25Y-139.3
X149.0Y-52.95
X149.0Y-53.75
X149.0Y-54.55
X149.0Y-56.15
X149.0Y-56.95
X149.1Y-55.3
X149.1Y-137.7
X149.25Y-136.05
X150.1Y-54.15
X150.1Y-56.05
X150.1Y-59.85
X150.1Y-61.75
X150.25Y-135.25
X150.25Y-136.05
X150.3Y-138.7
X151.55Y-135.25
X151.55Y-136.05
X151.6Y-137.9
X151.65Y-137.0
X152.0Y-54.15
X152.0Y-56.05
X152.0Y-57.95
X152.0Y-59.85
X152.0Y-61.75
X152.0Y-138.7
X152.0Y-140.6
X152.0Y-142.5
X153.9Y-50.35
X153.9Y-52.25
X153.9Y-54.15
X153.9Y-56.05
X153.9Y-57.95
X153.9Y-59.85
X153.9Y-61.75
X153.9Y-136.8
X153.9Y-138.7
X153.9Y-140.6
X153.9Y-142.5
X155.8Y-50.35
X155.8Y-52.25
X155.8Y-54.15
X155.8Y-56.05
X155.8Y-57.95
X155.8Y-59.85
X155.8Y-61.75
X155.8Y-136.8
X155.8Y-138.7
X155.8Y-140.6
X155.8Y-142.5
X156.45Y-71.85
X157.25Y-71.25
X157.7Y-50.35
X157.7Y-52.25
X157.7Y-54.15
X157.7Y-56.05
X157.7Y-57.95
X157.7Y-59.85
X157.7Y-136.8
X157.7Y-138.7
X157.7Y-140.6
X157.7Y-142.5
X157.94Y-70.51
X159.6Y-50.35
X159.6Y-52.25
X159.6Y-54.15
X159.6Y-56.05
X159.6Y-57.95
X159.6Y-136.8
X159.6Y-138.7
X159.6Y-140.6
X159.6Y-142.5
X161.5Y-136.8
X161.5Y-138.7
X161.5Y-140.6
X161.5Y-142.5
X161.6Y-88.5
X161.975Y-88.05
X162.525Y-88.9
X163.075Y-89.75
X163.45Y-89.3
X176.325Y-83.0
X176.4Y-84.85
X176.75Y-83.895
X177.03Y-84.86
X177.55Y-84.525
X188.2Y-66.75
X188.2Y-67.75
T2
X103.5Y-111.8
X103.5Y-115.0
X103.5Y-118.4
X105.0Y-125.0
X105.1Y-108.45
X105.375Y-57.29
X105.5Y-121.0
X107.1Y-118.5
X107.225Y-127.525
X107.25Y-126.7
X107.497Y-58.002
X107.75Y-109.575
X107.875Y-115.1
X108.075Y-126.7
X108.075Y-127.525
X109.5Y-112.6
X110.0Y-75.0
X110.0Y-85.0
X110.0Y-95.0
X110.0Y-105.0
X110.0Y-120.0
X110.0Y-123.375
X111.0Y-58.25
X111.0Y-59.45
X111.0Y-60.7
X111.0Y-61.95
X111.0Y-63.2
X111.1Y-53.35
X111.3Y-108.5
X111.85Y-118.05
X112.4Y-49.75
X112.4Y-50.95
X112.4Y-52.15
X112.4Y-53.35
X112.4Y-54.55
X112.4Y-55.75
X112.4Y-56.95
X112.4Y-58.25
X112.4Y-59.45
X112.4Y-60.7
X112.4Y-61.95
X112.4Y-63.2
X113.0Y-132.25
X113.25Y-121.25
X113.7Y-53.35
X113.75Y-58.25
X113.75Y-59.45
X113.75Y-60.7
X113.75Y-61.95
X113.75Y-63.2
X114.9Y-49.75
X114.9Y-50.95
X114.9Y-52.15
X114.9Y-53.35
X114.9Y-54.55
X114.9Y-55.75
X114.9Y-56.95
X114.9Y-58.25
X114.9Y-59.45
X114.9Y-60.7
X114.9Y-61.95
X114.9Y-63.2
X115.05Y-108.5
X115.3Y-131.9
X116.2Y-53.35
X116.25Y-58.25
X116.25Y-59.45
X116.25Y-60.7
X116.25Y-61.95
X116.25Y-63.2
X116.4Y-131.9
X117.5Y-49.75
X117.5Y-50.95
X117.5Y-52.15
X117.5Y-53.35
X117.5Y-54.55
X117.5Y-55.75
X117.5Y-56.95
X117.5Y-58.25
X117.5Y-59.45
X117.5Y-60.7
X117.5Y-61.95
X117.5Y-63.2
X117.5Y-131.9
X118.25Y-114.15
X118.55Y-131.9
X118.75Y-58.25
X118.75Y-59.45
X118.75Y-60.7
X118.75Y-61.95
X118.75Y-63.2
X118.8Y-53.35
X119.0Y-112.5
X119.35Y-108.5
X120.0Y-85.0
X120.0Y-95.0
X120.0Y-105.0
X121.2Y-53.25
X121.25Y-58.4
X121.25Y-59.65
X121.25Y-60.9
X121.25Y-62.15
X121.25Y-63.4
X121.25Y-64.65
X122.0Y-125.75
X122.5Y-49.5
X122.5Y-50.75
X122.5Y-52.0
X122.5Y-53.25
X122.5Y-54.75
X122.5Y-56.0
X122.5Y-57.25
X122.5Y-58.4
X122.5Y-59.65
X122.5Y-60.9
X122.5Y-62.15
X122.5Y-63.4
X122.5Y-64.65
X123.8Y-53.25
X123.8Y-58.4
X123.8Y-59.65
X123.8Y-60.9
X123.8Y-62.15
X123.8Y-63.4
X123.8Y-64.65
X124.225Y-127.525
X124.25Y-126.7
X124.5Y-102.5
X125.05Y-127.525
X125.075Y-126.7
X125.1Y-49.5
X125.1Y-50.75
X125.1Y-52.0
X125.1Y-53.25
X125.1Y-54.75
X125.1Y-56.0
X125.1Y-57.25
X125.1Y-58.4
X125.1Y-59.65
X125.1Y-60.9
X125.1Y-62.15
X125.1Y-63.4
X125.1Y-64.65
X125.225Y-115.025
X125.5Y-90.5
X125.5Y-92.5
X125.5Y-94.5
X125.5Y-96.25
X125.85Y-110.85
X126.4Y-53.25
X126.4Y-58.4
X126.4Y-59.65
X126.4Y-60.9
X126.4Y-62.15
X126.4Y-63.4
X126.4Y-64.65
X126.5Y-88.75
X126.7Y-112.6
X126.75Y-119.0
X127.0Y-97.5
X127.0Y-123.375
X127.075Y-96.125
X127.45Y-94.45
X127.6Y-49.5
X127.6Y-50.75
X127.6Y-52.0
X127.6Y-53.25
X127.6Y-54.75
X127.6Y-56.0
X127.6Y-57.25
X127.6Y-58.4
X127.6Y-59.65
X127.6Y-60.9
X127.6Y-62.15
X127.6Y-63.4
X128.0Y-107.0
X128.5Y-88.25
X128.75Y-97.5
X128.9Y-58.4
X128.9Y-59.65
X128.9Y-60.9
X128.9Y-62.15
X128.95Y-53.25
X129.1Y-118.05
X129.475Y-91.125
X129.825Y-89.575
X129.95Y-132.2
X130.0Y-84.98
X130.0Y-109.2
X130.075Y-97.85
X130.2Y-49.5
X130.2Y-50.75
X130.2Y-52.0
X130.2Y-53.25
X130.2Y-54.75
X130.2Y-56.0
X130.2Y-57.25
X130.2Y-58.4
X130.2Y-59.65
X130.2Y-60.9
X130.75Y-88.75
X130.75Y-121.0
X131.25Y-103.75
X131.5Y-49.5
X131.5Y-50.75
X131.5Y-52.0
X131.5Y-53.25
X131.5Y-54.75
X131.5Y-90.875
X131.775Y-96.275
X132.0Y-107.0
X132.25Y-131.9
X132.475Y-88.075
X132.75Y-49.5
X132.75Y-50.75
X132.75Y-52.0
X132.75Y-53.25
X132.75Y-54.75
X133.25Y-131.9
X133.4Y-86.225
X133.5Y-120.5
X133.675Y-89.95
X133.8Y-109.2
X134.35Y-131.9
X134.375Y-85.0
X134.475Y-86.225
X134.7Y-102.9
X134.8Y-80.25
X134.85Y-81.88
X135.0Y-70.0
X135.25Y-105.5
X135.25Y-114.15
X135.3Y-96.5
X135.4Y-131.9
X135.5Y-95.2
X136.0Y-90.75
X136.0Y-98.75
X136.35Y-103.15
X136.45Y-107.5
X137.0Y-120.5
X137.5Y-92.5
X137.5Y-95.9
X138.5Y-105.5
X138.5Y-110.0
X138.5Y-114.0
X138.5Y-118.5
X138.75Y-126.0
X139.35Y-103.1
X139.5Y-67.75
X140.0Y-97.5
X140.725Y-127.525
X140.75Y-126.7
X141.55Y-127.525
X141.575Y-126.7
X142.0Y-109.65
X142.0Y-114.7
X142.12Y-119.86
X142.25Y-72.25
X142.5Y-92.5
X142.5Y-97.5
X143.5Y-123.35
X143.95Y-60.1
X144.15Y-109.65
X144.15Y-114.7
X144.175Y-99.925
X144.4Y-77.3
X145.05Y-60.1
X145.95Y-102.75
X146.0Y-118.05
X146.05Y-100.85
X146.1Y-60.1
X146.275Y-109.825
X146.45Y-132.25
X147.25Y-60.1
X147.75Y-121.25
X148.0Y-106.5
X148.2Y-88.875
X148.75Y-131.9
X149.0Y-81.5
X149.0Y-126.25
X149.25Y-60.1
X149.75Y-72.2
X149.8Y-131.9
X150.45Y-108.6
X150.9Y-88.1
X150.9Y-131.9
X151.0Y-101.0
X151.95Y-131.9
X152.15Y-77.75
X152.25Y-72.35
X152.53Y-69.26
X153.0Y-106.5
X154.0Y-79.75
X154.5Y-65.075
X154.5Y-65.9
X154.925Y-74.3
X154.95Y-117.15
X155.0Y-105.0
X155.25Y-126.0
X155.3Y-72.35
X155.325Y-65.075
X155.325Y-65.9
X156.4Y-75.25
X156.5Y-110.5
X156.5Y-116.5
X160.0Y-70.0
X160.0Y-100.0
X165.0Y-50.0
X165.0Y-60.0
X165.0Y-65.0
X167.09Y-67.08
X170.0Y-90.0
X170.0Y-100.0
X170.0Y-110.0
X170.0Y-120.0
X170.0Y-130.0
X170.0Y-140.0
X170.18Y-77.137
X172.25Y-61.92
X173.25Y-80.25
X173.6Y-50.0
X175.34Y-71.977
X176.25Y-77.25
X176.5Y-59.25
X177.25Y-81.25
X177.6Y-50.0
X179.0Y-74.5
X179.75Y-78.75
X180.0Y-90.0
X180.0Y-100.0
X180.0Y-110.0
X180.0Y-120.0
X180.0Y-130.0
X180.0Y-140.0
X180.75Y-65.75
X181.0Y-59.25
X181.6Y-50.0
X182.0Y-76.5
X184.2Y-72.95
X185.8Y-69.9
X189.7Y-62.32
X189.7Y-72.16
X190.0Y-80.0
X190.0Y-90.0
X190.0Y-100.0
X190.0Y-110.0
X190.0Y-120.0
X190.0Y-130.0
X190.0Y-140.0
X190.92Y-56.76
X196.08Y-56.76
T3
X103.1Y-51.5
X103.1Y-140.5
X103.803Y-49.803
X103.803Y-53.197
X103.803Y-138.803
X103.803Y-142.197
X105.5Y-49.1
X105.5Y-53.9
X105.5Y-138.1
X105.5Y-142.9
X107.197Y-49.803
X107.197Y-53.197
X107.197Y-138.803
X107.197Y-142.197
X107.9Y-51.5
X107.9Y-140.5
X192.1Y-51.5
X192.1Y-140.5
X192.803Y-49.803
X192.803Y-53.197
X192.803Y-138.803
X192.803Y-142.197
X194.5Y-49.1
X194.5Y-53.9
X194.5Y-138.1
X194.5Y-142.9
X196.197Y-49.803
X196.197Y-53.197
X196.197Y-138.803
X196.197Y-142.197
X196.9Y-51.5
X196.9Y-140.5
T4
X167.5Y-54.31
X167.5Y-57.31
X170.5Y-54.31
X170.5Y-57.31
X173.5Y-54.31
X173.5Y-57.31
X176.5Y-54.31
X176.5Y-57.31
X179.5Y-54.31
X179.5Y-57.31
X182.5Y-54.31
X182.5Y-57.31
X185.5Y-54.31
X185.5Y-57.31
X188.5Y-54.31
X188.5Y-57.31
T5
X105.5Y-51.5
X105.5Y-140.5
X194.5Y-51.5
X194.5Y-140.5
M30
