M48
; DRILL file {KiCad 9.0.7-9.0.7~ubuntu22.04.1} date 2026-03-18T15:25:32+0400
; FORMAT={-:-/ absolute / metric / decimal}
; #@! TF.CreationDate,2026-03-18T15:25:32+04:00
; #@! TF.GenerationSoftware,Kicad,Pcbnew,9.0.7-9.0.7~ubuntu22.04.1
; #@! TF.FileFunction,Plated,1,4,PTH
FMAT,2
METRIC
; #@! TA.AperFunction,Plated,PTH,ViaDrill
T1C0.300
; #@! TA.AperFunction,Plated,PTH,ViaDrill
T2C0.400
; #@! TA.AperFunction,Plated,PTH,ComponentDrill
T3C0.500
; #@! TA.AperFunction,Plated,PTH,ComponentDrill
T4C1.020
; #@! TA.AperFunction,Plated,PTH,ComponentDrill
T5C3.200
%
G90
G05
T1
X109.6Y-131.0
X113.73Y-81.225
X114.74Y-81.185
X115.75Y-81.225
X117.0Y-135.0
X117.0Y-136.5
X117.0Y-138.0
X117.0Y-139.5
X117.0Y-141.0
X117.0Y-142.5
X117.5Y-78.175
X117.55Y-79.1
X118.43Y-78.58
X118.5Y-135.0
X118.5Y-136.5
X118.5Y-138.0
X118.5Y-139.5
X118.5Y-141.0
X118.5Y-142.5
X119.3Y-82.8
X119.575Y-84.075
X120.0Y-135.0
X120.0Y-136.5
X120.0Y-138.0
X120.0Y-139.5
X120.0Y-141.0
X120.0Y-142.5
X120.075Y-83.325
X120.575Y-84.2
X120.6Y-82.8
X120.95Y-106.8
X121.475Y-84.65
X121.5Y-135.0
X121.5Y-136.5
X121.5Y-138.0
X121.5Y-139.5
X121.5Y-141.0
X121.5Y-142.5
X121.75Y-85.475
X121.875Y-107.2
X121.89Y-77.51
X121.925Y-106.575
X122.1Y-78.5
X122.39Y-86.26
X122.75Y-136.5
X122.75Y-138.0
X123.0Y-135.0
X123.0Y-139.5
X123.17Y-79.575
X123.225Y-80.725
X123.3Y-86.675
X124.025Y-80.105
X124.5Y-138.6
X124.55Y-135.9
X124.95Y-135.0
X124.975Y-110.1
X124.975Y-112.55
X125.75Y-139.5
X125.8Y-135.0
X125.8Y-136.5
X126.325Y-110.125
X126.35Y-116.475
X127.0Y-116.475
X127.25Y-135.0
X127.25Y-136.5
X127.25Y-138.0
X127.25Y-139.5
X127.625Y-108.3
X127.65Y-116.475
X127.7Y-75.725
X128.3Y-116.475
X128.51Y-77.48
X129.0Y-136.5
X129.0Y-138.0
X129.0Y-139.5
X129.625Y-110.05
X129.7Y-78.5
X130.025Y-79.45
X130.26Y-96.45
X130.5Y-136.5
X130.5Y-138.0
X130.5Y-139.5
X130.89Y-78.93
X131.14Y-95.15
X132.0Y-136.5
X132.0Y-138.0
X132.0Y-139.5
X132.0Y-141.0
X132.0Y-142.5
X133.5Y-136.5
X133.5Y-138.0
X133.5Y-139.5
X133.5Y-141.0
X133.5Y-142.5
X135.0Y-136.5
X135.0Y-138.0
X135.0Y-139.5
X135.0Y-141.0
X135.0Y-142.5
X135.24Y-76.365
X135.675Y-94.0
X135.7Y-49.5
X135.7Y-51.0
X135.7Y-52.5
X135.7Y-54.0
X135.7Y-55.5
X137.025Y-72.715
X137.2Y-49.5
X137.2Y-51.0
X137.2Y-52.5
X137.2Y-54.0
X137.2Y-55.5
X137.31Y-78.31
X137.4Y-131.0
X137.5Y-90.685
X138.28Y-92.425
X138.7Y-52.5
X138.7Y-54.0
X138.7Y-55.5
X138.95Y-92.0
X139.325Y-91.075
X139.65Y-92.025
X140.2Y-52.5
X140.2Y-54.0
X140.2Y-55.5
X140.825Y-92.375
X141.0Y-91.375
X141.95Y-91.725
X142.15Y-52.5
X142.3Y-55.85
X142.65Y-94.6
X142.71Y-97.87
X143.175Y-95.475
X143.175Y-96.975
X143.3Y-94.475
X143.375Y-97.96
X143.65Y-52.5
X144.55Y-89.6
X144.7Y-135.0
X144.7Y-136.5
X144.7Y-138.0
X144.7Y-139.5
X144.7Y-141.0
X144.7Y-142.5
X145.125Y-74.89
X145.125Y-75.54
X145.125Y-76.19
X145.125Y-76.84
X145.15Y-49.5
X145.15Y-51.0
X145.15Y-52.5
X145.15Y-54.0
X145.15Y-55.5
X146.2Y-135.0
X146.2Y-136.5
X146.2Y-138.0
X146.2Y-139.5
X146.2Y-141.0
X146.2Y-142.5
X146.225Y-88.65
X146.65Y-49.5
X146.65Y-51.0
X146.65Y-52.5
X146.65Y-54.0
X146.65Y-55.5
X147.7Y-135.0
X147.7Y-136.5
X147.7Y-138.0
X147.7Y-139.5
X147.7Y-141.0
X147.7Y-142.5
X148.15Y-49.5
X148.15Y-51.0
X148.15Y-52.5
X148.15Y-54.0
X148.15Y-55.5
X149.2Y-135.0
X149.2Y-136.5
X149.2Y-138.0
X149.2Y-139.5
X149.2Y-141.0
X149.2Y-142.5
X149.65Y-49.5
X149.65Y-51.0
X149.65Y-52.5
X149.65Y-54.0
X149.65Y-55.5
X150.7Y-136.5
X150.7Y-138.0
X151.25Y-135.0
X151.5Y-139.5
X152.45Y-135.9
X152.5Y-138.55
X152.9Y-135.0
X153.65Y-139.5
X153.75Y-135.0
X153.75Y-136.5
X154.675Y-113.8
X154.675Y-114.45
X154.675Y-115.1
X154.675Y-115.75
X155.15Y-135.0
X155.15Y-136.5
X155.15Y-138.0
X155.15Y-139.5
X156.65Y-135.0
X156.65Y-136.5
X156.65Y-138.0
X156.65Y-139.5
X157.75Y-114.2
X157.8Y-59.85
X158.15Y-135.0
X158.15Y-136.5
X158.15Y-138.0
X158.15Y-139.5
X159.35Y-111.675
X159.65Y-135.0
X159.65Y-136.5
X159.65Y-138.0
X159.65Y-139.5
X159.65Y-141.0
X159.65Y-142.5
X161.075Y-112.45
X161.1Y-117.15
X161.15Y-135.0
X161.15Y-136.5
X161.15Y-138.0
X161.15Y-139.5
X161.15Y-141.0
X161.15Y-142.5
X162.65Y-135.0
X162.65Y-136.5
X162.65Y-138.0
X162.65Y-139.5
X162.65Y-141.0
X162.65Y-142.5
X162.9Y-115.1
X167.375Y-88.1
X167.75Y-87.65
X168.3Y-88.5
X168.85Y-89.35
X169.225Y-88.9
X179.2Y-80.2
X179.675Y-79.675
X180.15Y-80.55
X180.625Y-81.45
X181.025Y-81.05
X184.21Y-66.75
X184.21Y-67.75
T2
X104.45Y-122.95
X104.45Y-123.8
X104.65Y-128.45
X105.0Y-107.0
X105.0Y-111.0
X105.0Y-115.0
X105.3Y-122.95
X105.3Y-123.8
X105.375Y-57.29
X106.675Y-119.275
X107.497Y-58.002
X108.025Y-119.275
X108.3Y-113.325
X109.675Y-119.275
X111.0Y-58.25
X111.0Y-59.45
X111.0Y-60.7
X111.0Y-61.95
X111.0Y-107.65
X111.1Y-53.35
X111.1Y-119.275
X112.1Y-116.25
X112.4Y-49.75
X112.4Y-50.95
X112.4Y-52.15
X112.4Y-53.35
X112.4Y-54.55
X112.4Y-55.75
X112.4Y-56.95
X112.4Y-58.25
X112.4Y-59.45
X112.4Y-60.7
X112.4Y-61.95
X112.6Y-120.0
X112.6Y-121.0
X112.6Y-122.0
X113.7Y-53.35
X113.7Y-106.15
X113.75Y-58.25
X113.75Y-59.45
X113.75Y-60.7
X113.75Y-61.95
X114.9Y-49.75
X114.9Y-50.95
X114.9Y-52.15
X114.9Y-53.35
X114.9Y-54.55
X114.9Y-55.75
X114.9Y-56.95
X114.9Y-58.25
X114.9Y-59.45
X114.9Y-60.7
X114.9Y-61.95
X115.15Y-112.825
X116.2Y-53.35
X116.25Y-58.25
X116.25Y-59.45
X116.25Y-60.7
X116.25Y-61.95
X116.4Y-107.65
X117.0Y-128.45
X117.5Y-49.75
X117.5Y-50.95
X117.5Y-52.15
X117.5Y-53.35
X117.5Y-54.55
X117.5Y-55.75
X117.5Y-56.95
X117.5Y-58.25
X117.5Y-59.45
X117.5Y-60.7
X117.5Y-61.95
X118.75Y-58.25
X118.75Y-59.45
X118.75Y-60.7
X118.75Y-61.95
X118.8Y-53.35
X119.0Y-125.0
X121.0Y-128.45
X122.5Y-49.5
X122.5Y-50.75
X122.5Y-52.0
X122.5Y-53.25
X122.5Y-54.75
X122.5Y-56.0
X122.5Y-57.25
X122.5Y-58.4
X123.65Y-89.5
X123.65Y-92.5
X123.65Y-96.0
X123.8Y-53.25
X123.8Y-58.4
X123.8Y-59.65
X124.35Y-131.15
X125.0Y-98.5
X125.1Y-49.5
X125.1Y-50.75
X125.1Y-52.0
X125.1Y-53.25
X125.1Y-54.75
X125.1Y-56.0
X125.1Y-57.25
X125.1Y-58.4
X125.1Y-59.65
X125.1Y-60.9
X125.4Y-131.15
X125.5Y-90.5
X125.5Y-92.5
X125.5Y-94.5
X125.5Y-96.25
X126.4Y-53.25
X126.4Y-58.4
X126.4Y-59.65
X126.4Y-60.9
X126.5Y-88.75
X126.5Y-131.15
X127.0Y-97.5
X127.075Y-95.975
X127.45Y-94.45
X127.6Y-49.5
X127.6Y-50.75
X127.6Y-52.0
X127.6Y-53.25
X127.6Y-54.75
X127.6Y-56.0
X127.6Y-57.25
X127.6Y-58.4
X127.6Y-59.65
X127.6Y-60.9
X127.65Y-131.15
X127.75Y-119.5
X128.5Y-88.25
X128.6Y-120.5
X128.6Y-132.3
X128.6Y-133.65
X128.75Y-97.5
X128.9Y-58.4
X128.9Y-59.65
X128.9Y-60.9
X128.95Y-53.25
X129.475Y-91.125
X129.825Y-89.625
X130.075Y-97.85
X130.2Y-49.5
X130.2Y-50.75
X130.2Y-52.0
X130.2Y-53.25
X130.2Y-54.75
X130.2Y-56.0
X130.2Y-57.25
X130.2Y-58.4
X130.2Y-59.65
X130.2Y-60.9
X130.75Y-88.75
X131.2Y-90.725
X131.5Y-49.5
X131.5Y-50.75
X131.5Y-52.0
X131.5Y-53.25
X131.5Y-54.75
X131.5Y-56.0
X131.5Y-57.25
X131.5Y-58.4
X131.5Y-59.65
X131.5Y-60.9
X131.775Y-96.275
X132.075Y-128.45
X132.1Y-122.95
X132.1Y-123.8
X132.475Y-88.075
X132.75Y-49.5
X132.75Y-50.75
X132.75Y-52.0
X132.75Y-53.25
X132.75Y-54.75
X132.75Y-56.0
X132.75Y-57.25
X132.75Y-58.4
X132.75Y-59.65
X132.75Y-60.9
X132.95Y-122.95
X132.95Y-123.8
X133.4Y-86.225
X133.675Y-89.95
X134.475Y-86.225
X134.475Y-119.275
X134.8Y-102.4
X135.3Y-96.5
X135.53Y-95.16
X135.737Y-115.725
X135.825Y-119.275
X136.0Y-90.75
X136.7Y-103.125
X137.475Y-119.275
X137.5Y-95.9
X138.55Y-102.2
X138.9Y-119.275
X139.05Y-57.2
X139.05Y-58.35
X139.05Y-69.0
X139.05Y-70.5
X139.725Y-76.59
X139.775Y-116.7
X140.1Y-59.65
X140.5Y-120.0
X140.5Y-121.0
X140.5Y-122.0
X141.0Y-104.125
X141.25Y-59.65
X142.3Y-59.65
X142.5Y-105.075
X142.8Y-112.825
X143.4Y-59.65
X144.0Y-128.45
X144.15Y-102.725
X145.075Y-100.875
X146.0Y-125.0
X146.75Y-107.4
X146.75Y-112.8
X148.0Y-128.45
X148.25Y-110.1
X149.575Y-89.825
X151.4Y-81.65
X152.25Y-131.15
X152.65Y-76.475
X153.3Y-131.15
X154.1Y-80.15
X154.4Y-131.15
X155.1Y-69.0
X155.1Y-70.0
X155.1Y-71.0
X155.55Y-131.15
X155.65Y-72.81
X156.5Y-120.25
X156.5Y-121.75
X156.5Y-132.3
X156.5Y-133.65
X156.625Y-71.825
X156.75Y-81.65
X157.975Y-71.825
X159.625Y-71.825
X160.0Y-50.0
X160.0Y-100.0
X160.825Y-74.85
X161.05Y-71.825
X162.55Y-67.25
X162.55Y-68.1
X162.95Y-62.3
X163.4Y-67.25
X163.4Y-68.1
X165.0Y-50.0
X170.0Y-100.0
X170.0Y-110.75
X170.0Y-120.75
X170.0Y-130.25
X170.0Y-140.0
X173.6Y-50.0
X177.6Y-50.0
X180.0Y-90.0
X180.0Y-100.0
X180.0Y-110.0
X180.0Y-120.0
X180.0Y-130.25
X180.0Y-140.0
X181.0Y-59.25
X181.6Y-50.0
X185.7Y-65.55
X185.7Y-68.94
X190.0Y-100.0
X190.0Y-110.0
X190.0Y-120.0
X190.0Y-130.25
X190.0Y-140.0
X190.92Y-56.76
X196.08Y-56.76
T3
X103.1Y-51.5
X103.1Y-140.5
X103.803Y-49.803
X103.803Y-53.197
X103.803Y-138.803
X103.803Y-142.197
X105.5Y-49.1
X105.5Y-53.9
X105.5Y-138.1
X105.5Y-142.9
X107.197Y-49.803
X107.197Y-53.197
X107.197Y-138.803
X107.197Y-142.197
X107.9Y-51.5
X107.9Y-140.5
X192.1Y-51.5
X192.1Y-140.5
X192.803Y-49.803
X192.803Y-53.197
X192.803Y-138.803
X192.803Y-142.197
X194.5Y-49.1
X194.5Y-53.9
X194.5Y-138.1
X194.5Y-142.9
X196.197Y-49.803
X196.197Y-53.197
X196.197Y-138.803
X196.197Y-142.197
X196.9Y-51.5
X196.9Y-140.5
T4
X167.5Y-54.31
X167.5Y-57.31
X170.5Y-54.31
X170.5Y-57.31
X173.5Y-54.31
X173.5Y-57.31
X176.5Y-54.31
X176.5Y-57.31
X179.5Y-54.31
X179.5Y-57.31
X182.5Y-54.31
X182.5Y-57.31
X185.5Y-54.31
X185.5Y-57.31
X188.5Y-54.31
X188.5Y-57.31
T5
X105.5Y-51.5
X105.5Y-140.5
X194.5Y-51.5
X194.5Y-140.5
M30
