%TF.GenerationSoftware,KiCad,Pcbnew,9.0.7-9.0.7~ubuntu22.04.1*%
%TF.CreationDate,2026-03-18T15:25:34+04:00*%
%TF.ProjectId,GPSComputer_3.2.01,47505343-6f6d-4707-9574-65725f332e32,rev?*%
%TF.SameCoordinates,Original*%
%TF.FileFunction,Soldermask,Bot*%
%TF.FilePolarity,Negative*%
%FSLAX46Y46*%
G04 Gerber Fmt 4.6, Leading zero omitted, Abs format (unit mm)*
G04 Created by KiCad (PCBNEW 9.0.7-9.0.7~ubuntu22.04.1) date 2026-03-18 15:25:34*
%MOMM*%
%LPD*%
G01*
G04 APERTURE LIST*
G04 Aperture macros list*
%AMRoundRect*
0 Rectangle with rounded corners*
0 $1 Rounding radius*
0 $2 $3 $4 $5 $6 $7 $8 $9 X,Y pos of 4 corners*
0 Add a 4 corners polygon primitive as box body*
4,1,4,$2,$3,$4,$5,$6,$7,$8,$9,$2,$3,0*
0 Add four circle primitives for the rounded corners*
1,1,$1+$1,$2,$3*
1,1,$1+$1,$4,$5*
1,1,$1+$1,$6,$7*
1,1,$1+$1,$8,$9*
0 Add four rect primitives between the rounded corners*
20,1,$1+$1,$2,$3,$4,$5,0*
20,1,$1+$1,$4,$5,$6,$7,0*
20,1,$1+$1,$6,$7,$8,$9,0*
20,1,$1+$1,$8,$9,$2,$3,0*%
G04 Aperture macros list end*
%ADD10C,0.836200*%
%ADD11C,1.576200*%
%ADD12C,0.010000*%
%ADD13C,0.000100*%
%ADD14RoundRect,0.250000X0.425000X1.600000X-0.425000X1.600000X-0.425000X-1.600000X0.425000X-1.600000X0*%
%ADD15C,0.800000*%
%ADD16C,6.400000*%
%ADD17RoundRect,0.250000X-0.425000X-1.600000X0.425000X-1.600000X0.425000X1.600000X-0.425000X1.600000X0*%
%ADD18C,3.000000*%
%ADD19RoundRect,0.140000X0.170000X-0.140000X0.170000X0.140000X-0.170000X0.140000X-0.170000X-0.140000X0*%
%ADD20R,1.000000X3.000000*%
%ADD21RoundRect,0.102000X-2.050000X-0.850000X2.050000X-0.850000X2.050000X0.850000X-2.050000X0.850000X0*%
%ADD22RoundRect,0.102000X2.050000X0.850000X-2.050000X0.850000X-2.050000X-0.850000X2.050000X-0.850000X0*%
%ADD23RoundRect,0.102000X-0.850000X2.050000X-0.850000X-2.050000X0.850000X-2.050000X0.850000X2.050000X0*%
%ADD24RoundRect,0.135000X-0.185000X0.135000X-0.185000X-0.135000X0.185000X-0.135000X0.185000X0.135000X0*%
%ADD25RoundRect,0.135000X0.185000X-0.135000X0.185000X0.135000X-0.185000X0.135000X-0.185000X-0.135000X0*%
G04 APERTURE END LIST*
D10*
%TO.C,J4*%
X167918100Y-57310000D02*
G75*
G02*
X167081900Y-57310000I-418100J0D01*
G01*
X167081900Y-57310000D02*
G75*
G02*
X167918100Y-57310000I418100J0D01*
G01*
D11*
X170428100Y-50010000D02*
G75*
G02*
X168851900Y-50010000I-788100J0D01*
G01*
X168851900Y-50010000D02*
G75*
G02*
X170428100Y-50010000I788100J0D01*
G01*
D10*
X170918100Y-54310000D02*
G75*
G02*
X170081900Y-54310000I-418100J0D01*
G01*
X170081900Y-54310000D02*
G75*
G02*
X170918100Y-54310000I418100J0D01*
G01*
X170918100Y-57310000D02*
G75*
G02*
X170081900Y-57310000I-418100J0D01*
G01*
X170081900Y-57310000D02*
G75*
G02*
X170918100Y-57310000I418100J0D01*
G01*
X173918100Y-54310000D02*
G75*
G02*
X173081900Y-54310000I-418100J0D01*
G01*
X173081900Y-54310000D02*
G75*
G02*
X173918100Y-54310000I418100J0D01*
G01*
X173918100Y-57310000D02*
G75*
G02*
X173081900Y-57310000I-418100J0D01*
G01*
X173081900Y-57310000D02*
G75*
G02*
X173918100Y-57310000I418100J0D01*
G01*
X176918100Y-54310000D02*
G75*
G02*
X176081900Y-54310000I-418100J0D01*
G01*
X176081900Y-54310000D02*
G75*
G02*
X176918100Y-54310000I418100J0D01*
G01*
X176918100Y-57310000D02*
G75*
G02*
X176081900Y-57310000I-418100J0D01*
G01*
X176081900Y-57310000D02*
G75*
G02*
X176918100Y-57310000I418100J0D01*
G01*
X179918100Y-54310000D02*
G75*
G02*
X179081900Y-54310000I-418100J0D01*
G01*
X179081900Y-54310000D02*
G75*
G02*
X179918100Y-54310000I418100J0D01*
G01*
X179918100Y-57310000D02*
G75*
G02*
X179081900Y-57310000I-418100J0D01*
G01*
X179081900Y-57310000D02*
G75*
G02*
X179918100Y-57310000I418100J0D01*
G01*
X182918100Y-54310000D02*
G75*
G02*
X182081900Y-54310000I-418100J0D01*
G01*
X182081900Y-54310000D02*
G75*
G02*
X182918100Y-54310000I418100J0D01*
G01*
X182918100Y-57310000D02*
G75*
G02*
X182081900Y-57310000I-418100J0D01*
G01*
X182081900Y-57310000D02*
G75*
G02*
X182918100Y-57310000I418100J0D01*
G01*
X185918100Y-54310000D02*
G75*
G02*
X185081900Y-54310000I-418100J0D01*
G01*
X185081900Y-54310000D02*
G75*
G02*
X185918100Y-54310000I418100J0D01*
G01*
X185918100Y-57310000D02*
G75*
G02*
X185081900Y-57310000I-418100J0D01*
G01*
X185081900Y-57310000D02*
G75*
G02*
X185918100Y-57310000I418100J0D01*
G01*
D11*
X187128100Y-50010000D02*
G75*
G02*
X185551900Y-50010000I-788100J0D01*
G01*
X185551900Y-50010000D02*
G75*
G02*
X187128100Y-50010000I788100J0D01*
G01*
D10*
X188918100Y-54310000D02*
G75*
G02*
X188081900Y-54310000I-418100J0D01*
G01*
X188081900Y-54310000D02*
G75*
G02*
X188918100Y-54310000I418100J0D01*
G01*
X188918100Y-57310000D02*
G75*
G02*
X188081900Y-57310000I-418100J0D01*
G01*
X188081900Y-57310000D02*
G75*
G02*
X188918100Y-57310000I418100J0D01*
G01*
D12*
X168336200Y-55146200D02*
X166663800Y-55146200D01*
X166663800Y-53473800D01*
X168336200Y-53473800D01*
X168336200Y-55146200D01*
G36*
X168336200Y-55146200D02*
G01*
X166663800Y-55146200D01*
X166663800Y-53473800D01*
X168336200Y-53473800D01*
X168336200Y-55146200D01*
G37*
D13*
%TO.C,BT3*%
X115850000Y-112300000D02*
X113050000Y-112300000D01*
X115850000Y-109500000D01*
X115850000Y-112300000D01*
G36*
X115850000Y-112300000D02*
G01*
X113050000Y-112300000D01*
X115850000Y-109500000D01*
X115850000Y-112300000D01*
G37*
%TO.C,BT2*%
X151950000Y-79790000D02*
X151950000Y-76990000D01*
X154750000Y-76990000D01*
X151950000Y-79790000D01*
G36*
X151950000Y-79790000D02*
G01*
X151950000Y-76990000D01*
X154750000Y-76990000D01*
X151950000Y-79790000D01*
G37*
%TO.C,BT1*%
X144887500Y-112275000D02*
X142087500Y-112275000D01*
X142087500Y-109475000D01*
X144887500Y-112275000D01*
G36*
X144887500Y-112275000D02*
G01*
X142087500Y-112275000D01*
X142087500Y-109475000D01*
X144887500Y-112275000D01*
G37*
%TD*%
D14*
%TO.C,J2*%
X138350000Y-50015000D03*
X144000000Y-50015000D03*
%TD*%
D15*
%TO.C,H4*%
X103100000Y-140500000D03*
X103802944Y-138802944D03*
X103802944Y-142197056D03*
X105500000Y-138100000D03*
D16*
X105500000Y-140500000D03*
D15*
X105500000Y-142900000D03*
X107197056Y-138802944D03*
X107197056Y-142197056D03*
X107900000Y-140500000D03*
%TD*%
%TO.C,H2*%
X192100000Y-51500000D03*
X192802944Y-49802944D03*
X192802944Y-53197056D03*
X194500000Y-49100000D03*
D16*
X194500000Y-51500000D03*
D15*
X194500000Y-53900000D03*
X196197056Y-49802944D03*
X196197056Y-53197056D03*
X196900000Y-51500000D03*
%TD*%
%TO.C,H3*%
X192100000Y-140500000D03*
X192802944Y-138802944D03*
X192802944Y-142197056D03*
X194500000Y-138100000D03*
D16*
X194500000Y-140500000D03*
D15*
X194500000Y-142900000D03*
X196197056Y-138802944D03*
X196197056Y-142197056D03*
X196900000Y-140500000D03*
%TD*%
D17*
%TO.C,J1*%
X157225000Y-142000000D03*
X151575000Y-142000000D03*
%TD*%
D15*
%TO.C,H1*%
X103100000Y-51500000D03*
X103802944Y-49802944D03*
X103802944Y-53197056D03*
X105500000Y-49100000D03*
D16*
X105500000Y-51500000D03*
D15*
X105500000Y-53900000D03*
X107197056Y-49802944D03*
X107197056Y-53197056D03*
X107900000Y-51500000D03*
%TD*%
D17*
%TO.C,J3*%
X129325000Y-142000000D03*
X123675000Y-142000000D03*
%TD*%
D18*
%TO.C,J4*%
X186340000Y-50010000D03*
X169640000Y-50010000D03*
%TD*%
D19*
%TO.C,C12*%
X136450000Y-94955000D03*
X136450000Y-93995000D03*
%TD*%
D20*
%TO.C,J6*%
X111100000Y-55940000D03*
X111100000Y-50900000D03*
X113640000Y-55940000D03*
X113640000Y-50900000D03*
X116180000Y-55940000D03*
X116180000Y-50900000D03*
X118720000Y-55940000D03*
X118720000Y-50900000D03*
X121260000Y-55940000D03*
X121260000Y-50900000D03*
X123800000Y-55940000D03*
X123800000Y-50900000D03*
X126340000Y-55940000D03*
X126340000Y-50900000D03*
X128880000Y-55940000D03*
X128880000Y-50900000D03*
%TD*%
D21*
%TO.C,BT3*%
X113700000Y-107650000D03*
%TD*%
D22*
%TO.C,BT2*%
X154100000Y-81640000D03*
%TD*%
D23*
%TO.C,BT1*%
X146737500Y-110125000D03*
%TD*%
D24*
%TO.C,R11*%
X137500000Y-91400000D03*
X137500000Y-92420000D03*
%TD*%
D25*
%TO.C,R10*%
X137500000Y-95010000D03*
X137500000Y-93990000D03*
%TD*%
M02*
