%TF.GenerationSoftware,KiCad,Pcbnew,9.0.7-9.0.7~ubuntu22.04.1*%
%TF.CreationDate,2026-03-18T15:25:34+04:00*%
%TF.ProjectId,GPSComputer_3.2.01,47505343-6f6d-4707-9574-65725f332e32,rev?*%
%TF.SameCoordinates,Original*%
%TF.FileFunction,Copper,L4,Bot*%
%TF.FilePolarity,Positive*%
%FSLAX46Y46*%
G04 Gerber Fmt 4.6, Leading zero omitted, Abs format (unit mm)*
G04 Created by KiCad (PCBNEW 9.0.7-9.0.7~ubuntu22.04.1) date 2026-03-18 15:25:34*
%MOMM*%
%LPD*%
G01*
G04 APERTURE LIST*
G04 Aperture macros list*
%AMRoundRect*
0 Rectangle with rounded corners*
0 $1 Rounding radius*
0 $2 $3 $4 $5 $6 $7 $8 $9 X,Y pos of 4 corners*
0 Add a 4 corners polygon primitive as box body*
4,1,4,$2,$3,$4,$5,$6,$7,$8,$9,$2,$3,0*
0 Add four circle primitives for the rounded corners*
1,1,$1+$1,$2,$3*
1,1,$1+$1,$4,$5*
1,1,$1+$1,$6,$7*
1,1,$1+$1,$8,$9*
0 Add four rect primitives between the rounded corners*
20,1,$1+$1,$2,$3,$4,$5,0*
20,1,$1+$1,$4,$5,$6,$7,0*
20,1,$1+$1,$6,$7,$8,$9,0*
20,1,$1+$1,$8,$9,$2,$3,0*%
%AMFreePoly0*
4,1,12,0.600035,1.800035,0.600050,1.800000,0.600050,-0.600000,0.600035,-0.600035,0.600000,-0.600050,-1.800000,-0.600050,-1.800035,-0.600035,-1.800050,-0.600000,-1.800035,-0.599965,0.599965,1.800035,0.600000,1.800050,0.600035,1.800035,0.600035,1.800035,$1*%
G04 Aperture macros list end*
%TA.AperFunction,SMDPad,CuDef*%
%ADD10RoundRect,0.250000X0.425000X1.600000X-0.425000X1.600000X-0.425000X-1.600000X0.425000X-1.600000X0*%
%TD*%
%TA.AperFunction,ComponentPad*%
%ADD11C,0.800000*%
%TD*%
%TA.AperFunction,ComponentPad*%
%ADD12C,6.400000*%
%TD*%
%TA.AperFunction,SMDPad,CuDef*%
%ADD13RoundRect,0.250000X-0.425000X-1.600000X0.425000X-1.600000X0.425000X1.600000X-0.425000X1.600000X0*%
%TD*%
%TA.AperFunction,ComponentPad*%
%ADD14R,1.520000X1.520000*%
%TD*%
%TA.AperFunction,ComponentPad*%
%ADD15C,1.520000*%
%TD*%
%TA.AperFunction,SMDPad,CuDef*%
%ADD16RoundRect,0.140000X0.170000X-0.140000X0.170000X0.140000X-0.170000X0.140000X-0.170000X-0.140000X0*%
%TD*%
%TA.AperFunction,SMDPad,CuDef*%
%ADD17R,1.000000X3.000000*%
%TD*%
%TA.AperFunction,SMDPad,CuDef*%
%ADD18FreePoly0,0.000000*%
%TD*%
%TA.AperFunction,SMDPad,CuDef*%
%ADD19R,4.100000X1.700000*%
%TD*%
%TA.AperFunction,SMDPad,CuDef*%
%ADD20FreePoly0,180.000000*%
%TD*%
%TA.AperFunction,SMDPad,CuDef*%
%ADD21FreePoly0,270.000000*%
%TD*%
%TA.AperFunction,SMDPad,CuDef*%
%ADD22R,1.700000X4.100000*%
%TD*%
%TA.AperFunction,SMDPad,CuDef*%
%ADD23RoundRect,0.135000X-0.185000X0.135000X-0.185000X-0.135000X0.185000X-0.135000X0.185000X0.135000X0*%
%TD*%
%TA.AperFunction,SMDPad,CuDef*%
%ADD24RoundRect,0.135000X0.185000X-0.135000X0.185000X0.135000X-0.185000X0.135000X-0.185000X-0.135000X0*%
%TD*%
%TA.AperFunction,ViaPad*%
%ADD25C,0.500000*%
%TD*%
%TA.AperFunction,ViaPad*%
%ADD26C,0.800000*%
%TD*%
%TA.AperFunction,ViaPad*%
%ADD27C,0.600000*%
%TD*%
%TA.AperFunction,Conductor*%
%ADD28C,0.500000*%
%TD*%
%TA.AperFunction,Conductor*%
%ADD29C,0.150000*%
%TD*%
G04 APERTURE END LIST*
D10*
%TO.P,J2,2,Ext*%
%TO.N,GND*%
X138350000Y-50015000D03*
X144000000Y-50015000D03*
%TD*%
D11*
%TO.P,H4,1,1*%
%TO.N,GND*%
X103100000Y-140500000D03*
X103802944Y-138802944D03*
X103802944Y-142197056D03*
X105500000Y-138100000D03*
D12*
X105500000Y-140500000D03*
D11*
X105500000Y-142900000D03*
X107197056Y-138802944D03*
X107197056Y-142197056D03*
X107900000Y-140500000D03*
%TD*%
%TO.P,H2,1,1*%
%TO.N,GND*%
X192100000Y-51500000D03*
X192802944Y-49802944D03*
X192802944Y-53197056D03*
X194500000Y-49100000D03*
D12*
X194500000Y-51500000D03*
D11*
X194500000Y-53900000D03*
X196197056Y-49802944D03*
X196197056Y-53197056D03*
X196900000Y-51500000D03*
%TD*%
%TO.P,H3,1,1*%
%TO.N,GND*%
X192100000Y-140500000D03*
X192802944Y-138802944D03*
X192802944Y-142197056D03*
X194500000Y-138100000D03*
D12*
X194500000Y-140500000D03*
D11*
X194500000Y-142900000D03*
X196197056Y-138802944D03*
X196197056Y-142197056D03*
X196900000Y-140500000D03*
%TD*%
D13*
%TO.P,J1,2,Ext*%
%TO.N,GND*%
X157225000Y-142000000D03*
X151575000Y-142000000D03*
%TD*%
D11*
%TO.P,H1,1,1*%
%TO.N,GND*%
X103100000Y-51500000D03*
X103802944Y-49802944D03*
X103802944Y-53197056D03*
X105500000Y-49100000D03*
D12*
X105500000Y-51500000D03*
D11*
X105500000Y-53900000D03*
X107197056Y-49802944D03*
X107197056Y-53197056D03*
X107900000Y-51500000D03*
%TD*%
D13*
%TO.P,J3,2,Ext*%
%TO.N,GND*%
X129325000Y-142000000D03*
X123675000Y-142000000D03*
%TD*%
D14*
%TO.P,J4,1,1*%
%TO.N,GND*%
X167500000Y-54310000D03*
D15*
%TO.P,J4,2,2*%
%TO.N,unconnected-(J4-Pad2)*%
X170500000Y-54310000D03*
%TO.P,J4,3,3*%
%TO.N,unconnected-(J4-Pad3)*%
X173500000Y-54310000D03*
%TO.P,J4,4,4*%
%TO.N,unconnected-(J4-Pad4)*%
X176500000Y-54310000D03*
%TO.P,J4,5,5*%
%TO.N,GPS_DBG_UART4_RX*%
X179500000Y-54310000D03*
%TO.P,J4,6,6*%
%TO.N,GPS_DBG_UART4_TX*%
X182500000Y-54310000D03*
%TO.P,J4,7,7*%
%TO.N,GPS_NRST*%
X185500000Y-54310000D03*
%TO.P,J4,8,8*%
%TO.N,GND*%
X188500000Y-54310000D03*
%TO.P,J4,9,9*%
%TO.N,unconnected-(J4-Pad9)*%
X167500000Y-57310000D03*
%TO.P,J4,10,10*%
%TO.N,GPS_MUX_UART_RX*%
X170500000Y-57310000D03*
%TO.P,J4,11,11*%
%TO.N,GPS_MUX_UART_TX*%
X173500000Y-57310000D03*
%TO.P,J4,12,12*%
%TO.N,unconnected-(J4-Pad12)*%
X176500000Y-57310000D03*
%TO.P,J4,13,13*%
%TO.N,GPS_SWCLK*%
X179500000Y-57310000D03*
%TO.P,J4,14,14*%
%TO.N,GPS_SWDIO*%
X182500000Y-57310000D03*
%TO.P,J4,15,15*%
%TO.N,GND*%
X185500000Y-57310000D03*
%TO.P,J4,16,16*%
X188500000Y-57310000D03*
%TD*%
D16*
%TO.P,C12,1*%
%TO.N,GND*%
X136450000Y-94955000D03*
%TO.P,C12,2*%
%TO.N,GPS_NRST*%
X136450000Y-93995000D03*
%TD*%
D17*
%TO.P,J6,1,Pin_1*%
%TO.N,+3.3V*%
X111100000Y-55940000D03*
%TO.P,J6,2,Pin_2*%
X111100000Y-50900000D03*
%TO.P,J6,3,Pin_3*%
X113640000Y-55940000D03*
%TO.P,J6,4,Pin_4*%
X113640000Y-50900000D03*
%TO.P,J6,5,Pin_5*%
X116180000Y-55940000D03*
%TO.P,J6,6,Pin_6*%
X116180000Y-50900000D03*
%TO.P,J6,7,Pin_7*%
X118720000Y-55940000D03*
%TO.P,J6,8,Pin_8*%
X118720000Y-50900000D03*
%TO.P,J6,9,Pin_9*%
%TO.N,GND*%
X121260000Y-55940000D03*
%TO.P,J6,10,Pin_10*%
X121260000Y-50900000D03*
%TO.P,J6,11,Pin_11*%
X123800000Y-55940000D03*
%TO.P,J6,12,Pin_12*%
X123800000Y-50900000D03*
%TO.P,J6,13,Pin_13*%
X126340000Y-55940000D03*
%TO.P,J6,14,Pin_14*%
X126340000Y-50900000D03*
%TO.P,J6,15,Pin_15*%
X128880000Y-55940000D03*
%TO.P,J6,16,Pin_16*%
X128880000Y-50900000D03*
%TD*%
D18*
%TO.P,BT3,1*%
%TO.N,GPS1_V_BCKP*%
X115150000Y-111600000D03*
D19*
%TO.P,BT3,2*%
%TO.N,GND*%
X113700000Y-107650000D03*
%TD*%
D20*
%TO.P,BT2,1*%
%TO.N,GPS0_V_BCKP*%
X152650000Y-77690000D03*
D19*
%TO.P,BT2,2*%
%TO.N,GND*%
X154100000Y-81640000D03*
%TD*%
D21*
%TO.P,BT1,1*%
%TO.N,GPS2_V_BCKP*%
X142787500Y-111575000D03*
D22*
%TO.P,BT1,2*%
%TO.N,GND*%
X146737500Y-110125000D03*
%TD*%
D23*
%TO.P,R11,1*%
%TO.N,GPS_BOOT0*%
X137500000Y-91400000D03*
%TO.P,R11,2*%
%TO.N,GND*%
X137500000Y-92420000D03*
%TD*%
D24*
%TO.P,R10,1*%
%TO.N,+3.3V*%
X137500000Y-95010000D03*
%TO.P,R10,2*%
%TO.N,GPS_NRST*%
X137500000Y-93990000D03*
%TD*%
D25*
%TO.N,GND*%
X130890000Y-78930000D03*
D26*
X122500000Y-53250000D03*
D25*
X180625000Y-81450000D03*
X151250000Y-135000000D03*
X145150000Y-55500000D03*
X120000000Y-139500000D03*
X156650000Y-136500000D03*
D26*
X139725000Y-76590000D03*
D25*
X124950000Y-135000000D03*
D26*
X128500000Y-88250000D03*
D25*
X161150000Y-139500000D03*
D26*
X142500000Y-105075000D03*
X130200000Y-58400000D03*
D25*
X140825000Y-92375000D03*
X145125000Y-76840000D03*
X135700000Y-55500000D03*
D26*
X156500000Y-133650000D03*
X127600000Y-54750000D03*
X155650000Y-72810000D03*
D25*
X161075000Y-112450000D03*
X153750000Y-136500000D03*
D26*
X132750000Y-54750000D03*
X125500000Y-94500000D03*
X127600000Y-58400000D03*
X132750000Y-57250000D03*
D25*
X138700000Y-55500000D03*
X120000000Y-142500000D03*
D26*
X126400000Y-59650000D03*
D25*
X146650000Y-51000000D03*
D26*
X160000000Y-100000000D03*
D25*
X130500000Y-136500000D03*
X117550000Y-79100000D03*
D26*
X131500000Y-53250000D03*
D25*
X117000000Y-135000000D03*
X117500000Y-78175000D03*
X137200000Y-52500000D03*
X132000000Y-138000000D03*
X127250000Y-135000000D03*
D26*
X130200000Y-59650000D03*
D25*
X127250000Y-139500000D03*
X147700000Y-142500000D03*
D26*
X117000000Y-128450000D03*
D25*
X144700000Y-138000000D03*
D26*
X160000000Y-50000000D03*
X125500000Y-96250000D03*
X144150000Y-102725000D03*
D25*
X144700000Y-142500000D03*
D26*
X130200000Y-56000000D03*
X185700000Y-65550000D03*
D25*
X161150000Y-135000000D03*
D26*
X162950000Y-62300000D03*
X190000000Y-110000000D03*
X141000000Y-104125000D03*
D25*
X150700000Y-136500000D03*
D26*
X111000000Y-107650000D03*
X180000000Y-120000000D03*
D25*
X118500000Y-142500000D03*
D27*
X131140000Y-95150000D03*
D25*
X145150000Y-51000000D03*
D26*
X127600000Y-50750000D03*
X122500000Y-56000000D03*
X126400000Y-58400000D03*
D25*
X146200000Y-142500000D03*
D26*
X156750000Y-81650000D03*
D27*
X119300000Y-82800000D03*
D26*
X190000000Y-130250000D03*
D25*
X123225000Y-80725000D03*
X161150000Y-136500000D03*
D26*
X146750000Y-112800000D03*
D25*
X122750000Y-138000000D03*
D26*
X125100000Y-54750000D03*
X190000000Y-100000000D03*
D25*
X162650000Y-135000000D03*
D26*
X132750000Y-60900000D03*
D25*
X148150000Y-52500000D03*
D26*
X106675000Y-119275000D03*
D25*
X147700000Y-135000000D03*
D26*
X148250000Y-110100000D03*
X131500000Y-56000000D03*
X126400000Y-53250000D03*
D25*
X153750000Y-135000000D03*
D26*
X105000000Y-107000000D03*
D25*
X149650000Y-52500000D03*
D26*
X157975000Y-71825000D03*
D25*
X143650000Y-52500000D03*
D26*
X140100000Y-59650000D03*
D25*
X150700000Y-138000000D03*
X133500000Y-139500000D03*
D26*
X130200000Y-49500000D03*
D25*
X138700000Y-52500000D03*
D26*
X113700000Y-106150000D03*
D25*
X130500000Y-139500000D03*
D26*
X190000000Y-140000000D03*
X181000000Y-59250000D03*
D25*
X121500000Y-139500000D03*
D26*
X128900000Y-58400000D03*
D25*
X117000000Y-138000000D03*
D26*
X112600000Y-121000000D03*
X130075000Y-97850000D03*
D25*
X117000000Y-142500000D03*
D26*
X139775000Y-116700000D03*
X134800000Y-102400000D03*
X156500000Y-132300000D03*
D25*
X129000000Y-136500000D03*
X159650000Y-139500000D03*
D26*
X125100000Y-53250000D03*
X129475000Y-91125000D03*
D25*
X138700000Y-54000000D03*
X127250000Y-136500000D03*
X132000000Y-141000000D03*
X145150000Y-54000000D03*
X147700000Y-136500000D03*
X148150000Y-55500000D03*
X155150000Y-138000000D03*
D26*
X130200000Y-60900000D03*
X159625000Y-71825000D03*
D25*
X135700000Y-54000000D03*
X121500000Y-141000000D03*
D26*
X123800000Y-53250000D03*
X127600000Y-49500000D03*
D25*
X145125000Y-76190000D03*
X158150000Y-135000000D03*
X137200000Y-55500000D03*
X179675000Y-79675000D03*
X144700000Y-136500000D03*
D26*
X130200000Y-52000000D03*
D25*
X142150000Y-52500000D03*
X153650000Y-139500000D03*
X133500000Y-136500000D03*
X121875000Y-107200000D03*
D26*
X131200000Y-90725000D03*
D25*
X158150000Y-138000000D03*
X159650000Y-141000000D03*
D26*
X139050000Y-70500000D03*
X112600000Y-122000000D03*
D25*
X148150000Y-54000000D03*
X124500000Y-138600000D03*
X135000000Y-141000000D03*
D26*
X170000000Y-110750000D03*
D25*
X184210000Y-66750000D03*
X154675000Y-113800000D03*
D27*
X130260000Y-96450000D03*
D26*
X123800000Y-58400000D03*
D25*
X122750000Y-136500000D03*
X145150000Y-52500000D03*
D26*
X180000000Y-140000000D03*
D25*
X133500000Y-142500000D03*
D26*
X125100000Y-59650000D03*
X122500000Y-58400000D03*
X151400000Y-81650000D03*
D25*
X118500000Y-138000000D03*
X148150000Y-51000000D03*
X135700000Y-51000000D03*
X133500000Y-138000000D03*
D26*
X128900000Y-59650000D03*
X131500000Y-58400000D03*
D25*
X146650000Y-54000000D03*
X127250000Y-138000000D03*
D26*
X129825000Y-89625000D03*
D25*
X140200000Y-52500000D03*
D26*
X135825000Y-119275000D03*
X140500000Y-120000000D03*
X139050000Y-57200000D03*
X131500000Y-54750000D03*
X170000000Y-130250000D03*
D25*
X124550000Y-135900000D03*
D26*
X130200000Y-54750000D03*
D27*
X126325000Y-110125000D03*
D26*
X180000000Y-110000000D03*
X190920000Y-56760000D03*
D25*
X113730000Y-81225000D03*
X121750000Y-85475000D03*
X115750000Y-81225000D03*
D26*
X161050000Y-71825000D03*
X155100000Y-71000000D03*
X180000000Y-100000000D03*
D25*
X149650000Y-55500000D03*
D26*
X123650000Y-92500000D03*
D25*
X144700000Y-139500000D03*
D26*
X122500000Y-52000000D03*
D25*
X117000000Y-141000000D03*
D26*
X122500000Y-57250000D03*
D25*
X168850000Y-89350000D03*
D26*
X133400000Y-86225000D03*
X139050000Y-69000000D03*
D27*
X157750000Y-114200000D03*
D25*
X146200000Y-135000000D03*
X147700000Y-139500000D03*
X123170000Y-79575000D03*
D26*
X125100000Y-49500000D03*
D25*
X154675000Y-115100000D03*
D26*
X185700000Y-68940000D03*
X123650000Y-89500000D03*
D25*
X121475000Y-84650000D03*
X145125000Y-74890000D03*
D26*
X130200000Y-50750000D03*
X126400000Y-60900000D03*
X132075000Y-128450000D03*
D25*
X162650000Y-141000000D03*
D26*
X141250000Y-59650000D03*
D25*
X155150000Y-139500000D03*
X147700000Y-138000000D03*
X129700000Y-78500000D03*
D26*
X170000000Y-120750000D03*
X108025000Y-119275000D03*
X127000000Y-97500000D03*
X170000000Y-140000000D03*
X139050000Y-58350000D03*
D25*
X135000000Y-139500000D03*
D26*
X109675000Y-119275000D03*
D25*
X128300000Y-116475000D03*
X121925000Y-106575000D03*
D26*
X136000000Y-90750000D03*
D25*
X156650000Y-139500000D03*
D27*
X146225000Y-88650000D03*
D25*
X142710000Y-97870000D03*
D26*
X143400000Y-59650000D03*
D27*
X127700000Y-75725000D03*
D25*
X120000000Y-141000000D03*
X118500000Y-136500000D03*
D26*
X131500000Y-50750000D03*
X180000000Y-130250000D03*
D25*
X149650000Y-51000000D03*
D26*
X128600000Y-120500000D03*
D25*
X132000000Y-142500000D03*
D26*
X137475000Y-119275000D03*
D25*
X149200000Y-142500000D03*
X130500000Y-138000000D03*
X159650000Y-135000000D03*
X149200000Y-141000000D03*
X146650000Y-52500000D03*
X139650000Y-92025000D03*
X135000000Y-142500000D03*
X149200000Y-139500000D03*
D26*
X153300000Y-131150000D03*
D25*
X146200000Y-139500000D03*
D26*
X111100000Y-119275000D03*
D25*
X118500000Y-139500000D03*
D26*
X130750000Y-88750000D03*
D25*
X135000000Y-136500000D03*
D26*
X112100000Y-116250000D03*
D25*
X149200000Y-136500000D03*
D26*
X122500000Y-50750000D03*
D25*
X179200000Y-80200000D03*
X127000000Y-116475000D03*
X141950000Y-91725000D03*
X152500000Y-138550000D03*
D26*
X138900000Y-119275000D03*
X140500000Y-122000000D03*
D25*
X140200000Y-55500000D03*
X129000000Y-139500000D03*
X124975000Y-110100000D03*
D26*
X156625000Y-71825000D03*
X122500000Y-49500000D03*
D25*
X149200000Y-135000000D03*
D26*
X125100000Y-60900000D03*
X181600000Y-50000000D03*
X138550000Y-102200000D03*
X132750000Y-56000000D03*
X135530000Y-95160000D03*
X154400000Y-131150000D03*
D25*
X146200000Y-141000000D03*
X135000000Y-138000000D03*
D26*
X131500000Y-60900000D03*
X190000000Y-120000000D03*
X127650000Y-131150000D03*
D25*
X151500000Y-139500000D03*
X120000000Y-135000000D03*
X158150000Y-139500000D03*
X122100000Y-78500000D03*
X142650000Y-94600000D03*
X149200000Y-138000000D03*
D26*
X127600000Y-52000000D03*
D25*
X154675000Y-115750000D03*
D26*
X125100000Y-52000000D03*
D25*
X167375000Y-88100000D03*
X155150000Y-136500000D03*
X154675000Y-114450000D03*
D26*
X125500000Y-90500000D03*
X127600000Y-53250000D03*
X125100000Y-58400000D03*
X128900000Y-60900000D03*
D25*
X146200000Y-138000000D03*
D26*
X156500000Y-121750000D03*
D25*
X145125000Y-75540000D03*
D26*
X146750000Y-107400000D03*
X132750000Y-49500000D03*
D25*
X137200000Y-49500000D03*
X146200000Y-136500000D03*
D26*
X132750000Y-58400000D03*
D25*
X167750000Y-87650000D03*
D26*
X126500000Y-131150000D03*
X125400000Y-131150000D03*
D25*
X152900000Y-135000000D03*
X120000000Y-138000000D03*
D26*
X132750000Y-53250000D03*
D25*
X125800000Y-136500000D03*
X121500000Y-136500000D03*
D26*
X116400000Y-107650000D03*
D25*
X149650000Y-49500000D03*
X146650000Y-49500000D03*
X156650000Y-138000000D03*
X161150000Y-142500000D03*
X119575000Y-84075000D03*
D26*
X155100000Y-70000000D03*
D25*
X159650000Y-138000000D03*
D26*
X127450000Y-94450000D03*
X125100000Y-57250000D03*
D25*
X148150000Y-49500000D03*
D26*
X104650000Y-128450000D03*
D25*
X161150000Y-141000000D03*
D26*
X112600000Y-120000000D03*
D25*
X162650000Y-136500000D03*
X118500000Y-141000000D03*
D26*
X152250000Y-131150000D03*
X105000000Y-111000000D03*
D25*
X121500000Y-142500000D03*
D26*
X149575000Y-89825000D03*
X123800000Y-59650000D03*
X125500000Y-92500000D03*
D25*
X125800000Y-135000000D03*
D26*
X131500000Y-59650000D03*
X155100000Y-69000000D03*
D25*
X140200000Y-54000000D03*
D27*
X120600000Y-82800000D03*
D26*
X128600000Y-133650000D03*
D25*
X135700000Y-49500000D03*
X152450000Y-135900000D03*
D26*
X131500000Y-52000000D03*
X130200000Y-57250000D03*
X170000000Y-100000000D03*
D25*
X143300000Y-94475000D03*
X159650000Y-142500000D03*
D26*
X177600000Y-50000000D03*
D25*
X169225000Y-88900000D03*
D26*
X128950000Y-53250000D03*
X127600000Y-56000000D03*
X132750000Y-52000000D03*
X124350000Y-131150000D03*
X126500000Y-88750000D03*
D25*
X158150000Y-136500000D03*
D26*
X144000000Y-128450000D03*
D25*
X118500000Y-135000000D03*
D26*
X127750000Y-119500000D03*
X173600000Y-50000000D03*
X127600000Y-57250000D03*
X128750000Y-97500000D03*
X127600000Y-60900000D03*
D25*
X159650000Y-136500000D03*
X123000000Y-135000000D03*
D26*
X125100000Y-56000000D03*
D25*
X137200000Y-54000000D03*
X142300000Y-55850000D03*
X149650000Y-54000000D03*
X123000000Y-139500000D03*
D26*
X107497500Y-58002500D03*
X131500000Y-57250000D03*
D25*
X184210000Y-67750000D03*
X123300000Y-86675000D03*
D26*
X125100000Y-50750000D03*
D25*
X117000000Y-139500000D03*
D26*
X134475000Y-86225000D03*
D25*
X135700000Y-52500000D03*
D26*
X148000000Y-128450000D03*
D25*
X125750000Y-139500000D03*
X162650000Y-142500000D03*
D26*
X127600000Y-59650000D03*
X105000000Y-115000000D03*
D25*
X121500000Y-135000000D03*
X121500000Y-138000000D03*
X120000000Y-136500000D03*
X132000000Y-139500000D03*
X144700000Y-141000000D03*
X147700000Y-141000000D03*
X138280000Y-92425000D03*
X129000000Y-138000000D03*
D26*
X165000000Y-50000000D03*
X119000000Y-125000000D03*
D25*
X143375000Y-97960000D03*
D26*
X154100000Y-80150000D03*
D25*
X132000000Y-136500000D03*
D26*
X196080000Y-56760000D03*
D25*
X161150000Y-138000000D03*
D26*
X132750000Y-50750000D03*
X180000000Y-90000000D03*
X146000000Y-125000000D03*
X130200000Y-53250000D03*
X140500000Y-121000000D03*
X142300000Y-59650000D03*
X127075000Y-95975000D03*
X132750000Y-59650000D03*
X155550000Y-131150000D03*
X121000000Y-128450000D03*
D25*
X162650000Y-138000000D03*
D26*
X134475000Y-119275000D03*
X125000000Y-98500000D03*
D25*
X117000000Y-136500000D03*
D26*
X135300000Y-96500000D03*
D25*
X144700000Y-135000000D03*
X127650000Y-116475000D03*
X126350000Y-116475000D03*
D26*
X156500000Y-120250000D03*
D25*
X155150000Y-135000000D03*
X137200000Y-51000000D03*
X120075000Y-83325000D03*
D26*
X128600000Y-132300000D03*
D25*
X162650000Y-139500000D03*
X146650000Y-55500000D03*
D26*
X122500000Y-54750000D03*
X131500000Y-49500000D03*
X123650000Y-96000000D03*
D25*
X181025000Y-81050000D03*
X138950000Y-92000000D03*
X133500000Y-141000000D03*
X145150000Y-49500000D03*
X156650000Y-135000000D03*
%TO.N,+3.3V*%
X161100000Y-117150000D03*
D26*
X117500000Y-60700000D03*
D25*
X124975000Y-112550000D03*
D26*
X113750000Y-58250000D03*
D25*
X137310000Y-78310000D03*
D26*
X112400000Y-49750000D03*
X118750000Y-58250000D03*
X132100000Y-123800000D03*
X111000000Y-61950000D03*
X118750000Y-59450000D03*
X112400000Y-58250000D03*
X131775000Y-96275000D03*
X113750000Y-61950000D03*
X114900000Y-53350000D03*
D25*
X109600000Y-131000000D03*
D26*
X114900000Y-56950000D03*
D25*
X137025000Y-72715000D03*
D26*
X114900000Y-61950000D03*
D25*
X129625000Y-110050000D03*
X159350000Y-111675000D03*
D26*
X113750000Y-60700000D03*
X117500000Y-54550000D03*
D25*
X137400000Y-131000000D03*
D26*
X116250000Y-60700000D03*
X116250000Y-61950000D03*
X114900000Y-49750000D03*
X104450000Y-123800000D03*
X117500000Y-56950000D03*
X105300000Y-123800000D03*
X117500000Y-49750000D03*
X162550000Y-67250000D03*
X117500000Y-59450000D03*
X112400000Y-55750000D03*
X113750000Y-59450000D03*
X116200000Y-53350000D03*
X117500000Y-53350000D03*
X111000000Y-58250000D03*
X105375000Y-57290000D03*
D25*
X157800000Y-59850000D03*
D26*
X160825000Y-74850000D03*
X112400000Y-54550000D03*
X114900000Y-58250000D03*
X117500000Y-50950000D03*
X112400000Y-56950000D03*
X163400000Y-68100000D03*
X112400000Y-53350000D03*
X116250000Y-59450000D03*
X132475000Y-88075000D03*
X117500000Y-55750000D03*
X114900000Y-52150000D03*
X118800000Y-53350000D03*
X136700000Y-103125000D03*
D27*
X144550000Y-89600000D03*
D26*
X116250000Y-58250000D03*
X113700000Y-53350000D03*
D25*
X162900000Y-115100000D03*
D26*
X111100000Y-53350000D03*
X112400000Y-50950000D03*
D27*
X128510000Y-77480000D03*
D26*
X132950000Y-123800000D03*
X132950000Y-122950000D03*
D25*
X127625000Y-108300000D03*
D26*
X104450000Y-122950000D03*
X114900000Y-59450000D03*
X112400000Y-61950000D03*
X118750000Y-61950000D03*
X162550000Y-68100000D03*
X108300000Y-113325000D03*
X117500000Y-61950000D03*
X118750000Y-60700000D03*
X132100000Y-122950000D03*
X111000000Y-60700000D03*
D25*
X135240000Y-76365000D03*
D26*
X145075000Y-100875000D03*
X114900000Y-60700000D03*
X112400000Y-59450000D03*
X135737500Y-115725000D03*
X114900000Y-50950000D03*
X133675000Y-89950000D03*
X105300000Y-122950000D03*
X112400000Y-52150000D03*
X117500000Y-52150000D03*
X114900000Y-55750000D03*
X112400000Y-60700000D03*
X111000000Y-59450000D03*
X137500000Y-95900000D03*
X114900000Y-54550000D03*
X117500000Y-58250000D03*
X163400000Y-67250000D03*
D25*
%TO.N,GPS_BOOT0*%
X137500000Y-90685000D03*
D26*
%TO.N,GPS1_V_BCKP*%
X115150000Y-112825000D03*
%TO.N,GPS0_V_BCKP*%
X152650000Y-76475000D03*
D25*
%TO.N,GPS_NRST*%
X135675000Y-94000000D03*
%TO.N,FLI_GPS_USART1_RX*%
X168300000Y-88500000D03*
X180150000Y-80550000D03*
D26*
%TO.N,GPS2_V_BCKP*%
X142800000Y-112825000D03*
D25*
%TO.N,GPS2_USART6_RX*%
X122390000Y-86260000D03*
X143175000Y-95475000D03*
%TO.N,GPS2_USART6_TX*%
X120575000Y-84200000D03*
X143175000Y-96975000D03*
%TO.N,GPS_MUX_UART_RX*%
X130025000Y-79450000D03*
%TO.N,GPS_MUX_UART_TX*%
X118430000Y-78580000D03*
%TO.N,GPS0_UART5_RX*%
X139325000Y-91075000D03*
X124025000Y-80105001D03*
%TO.N,GPS0_UART5_TX*%
X121890000Y-77510000D03*
X141000000Y-91375000D03*
%TO.N,GPS1_USART2_RX*%
X114740000Y-81185000D03*
X120950000Y-106800000D03*
%TD*%
D28*
%TO.N,+3.3V*%
X137500000Y-95900000D02*
X137500000Y-95010000D01*
D29*
%TO.N,GPS_BOOT0*%
X137500000Y-91400000D02*
X137500000Y-90685000D01*
D28*
%TO.N,GPS1_V_BCKP*%
X115150000Y-111600000D02*
X115150000Y-112825000D01*
%TO.N,GPS0_V_BCKP*%
X152650000Y-77690000D02*
X152650000Y-76475000D01*
D29*
%TO.N,GPS_NRST*%
X156925000Y-93075000D02*
X176625000Y-73375000D01*
X187000000Y-55810000D02*
X185500000Y-54310000D01*
X187000000Y-58650000D02*
X187000000Y-55810000D01*
X136450000Y-93995000D02*
X135680000Y-93995000D01*
X141190000Y-93990000D02*
X142105000Y-93075000D01*
X137495000Y-93995000D02*
X137500000Y-93990000D01*
X137500000Y-93990000D02*
X141190000Y-93990000D01*
X136450000Y-93995000D02*
X137495000Y-93995000D01*
X176625000Y-69025000D02*
X187000000Y-58650000D01*
X142105000Y-93075000D02*
X156925000Y-93075000D01*
X176625000Y-73375000D02*
X176625000Y-69025000D01*
%TO.N,FLI_GPS_USART1_RX*%
X172012500Y-84787500D02*
X168300000Y-88500000D01*
X180150000Y-80550000D02*
X175912500Y-84787500D01*
X175912500Y-84787500D02*
X172012500Y-84787500D01*
D28*
%TO.N,GPS2_V_BCKP*%
X142800000Y-112825000D02*
X142800000Y-111587500D01*
X142800000Y-111587500D02*
X142787500Y-111575000D01*
D29*
%TO.N,GPS2_USART6_RX*%
X141285000Y-95475000D02*
X138530000Y-98230000D01*
X138530000Y-98230000D02*
X132980000Y-98230000D01*
X125670000Y-101000000D02*
X122390000Y-97720000D01*
X143175000Y-95475000D02*
X141285000Y-95475000D01*
X122390000Y-97720000D02*
X122390000Y-86260000D01*
X132980000Y-98230000D02*
X130210000Y-101000000D01*
X130210000Y-101000000D02*
X125670000Y-101000000D01*
%TO.N,GPS2_USART6_TX*%
X120575000Y-98285000D02*
X120575000Y-84200000D01*
X141765000Y-96975000D02*
X139207500Y-99532500D01*
X143175000Y-96975000D02*
X141765000Y-96975000D01*
X130950000Y-102675000D02*
X124965000Y-102675000D01*
X124965000Y-102675000D02*
X120575000Y-98285000D01*
X139207500Y-99532500D02*
X134092500Y-99532500D01*
X134092500Y-99532500D02*
X130950000Y-102675000D01*
%TO.N,GPS_MUX_UART_RX*%
X130025000Y-79450000D02*
X131462500Y-80887500D01*
X131462500Y-80887500D02*
X142037500Y-80887500D01*
X142037500Y-80887500D02*
X146550000Y-85400000D01*
X146550000Y-85400000D02*
X158100000Y-85400000D01*
X158100000Y-85400000D02*
X170500000Y-73000000D01*
X170500000Y-73000000D02*
X170500000Y-57310000D01*
%TO.N,GPS_MUX_UART_TX*%
X173500000Y-72600000D02*
X159000000Y-87100000D01*
X130555000Y-82080000D02*
X124275000Y-75800000D01*
X146340000Y-87100000D02*
X141320000Y-82080000D01*
X118430000Y-77345000D02*
X118430000Y-78580000D01*
X159000000Y-87100000D02*
X146340000Y-87100000D01*
X141320000Y-82080000D02*
X130555000Y-82080000D01*
X173500000Y-57310000D02*
X173500000Y-72600000D01*
X124275000Y-75800000D02*
X119975000Y-75800000D01*
X119975000Y-75800000D02*
X118430000Y-77345000D01*
%TO.N,GPS0_UART5_RX*%
X138000000Y-84400000D02*
X128950000Y-84400000D01*
X139325000Y-91075000D02*
X139325000Y-85725000D01*
X124025000Y-80105001D02*
X124655001Y-80105001D01*
X139325000Y-85725000D02*
X138000000Y-84400000D01*
X128950000Y-84400000D02*
X124655001Y-80105001D01*
%TO.N,GPS0_UART5_TX*%
X129770000Y-83300000D02*
X123980000Y-77510000D01*
X138900000Y-83300000D02*
X129770000Y-83300000D01*
X141000000Y-85400000D02*
X138900000Y-83300000D01*
X121890000Y-77510000D02*
X123980000Y-77510000D01*
X141000000Y-91375000D02*
X141000000Y-85400000D01*
X121890000Y-77510000D02*
X121840000Y-77510000D01*
%TO.N,GPS1_USART2_RX*%
X120950000Y-104250000D02*
X120950000Y-106800000D01*
X114740000Y-98040000D02*
X120950000Y-104250000D01*
X114740000Y-81185000D02*
X114740000Y-98040000D01*
%TD*%
%TA.AperFunction,Conductor*%
%TO.N,+3.3V*%
G36*
X119515931Y-49020002D02*
G01*
X119536905Y-49036905D01*
X119963095Y-49463095D01*
X119997121Y-49525407D01*
X120000000Y-49552190D01*
X120000000Y-61947810D01*
X119979998Y-62015931D01*
X119963095Y-62036905D01*
X119286905Y-62713095D01*
X119224593Y-62747121D01*
X119197810Y-62750000D01*
X110802190Y-62750000D01*
X110734069Y-62729998D01*
X110713095Y-62713095D01*
X110036905Y-62036905D01*
X110002879Y-61974593D01*
X110000000Y-61947810D01*
X110000000Y-49552190D01*
X110020002Y-49484069D01*
X110036905Y-49463095D01*
X110463095Y-49036905D01*
X110525407Y-49002879D01*
X110552190Y-49000000D01*
X119447810Y-49000000D01*
X119515931Y-49020002D01*
G37*
%TD.AperFunction*%
%TD*%
%TA.AperFunction,Conductor*%
%TO.N,GND*%
G36*
X194503032Y-48000648D02*
G01*
X194806846Y-48015574D01*
X194813661Y-48016099D01*
X194882848Y-48023371D01*
X194887986Y-48024022D01*
X195153502Y-48063408D01*
X195161000Y-48064760D01*
X195223686Y-48078084D01*
X195227890Y-48079056D01*
X195494442Y-48145824D01*
X195502604Y-48148170D01*
X195553306Y-48164644D01*
X195556660Y-48165788D01*
X195826065Y-48262184D01*
X195834686Y-48265639D01*
X195865509Y-48279362D01*
X195868053Y-48280530D01*
X196012486Y-48348842D01*
X196144156Y-48411117D01*
X196154876Y-48416847D01*
X196437458Y-48586220D01*
X196438988Y-48587137D01*
X196449103Y-48593895D01*
X196556868Y-48673819D01*
X196715170Y-48791224D01*
X196724576Y-48798944D01*
X196970013Y-49021395D01*
X196978604Y-49029986D01*
X197138540Y-49206448D01*
X197201055Y-49275423D01*
X197208775Y-49284829D01*
X197406102Y-49550893D01*
X197412862Y-49561011D01*
X197583144Y-49845110D01*
X197588881Y-49855842D01*
X197719468Y-50131945D01*
X197720652Y-50134525D01*
X197734349Y-50165288D01*
X197737821Y-50173950D01*
X197834185Y-50443267D01*
X197835365Y-50446725D01*
X197851827Y-50497391D01*
X197854180Y-50505578D01*
X197920926Y-50772042D01*
X197921932Y-50776391D01*
X197935229Y-50838948D01*
X197936597Y-50846535D01*
X197975970Y-51111968D01*
X197976633Y-51117201D01*
X197983896Y-51186305D01*
X197984426Y-51193181D01*
X197999351Y-51496967D01*
X197999500Y-51503052D01*
X197999500Y-59698431D01*
X197979815Y-59765470D01*
X197963181Y-59786112D01*
X196286112Y-61463181D01*
X196224789Y-61496666D01*
X196198431Y-61499500D01*
X188999792Y-61499500D01*
X188999500Y-61499792D01*
X188999500Y-61499793D01*
X188999500Y-98741868D01*
X188999500Y-98742282D01*
X188999793Y-98742575D01*
X196228543Y-98742575D01*
X196295582Y-98762260D01*
X196316088Y-98778758D01*
X197611222Y-100069901D01*
X197963046Y-100420640D01*
X197996625Y-100481911D01*
X197999500Y-100508456D01*
X197999500Y-140496947D01*
X197999351Y-140503032D01*
X197984426Y-140806817D01*
X197983896Y-140813693D01*
X197976633Y-140882797D01*
X197975970Y-140888030D01*
X197936597Y-141153463D01*
X197935229Y-141161050D01*
X197921932Y-141223607D01*
X197920926Y-141227956D01*
X197854180Y-141494420D01*
X197851827Y-141502607D01*
X197835365Y-141553273D01*
X197834185Y-141556731D01*
X197737821Y-141826048D01*
X197734349Y-141834710D01*
X197720652Y-141865473D01*
X197719468Y-141868053D01*
X197588882Y-142144153D01*
X197583146Y-142154884D01*
X197412861Y-142438990D01*
X197406100Y-142449109D01*
X197208775Y-142715170D01*
X197201055Y-142724576D01*
X196978611Y-142970006D01*
X196970006Y-142978611D01*
X196724576Y-143201055D01*
X196715170Y-143208775D01*
X196449109Y-143406100D01*
X196438990Y-143412861D01*
X196154884Y-143583146D01*
X196144153Y-143588882D01*
X195868053Y-143719468D01*
X195865473Y-143720652D01*
X195834710Y-143734349D01*
X195826048Y-143737821D01*
X195556731Y-143834185D01*
X195553273Y-143835365D01*
X195502607Y-143851827D01*
X195494420Y-143854180D01*
X195227956Y-143920926D01*
X195223607Y-143921932D01*
X195161050Y-143935229D01*
X195153463Y-143936597D01*
X194888030Y-143975970D01*
X194882797Y-143976633D01*
X194813693Y-143983896D01*
X194806817Y-143984426D01*
X194503033Y-143999351D01*
X194496948Y-143999500D01*
X105503052Y-143999500D01*
X105496967Y-143999351D01*
X105193181Y-143984426D01*
X105186305Y-143983896D01*
X105117201Y-143976633D01*
X105111968Y-143975970D01*
X104846535Y-143936597D01*
X104838948Y-143935229D01*
X104776391Y-143921932D01*
X104772042Y-143920926D01*
X104505578Y-143854180D01*
X104497391Y-143851827D01*
X104446725Y-143835365D01*
X104443267Y-143834185D01*
X104173950Y-143737821D01*
X104165288Y-143734349D01*
X104134525Y-143720652D01*
X104131945Y-143719468D01*
X103855842Y-143588881D01*
X103845110Y-143583144D01*
X103561011Y-143412862D01*
X103550893Y-143406102D01*
X103284829Y-143208775D01*
X103275423Y-143201055D01*
X103160426Y-143096828D01*
X103029986Y-142978604D01*
X103021395Y-142970013D01*
X102798944Y-142724576D01*
X102791224Y-142715170D01*
X102593897Y-142449106D01*
X102587137Y-142438988D01*
X102504902Y-142301787D01*
X102416847Y-142154876D01*
X102411117Y-142144156D01*
X102280530Y-141868053D01*
X102279346Y-141865473D01*
X102265639Y-141834686D01*
X102262184Y-141826065D01*
X102165788Y-141556660D01*
X102164644Y-141553306D01*
X102148170Y-141502604D01*
X102145824Y-141494442D01*
X102079056Y-141227890D01*
X102078084Y-141223686D01*
X102064760Y-141161000D01*
X102063408Y-141153502D01*
X102024022Y-140887986D01*
X102023371Y-140882848D01*
X102016099Y-140813661D01*
X102015574Y-140806846D01*
X102000649Y-140503032D01*
X102000500Y-140496948D01*
X102000500Y-131074708D01*
X108841499Y-131074708D01*
X108870647Y-131221240D01*
X108870650Y-131221250D01*
X108927822Y-131359277D01*
X108927829Y-131359290D01*
X109010834Y-131483515D01*
X109010837Y-131483519D01*
X109116480Y-131589162D01*
X109116484Y-131589165D01*
X109240709Y-131672170D01*
X109240722Y-131672177D01*
X109378749Y-131729349D01*
X109378754Y-131729351D01*
X109378758Y-131729351D01*
X109378759Y-131729352D01*
X109525291Y-131758500D01*
X109525294Y-131758500D01*
X109674708Y-131758500D01*
X109773292Y-131738889D01*
X109821246Y-131729351D01*
X109959284Y-131672174D01*
X110083516Y-131589165D01*
X110189165Y-131483516D01*
X110272174Y-131359284D01*
X110329351Y-131221246D01*
X110358500Y-131074708D01*
X136641499Y-131074708D01*
X136670647Y-131221240D01*
X136670650Y-131221250D01*
X136727822Y-131359277D01*
X136727829Y-131359290D01*
X136810834Y-131483515D01*
X136810837Y-131483519D01*
X136916480Y-131589162D01*
X136916484Y-131589165D01*
X137040709Y-131672170D01*
X137040722Y-131672177D01*
X137178749Y-131729349D01*
X137178754Y-131729351D01*
X137178758Y-131729351D01*
X137178759Y-131729352D01*
X137325291Y-131758500D01*
X137325294Y-131758500D01*
X137474708Y-131758500D01*
X137573292Y-131738889D01*
X137621246Y-131729351D01*
X137759284Y-131672174D01*
X137883516Y-131589165D01*
X137989165Y-131483516D01*
X138072174Y-131359284D01*
X138129351Y-131221246D01*
X138158500Y-131074706D01*
X138158500Y-130925294D01*
X138158500Y-130925291D01*
X138129352Y-130778759D01*
X138129351Y-130778758D01*
X138129351Y-130778754D01*
X138129349Y-130778749D01*
X138072177Y-130640722D01*
X138072170Y-130640709D01*
X137989165Y-130516484D01*
X137989162Y-130516480D01*
X137883519Y-130410837D01*
X137883515Y-130410834D01*
X137759290Y-130327829D01*
X137759277Y-130327822D01*
X137621250Y-130270650D01*
X137621240Y-130270647D01*
X137474708Y-130241500D01*
X137474706Y-130241500D01*
X137325294Y-130241500D01*
X137325292Y-130241500D01*
X137178759Y-130270647D01*
X137178749Y-130270650D01*
X137040722Y-130327822D01*
X137040709Y-130327829D01*
X136916484Y-130410834D01*
X136916480Y-130410837D01*
X136810837Y-130516480D01*
X136810834Y-130516484D01*
X136727829Y-130640709D01*
X136727822Y-130640722D01*
X136670650Y-130778749D01*
X136670647Y-130778759D01*
X136641500Y-130925291D01*
X136641500Y-130925294D01*
X136641500Y-131074706D01*
X136641500Y-131074708D01*
X136641499Y-131074708D01*
X110358500Y-131074708D01*
X110358500Y-131074706D01*
X110358500Y-130925294D01*
X110358500Y-130925291D01*
X110329352Y-130778759D01*
X110329351Y-130778758D01*
X110329351Y-130778754D01*
X110329349Y-130778749D01*
X110272177Y-130640722D01*
X110272170Y-130640709D01*
X110189165Y-130516484D01*
X110189162Y-130516480D01*
X110083519Y-130410837D01*
X110083515Y-130410834D01*
X109959290Y-130327829D01*
X109959277Y-130327822D01*
X109821250Y-130270650D01*
X109821240Y-130270647D01*
X109674708Y-130241500D01*
X109674706Y-130241500D01*
X109525294Y-130241500D01*
X109525292Y-130241500D01*
X109378759Y-130270647D01*
X109378749Y-130270650D01*
X109240722Y-130327822D01*
X109240709Y-130327829D01*
X109116484Y-130410834D01*
X109116480Y-130410837D01*
X109010837Y-130516480D01*
X109010834Y-130516484D01*
X108927829Y-130640709D01*
X108927822Y-130640722D01*
X108870650Y-130778749D01*
X108870647Y-130778759D01*
X108841500Y-130925291D01*
X108841500Y-130925294D01*
X108841500Y-131074706D01*
X108841500Y-131074708D01*
X108841499Y-131074708D01*
X102000500Y-131074708D01*
X102000500Y-122860516D01*
X103541500Y-122860516D01*
X103541500Y-123039483D01*
X103576411Y-123214992D01*
X103576414Y-123215004D01*
X103623031Y-123327548D01*
X103630500Y-123397017D01*
X103623031Y-123422452D01*
X103576414Y-123534995D01*
X103576411Y-123535007D01*
X103541500Y-123710516D01*
X103541500Y-123889483D01*
X103576411Y-124064992D01*
X103576413Y-124065000D01*
X103644896Y-124230332D01*
X103644901Y-124230342D01*
X103744321Y-124379134D01*
X103744324Y-124379138D01*
X103870861Y-124505675D01*
X103870865Y-124505678D01*
X104019657Y-124605098D01*
X104019661Y-124605100D01*
X104019664Y-124605102D01*
X104185000Y-124673587D01*
X104360516Y-124708499D01*
X104360520Y-124708500D01*
X104360521Y-124708500D01*
X104539480Y-124708500D01*
X104539481Y-124708499D01*
X104715000Y-124673587D01*
X104827550Y-124626966D01*
X104897015Y-124619498D01*
X104922442Y-124626963D01*
X105035000Y-124673587D01*
X105210516Y-124708499D01*
X105210520Y-124708500D01*
X105210521Y-124708500D01*
X105389480Y-124708500D01*
X105389481Y-124708499D01*
X105565000Y-124673587D01*
X105730336Y-124605102D01*
X105879135Y-124505678D01*
X106005678Y-124379135D01*
X106105102Y-124230336D01*
X106173587Y-124065000D01*
X106208500Y-123889479D01*
X106208500Y-123710521D01*
X106173587Y-123535000D01*
X106126966Y-123422449D01*
X106119498Y-123352985D01*
X106126963Y-123327557D01*
X106173587Y-123215000D01*
X106208500Y-123039479D01*
X106208500Y-122860521D01*
X106208499Y-122860516D01*
X131191500Y-122860516D01*
X131191500Y-123039483D01*
X131226411Y-123214992D01*
X131226414Y-123215004D01*
X131273031Y-123327548D01*
X131280500Y-123397017D01*
X131273031Y-123422452D01*
X131226414Y-123534995D01*
X131226411Y-123535007D01*
X131191500Y-123710516D01*
X131191500Y-123889483D01*
X131226411Y-124064992D01*
X131226413Y-124065000D01*
X131294896Y-124230332D01*
X131294901Y-124230342D01*
X131394321Y-124379134D01*
X131394324Y-124379138D01*
X131520861Y-124505675D01*
X131520865Y-124505678D01*
X131669657Y-124605098D01*
X131669661Y-124605100D01*
X131669664Y-124605102D01*
X131835000Y-124673587D01*
X132010516Y-124708499D01*
X132010520Y-124708500D01*
X132010521Y-124708500D01*
X132189480Y-124708500D01*
X132189481Y-124708499D01*
X132365000Y-124673587D01*
X132477550Y-124626966D01*
X132547015Y-124619498D01*
X132572442Y-124626963D01*
X132685000Y-124673587D01*
X132860516Y-124708499D01*
X132860520Y-124708500D01*
X132860521Y-124708500D01*
X133039480Y-124708500D01*
X133039481Y-124708499D01*
X133215000Y-124673587D01*
X133380336Y-124605102D01*
X133529135Y-124505678D01*
X133655678Y-124379135D01*
X133755102Y-124230336D01*
X133823587Y-124065000D01*
X133858500Y-123889479D01*
X133858500Y-123710521D01*
X133823587Y-123535000D01*
X133776966Y-123422449D01*
X133769498Y-123352985D01*
X133776963Y-123327557D01*
X133823587Y-123215000D01*
X133858500Y-123039479D01*
X133858500Y-122860521D01*
X133823587Y-122685000D01*
X133755102Y-122519664D01*
X133755100Y-122519661D01*
X133755098Y-122519657D01*
X133655678Y-122370865D01*
X133655675Y-122370861D01*
X133529138Y-122244324D01*
X133529134Y-122244321D01*
X133380342Y-122144901D01*
X133380332Y-122144896D01*
X133215000Y-122076413D01*
X133214992Y-122076411D01*
X133039483Y-122041500D01*
X133039479Y-122041500D01*
X132860521Y-122041500D01*
X132860516Y-122041500D01*
X132685007Y-122076411D01*
X132684995Y-122076414D01*
X132572452Y-122123031D01*
X132502983Y-122130500D01*
X132477548Y-122123031D01*
X132365004Y-122076414D01*
X132364992Y-122076411D01*
X132189483Y-122041500D01*
X132189479Y-122041500D01*
X132010521Y-122041500D01*
X132010516Y-122041500D01*
X131835007Y-122076411D01*
X131834999Y-122076413D01*
X131669667Y-122144896D01*
X131669657Y-122144901D01*
X131520865Y-122244321D01*
X131520861Y-122244324D01*
X131394324Y-122370861D01*
X131394321Y-122370865D01*
X131294901Y-122519657D01*
X131294896Y-122519667D01*
X131226413Y-122684999D01*
X131226411Y-122685007D01*
X131191500Y-122860516D01*
X106208499Y-122860516D01*
X106173587Y-122685000D01*
X106105102Y-122519664D01*
X106105100Y-122519661D01*
X106105098Y-122519657D01*
X106005678Y-122370865D01*
X106005675Y-122370861D01*
X105879138Y-122244324D01*
X105879134Y-122244321D01*
X105730342Y-122144901D01*
X105730332Y-122144896D01*
X105565000Y-122076413D01*
X105564992Y-122076411D01*
X105389483Y-122041500D01*
X105389479Y-122041500D01*
X105210521Y-122041500D01*
X105210516Y-122041500D01*
X105035007Y-122076411D01*
X105034995Y-122076414D01*
X104922452Y-122123031D01*
X104852983Y-122130500D01*
X104827548Y-122123031D01*
X104715004Y-122076414D01*
X104714992Y-122076411D01*
X104539483Y-122041500D01*
X104539479Y-122041500D01*
X104360521Y-122041500D01*
X104360516Y-122041500D01*
X104185007Y-122076411D01*
X104184999Y-122076413D01*
X104019667Y-122144896D01*
X104019657Y-122144901D01*
X103870865Y-122244321D01*
X103870861Y-122244324D01*
X103744324Y-122370861D01*
X103744321Y-122370865D01*
X103644901Y-122519657D01*
X103644896Y-122519667D01*
X103576413Y-122684999D01*
X103576411Y-122685007D01*
X103541500Y-122860516D01*
X102000500Y-122860516D01*
X102000500Y-117224708D01*
X160341499Y-117224708D01*
X160370647Y-117371240D01*
X160370650Y-117371250D01*
X160427822Y-117509277D01*
X160427829Y-117509290D01*
X160510834Y-117633515D01*
X160510837Y-117633519D01*
X160616480Y-117739162D01*
X160616484Y-117739165D01*
X160740709Y-117822170D01*
X160740722Y-117822177D01*
X160878749Y-117879349D01*
X160878754Y-117879351D01*
X160878758Y-117879351D01*
X160878759Y-117879352D01*
X161025291Y-117908500D01*
X161025294Y-117908500D01*
X161174708Y-117908500D01*
X161273292Y-117888889D01*
X161321246Y-117879351D01*
X161459284Y-117822174D01*
X161583516Y-117739165D01*
X161689165Y-117633516D01*
X161772174Y-117509284D01*
X161829351Y-117371246D01*
X161858500Y-117224706D01*
X161858500Y-117075294D01*
X161858500Y-117075291D01*
X161829352Y-116928759D01*
X161829351Y-116928758D01*
X161829351Y-116928754D01*
X161829349Y-116928749D01*
X161772177Y-116790722D01*
X161772170Y-116790709D01*
X161689165Y-116666484D01*
X161689162Y-116666480D01*
X161583519Y-116560837D01*
X161583515Y-116560834D01*
X161459290Y-116477829D01*
X161459277Y-116477822D01*
X161321250Y-116420650D01*
X161321240Y-116420647D01*
X161174708Y-116391500D01*
X161174706Y-116391500D01*
X161025294Y-116391500D01*
X161025292Y-116391500D01*
X160878759Y-116420647D01*
X160878749Y-116420650D01*
X160740722Y-116477822D01*
X160740709Y-116477829D01*
X160616484Y-116560834D01*
X160616480Y-116560837D01*
X160510837Y-116666480D01*
X160510834Y-116666484D01*
X160427829Y-116790709D01*
X160427822Y-116790722D01*
X160370650Y-116928749D01*
X160370647Y-116928759D01*
X160341500Y-117075291D01*
X160341500Y-117075294D01*
X160341500Y-117224706D01*
X160341500Y-117224708D01*
X160341499Y-117224708D01*
X102000500Y-117224708D01*
X102000500Y-115635516D01*
X134829000Y-115635516D01*
X134829000Y-115814483D01*
X134863911Y-115989992D01*
X134863913Y-115990000D01*
X134932396Y-116155332D01*
X134932401Y-116155342D01*
X135031821Y-116304134D01*
X135031824Y-116304138D01*
X135158361Y-116430675D01*
X135158365Y-116430678D01*
X135307157Y-116530098D01*
X135307161Y-116530100D01*
X135307164Y-116530102D01*
X135472500Y-116598587D01*
X135648016Y-116633499D01*
X135648020Y-116633500D01*
X135648021Y-116633500D01*
X135826980Y-116633500D01*
X135826981Y-116633499D01*
X136002500Y-116598587D01*
X136167836Y-116530102D01*
X136316635Y-116430678D01*
X136443178Y-116304135D01*
X136542602Y-116155336D01*
X136611087Y-115990000D01*
X136646000Y-115814479D01*
X136646000Y-115635521D01*
X136611087Y-115460000D01*
X136542602Y-115294664D01*
X136542600Y-115294661D01*
X136542598Y-115294657D01*
X136462450Y-115174708D01*
X162141499Y-115174708D01*
X162170647Y-115321240D01*
X162170650Y-115321250D01*
X162227822Y-115459277D01*
X162227829Y-115459290D01*
X162310834Y-115583515D01*
X162310837Y-115583519D01*
X162416480Y-115689162D01*
X162416484Y-115689165D01*
X162540709Y-115772170D01*
X162540722Y-115772177D01*
X162642852Y-115814480D01*
X162678754Y-115829351D01*
X162678758Y-115829351D01*
X162678759Y-115829352D01*
X162825291Y-115858500D01*
X162825294Y-115858500D01*
X162974708Y-115858500D01*
X163073292Y-115838889D01*
X163121246Y-115829351D01*
X163259284Y-115772174D01*
X163383516Y-115689165D01*
X163489165Y-115583516D01*
X163572174Y-115459284D01*
X163629351Y-115321246D01*
X163658500Y-115174706D01*
X163658500Y-115025294D01*
X163658500Y-115025291D01*
X163629352Y-114878759D01*
X163629351Y-114878758D01*
X163629351Y-114878754D01*
X163603565Y-114816500D01*
X163572177Y-114740722D01*
X163572170Y-114740709D01*
X163489165Y-114616484D01*
X163489162Y-114616480D01*
X163383519Y-114510837D01*
X163383515Y-114510834D01*
X163259290Y-114427829D01*
X163259277Y-114427822D01*
X163121250Y-114370650D01*
X163121240Y-114370647D01*
X162974708Y-114341500D01*
X162974706Y-114341500D01*
X162825294Y-114341500D01*
X162825292Y-114341500D01*
X162678759Y-114370647D01*
X162678749Y-114370650D01*
X162540722Y-114427822D01*
X162540709Y-114427829D01*
X162416484Y-114510834D01*
X162416480Y-114510837D01*
X162310837Y-114616480D01*
X162310834Y-114616484D01*
X162227829Y-114740709D01*
X162227822Y-114740722D01*
X162170650Y-114878749D01*
X162170647Y-114878759D01*
X162141500Y-115025291D01*
X162141500Y-115025294D01*
X162141500Y-115174706D01*
X162141500Y-115174708D01*
X162141499Y-115174708D01*
X136462450Y-115174708D01*
X136443178Y-115145865D01*
X136443175Y-115145861D01*
X136316638Y-115019324D01*
X136316634Y-115019321D01*
X136167842Y-114919901D01*
X136167832Y-114919896D01*
X136002500Y-114851413D01*
X136002492Y-114851411D01*
X135826983Y-114816500D01*
X135826979Y-114816500D01*
X135648021Y-114816500D01*
X135648016Y-114816500D01*
X135472507Y-114851411D01*
X135472499Y-114851413D01*
X135307167Y-114919896D01*
X135307157Y-114919901D01*
X135158365Y-115019321D01*
X135158361Y-115019324D01*
X135031824Y-115145861D01*
X135031821Y-115145865D01*
X134932401Y-115294657D01*
X134932396Y-115294667D01*
X134863913Y-115459999D01*
X134863911Y-115460007D01*
X134829000Y-115635516D01*
X102000500Y-115635516D01*
X102000500Y-113235516D01*
X107391500Y-113235516D01*
X107391500Y-113414483D01*
X107426411Y-113589992D01*
X107426413Y-113590000D01*
X107494896Y-113755332D01*
X107494901Y-113755342D01*
X107594321Y-113904134D01*
X107594324Y-113904138D01*
X107720861Y-114030675D01*
X107720865Y-114030678D01*
X107869657Y-114130098D01*
X107869661Y-114130100D01*
X107869664Y-114130102D01*
X108035000Y-114198587D01*
X108210516Y-114233499D01*
X108210520Y-114233500D01*
X108210521Y-114233500D01*
X108389480Y-114233500D01*
X108389481Y-114233499D01*
X108565000Y-114198587D01*
X108730336Y-114130102D01*
X108879135Y-114030678D01*
X109005678Y-113904135D01*
X109105102Y-113755336D01*
X109173587Y-113590000D01*
X109208500Y-113414479D01*
X109208500Y-113235521D01*
X109173587Y-113060000D01*
X109105102Y-112894664D01*
X109105100Y-112894661D01*
X109105098Y-112894657D01*
X109005678Y-112745865D01*
X109005675Y-112745861D01*
X108879138Y-112619324D01*
X108879134Y-112619321D01*
X108730342Y-112519901D01*
X108730332Y-112519896D01*
X108565000Y-112451413D01*
X108564992Y-112451411D01*
X108389483Y-112416500D01*
X108389479Y-112416500D01*
X108210521Y-112416500D01*
X108210516Y-112416500D01*
X108035007Y-112451411D01*
X108034999Y-112451413D01*
X107869667Y-112519896D01*
X107869657Y-112519901D01*
X107720865Y-112619321D01*
X107720861Y-112619324D01*
X107594324Y-112745861D01*
X107594321Y-112745865D01*
X107494901Y-112894657D01*
X107494896Y-112894667D01*
X107426413Y-113059999D01*
X107426411Y-113060007D01*
X107391500Y-113235516D01*
X102000500Y-113235516D01*
X102000500Y-112254868D01*
X112834390Y-112254868D01*
X112834390Y-112254875D01*
X112870529Y-112396482D01*
X112870532Y-112396494D01*
X112872011Y-112400065D01*
X112924638Y-112496444D01*
X112924640Y-112496447D01*
X113024239Y-112603415D01*
X113149939Y-112677990D01*
X113153510Y-112679469D01*
X113205330Y-112697750D01*
X113350000Y-112718550D01*
X114117500Y-112718550D01*
X114184539Y-112738235D01*
X114230294Y-112791039D01*
X114241500Y-112842550D01*
X114241500Y-112914483D01*
X114276411Y-113089992D01*
X114276413Y-113090000D01*
X114344896Y-113255332D01*
X114344901Y-113255342D01*
X114444321Y-113404134D01*
X114444324Y-113404138D01*
X114570861Y-113530675D01*
X114570865Y-113530678D01*
X114719657Y-113630098D01*
X114719661Y-113630100D01*
X114719664Y-113630102D01*
X114885000Y-113698587D01*
X115060516Y-113733499D01*
X115060520Y-113733500D01*
X115060521Y-113733500D01*
X115239480Y-113733500D01*
X115239481Y-113733499D01*
X115415000Y-113698587D01*
X115580336Y-113630102D01*
X115729135Y-113530678D01*
X115855678Y-113404135D01*
X115955102Y-113255336D01*
X116023587Y-113090000D01*
X116058500Y-112914479D01*
X116058500Y-112735521D01*
X116058500Y-112735518D01*
X116051619Y-112700927D01*
X116057846Y-112631336D01*
X116062360Y-112624708D01*
X124216499Y-112624708D01*
X124245647Y-112771240D01*
X124245650Y-112771250D01*
X124302822Y-112909277D01*
X124302829Y-112909290D01*
X124385834Y-113033515D01*
X124385837Y-113033519D01*
X124491480Y-113139162D01*
X124491484Y-113139165D01*
X124615709Y-113222170D01*
X124615722Y-113222177D01*
X124753749Y-113279349D01*
X124753754Y-113279351D01*
X124753758Y-113279351D01*
X124753759Y-113279352D01*
X124900291Y-113308500D01*
X124900294Y-113308500D01*
X125049708Y-113308500D01*
X125148292Y-113288889D01*
X125196246Y-113279351D01*
X125334284Y-113222174D01*
X125458516Y-113139165D01*
X125564165Y-113033516D01*
X125647174Y-112909284D01*
X125704351Y-112771246D01*
X125718339Y-112700927D01*
X125733500Y-112624708D01*
X125733500Y-112475291D01*
X125704352Y-112328759D01*
X125704351Y-112328758D01*
X125704351Y-112328754D01*
X125704349Y-112328749D01*
X125647177Y-112190722D01*
X125647170Y-112190709D01*
X125564165Y-112066484D01*
X125564162Y-112066480D01*
X125458519Y-111960837D01*
X125458515Y-111960834D01*
X125334290Y-111877829D01*
X125334277Y-111877822D01*
X125196250Y-111820650D01*
X125196240Y-111820647D01*
X125049708Y-111791500D01*
X125049706Y-111791500D01*
X124900294Y-111791500D01*
X124900292Y-111791500D01*
X124753759Y-111820647D01*
X124753749Y-111820650D01*
X124615722Y-111877822D01*
X124615709Y-111877829D01*
X124491484Y-111960834D01*
X124491480Y-111960837D01*
X124385837Y-112066480D01*
X124385834Y-112066484D01*
X124302829Y-112190709D01*
X124302822Y-112190722D01*
X124245650Y-112328749D01*
X124245647Y-112328759D01*
X124216500Y-112475291D01*
X124216500Y-112475294D01*
X124216500Y-112624706D01*
X124216500Y-112624708D01*
X124216499Y-112624708D01*
X116062360Y-112624708D01*
X116088737Y-112585983D01*
X116096865Y-112578415D01*
X116153415Y-112525761D01*
X116227990Y-112400061D01*
X116229469Y-112396490D01*
X116247750Y-112344670D01*
X116268550Y-112200000D01*
X116268550Y-110124708D01*
X128866499Y-110124708D01*
X128895647Y-110271240D01*
X128895650Y-110271250D01*
X128952822Y-110409277D01*
X128952829Y-110409290D01*
X129035834Y-110533515D01*
X129035837Y-110533519D01*
X129141480Y-110639162D01*
X129141484Y-110639165D01*
X129265709Y-110722170D01*
X129265722Y-110722177D01*
X129403749Y-110779349D01*
X129403754Y-110779351D01*
X129403758Y-110779351D01*
X129403759Y-110779352D01*
X129550291Y-110808500D01*
X129550294Y-110808500D01*
X129699708Y-110808500D01*
X129798292Y-110788889D01*
X129846246Y-110779351D01*
X129984284Y-110722174D01*
X130108516Y-110639165D01*
X130214165Y-110533516D01*
X130297174Y-110409284D01*
X130354351Y-110271246D01*
X130383500Y-110124706D01*
X130383500Y-109975294D01*
X130383500Y-109975291D01*
X130354352Y-109828759D01*
X130354350Y-109828752D01*
X130349907Y-109818026D01*
X130332086Y-109775001D01*
X141668950Y-109775001D01*
X141668950Y-112175002D01*
X141671889Y-112229868D01*
X141671890Y-112229874D01*
X141708029Y-112371482D01*
X141708032Y-112371494D01*
X141709511Y-112375065D01*
X141762138Y-112471444D01*
X141762140Y-112471447D01*
X141861739Y-112578415D01*
X141867783Y-112584906D01*
X141865278Y-112587238D01*
X141895716Y-112631087D01*
X141899674Y-112694421D01*
X141897620Y-112704756D01*
X141891500Y-112735522D01*
X141891500Y-112914483D01*
X141926411Y-113089992D01*
X141926413Y-113090000D01*
X141994896Y-113255332D01*
X141994901Y-113255342D01*
X142094321Y-113404134D01*
X142094324Y-113404138D01*
X142220861Y-113530675D01*
X142220865Y-113530678D01*
X142369657Y-113630098D01*
X142369661Y-113630100D01*
X142369664Y-113630102D01*
X142535000Y-113698587D01*
X142710516Y-113733499D01*
X142710520Y-113733500D01*
X142710521Y-113733500D01*
X142889480Y-113733500D01*
X142889481Y-113733499D01*
X143065000Y-113698587D01*
X143230336Y-113630102D01*
X143379135Y-113530678D01*
X143505678Y-113404135D01*
X143605102Y-113255336D01*
X143673587Y-113090000D01*
X143708500Y-112914479D01*
X143708500Y-112817550D01*
X143728185Y-112750511D01*
X143780989Y-112704756D01*
X143832500Y-112693550D01*
X144587503Y-112693550D01*
X144611016Y-112692290D01*
X144642372Y-112690610D01*
X144783990Y-112654469D01*
X144787561Y-112652990D01*
X144883947Y-112600360D01*
X144990915Y-112500761D01*
X145065490Y-112375061D01*
X145066969Y-112371490D01*
X145097888Y-112266192D01*
X145103110Y-112120128D01*
X145066969Y-111978510D01*
X145065490Y-111974939D01*
X145041759Y-111925335D01*
X145019979Y-111896240D01*
X144954176Y-111808337D01*
X144954160Y-111808319D01*
X144895549Y-111749708D01*
X158591499Y-111749708D01*
X158620647Y-111896240D01*
X158620650Y-111896250D01*
X158677822Y-112034277D01*
X158677829Y-112034290D01*
X158760834Y-112158515D01*
X158760837Y-112158519D01*
X158866480Y-112264162D01*
X158866484Y-112264165D01*
X158990709Y-112347170D01*
X158990722Y-112347177D01*
X159128749Y-112404349D01*
X159128754Y-112404351D01*
X159128758Y-112404351D01*
X159128759Y-112404352D01*
X159275291Y-112433500D01*
X159275294Y-112433500D01*
X159424708Y-112433500D01*
X159523292Y-112413889D01*
X159571246Y-112404351D01*
X159709284Y-112347174D01*
X159833516Y-112264165D01*
X159939165Y-112158516D01*
X160022174Y-112034284D01*
X160079351Y-111896246D01*
X160094389Y-111820647D01*
X160108500Y-111749708D01*
X160108500Y-111600291D01*
X160079352Y-111453759D01*
X160079351Y-111453758D01*
X160079351Y-111453754D01*
X160079349Y-111453749D01*
X160022177Y-111315722D01*
X160022170Y-111315709D01*
X159939165Y-111191484D01*
X159939162Y-111191480D01*
X159833519Y-111085837D01*
X159833515Y-111085834D01*
X159709290Y-111002829D01*
X159709277Y-111002822D01*
X159571250Y-110945650D01*
X159571240Y-110945647D01*
X159424708Y-110916500D01*
X159424706Y-110916500D01*
X159275294Y-110916500D01*
X159275292Y-110916500D01*
X159128759Y-110945647D01*
X159128749Y-110945650D01*
X158990722Y-111002822D01*
X158990709Y-111002829D01*
X158866484Y-111085834D01*
X158866480Y-111085837D01*
X158760837Y-111191480D01*
X158760834Y-111191484D01*
X158677829Y-111315709D01*
X158677822Y-111315722D01*
X158620650Y-111453749D01*
X158620647Y-111453759D01*
X158591500Y-111600291D01*
X158591500Y-111600294D01*
X158591500Y-111749706D01*
X158591500Y-111749708D01*
X158591499Y-111749708D01*
X144895549Y-111749708D01*
X142554178Y-109408337D01*
X142541092Y-109396583D01*
X142513261Y-109371585D01*
X142476270Y-109349639D01*
X142387560Y-109297009D01*
X142383989Y-109295530D01*
X142278695Y-109264613D01*
X142278697Y-109264613D01*
X142278692Y-109264612D01*
X142278690Y-109264611D01*
X142278687Y-109264611D01*
X142132631Y-109259390D01*
X142132624Y-109259390D01*
X141991017Y-109295529D01*
X141991005Y-109295532D01*
X141987434Y-109297011D01*
X141891055Y-109349638D01*
X141891054Y-109349639D01*
X141784087Y-109449237D01*
X141784083Y-109449242D01*
X141709511Y-109574936D01*
X141708030Y-109578510D01*
X141699209Y-109603517D01*
X141689750Y-109630330D01*
X141673245Y-109745131D01*
X141668950Y-109775001D01*
X130332086Y-109775001D01*
X130297177Y-109690722D01*
X130297170Y-109690709D01*
X130214165Y-109566484D01*
X130214162Y-109566480D01*
X130108519Y-109460837D01*
X130108515Y-109460834D01*
X129984290Y-109377829D01*
X129984277Y-109377822D01*
X129846250Y-109320650D01*
X129846240Y-109320647D01*
X129699708Y-109291500D01*
X129699706Y-109291500D01*
X129550294Y-109291500D01*
X129550292Y-109291500D01*
X129403759Y-109320647D01*
X129403749Y-109320650D01*
X129265722Y-109377822D01*
X129265709Y-109377829D01*
X129141484Y-109460834D01*
X129141480Y-109460837D01*
X129035837Y-109566480D01*
X129035834Y-109566484D01*
X128952829Y-109690709D01*
X128952822Y-109690722D01*
X128895650Y-109828749D01*
X128895647Y-109828759D01*
X128866500Y-109975291D01*
X128866500Y-109975294D01*
X128866500Y-110124706D01*
X128866500Y-110124708D01*
X128866499Y-110124708D01*
X116268550Y-110124708D01*
X116268550Y-109800000D01*
X116265610Y-109745128D01*
X116229469Y-109603510D01*
X116227990Y-109599939D01*
X116227988Y-109599934D01*
X116175361Y-109503555D01*
X116175360Y-109503553D01*
X116075761Y-109396585D01*
X115996631Y-109349639D01*
X115950060Y-109322009D01*
X115946489Y-109320530D01*
X115841195Y-109289613D01*
X115841197Y-109289613D01*
X115841192Y-109289612D01*
X115841190Y-109289611D01*
X115841187Y-109289611D01*
X115695131Y-109284390D01*
X115695124Y-109284390D01*
X115553517Y-109320529D01*
X115553502Y-109320533D01*
X115549943Y-109322008D01*
X115549929Y-109322014D01*
X115500335Y-109345740D01*
X115383337Y-109433323D01*
X115383319Y-109433339D01*
X112983337Y-111833321D01*
X112946583Y-111874241D01*
X112872009Y-111999939D01*
X112870530Y-112003510D01*
X112839613Y-112108804D01*
X112839611Y-112108812D01*
X112834390Y-112254868D01*
X102000500Y-112254868D01*
X102000500Y-108374708D01*
X126866499Y-108374708D01*
X126895647Y-108521240D01*
X126895650Y-108521250D01*
X126952822Y-108659277D01*
X126952829Y-108659290D01*
X127035834Y-108783515D01*
X127035837Y-108783519D01*
X127141480Y-108889162D01*
X127141484Y-108889165D01*
X127265709Y-108972170D01*
X127265722Y-108972177D01*
X127403749Y-109029349D01*
X127403754Y-109029351D01*
X127403758Y-109029351D01*
X127403759Y-109029352D01*
X127550291Y-109058500D01*
X127550294Y-109058500D01*
X127699708Y-109058500D01*
X127798292Y-109038889D01*
X127846246Y-109029351D01*
X127984284Y-108972174D01*
X128108516Y-108889165D01*
X128214165Y-108783516D01*
X128297174Y-108659284D01*
X128354351Y-108521246D01*
X128383500Y-108374706D01*
X128383500Y-108225294D01*
X128383500Y-108225291D01*
X128354352Y-108078759D01*
X128354351Y-108078758D01*
X128354351Y-108078754D01*
X128354349Y-108078749D01*
X128297177Y-107940722D01*
X128297170Y-107940709D01*
X128214165Y-107816484D01*
X128214162Y-107816480D01*
X128108519Y-107710837D01*
X128108515Y-107710834D01*
X127984290Y-107627829D01*
X127984277Y-107627822D01*
X127846250Y-107570650D01*
X127846240Y-107570647D01*
X127699708Y-107541500D01*
X127699706Y-107541500D01*
X127550294Y-107541500D01*
X127550292Y-107541500D01*
X127403759Y-107570647D01*
X127403749Y-107570650D01*
X127265722Y-107627822D01*
X127265709Y-107627829D01*
X127141484Y-107710834D01*
X127141480Y-107710837D01*
X127035837Y-107816480D01*
X127035834Y-107816484D01*
X126952829Y-107940709D01*
X126952822Y-107940722D01*
X126895650Y-108078749D01*
X126895647Y-108078759D01*
X126866500Y-108225291D01*
X126866500Y-108225294D01*
X126866500Y-108374706D01*
X126866500Y-108374708D01*
X126866499Y-108374708D01*
X102000500Y-108374708D01*
X102000500Y-106516380D01*
X102020185Y-106449341D01*
X102036954Y-106428564D01*
X102193398Y-106272603D01*
X103683911Y-104786683D01*
X103745286Y-104753293D01*
X103771457Y-104750500D01*
X111000207Y-104750500D01*
X111000500Y-104750207D01*
X111000500Y-81259708D01*
X113981499Y-81259708D01*
X114010647Y-81406240D01*
X114010650Y-81406250D01*
X114067822Y-81544277D01*
X114067829Y-81544290D01*
X114135602Y-81645718D01*
X114156480Y-81712395D01*
X114156500Y-81714609D01*
X114156500Y-98116819D01*
X114196265Y-98265223D01*
X114215206Y-98298029D01*
X114220282Y-98306821D01*
X114220281Y-98306821D01*
X114273079Y-98398271D01*
X114273085Y-98398279D01*
X120330181Y-104455375D01*
X120363666Y-104516698D01*
X120366500Y-104543056D01*
X120366500Y-106270390D01*
X120346815Y-106337429D01*
X120345602Y-106339281D01*
X120277829Y-106440709D01*
X120277822Y-106440722D01*
X120220650Y-106578749D01*
X120220647Y-106578759D01*
X120191500Y-106725291D01*
X120191500Y-106725294D01*
X120191500Y-106874706D01*
X120191500Y-106874708D01*
X120191499Y-106874708D01*
X120220647Y-107021240D01*
X120220650Y-107021250D01*
X120277822Y-107159277D01*
X120277829Y-107159290D01*
X120360834Y-107283515D01*
X120360837Y-107283519D01*
X120466480Y-107389162D01*
X120466484Y-107389165D01*
X120590709Y-107472170D01*
X120590722Y-107472177D01*
X120728749Y-107529349D01*
X120728754Y-107529351D01*
X120728758Y-107529351D01*
X120728759Y-107529352D01*
X120875291Y-107558500D01*
X120875294Y-107558500D01*
X121024708Y-107558500D01*
X121123292Y-107538889D01*
X121171246Y-107529351D01*
X121309284Y-107472174D01*
X121433516Y-107389165D01*
X121539165Y-107283516D01*
X121622174Y-107159284D01*
X121679351Y-107021246D01*
X121708500Y-106874706D01*
X121708500Y-106725294D01*
X121708500Y-106725291D01*
X121679352Y-106578759D01*
X121679351Y-106578758D01*
X121679351Y-106578754D01*
X121632023Y-106464493D01*
X121622177Y-106440722D01*
X121622170Y-106440709D01*
X121554398Y-106339281D01*
X121533520Y-106272603D01*
X121533500Y-106270390D01*
X121533500Y-104173183D01*
X121533500Y-104173181D01*
X121493735Y-104024777D01*
X121439074Y-103930102D01*
X121416916Y-103891722D01*
X115359819Y-97834625D01*
X115326334Y-97773302D01*
X115323500Y-97746944D01*
X115323500Y-84274708D01*
X119816499Y-84274708D01*
X119845647Y-84421240D01*
X119845650Y-84421250D01*
X119902822Y-84559277D01*
X119902829Y-84559290D01*
X119970602Y-84660718D01*
X119991480Y-84727395D01*
X119991500Y-84729609D01*
X119991500Y-98361819D01*
X120021323Y-98473122D01*
X120031265Y-98510224D01*
X120031266Y-98510225D01*
X120069674Y-98576750D01*
X120108084Y-98643278D01*
X124606723Y-103141916D01*
X124721949Y-103208442D01*
X124732411Y-103214483D01*
X124739778Y-103218736D01*
X124888181Y-103258500D01*
X124888183Y-103258500D01*
X131026816Y-103258500D01*
X131026819Y-103258500D01*
X131175223Y-103218735D01*
X131241750Y-103180325D01*
X131308278Y-103141916D01*
X131414678Y-103035516D01*
X135791500Y-103035516D01*
X135791500Y-103214483D01*
X135826411Y-103389992D01*
X135826413Y-103390000D01*
X135894896Y-103555332D01*
X135894901Y-103555342D01*
X135994321Y-103704134D01*
X135994324Y-103704138D01*
X136120861Y-103830675D01*
X136120865Y-103830678D01*
X136269657Y-103930098D01*
X136269661Y-103930100D01*
X136269664Y-103930102D01*
X136435000Y-103998587D01*
X136610516Y-104033499D01*
X136610520Y-104033500D01*
X136610521Y-104033500D01*
X136789480Y-104033500D01*
X136789481Y-104033499D01*
X136965000Y-103998587D01*
X137130336Y-103930102D01*
X137279135Y-103830678D01*
X137405678Y-103704135D01*
X137505102Y-103555336D01*
X137573587Y-103390000D01*
X137608500Y-103214479D01*
X137608500Y-103035521D01*
X137573587Y-102860000D01*
X137505102Y-102694664D01*
X137505100Y-102694661D01*
X137505098Y-102694657D01*
X137405678Y-102545865D01*
X137405675Y-102545861D01*
X137279138Y-102419324D01*
X137279134Y-102419321D01*
X137130342Y-102319901D01*
X137130332Y-102319896D01*
X136965000Y-102251413D01*
X136964992Y-102251411D01*
X136789483Y-102216500D01*
X136789479Y-102216500D01*
X136610521Y-102216500D01*
X136610516Y-102216500D01*
X136435007Y-102251411D01*
X136434999Y-102251413D01*
X136269667Y-102319896D01*
X136269657Y-102319901D01*
X136120865Y-102419321D01*
X136120861Y-102419324D01*
X135994324Y-102545861D01*
X135994321Y-102545865D01*
X135894901Y-102694657D01*
X135894896Y-102694667D01*
X135826413Y-102859999D01*
X135826411Y-102860007D01*
X135791500Y-103035516D01*
X131414678Y-103035516D01*
X133664678Y-100785516D01*
X144166500Y-100785516D01*
X144166500Y-100964483D01*
X144201411Y-101139992D01*
X144201413Y-101140000D01*
X144269896Y-101305332D01*
X144269901Y-101305342D01*
X144369321Y-101454134D01*
X144369324Y-101454138D01*
X144495861Y-101580675D01*
X144495865Y-101580678D01*
X144644657Y-101680098D01*
X144644661Y-101680100D01*
X144644664Y-101680102D01*
X144810000Y-101748587D01*
X144985516Y-101783499D01*
X144985520Y-101783500D01*
X144985521Y-101783500D01*
X145164480Y-101783500D01*
X145164481Y-101783499D01*
X145340000Y-101748587D01*
X145505336Y-101680102D01*
X145654135Y-101580678D01*
X145780678Y-101454135D01*
X145880102Y-101305336D01*
X145948587Y-101140000D01*
X145983500Y-100964479D01*
X145983500Y-100785521D01*
X145948587Y-100610000D01*
X145880102Y-100444664D01*
X145880100Y-100444661D01*
X145880098Y-100444657D01*
X145780678Y-100295865D01*
X145780675Y-100295861D01*
X145654138Y-100169324D01*
X145654134Y-100169321D01*
X145505342Y-100069901D01*
X145505332Y-100069896D01*
X145340000Y-100001413D01*
X145339992Y-100001411D01*
X145164483Y-99966500D01*
X145164479Y-99966500D01*
X144985521Y-99966500D01*
X144985516Y-99966500D01*
X144810007Y-100001411D01*
X144809999Y-100001413D01*
X144644667Y-100069896D01*
X144644657Y-100069901D01*
X144495865Y-100169321D01*
X144495861Y-100169324D01*
X144369324Y-100295861D01*
X144369321Y-100295865D01*
X144269901Y-100444657D01*
X144269896Y-100444667D01*
X144201413Y-100609999D01*
X144201411Y-100610007D01*
X144166500Y-100785516D01*
X133664678Y-100785516D01*
X134297875Y-100152319D01*
X134359198Y-100118834D01*
X134385556Y-100116000D01*
X139284316Y-100116000D01*
X139284319Y-100116000D01*
X139432723Y-100076235D01*
X139499250Y-100037825D01*
X139565778Y-99999416D01*
X141970375Y-97594819D01*
X142031698Y-97561334D01*
X142058056Y-97558500D01*
X142645390Y-97558500D01*
X142712429Y-97578185D01*
X142714281Y-97579398D01*
X142815709Y-97647170D01*
X142815722Y-97647177D01*
X142953749Y-97704349D01*
X142953754Y-97704351D01*
X142953758Y-97704351D01*
X142953759Y-97704352D01*
X143100291Y-97733500D01*
X143100294Y-97733500D01*
X143249708Y-97733500D01*
X143348292Y-97713889D01*
X143396246Y-97704351D01*
X143534284Y-97647174D01*
X143658516Y-97564165D01*
X143764165Y-97458516D01*
X143847174Y-97334284D01*
X143904351Y-97196246D01*
X143933500Y-97049706D01*
X143933500Y-96900294D01*
X143933500Y-96900291D01*
X143904352Y-96753759D01*
X143904351Y-96753758D01*
X143904351Y-96753754D01*
X143884197Y-96705098D01*
X143847177Y-96615722D01*
X143847170Y-96615709D01*
X143764165Y-96491484D01*
X143764162Y-96491480D01*
X143658519Y-96385837D01*
X143658515Y-96385834D01*
X143572113Y-96328102D01*
X143527308Y-96274490D01*
X143518601Y-96205165D01*
X143548755Y-96142137D01*
X143572113Y-96121898D01*
X143635718Y-96079398D01*
X143658516Y-96064165D01*
X143764165Y-95958516D01*
X143847174Y-95834284D01*
X143904351Y-95696246D01*
X143929598Y-95569322D01*
X143933500Y-95549708D01*
X143933500Y-95400291D01*
X143904352Y-95253759D01*
X143904351Y-95253758D01*
X143904351Y-95253754D01*
X143904349Y-95253749D01*
X143847177Y-95115722D01*
X143847170Y-95115709D01*
X143764165Y-94991484D01*
X143764162Y-94991480D01*
X143658519Y-94885837D01*
X143658515Y-94885834D01*
X143534290Y-94802829D01*
X143534277Y-94802822D01*
X143396250Y-94745650D01*
X143396240Y-94745647D01*
X143249708Y-94716500D01*
X143249706Y-94716500D01*
X143100294Y-94716500D01*
X143100292Y-94716500D01*
X142953759Y-94745647D01*
X142953749Y-94745650D01*
X142815722Y-94802822D01*
X142815709Y-94802829D01*
X142714281Y-94870602D01*
X142647603Y-94891480D01*
X142645390Y-94891500D01*
X141208181Y-94891500D01*
X141148469Y-94907500D01*
X141059776Y-94931265D01*
X141055912Y-94933496D01*
X141052801Y-94935292D01*
X141052798Y-94935294D01*
X140926728Y-95008079D01*
X140926720Y-95008085D01*
X138324625Y-97610181D01*
X138263302Y-97643666D01*
X138236944Y-97646500D01*
X132903181Y-97646500D01*
X132754776Y-97686264D01*
X132621723Y-97763084D01*
X132621720Y-97763086D01*
X130004625Y-100380181D01*
X129943302Y-100413666D01*
X129916944Y-100416500D01*
X125963056Y-100416500D01*
X125896017Y-100396815D01*
X125875375Y-100380181D01*
X123009819Y-97514625D01*
X122976334Y-97453302D01*
X122973500Y-97426944D01*
X122973500Y-89999999D01*
X126050000Y-89999999D01*
X126050000Y-90000000D01*
X126050000Y-96000000D01*
X126950000Y-96900000D01*
X129325000Y-96900000D01*
X130039484Y-96185516D01*
X130866500Y-96185516D01*
X130866500Y-96364483D01*
X130901411Y-96539992D01*
X130901413Y-96540000D01*
X130969896Y-96705332D01*
X130969901Y-96705342D01*
X131069321Y-96854134D01*
X131069324Y-96854138D01*
X131195861Y-96980675D01*
X131195865Y-96980678D01*
X131344657Y-97080098D01*
X131344661Y-97080100D01*
X131344664Y-97080102D01*
X131510000Y-97148587D01*
X131685516Y-97183499D01*
X131685520Y-97183500D01*
X131685521Y-97183500D01*
X131864480Y-97183500D01*
X131864481Y-97183499D01*
X132040000Y-97148587D01*
X132205336Y-97080102D01*
X132354135Y-96980678D01*
X132480678Y-96854135D01*
X132580102Y-96705336D01*
X132648587Y-96540000D01*
X132683500Y-96364479D01*
X132683500Y-96185521D01*
X132648587Y-96010000D01*
X132580102Y-95844664D01*
X132580100Y-95844661D01*
X132580098Y-95844657D01*
X132480678Y-95695865D01*
X132480675Y-95695861D01*
X132354138Y-95569324D01*
X132354134Y-95569321D01*
X132205342Y-95469901D01*
X132205332Y-95469896D01*
X132040000Y-95401413D01*
X132039992Y-95401411D01*
X131864483Y-95366500D01*
X131864479Y-95366500D01*
X131685521Y-95366500D01*
X131685516Y-95366500D01*
X131510007Y-95401411D01*
X131509999Y-95401413D01*
X131344667Y-95469896D01*
X131344657Y-95469901D01*
X131195865Y-95569321D01*
X131195861Y-95569324D01*
X131069324Y-95695861D01*
X131069321Y-95695865D01*
X130969901Y-95844657D01*
X130969896Y-95844667D01*
X130901413Y-96009999D01*
X130901411Y-96010007D01*
X130866500Y-96185516D01*
X130039484Y-96185516D01*
X130650000Y-95575000D01*
X130650000Y-95051362D01*
X130669685Y-94984323D01*
X130686319Y-94963681D01*
X131013681Y-94636319D01*
X131075004Y-94602834D01*
X131101362Y-94600000D01*
X131900000Y-94600000D01*
X132425292Y-94074708D01*
X134916499Y-94074708D01*
X134945647Y-94221240D01*
X134945650Y-94221250D01*
X135002822Y-94359277D01*
X135002829Y-94359290D01*
X135085834Y-94483515D01*
X135085837Y-94483519D01*
X135191480Y-94589162D01*
X135191484Y-94589165D01*
X135315709Y-94672170D01*
X135315722Y-94672177D01*
X135425457Y-94717630D01*
X135453754Y-94729351D01*
X135453758Y-94729351D01*
X135453759Y-94729352D01*
X135600291Y-94758500D01*
X135600294Y-94758500D01*
X135749708Y-94758500D01*
X135896241Y-94729352D01*
X135896241Y-94729351D01*
X135896246Y-94729351D01*
X135906504Y-94725101D01*
X135975970Y-94717630D01*
X136017082Y-94732930D01*
X136020403Y-94734894D01*
X136177746Y-94780606D01*
X136214516Y-94783500D01*
X136547500Y-94783500D01*
X136614539Y-94803185D01*
X136660294Y-94855989D01*
X136671500Y-94907500D01*
X136671500Y-95209977D01*
X136671501Y-95209999D01*
X136674370Y-95246463D01*
X136709672Y-95367975D01*
X136709472Y-95437845D01*
X136697204Y-95463992D01*
X136697768Y-95464294D01*
X136694898Y-95469662D01*
X136626413Y-95634999D01*
X136626411Y-95635007D01*
X136591500Y-95810516D01*
X136591500Y-95989483D01*
X136626411Y-96164992D01*
X136626413Y-96165000D01*
X136694896Y-96330332D01*
X136694901Y-96330342D01*
X136794321Y-96479134D01*
X136794324Y-96479138D01*
X136920861Y-96605675D01*
X136920865Y-96605678D01*
X137069657Y-96705098D01*
X137069661Y-96705100D01*
X137069664Y-96705102D01*
X137235000Y-96773587D01*
X137410516Y-96808499D01*
X137410520Y-96808500D01*
X137410521Y-96808500D01*
X137589480Y-96808500D01*
X137589481Y-96808499D01*
X137765000Y-96773587D01*
X137930336Y-96705102D01*
X138079135Y-96605678D01*
X138205678Y-96479135D01*
X138305102Y-96330336D01*
X138373587Y-96165000D01*
X138408500Y-95989479D01*
X138408500Y-95810521D01*
X138373587Y-95635000D01*
X138305102Y-95469664D01*
X138305099Y-95469660D01*
X138302233Y-95464297D01*
X138303797Y-95463460D01*
X138285423Y-95404783D01*
X138290327Y-95367975D01*
X138325629Y-95246466D01*
X138328500Y-95209989D01*
X138328499Y-94810012D01*
X138325629Y-94773534D01*
X138313590Y-94732095D01*
X138313789Y-94662226D01*
X138351731Y-94603556D01*
X138415370Y-94574712D01*
X138432666Y-94573500D01*
X141266816Y-94573500D01*
X141266819Y-94573500D01*
X141415223Y-94533735D01*
X141512696Y-94477459D01*
X141548278Y-94456916D01*
X142310375Y-93694819D01*
X142371698Y-93661334D01*
X142398056Y-93658500D01*
X157001816Y-93658500D01*
X157001819Y-93658500D01*
X157150223Y-93618735D01*
X157216914Y-93580231D01*
X157283278Y-93541916D01*
X162250486Y-88574708D01*
X167541499Y-88574708D01*
X167570647Y-88721240D01*
X167570650Y-88721250D01*
X167627822Y-88859277D01*
X167627829Y-88859290D01*
X167710834Y-88983515D01*
X167710837Y-88983519D01*
X167816480Y-89089162D01*
X167816484Y-89089165D01*
X167940709Y-89172170D01*
X167940722Y-89172177D01*
X168049008Y-89217030D01*
X168078754Y-89229351D01*
X168078758Y-89229351D01*
X168078759Y-89229352D01*
X168225291Y-89258500D01*
X168225294Y-89258500D01*
X168374708Y-89258500D01*
X168473292Y-89238889D01*
X168521246Y-89229351D01*
X168659284Y-89172174D01*
X168783516Y-89089165D01*
X168889165Y-88983516D01*
X168972174Y-88859284D01*
X169029351Y-88721246D01*
X169053152Y-88601594D01*
X169085537Y-88539683D01*
X169087032Y-88538160D01*
X172217874Y-85407319D01*
X172279197Y-85373834D01*
X172305555Y-85371000D01*
X175989316Y-85371000D01*
X175989319Y-85371000D01*
X176137723Y-85331235D01*
X176204250Y-85292825D01*
X176270778Y-85254416D01*
X180188108Y-81337085D01*
X180249429Y-81303602D01*
X180251576Y-81303154D01*
X180371246Y-81279351D01*
X180509284Y-81222174D01*
X180633516Y-81139165D01*
X180739165Y-81033516D01*
X180822174Y-80909284D01*
X180879351Y-80771246D01*
X180908500Y-80624706D01*
X180908500Y-80475294D01*
X180908500Y-80475291D01*
X180879352Y-80328759D01*
X180879351Y-80328758D01*
X180879351Y-80328754D01*
X180849580Y-80256880D01*
X180822177Y-80190722D01*
X180822170Y-80190709D01*
X180739165Y-80066484D01*
X180739162Y-80066480D01*
X180633519Y-79960837D01*
X180633515Y-79960834D01*
X180509290Y-79877829D01*
X180509277Y-79877822D01*
X180371250Y-79820650D01*
X180371240Y-79820647D01*
X180224708Y-79791500D01*
X180224706Y-79791500D01*
X180075294Y-79791500D01*
X180075292Y-79791500D01*
X179928759Y-79820647D01*
X179928749Y-79820650D01*
X179790722Y-79877822D01*
X179790709Y-79877829D01*
X179666484Y-79960834D01*
X179666480Y-79960837D01*
X179560837Y-80066480D01*
X179560834Y-80066484D01*
X179477829Y-80190709D01*
X179477822Y-80190722D01*
X179420650Y-80328749D01*
X179420647Y-80328759D01*
X179396848Y-80448404D01*
X179364463Y-80510315D01*
X179362912Y-80511893D01*
X175707125Y-84167681D01*
X175645802Y-84201166D01*
X175619444Y-84204000D01*
X171935681Y-84204000D01*
X171787276Y-84243764D01*
X171654223Y-84320584D01*
X171654220Y-84320586D01*
X168261893Y-87712912D01*
X168200570Y-87746397D01*
X168198404Y-87746848D01*
X168078759Y-87770647D01*
X168078749Y-87770650D01*
X167940722Y-87827822D01*
X167940709Y-87827829D01*
X167816484Y-87910834D01*
X167816480Y-87910837D01*
X167710837Y-88016480D01*
X167710834Y-88016484D01*
X167627829Y-88140709D01*
X167627822Y-88140722D01*
X167570650Y-88278749D01*
X167570647Y-88278759D01*
X167541500Y-88425291D01*
X167541500Y-88425294D01*
X167541500Y-88574706D01*
X167541500Y-88574708D01*
X167541499Y-88574708D01*
X162250486Y-88574708D01*
X177091916Y-73733278D01*
X177130325Y-73666750D01*
X177168735Y-73600223D01*
X177208500Y-73451819D01*
X177208500Y-69318055D01*
X177228185Y-69251016D01*
X177244819Y-69230374D01*
X181769802Y-64705391D01*
X187466916Y-59008277D01*
X187543736Y-58875222D01*
X187583500Y-58726819D01*
X187583500Y-58573180D01*
X187583500Y-55733181D01*
X187543735Y-55584777D01*
X187470829Y-55458500D01*
X187466916Y-55451722D01*
X187466914Y-55451720D01*
X187466913Y-55451718D01*
X186762786Y-54747592D01*
X186729301Y-54686269D01*
X186732537Y-54621591D01*
X186737265Y-54607041D01*
X186768500Y-54409833D01*
X186768500Y-54210167D01*
X186737265Y-54012959D01*
X186737264Y-54012955D01*
X186737264Y-54012954D01*
X186675566Y-53823067D01*
X186584917Y-53645160D01*
X186467557Y-53483628D01*
X186326372Y-53342443D01*
X186164839Y-53225082D01*
X185986932Y-53134433D01*
X185797044Y-53072735D01*
X185649135Y-53049308D01*
X185599833Y-53041500D01*
X185400167Y-53041500D01*
X185334431Y-53051911D01*
X185202957Y-53072735D01*
X185202954Y-53072735D01*
X185013067Y-53134433D01*
X184835160Y-53225082D01*
X184742999Y-53292041D01*
X184673628Y-53342443D01*
X184673626Y-53342445D01*
X184673625Y-53342445D01*
X184532445Y-53483625D01*
X184532445Y-53483626D01*
X184532443Y-53483628D01*
X184482041Y-53552999D01*
X184415082Y-53645160D01*
X184324433Y-53823067D01*
X184262735Y-54012954D01*
X184262735Y-54012957D01*
X184231500Y-54210167D01*
X184231500Y-54409832D01*
X184262735Y-54607042D01*
X184262735Y-54607045D01*
X184324433Y-54796932D01*
X184324435Y-54796935D01*
X184415082Y-54974839D01*
X184532443Y-55136372D01*
X184673628Y-55277557D01*
X184835161Y-55394918D01*
X184959947Y-55458500D01*
X185013067Y-55485566D01*
X185202955Y-55547264D01*
X185202956Y-55547264D01*
X185202959Y-55547265D01*
X185400167Y-55578500D01*
X185400168Y-55578500D01*
X185599832Y-55578500D01*
X185599833Y-55578500D01*
X185797041Y-55547265D01*
X185811592Y-55542536D01*
X185881432Y-55540540D01*
X185937592Y-55572786D01*
X186380181Y-56015375D01*
X186413666Y-56076698D01*
X186416500Y-56103056D01*
X186416500Y-58356944D01*
X186396815Y-58423983D01*
X186380181Y-58444625D01*
X176158085Y-68666720D01*
X176158083Y-68666723D01*
X176140434Y-68697293D01*
X176122784Y-68727864D01*
X176081265Y-68799777D01*
X176041500Y-68948181D01*
X176041500Y-68948183D01*
X176041500Y-73081944D01*
X176021815Y-73148983D01*
X176005181Y-73169625D01*
X156719625Y-92455181D01*
X156658302Y-92488666D01*
X156631944Y-92491500D01*
X142028181Y-92491500D01*
X141939138Y-92515359D01*
X141879775Y-92531265D01*
X141879774Y-92531266D01*
X141813250Y-92569674D01*
X141746725Y-92608082D01*
X141746719Y-92608086D01*
X140984625Y-93370181D01*
X140923302Y-93403666D01*
X140896944Y-93406500D01*
X138197910Y-93406500D01*
X138130871Y-93386815D01*
X138110229Y-93370181D01*
X138082546Y-93342498D01*
X138082538Y-93342492D01*
X138001372Y-93294491D01*
X137942596Y-93259731D01*
X137942595Y-93259730D01*
X137942594Y-93259730D01*
X137942591Y-93259729D01*
X137786473Y-93214372D01*
X137786461Y-93214370D01*
X137754177Y-93211829D01*
X137749989Y-93211500D01*
X137749988Y-93211500D01*
X137250022Y-93211500D01*
X137250000Y-93211501D01*
X137213533Y-93214371D01*
X137057408Y-93259729D01*
X137057396Y-93259734D01*
X137035527Y-93272667D01*
X136967802Y-93289847D01*
X136909291Y-93272666D01*
X136879600Y-93255107D01*
X136879592Y-93255104D01*
X136722258Y-93209394D01*
X136722252Y-93209393D01*
X136685489Y-93206500D01*
X136685484Y-93206500D01*
X136214516Y-93206500D01*
X136214510Y-93206500D01*
X136177747Y-93209393D01*
X136177741Y-93209394D01*
X136020407Y-93255104D01*
X136020402Y-93255106D01*
X136007134Y-93262953D01*
X135939410Y-93280133D01*
X135902196Y-93272010D01*
X135902073Y-93272417D01*
X135896983Y-93270873D01*
X135896571Y-93270783D01*
X135896253Y-93270651D01*
X135896240Y-93270647D01*
X135749708Y-93241500D01*
X135749706Y-93241500D01*
X135600294Y-93241500D01*
X135600292Y-93241500D01*
X135453759Y-93270647D01*
X135453749Y-93270650D01*
X135315722Y-93327822D01*
X135315709Y-93327829D01*
X135191484Y-93410834D01*
X135191480Y-93410837D01*
X135085837Y-93516480D01*
X135085834Y-93516484D01*
X135002829Y-93640709D01*
X135002822Y-93640722D01*
X134945650Y-93778749D01*
X134945647Y-93778759D01*
X134916500Y-93925291D01*
X134916500Y-93925294D01*
X134916500Y-94074706D01*
X134916500Y-94074708D01*
X134916499Y-94074708D01*
X132425292Y-94074708D01*
X132713681Y-93786319D01*
X132775004Y-93752834D01*
X132801362Y-93750000D01*
X134450000Y-93750000D01*
X134450000Y-92750000D01*
X132751362Y-92750000D01*
X132684323Y-92730315D01*
X132663681Y-92713681D01*
X131800000Y-91850000D01*
X131051362Y-91850000D01*
X130984323Y-91830315D01*
X130963681Y-91813681D01*
X130736319Y-91586319D01*
X130702834Y-91524996D01*
X130700000Y-91498638D01*
X130700000Y-91200005D01*
X136671500Y-91200005D01*
X136671500Y-91599977D01*
X136671501Y-91599999D01*
X136674371Y-91636466D01*
X136674371Y-91636467D01*
X136719729Y-91792591D01*
X136719730Y-91792594D01*
X136719731Y-91792596D01*
X136753680Y-91850000D01*
X136802492Y-91932538D01*
X136802498Y-91932546D01*
X136917453Y-92047501D01*
X136917457Y-92047504D01*
X136917459Y-92047506D01*
X137057404Y-92130269D01*
X137109447Y-92145389D01*
X137213526Y-92175627D01*
X137213528Y-92175627D01*
X137213534Y-92175629D01*
X137250011Y-92178500D01*
X137749988Y-92178499D01*
X137786466Y-92175629D01*
X137942596Y-92130269D01*
X138082541Y-92047506D01*
X138197506Y-91932541D01*
X138280269Y-91792596D01*
X138325629Y-91636466D01*
X138328500Y-91599989D01*
X138328499Y-91200012D01*
X138325629Y-91163534D01*
X138280269Y-91007404D01*
X138273171Y-90995402D01*
X138251244Y-90958324D01*
X138234061Y-90890600D01*
X138236357Y-90871020D01*
X138258500Y-90759706D01*
X138258500Y-90610294D01*
X138258500Y-90610291D01*
X138229352Y-90463759D01*
X138229351Y-90463758D01*
X138229351Y-90463754D01*
X138194801Y-90380342D01*
X138172177Y-90325722D01*
X138172170Y-90325709D01*
X138089165Y-90201484D01*
X138089162Y-90201480D01*
X137983519Y-90095837D01*
X137983515Y-90095834D01*
X137859290Y-90012829D01*
X137859277Y-90012822D01*
X137721250Y-89955650D01*
X137721240Y-89955647D01*
X137574708Y-89926500D01*
X137574706Y-89926500D01*
X137425294Y-89926500D01*
X137425292Y-89926500D01*
X137278759Y-89955647D01*
X137278749Y-89955650D01*
X137140722Y-90012822D01*
X137140709Y-90012829D01*
X137016484Y-90095834D01*
X137016480Y-90095837D01*
X136910837Y-90201480D01*
X136910834Y-90201484D01*
X136827829Y-90325709D01*
X136827822Y-90325722D01*
X136770650Y-90463749D01*
X136770647Y-90463759D01*
X136741500Y-90610291D01*
X136741500Y-90610294D01*
X136741500Y-90759706D01*
X136741500Y-90759708D01*
X136741499Y-90759708D01*
X136763640Y-90871012D01*
X136757413Y-90940604D01*
X136748756Y-90958324D01*
X136719732Y-91007402D01*
X136719729Y-91007408D01*
X136674372Y-91163527D01*
X136674370Y-91163538D01*
X136671500Y-91200005D01*
X130700000Y-91200005D01*
X130700000Y-89860516D01*
X132766500Y-89860516D01*
X132766500Y-90039483D01*
X132801411Y-90214992D01*
X132801413Y-90215000D01*
X132869896Y-90380332D01*
X132869901Y-90380342D01*
X132969321Y-90529134D01*
X132969324Y-90529138D01*
X133095861Y-90655675D01*
X133095865Y-90655678D01*
X133244657Y-90755098D01*
X133244661Y-90755100D01*
X133244664Y-90755102D01*
X133410000Y-90823587D01*
X133530738Y-90847603D01*
X133585516Y-90858499D01*
X133585520Y-90858500D01*
X133585521Y-90858500D01*
X133764480Y-90858500D01*
X133764481Y-90858499D01*
X133940000Y-90823587D01*
X134105336Y-90755102D01*
X134254135Y-90655678D01*
X134380678Y-90529135D01*
X134480102Y-90380336D01*
X134548587Y-90215000D01*
X134583500Y-90039479D01*
X134583500Y-89860521D01*
X134548587Y-89685000D01*
X134480102Y-89519664D01*
X134480100Y-89519661D01*
X134480098Y-89519657D01*
X134380678Y-89370865D01*
X134380675Y-89370861D01*
X134254138Y-89244324D01*
X134254134Y-89244321D01*
X134105342Y-89144901D01*
X134105332Y-89144896D01*
X133940000Y-89076413D01*
X133939992Y-89076411D01*
X133764483Y-89041500D01*
X133764479Y-89041500D01*
X133585521Y-89041500D01*
X133585516Y-89041500D01*
X133410007Y-89076411D01*
X133409999Y-89076413D01*
X133244667Y-89144896D01*
X133244657Y-89144901D01*
X133095865Y-89244321D01*
X133095861Y-89244324D01*
X132969324Y-89370861D01*
X132969321Y-89370865D01*
X132869901Y-89519657D01*
X132869896Y-89519667D01*
X132801413Y-89684999D01*
X132801411Y-89685007D01*
X132766500Y-89860516D01*
X130700000Y-89860516D01*
X130700000Y-89350000D01*
X130150000Y-88800000D01*
X127250000Y-88800000D01*
X127249999Y-88800000D01*
X126050000Y-89999999D01*
X122973500Y-89999999D01*
X122973500Y-87985516D01*
X131566500Y-87985516D01*
X131566500Y-88164483D01*
X131601411Y-88339992D01*
X131601413Y-88340000D01*
X131669896Y-88505332D01*
X131669901Y-88505342D01*
X131769321Y-88654134D01*
X131769324Y-88654138D01*
X131895861Y-88780675D01*
X131895865Y-88780678D01*
X132044657Y-88880098D01*
X132044661Y-88880100D01*
X132044664Y-88880102D01*
X132210000Y-88948587D01*
X132385516Y-88983499D01*
X132385520Y-88983500D01*
X132385521Y-88983500D01*
X132564480Y-88983500D01*
X132564481Y-88983499D01*
X132740000Y-88948587D01*
X132905336Y-88880102D01*
X133054135Y-88780678D01*
X133180678Y-88654135D01*
X133280102Y-88505336D01*
X133348587Y-88340000D01*
X133383500Y-88164479D01*
X133383500Y-87985521D01*
X133348587Y-87810000D01*
X133280102Y-87644664D01*
X133280100Y-87644661D01*
X133280098Y-87644657D01*
X133180678Y-87495865D01*
X133180675Y-87495861D01*
X133054138Y-87369324D01*
X133054134Y-87369321D01*
X132905342Y-87269901D01*
X132905332Y-87269896D01*
X132740000Y-87201413D01*
X132739992Y-87201411D01*
X132564483Y-87166500D01*
X132564479Y-87166500D01*
X132385521Y-87166500D01*
X132385516Y-87166500D01*
X132210007Y-87201411D01*
X132209999Y-87201413D01*
X132044667Y-87269896D01*
X132044657Y-87269901D01*
X131895865Y-87369321D01*
X131895861Y-87369324D01*
X131769324Y-87495861D01*
X131769321Y-87495865D01*
X131669901Y-87644657D01*
X131669896Y-87644667D01*
X131601413Y-87809999D01*
X131601411Y-87810007D01*
X131566500Y-87985516D01*
X122973500Y-87985516D01*
X122973500Y-86789609D01*
X122993185Y-86722570D01*
X122994398Y-86720718D01*
X123062170Y-86619290D01*
X123062170Y-86619289D01*
X123062174Y-86619284D01*
X123119351Y-86481246D01*
X123148500Y-86334706D01*
X123148500Y-86185294D01*
X123148500Y-86185291D01*
X123119352Y-86038759D01*
X123119351Y-86038758D01*
X123119351Y-86038754D01*
X123096464Y-85983500D01*
X123062177Y-85900722D01*
X123062170Y-85900709D01*
X122979165Y-85776484D01*
X122979162Y-85776480D01*
X122873519Y-85670837D01*
X122873515Y-85670834D01*
X122749290Y-85587829D01*
X122749277Y-85587822D01*
X122611250Y-85530650D01*
X122611240Y-85530647D01*
X122464708Y-85501500D01*
X122464706Y-85501500D01*
X122315294Y-85501500D01*
X122315292Y-85501500D01*
X122168759Y-85530647D01*
X122168749Y-85530650D01*
X122030722Y-85587822D01*
X122030709Y-85587829D01*
X121906484Y-85670834D01*
X121906480Y-85670837D01*
X121800837Y-85776480D01*
X121800834Y-85776484D01*
X121717829Y-85900709D01*
X121717822Y-85900722D01*
X121660650Y-86038749D01*
X121660647Y-86038759D01*
X121631500Y-86185291D01*
X121631500Y-86185294D01*
X121631500Y-86334706D01*
X121631500Y-86334708D01*
X121631499Y-86334708D01*
X121660647Y-86481240D01*
X121660650Y-86481250D01*
X121717822Y-86619277D01*
X121717829Y-86619290D01*
X121785602Y-86720718D01*
X121806480Y-86787395D01*
X121806500Y-86789609D01*
X121806500Y-97796819D01*
X121846265Y-97945223D01*
X121846266Y-97945224D01*
X121880649Y-98004777D01*
X121880650Y-98004779D01*
X121901866Y-98041527D01*
X121923084Y-98078278D01*
X125311722Y-101466916D01*
X125373987Y-101502864D01*
X125444777Y-101543735D01*
X125593181Y-101583500D01*
X125593184Y-101583500D01*
X130286816Y-101583500D01*
X130286819Y-101583500D01*
X130435223Y-101543735D01*
X130506013Y-101502864D01*
X130568278Y-101466916D01*
X133185374Y-98849818D01*
X133246697Y-98816334D01*
X133273055Y-98813500D01*
X133708070Y-98813500D01*
X133775109Y-98833185D01*
X133820864Y-98885989D01*
X133830808Y-98955147D01*
X133801783Y-99018703D01*
X133770070Y-99044887D01*
X133734225Y-99065582D01*
X133734219Y-99065586D01*
X130744625Y-102055181D01*
X130683302Y-102088666D01*
X130656944Y-102091500D01*
X125258055Y-102091500D01*
X125191016Y-102071815D01*
X125170374Y-102055181D01*
X121194819Y-98079625D01*
X121161334Y-98018302D01*
X121158500Y-97991944D01*
X121158500Y-84729609D01*
X121178185Y-84662570D01*
X121179398Y-84660718D01*
X121247170Y-84559290D01*
X121247170Y-84559289D01*
X121247174Y-84559284D01*
X121304351Y-84421246D01*
X121333500Y-84274706D01*
X121333500Y-84125294D01*
X121333500Y-84125291D01*
X121304352Y-83978759D01*
X121304351Y-83978758D01*
X121304351Y-83978754D01*
X121264896Y-83883500D01*
X121247177Y-83840722D01*
X121247170Y-83840709D01*
X121164165Y-83716484D01*
X121164162Y-83716480D01*
X121058519Y-83610837D01*
X121058515Y-83610834D01*
X120934290Y-83527829D01*
X120934277Y-83527822D01*
X120796250Y-83470650D01*
X120796240Y-83470647D01*
X120649708Y-83441500D01*
X120649706Y-83441500D01*
X120500294Y-83441500D01*
X120500292Y-83441500D01*
X120353759Y-83470647D01*
X120353749Y-83470650D01*
X120215722Y-83527822D01*
X120215709Y-83527829D01*
X120091484Y-83610834D01*
X120091480Y-83610837D01*
X119985837Y-83716480D01*
X119985834Y-83716484D01*
X119902829Y-83840709D01*
X119902822Y-83840722D01*
X119845650Y-83978749D01*
X119845647Y-83978759D01*
X119816500Y-84125291D01*
X119816500Y-84125294D01*
X119816500Y-84274706D01*
X119816500Y-84274708D01*
X119816499Y-84274708D01*
X115323500Y-84274708D01*
X115323500Y-81714609D01*
X115343185Y-81647570D01*
X115344398Y-81645718D01*
X115412170Y-81544290D01*
X115412170Y-81544289D01*
X115412174Y-81544284D01*
X115469351Y-81406246D01*
X115488794Y-81308500D01*
X115498500Y-81259708D01*
X115498500Y-81110291D01*
X115469352Y-80963759D01*
X115469351Y-80963758D01*
X115469351Y-80963754D01*
X115469349Y-80963749D01*
X115412177Y-80825722D01*
X115412170Y-80825709D01*
X115329165Y-80701484D01*
X115329162Y-80701480D01*
X115223519Y-80595837D01*
X115223515Y-80595834D01*
X115099290Y-80512829D01*
X115099277Y-80512822D01*
X114961250Y-80455650D01*
X114961240Y-80455647D01*
X114814708Y-80426500D01*
X114814706Y-80426500D01*
X114665294Y-80426500D01*
X114665292Y-80426500D01*
X114518759Y-80455647D01*
X114518749Y-80455650D01*
X114380722Y-80512822D01*
X114380709Y-80512829D01*
X114256484Y-80595834D01*
X114256480Y-80595837D01*
X114150837Y-80701480D01*
X114150834Y-80701484D01*
X114067829Y-80825709D01*
X114067822Y-80825722D01*
X114010650Y-80963749D01*
X114010647Y-80963759D01*
X113981500Y-81110291D01*
X113981500Y-81110294D01*
X113981500Y-81259706D01*
X113981500Y-81259708D01*
X113981499Y-81259708D01*
X111000500Y-81259708D01*
X111000500Y-78654708D01*
X117671499Y-78654708D01*
X117700647Y-78801240D01*
X117700650Y-78801250D01*
X117757822Y-78939277D01*
X117757829Y-78939290D01*
X117840834Y-79063515D01*
X117840837Y-79063519D01*
X117946480Y-79169162D01*
X117946484Y-79169165D01*
X118070709Y-79252170D01*
X118070722Y-79252177D01*
X118208749Y-79309349D01*
X118208754Y-79309351D01*
X118208758Y-79309351D01*
X118208759Y-79309352D01*
X118355291Y-79338500D01*
X118355294Y-79338500D01*
X118504708Y-79338500D01*
X118603292Y-79318889D01*
X118651246Y-79309351D01*
X118789284Y-79252174D01*
X118913516Y-79169165D01*
X119019165Y-79063516D01*
X119102174Y-78939284D01*
X119159351Y-78801246D01*
X119185599Y-78669290D01*
X119188500Y-78654708D01*
X119188500Y-78505291D01*
X119159352Y-78358759D01*
X119159351Y-78358758D01*
X119159351Y-78358754D01*
X119117382Y-78257431D01*
X119102177Y-78220722D01*
X119102170Y-78220709D01*
X119034398Y-78119281D01*
X119013520Y-78052603D01*
X119013500Y-78050390D01*
X119013500Y-77638056D01*
X119033185Y-77571017D01*
X119049819Y-77550375D01*
X120180375Y-76419819D01*
X120241698Y-76386334D01*
X120268056Y-76383500D01*
X123981944Y-76383500D01*
X124048983Y-76403185D01*
X124069625Y-76419819D01*
X130154625Y-82504819D01*
X130165237Y-82524255D01*
X130179738Y-82540989D01*
X130181654Y-82554320D01*
X130188110Y-82566142D01*
X130186530Y-82588228D01*
X130189682Y-82610147D01*
X130184086Y-82622398D01*
X130183126Y-82635834D01*
X130169855Y-82653560D01*
X130160657Y-82673703D01*
X130149325Y-82680985D01*
X130141254Y-82691767D01*
X130120508Y-82699504D01*
X130101879Y-82711477D01*
X130079960Y-82714628D01*
X130075790Y-82716184D01*
X130066944Y-82716500D01*
X130063055Y-82716500D01*
X129996016Y-82696815D01*
X129975374Y-82680181D01*
X127173022Y-79877829D01*
X124338278Y-77043084D01*
X124338276Y-77043083D01*
X124338271Y-77043079D01*
X124209112Y-76968510D01*
X124209102Y-76968505D01*
X124205222Y-76966264D01*
X124096583Y-76937154D01*
X124056819Y-76926500D01*
X124056818Y-76926500D01*
X122419610Y-76926500D01*
X122352571Y-76906815D01*
X122350719Y-76905602D01*
X122249290Y-76837829D01*
X122249277Y-76837822D01*
X122111250Y-76780650D01*
X122111240Y-76780647D01*
X121964708Y-76751500D01*
X121964706Y-76751500D01*
X121815294Y-76751500D01*
X121815292Y-76751500D01*
X121668759Y-76780647D01*
X121668749Y-76780650D01*
X121530722Y-76837822D01*
X121530709Y-76837829D01*
X121406484Y-76920834D01*
X121406480Y-76920837D01*
X121300837Y-77026480D01*
X121300834Y-77026484D01*
X121217829Y-77150709D01*
X121217822Y-77150722D01*
X121160650Y-77288749D01*
X121160647Y-77288759D01*
X121131500Y-77435291D01*
X121131500Y-77435294D01*
X121131500Y-77584706D01*
X121131500Y-77584708D01*
X121131499Y-77584708D01*
X121160647Y-77731240D01*
X121160650Y-77731250D01*
X121217822Y-77869277D01*
X121217829Y-77869290D01*
X121300834Y-77993515D01*
X121300837Y-77993519D01*
X121406480Y-78099162D01*
X121406484Y-78099165D01*
X121530709Y-78182170D01*
X121530722Y-78182177D01*
X121623779Y-78220722D01*
X121668754Y-78239351D01*
X121668758Y-78239351D01*
X121668759Y-78239352D01*
X121815291Y-78268500D01*
X121815294Y-78268500D01*
X121964708Y-78268500D01*
X122063292Y-78248889D01*
X122111246Y-78239351D01*
X122249284Y-78182174D01*
X122249290Y-78182170D01*
X122350719Y-78114398D01*
X122417397Y-78093520D01*
X122419610Y-78093500D01*
X123686944Y-78093500D01*
X123753983Y-78113185D01*
X123774625Y-78129819D01*
X124998110Y-79353304D01*
X125031595Y-79414627D01*
X125026611Y-79484319D01*
X124984739Y-79540252D01*
X124919275Y-79564669D01*
X124878336Y-79560760D01*
X124836103Y-79549443D01*
X124731820Y-79521501D01*
X124731819Y-79521501D01*
X124554610Y-79521501D01*
X124487571Y-79501816D01*
X124485719Y-79500603D01*
X124384290Y-79432830D01*
X124384277Y-79432823D01*
X124246250Y-79375651D01*
X124246240Y-79375648D01*
X124099708Y-79346501D01*
X124099706Y-79346501D01*
X123950294Y-79346501D01*
X123950292Y-79346501D01*
X123803759Y-79375648D01*
X123803749Y-79375651D01*
X123665722Y-79432823D01*
X123665709Y-79432830D01*
X123541484Y-79515835D01*
X123541480Y-79515838D01*
X123435837Y-79621481D01*
X123435834Y-79621485D01*
X123352829Y-79745710D01*
X123352822Y-79745723D01*
X123295650Y-79883750D01*
X123295647Y-79883760D01*
X123266500Y-80030292D01*
X123266500Y-80030295D01*
X123266500Y-80179707D01*
X123266500Y-80179709D01*
X123266499Y-80179709D01*
X123295647Y-80326241D01*
X123295650Y-80326251D01*
X123352822Y-80464278D01*
X123352829Y-80464291D01*
X123435834Y-80588516D01*
X123435837Y-80588520D01*
X123541480Y-80694163D01*
X123541484Y-80694166D01*
X123665709Y-80777171D01*
X123665722Y-80777178D01*
X123782919Y-80825722D01*
X123803754Y-80834352D01*
X123803758Y-80834352D01*
X123803759Y-80834353D01*
X123950291Y-80863501D01*
X123950294Y-80863501D01*
X124099708Y-80863501D01*
X124198292Y-80843890D01*
X124246246Y-80834352D01*
X124298546Y-80812688D01*
X124389913Y-80774844D01*
X124390904Y-80777236D01*
X124448269Y-80765287D01*
X124513515Y-80790280D01*
X124526013Y-80801207D01*
X126599988Y-82875181D01*
X128591723Y-84866916D01*
X128724778Y-84943736D01*
X128873181Y-84983500D01*
X129026819Y-84983500D01*
X137706944Y-84983500D01*
X137773983Y-85003185D01*
X137794625Y-85019819D01*
X138705181Y-85930375D01*
X138738666Y-85991698D01*
X138741500Y-86018056D01*
X138741500Y-90545390D01*
X138721815Y-90612429D01*
X138720602Y-90614281D01*
X138652829Y-90715709D01*
X138652822Y-90715722D01*
X138595650Y-90853749D01*
X138595647Y-90853759D01*
X138566500Y-91000291D01*
X138566500Y-91000294D01*
X138566500Y-91149706D01*
X138575166Y-91193274D01*
X138575167Y-91193280D01*
X138595647Y-91296240D01*
X138595650Y-91296250D01*
X138652822Y-91434277D01*
X138652829Y-91434290D01*
X138735834Y-91558515D01*
X138735837Y-91558519D01*
X138841480Y-91664162D01*
X138841484Y-91664165D01*
X138965709Y-91747170D01*
X138965722Y-91747177D01*
X139103749Y-91804349D01*
X139103754Y-91804351D01*
X139103758Y-91804351D01*
X139103759Y-91804352D01*
X139250291Y-91833500D01*
X139250294Y-91833500D01*
X139399708Y-91833500D01*
X139499342Y-91813681D01*
X139546246Y-91804351D01*
X139684284Y-91747174D01*
X139808516Y-91664165D01*
X139914165Y-91558516D01*
X139997174Y-91434284D01*
X140003894Y-91418059D01*
X140047733Y-91363656D01*
X140114027Y-91341589D01*
X140181727Y-91358867D01*
X140229339Y-91410003D01*
X140239148Y-91443962D01*
X140240311Y-91443731D01*
X140270647Y-91596240D01*
X140270650Y-91596250D01*
X140327822Y-91734277D01*
X140327829Y-91734290D01*
X140410834Y-91858515D01*
X140410837Y-91858519D01*
X140516480Y-91964162D01*
X140516484Y-91964165D01*
X140640709Y-92047170D01*
X140640722Y-92047177D01*
X140778749Y-92104349D01*
X140778754Y-92104351D01*
X140778758Y-92104351D01*
X140778759Y-92104352D01*
X140925291Y-92133500D01*
X140925294Y-92133500D01*
X141074708Y-92133500D01*
X141173292Y-92113889D01*
X141221246Y-92104351D01*
X141358480Y-92047507D01*
X141359277Y-92047177D01*
X141359277Y-92047176D01*
X141359284Y-92047174D01*
X141483516Y-91964165D01*
X141589165Y-91858516D01*
X141672174Y-91734284D01*
X141729351Y-91596246D01*
X141758500Y-91449706D01*
X141758500Y-91300294D01*
X141758500Y-91300291D01*
X141729352Y-91153759D01*
X141729351Y-91153758D01*
X141729351Y-91153754D01*
X141710569Y-91108410D01*
X141672177Y-91015722D01*
X141672170Y-91015709D01*
X141604398Y-90914281D01*
X141583520Y-90847603D01*
X141583500Y-90845390D01*
X141583500Y-89520365D01*
X143741500Y-89520365D01*
X143741500Y-89679634D01*
X143772568Y-89835823D01*
X143772570Y-89835831D01*
X143833517Y-89982969D01*
X143921995Y-90115387D01*
X143922001Y-90115394D01*
X144034605Y-90227998D01*
X144034612Y-90228004D01*
X144167030Y-90316482D01*
X144167031Y-90316482D01*
X144167032Y-90316483D01*
X144314169Y-90377430D01*
X144470365Y-90408499D01*
X144470369Y-90408500D01*
X144470370Y-90408500D01*
X144629631Y-90408500D01*
X144629632Y-90408499D01*
X144785831Y-90377430D01*
X144932968Y-90316483D01*
X145065389Y-90228003D01*
X145178003Y-90115389D01*
X145266483Y-89982968D01*
X145327430Y-89835831D01*
X145358500Y-89679630D01*
X145358500Y-89520370D01*
X145327430Y-89364169D01*
X145266483Y-89217032D01*
X145236507Y-89172170D01*
X145178004Y-89084612D01*
X145177998Y-89084605D01*
X145065394Y-88972001D01*
X145065387Y-88971995D01*
X144932969Y-88883517D01*
X144785831Y-88822570D01*
X144785823Y-88822568D01*
X144629634Y-88791500D01*
X144629630Y-88791500D01*
X144470370Y-88791500D01*
X144470365Y-88791500D01*
X144314176Y-88822568D01*
X144314168Y-88822570D01*
X144167030Y-88883517D01*
X144034612Y-88971995D01*
X144034605Y-88972001D01*
X143922001Y-89084605D01*
X143921995Y-89084612D01*
X143833517Y-89217030D01*
X143772570Y-89364168D01*
X143772568Y-89364176D01*
X143741500Y-89520365D01*
X141583500Y-89520365D01*
X141583500Y-85323183D01*
X141583500Y-85323181D01*
X141543735Y-85174777D01*
X141505325Y-85108250D01*
X141466916Y-85041722D01*
X139300375Y-82875181D01*
X139266890Y-82813858D01*
X139271874Y-82744166D01*
X139313746Y-82688233D01*
X139379210Y-82663816D01*
X139388056Y-82663500D01*
X141026944Y-82663500D01*
X141093983Y-82683185D01*
X141114625Y-82699819D01*
X145981722Y-87566916D01*
X145981723Y-87566917D01*
X145981725Y-87566918D01*
X146048247Y-87605323D01*
X146048249Y-87605325D01*
X146048250Y-87605325D01*
X146114777Y-87643735D01*
X146263181Y-87683500D01*
X146263184Y-87683500D01*
X159076816Y-87683500D01*
X159076819Y-87683500D01*
X159225223Y-87643735D01*
X159291750Y-87605325D01*
X159358278Y-87566916D01*
X173966916Y-72958277D01*
X174043736Y-72825222D01*
X174083500Y-72676819D01*
X174083500Y-72523180D01*
X174083500Y-58512349D01*
X174103185Y-58445310D01*
X174151207Y-58401863D01*
X174164839Y-58394918D01*
X174326372Y-58277557D01*
X174467557Y-58136372D01*
X174584918Y-57974839D01*
X174675565Y-57796935D01*
X174675566Y-57796932D01*
X174737264Y-57607045D01*
X174737264Y-57607044D01*
X174737265Y-57607041D01*
X174768500Y-57409833D01*
X174768500Y-57210167D01*
X175231500Y-57210167D01*
X175231500Y-57409832D01*
X175262735Y-57607042D01*
X175262735Y-57607045D01*
X175324433Y-57796932D01*
X175324435Y-57796935D01*
X175415082Y-57974839D01*
X175532443Y-58136372D01*
X175673628Y-58277557D01*
X175835161Y-58394918D01*
X176013065Y-58485565D01*
X176013067Y-58485566D01*
X176202955Y-58547264D01*
X176202956Y-58547264D01*
X176202959Y-58547265D01*
X176400167Y-58578500D01*
X176400168Y-58578500D01*
X176599832Y-58578500D01*
X176599833Y-58578500D01*
X176797041Y-58547265D01*
X176797044Y-58547264D01*
X176797045Y-58547264D01*
X176986932Y-58485566D01*
X176986932Y-58485565D01*
X176986935Y-58485565D01*
X177164839Y-58394918D01*
X177326372Y-58277557D01*
X177467557Y-58136372D01*
X177584918Y-57974839D01*
X177675565Y-57796935D01*
X177675566Y-57796932D01*
X177737264Y-57607045D01*
X177737264Y-57607044D01*
X177737265Y-57607041D01*
X177768500Y-57409833D01*
X177768500Y-57210167D01*
X178231500Y-57210167D01*
X178231500Y-57409832D01*
X178262735Y-57607042D01*
X178262735Y-57607045D01*
X178324433Y-57796932D01*
X178324435Y-57796935D01*
X178415082Y-57974839D01*
X178532443Y-58136372D01*
X178673628Y-58277557D01*
X178835161Y-58394918D01*
X179013065Y-58485565D01*
X179013067Y-58485566D01*
X179202955Y-58547264D01*
X179202956Y-58547264D01*
X179202959Y-58547265D01*
X179400167Y-58578500D01*
X179400168Y-58578500D01*
X179599832Y-58578500D01*
X179599833Y-58578500D01*
X179797041Y-58547265D01*
X179797044Y-58547264D01*
X179797045Y-58547264D01*
X179986932Y-58485566D01*
X179986932Y-58485565D01*
X179986935Y-58485565D01*
X180164839Y-58394918D01*
X180326372Y-58277557D01*
X180467557Y-58136372D01*
X180584918Y-57974839D01*
X180675565Y-57796935D01*
X180675566Y-57796932D01*
X180737264Y-57607045D01*
X180737264Y-57607044D01*
X180737265Y-57607041D01*
X180768500Y-57409833D01*
X180768500Y-57210167D01*
X181231500Y-57210167D01*
X181231500Y-57409832D01*
X181262735Y-57607042D01*
X181262735Y-57607045D01*
X181324433Y-57796932D01*
X181324435Y-57796935D01*
X181415082Y-57974839D01*
X181532443Y-58136372D01*
X181673628Y-58277557D01*
X181835161Y-58394918D01*
X182013065Y-58485565D01*
X182013067Y-58485566D01*
X182202955Y-58547264D01*
X182202956Y-58547264D01*
X182202959Y-58547265D01*
X182400167Y-58578500D01*
X182400168Y-58578500D01*
X182599832Y-58578500D01*
X182599833Y-58578500D01*
X182797041Y-58547265D01*
X182797044Y-58547264D01*
X182797045Y-58547264D01*
X182986932Y-58485566D01*
X182986932Y-58485565D01*
X182986935Y-58485565D01*
X183164839Y-58394918D01*
X183326372Y-58277557D01*
X183467557Y-58136372D01*
X183584918Y-57974839D01*
X183675565Y-57796935D01*
X183675566Y-57796932D01*
X183737264Y-57607045D01*
X183737264Y-57607044D01*
X183737265Y-57607041D01*
X183768500Y-57409833D01*
X183768500Y-57210167D01*
X183737265Y-57012959D01*
X183737264Y-57012955D01*
X183737264Y-57012954D01*
X183675566Y-56823067D01*
X183584917Y-56645160D01*
X183467557Y-56483628D01*
X183326372Y-56342443D01*
X183164839Y-56225082D01*
X182986932Y-56134433D01*
X182797044Y-56072735D01*
X182649135Y-56049308D01*
X182599833Y-56041500D01*
X182400167Y-56041500D01*
X182335805Y-56051694D01*
X182202957Y-56072735D01*
X182202954Y-56072735D01*
X182013067Y-56134433D01*
X181835160Y-56225082D01*
X181742999Y-56292041D01*
X181673628Y-56342443D01*
X181673626Y-56342445D01*
X181673625Y-56342445D01*
X181532445Y-56483625D01*
X181532445Y-56483626D01*
X181532443Y-56483628D01*
X181482041Y-56552999D01*
X181415082Y-56645160D01*
X181324433Y-56823067D01*
X181262735Y-57012954D01*
X181262735Y-57012957D01*
X181231500Y-57210167D01*
X180768500Y-57210167D01*
X180737265Y-57012959D01*
X180737264Y-57012955D01*
X180737264Y-57012954D01*
X180675566Y-56823067D01*
X180584917Y-56645160D01*
X180467557Y-56483628D01*
X180326372Y-56342443D01*
X180164839Y-56225082D01*
X179986932Y-56134433D01*
X179797044Y-56072735D01*
X179649135Y-56049308D01*
X179599833Y-56041500D01*
X179400167Y-56041500D01*
X179335805Y-56051694D01*
X179202957Y-56072735D01*
X179202954Y-56072735D01*
X179013067Y-56134433D01*
X178835160Y-56225082D01*
X178742999Y-56292041D01*
X178673628Y-56342443D01*
X178673626Y-56342445D01*
X178673625Y-56342445D01*
X178532445Y-56483625D01*
X178532445Y-56483626D01*
X178532443Y-56483628D01*
X178482041Y-56552999D01*
X178415082Y-56645160D01*
X178324433Y-56823067D01*
X178262735Y-57012954D01*
X178262735Y-57012957D01*
X178231500Y-57210167D01*
X177768500Y-57210167D01*
X177737265Y-57012959D01*
X177737264Y-57012955D01*
X177737264Y-57012954D01*
X177675566Y-56823067D01*
X177584917Y-56645160D01*
X177467557Y-56483628D01*
X177326372Y-56342443D01*
X177164839Y-56225082D01*
X176986932Y-56134433D01*
X176797044Y-56072735D01*
X176649135Y-56049308D01*
X176599833Y-56041500D01*
X176400167Y-56041500D01*
X176335805Y-56051694D01*
X176202957Y-56072735D01*
X176202954Y-56072735D01*
X176013067Y-56134433D01*
X175835160Y-56225082D01*
X175742999Y-56292041D01*
X175673628Y-56342443D01*
X175673626Y-56342445D01*
X175673625Y-56342445D01*
X175532445Y-56483625D01*
X175532445Y-56483626D01*
X175532443Y-56483628D01*
X175482041Y-56552999D01*
X175415082Y-56645160D01*
X175324433Y-56823067D01*
X175262735Y-57012954D01*
X175262735Y-57012957D01*
X175231500Y-57210167D01*
X174768500Y-57210167D01*
X174737265Y-57012959D01*
X174737264Y-57012955D01*
X174737264Y-57012954D01*
X174675566Y-56823067D01*
X174584917Y-56645160D01*
X174467557Y-56483628D01*
X174326372Y-56342443D01*
X174164839Y-56225082D01*
X173986932Y-56134433D01*
X173797044Y-56072735D01*
X173649135Y-56049308D01*
X173599833Y-56041500D01*
X173400167Y-56041500D01*
X173335805Y-56051694D01*
X173202957Y-56072735D01*
X173202954Y-56072735D01*
X173013067Y-56134433D01*
X172835160Y-56225082D01*
X172742999Y-56292041D01*
X172673628Y-56342443D01*
X172673626Y-56342445D01*
X172673625Y-56342445D01*
X172532445Y-56483625D01*
X172532445Y-56483626D01*
X172532443Y-56483628D01*
X172482041Y-56552999D01*
X172415082Y-56645160D01*
X172324433Y-56823067D01*
X172262735Y-57012954D01*
X172262735Y-57012957D01*
X172231500Y-57210167D01*
X172231500Y-57409832D01*
X172262735Y-57607042D01*
X172262735Y-57607045D01*
X172324433Y-57796932D01*
X172324435Y-57796935D01*
X172415082Y-57974839D01*
X172532443Y-58136372D01*
X172673628Y-58277557D01*
X172777685Y-58353159D01*
X172835159Y-58394917D01*
X172835161Y-58394918D01*
X172848792Y-58401863D01*
X172899589Y-58449835D01*
X172916500Y-58512349D01*
X172916500Y-72306944D01*
X172896815Y-72373983D01*
X172880181Y-72394625D01*
X158794625Y-86480181D01*
X158733302Y-86513666D01*
X158706944Y-86516500D01*
X146633056Y-86516500D01*
X146566017Y-86496815D01*
X146545375Y-86480181D01*
X146220551Y-86155357D01*
X146187066Y-86094034D01*
X146192050Y-86024342D01*
X146233922Y-85968409D01*
X146299386Y-85943992D01*
X146340320Y-85947900D01*
X146473181Y-85983500D01*
X146473183Y-85983500D01*
X158176816Y-85983500D01*
X158176819Y-85983500D01*
X158325223Y-85943735D01*
X158399734Y-85900716D01*
X158458278Y-85866916D01*
X170966916Y-73358278D01*
X171042986Y-73226518D01*
X171043004Y-73226501D01*
X171042999Y-73226498D01*
X171043732Y-73225228D01*
X171043731Y-73225228D01*
X171043735Y-73225223D01*
X171083500Y-73076819D01*
X171083500Y-58512349D01*
X171103185Y-58445310D01*
X171151207Y-58401863D01*
X171164839Y-58394918D01*
X171326372Y-58277557D01*
X171467557Y-58136372D01*
X171584918Y-57974839D01*
X171675565Y-57796935D01*
X171675566Y-57796932D01*
X171737264Y-57607045D01*
X171737264Y-57607044D01*
X171737265Y-57607041D01*
X171768500Y-57409833D01*
X171768500Y-57210167D01*
X171737265Y-57012959D01*
X171737264Y-57012955D01*
X171737264Y-57012954D01*
X171675566Y-56823067D01*
X171584917Y-56645160D01*
X171467557Y-56483628D01*
X171326372Y-56342443D01*
X171164839Y-56225082D01*
X170986932Y-56134433D01*
X170797044Y-56072735D01*
X170649135Y-56049308D01*
X170599833Y-56041500D01*
X170400167Y-56041500D01*
X170335805Y-56051694D01*
X170202957Y-56072735D01*
X170202954Y-56072735D01*
X170013067Y-56134433D01*
X169835160Y-56225082D01*
X169742999Y-56292041D01*
X169673628Y-56342443D01*
X169673626Y-56342445D01*
X169673625Y-56342445D01*
X169532445Y-56483625D01*
X169532445Y-56483626D01*
X169532443Y-56483628D01*
X169482041Y-56552999D01*
X169415082Y-56645160D01*
X169324433Y-56823067D01*
X169262735Y-57012954D01*
X169262735Y-57012957D01*
X169231500Y-57210167D01*
X169231500Y-57409832D01*
X169262735Y-57607042D01*
X169262735Y-57607045D01*
X169324433Y-57796932D01*
X169324435Y-57796935D01*
X169415082Y-57974839D01*
X169532443Y-58136372D01*
X169673628Y-58277557D01*
X169777685Y-58353159D01*
X169835159Y-58394917D01*
X169835161Y-58394918D01*
X169848792Y-58401863D01*
X169899589Y-58449835D01*
X169916500Y-58512349D01*
X169916500Y-72706944D01*
X169896815Y-72773983D01*
X169880181Y-72794625D01*
X157894625Y-84780181D01*
X157833302Y-84813666D01*
X157806944Y-84816500D01*
X146843055Y-84816500D01*
X146776016Y-84796815D01*
X146755374Y-84780181D01*
X144585340Y-82610147D01*
X142395778Y-80420584D01*
X142287245Y-80357923D01*
X142262723Y-80343765D01*
X142114319Y-80304000D01*
X142114316Y-80304000D01*
X131755556Y-80304000D01*
X131688517Y-80284315D01*
X131667875Y-80267681D01*
X130812087Y-79411893D01*
X130778602Y-79350570D01*
X130778151Y-79348403D01*
X130770383Y-79309351D01*
X130754351Y-79228754D01*
X130729669Y-79169165D01*
X130697177Y-79090722D01*
X130697170Y-79090709D01*
X130614165Y-78966484D01*
X130614162Y-78966480D01*
X130508519Y-78860837D01*
X130508515Y-78860834D01*
X130384290Y-78777829D01*
X130384277Y-78777822D01*
X130246250Y-78720650D01*
X130246240Y-78720647D01*
X130099708Y-78691500D01*
X130099706Y-78691500D01*
X129950294Y-78691500D01*
X129950292Y-78691500D01*
X129803759Y-78720647D01*
X129803749Y-78720650D01*
X129665722Y-78777822D01*
X129665709Y-78777829D01*
X129541484Y-78860834D01*
X129541480Y-78860837D01*
X129435837Y-78966480D01*
X129435834Y-78966484D01*
X129352829Y-79090709D01*
X129352822Y-79090722D01*
X129295650Y-79228749D01*
X129295647Y-79228759D01*
X129266500Y-79375291D01*
X129266500Y-79524710D01*
X129296402Y-79675038D01*
X129290175Y-79744630D01*
X129247312Y-79799807D01*
X129181422Y-79823051D01*
X129113425Y-79806983D01*
X129087104Y-79786910D01*
X127684902Y-78384708D01*
X136551499Y-78384708D01*
X136580647Y-78531240D01*
X136580650Y-78531250D01*
X136637822Y-78669277D01*
X136637829Y-78669290D01*
X136720834Y-78793515D01*
X136720837Y-78793519D01*
X136826480Y-78899162D01*
X136826484Y-78899165D01*
X136950709Y-78982170D01*
X136950722Y-78982177D01*
X137088749Y-79039349D01*
X137088754Y-79039351D01*
X137088758Y-79039351D01*
X137088759Y-79039352D01*
X137235291Y-79068500D01*
X137235294Y-79068500D01*
X137384708Y-79068500D01*
X137483292Y-79048889D01*
X137531246Y-79039351D01*
X137669284Y-78982174D01*
X137793516Y-78899165D01*
X137899165Y-78793516D01*
X137982174Y-78669284D01*
X138039351Y-78531246D01*
X138068500Y-78384706D01*
X138068500Y-78235294D01*
X138068500Y-78235291D01*
X138039352Y-78088759D01*
X138039351Y-78088758D01*
X138039351Y-78088754D01*
X138023460Y-78050390D01*
X137982177Y-77950722D01*
X137982170Y-77950709D01*
X137899165Y-77826484D01*
X137899162Y-77826480D01*
X137793519Y-77720837D01*
X137793515Y-77720834D01*
X137669290Y-77637829D01*
X137669277Y-77637822D01*
X137531250Y-77580650D01*
X137531240Y-77580647D01*
X137384708Y-77551500D01*
X137384706Y-77551500D01*
X137235294Y-77551500D01*
X137235292Y-77551500D01*
X137088759Y-77580647D01*
X137088749Y-77580650D01*
X136950722Y-77637822D01*
X136950709Y-77637829D01*
X136826484Y-77720834D01*
X136826480Y-77720837D01*
X136720837Y-77826480D01*
X136720834Y-77826484D01*
X136637829Y-77950709D01*
X136637822Y-77950722D01*
X136580650Y-78088749D01*
X136580647Y-78088759D01*
X136551500Y-78235291D01*
X136551500Y-78235294D01*
X136551500Y-78384706D01*
X136551500Y-78384708D01*
X136551499Y-78384708D01*
X127684902Y-78384708D01*
X126700559Y-77400365D01*
X127701500Y-77400365D01*
X127701500Y-77559634D01*
X127732568Y-77715823D01*
X127732570Y-77715831D01*
X127793517Y-77862969D01*
X127881995Y-77995387D01*
X127882001Y-77995394D01*
X127994605Y-78107998D01*
X127994612Y-78108004D01*
X128127030Y-78196482D01*
X128127031Y-78196482D01*
X128127032Y-78196483D01*
X128274169Y-78257430D01*
X128430365Y-78288499D01*
X128430369Y-78288500D01*
X128430370Y-78288500D01*
X128589631Y-78288500D01*
X128589632Y-78288499D01*
X128745831Y-78257430D01*
X128892968Y-78196483D01*
X129025389Y-78108003D01*
X129138003Y-77995389D01*
X129226483Y-77862968D01*
X129287430Y-77715831D01*
X129318500Y-77559630D01*
X129318500Y-77400370D01*
X129287430Y-77244169D01*
X129226483Y-77097032D01*
X129224692Y-77094352D01*
X129138004Y-76964612D01*
X129137998Y-76964605D01*
X129025394Y-76852001D01*
X129025387Y-76851995D01*
X128892969Y-76763517D01*
X128745831Y-76702570D01*
X128745823Y-76702568D01*
X128589634Y-76671500D01*
X128589630Y-76671500D01*
X128430370Y-76671500D01*
X128430365Y-76671500D01*
X128274176Y-76702568D01*
X128274168Y-76702570D01*
X128127030Y-76763517D01*
X127994612Y-76851995D01*
X127994605Y-76852001D01*
X127882001Y-76964605D01*
X127881995Y-76964612D01*
X127793517Y-77097030D01*
X127732570Y-77244168D01*
X127732568Y-77244176D01*
X127701500Y-77400365D01*
X126700559Y-77400365D01*
X125739902Y-76439708D01*
X134481499Y-76439708D01*
X134510647Y-76586240D01*
X134510650Y-76586250D01*
X134567822Y-76724277D01*
X134567829Y-76724290D01*
X134650834Y-76848515D01*
X134650837Y-76848519D01*
X134756480Y-76954162D01*
X134756484Y-76954165D01*
X134880709Y-77037170D01*
X134880722Y-77037177D01*
X135008252Y-77090001D01*
X135018754Y-77094351D01*
X135018758Y-77094351D01*
X135018759Y-77094352D01*
X135165291Y-77123500D01*
X135165294Y-77123500D01*
X135314708Y-77123500D01*
X135413292Y-77103889D01*
X135461246Y-77094351D01*
X135471748Y-77090001D01*
X151531450Y-77090001D01*
X151531450Y-79490002D01*
X151534389Y-79544868D01*
X151534390Y-79544874D01*
X151570529Y-79686482D01*
X151570532Y-79686494D01*
X151572011Y-79690065D01*
X151602403Y-79745723D01*
X151624640Y-79786447D01*
X151724239Y-79893415D01*
X151849939Y-79967990D01*
X151853510Y-79969469D01*
X151958808Y-80000388D01*
X152104872Y-80005610D01*
X152246490Y-79969469D01*
X152250061Y-79967990D01*
X152299665Y-79944259D01*
X152416670Y-79856670D01*
X154816670Y-77456670D01*
X154853415Y-77415761D01*
X154927990Y-77290061D01*
X154929469Y-77286490D01*
X154960388Y-77181192D01*
X154965610Y-77035128D01*
X154929469Y-76893510D01*
X154927990Y-76889939D01*
X154927988Y-76889934D01*
X154875361Y-76793555D01*
X154875360Y-76793553D01*
X154775761Y-76686585D01*
X154650061Y-76612010D01*
X154649253Y-76611675D01*
X154646489Y-76610530D01*
X154612950Y-76598698D01*
X154594670Y-76592250D01*
X154450000Y-76571450D01*
X154449998Y-76571450D01*
X153682500Y-76571450D01*
X153615461Y-76551765D01*
X153569706Y-76498961D01*
X153558500Y-76447450D01*
X153558500Y-76385520D01*
X153558499Y-76385516D01*
X153523588Y-76210007D01*
X153523587Y-76210000D01*
X153455102Y-76044664D01*
X153455100Y-76044661D01*
X153455098Y-76044657D01*
X153355678Y-75895865D01*
X153355675Y-75895861D01*
X153229138Y-75769324D01*
X153229134Y-75769321D01*
X153080342Y-75669901D01*
X153080332Y-75669896D01*
X152915000Y-75601413D01*
X152914992Y-75601411D01*
X152739483Y-75566500D01*
X152739479Y-75566500D01*
X152560521Y-75566500D01*
X152560516Y-75566500D01*
X152385007Y-75601411D01*
X152384999Y-75601413D01*
X152219667Y-75669896D01*
X152219657Y-75669901D01*
X152070865Y-75769321D01*
X152070861Y-75769324D01*
X151944324Y-75895861D01*
X151944321Y-75895865D01*
X151844901Y-76044657D01*
X151844896Y-76044667D01*
X151776413Y-76209999D01*
X151776411Y-76210007D01*
X151741500Y-76385516D01*
X151741500Y-76564477D01*
X151746703Y-76590637D01*
X151740474Y-76660229D01*
X151709585Y-76705578D01*
X151646587Y-76764236D01*
X151646583Y-76764242D01*
X151572011Y-76889936D01*
X151570530Y-76893510D01*
X151552250Y-76945330D01*
X151531450Y-77090001D01*
X135471748Y-77090001D01*
X135599284Y-77037174D01*
X135617013Y-77025328D01*
X135681157Y-76982469D01*
X135705407Y-76966265D01*
X135723516Y-76954165D01*
X135829165Y-76848516D01*
X135912174Y-76724284D01*
X135969351Y-76586246D01*
X135998500Y-76439706D01*
X135998500Y-76290294D01*
X135998500Y-76290291D01*
X135969352Y-76143759D01*
X135969351Y-76143758D01*
X135969351Y-76143754D01*
X135928304Y-76044657D01*
X135912177Y-76005722D01*
X135912170Y-76005709D01*
X135829165Y-75881484D01*
X135829162Y-75881480D01*
X135723519Y-75775837D01*
X135723515Y-75775834D01*
X135599290Y-75692829D01*
X135599277Y-75692822D01*
X135461250Y-75635650D01*
X135461240Y-75635647D01*
X135314708Y-75606500D01*
X135314706Y-75606500D01*
X135165294Y-75606500D01*
X135165292Y-75606500D01*
X135018759Y-75635647D01*
X135018749Y-75635650D01*
X134880722Y-75692822D01*
X134880709Y-75692829D01*
X134756484Y-75775834D01*
X134756480Y-75775837D01*
X134650837Y-75881480D01*
X134650834Y-75881484D01*
X134567829Y-76005709D01*
X134567822Y-76005722D01*
X134510650Y-76143749D01*
X134510647Y-76143759D01*
X134481500Y-76290291D01*
X134481500Y-76290294D01*
X134481500Y-76439706D01*
X134481500Y-76439708D01*
X134481499Y-76439708D01*
X125739902Y-76439708D01*
X124633279Y-75333085D01*
X124633278Y-75333084D01*
X124541915Y-75280336D01*
X124541914Y-75280335D01*
X124500228Y-75256267D01*
X124500227Y-75256266D01*
X124488057Y-75253005D01*
X124351819Y-75216500D01*
X119898181Y-75216500D01*
X119793863Y-75244451D01*
X119749772Y-75256266D01*
X119749771Y-75256267D01*
X119708086Y-75280335D01*
X119708085Y-75280336D01*
X119708075Y-75280342D01*
X119616723Y-75333083D01*
X119616720Y-75333085D01*
X117963083Y-76986722D01*
X117940796Y-77025327D01*
X117940795Y-77025328D01*
X117886266Y-77119774D01*
X117886265Y-77119775D01*
X117877975Y-77150716D01*
X117846500Y-77268181D01*
X117846500Y-77268183D01*
X117846500Y-78050390D01*
X117826815Y-78117429D01*
X117825602Y-78119281D01*
X117757829Y-78220709D01*
X117757822Y-78220722D01*
X117700650Y-78358749D01*
X117700647Y-78358759D01*
X117671500Y-78505291D01*
X117671500Y-78505294D01*
X117671500Y-78654706D01*
X117671500Y-78654708D01*
X117671499Y-78654708D01*
X111000500Y-78654708D01*
X111000500Y-74760516D01*
X159916500Y-74760516D01*
X159916500Y-74939483D01*
X159951411Y-75114992D01*
X159951413Y-75115000D01*
X160019896Y-75280332D01*
X160019901Y-75280342D01*
X160119321Y-75429134D01*
X160119324Y-75429138D01*
X160245861Y-75555675D01*
X160245865Y-75555678D01*
X160394657Y-75655098D01*
X160394661Y-75655100D01*
X160394664Y-75655102D01*
X160560000Y-75723587D01*
X160735516Y-75758499D01*
X160735520Y-75758500D01*
X160735521Y-75758500D01*
X160914480Y-75758500D01*
X160914481Y-75758499D01*
X161090000Y-75723587D01*
X161255336Y-75655102D01*
X161404135Y-75555678D01*
X161530678Y-75429135D01*
X161630102Y-75280336D01*
X161698587Y-75115000D01*
X161733500Y-74939479D01*
X161733500Y-74760521D01*
X161698587Y-74585000D01*
X161630102Y-74419664D01*
X161630100Y-74419661D01*
X161630098Y-74419657D01*
X161530678Y-74270865D01*
X161530675Y-74270861D01*
X161404138Y-74144324D01*
X161404134Y-74144321D01*
X161255342Y-74044901D01*
X161255332Y-74044896D01*
X161090000Y-73976413D01*
X161089992Y-73976411D01*
X160914483Y-73941500D01*
X160914479Y-73941500D01*
X160735521Y-73941500D01*
X160735516Y-73941500D01*
X160560007Y-73976411D01*
X160559999Y-73976413D01*
X160394667Y-74044896D01*
X160394657Y-74044901D01*
X160245865Y-74144321D01*
X160245861Y-74144324D01*
X160119324Y-74270861D01*
X160119321Y-74270865D01*
X160019901Y-74419657D01*
X160019896Y-74419667D01*
X159951413Y-74584999D01*
X159951411Y-74585007D01*
X159916500Y-74760516D01*
X111000500Y-74760516D01*
X111000500Y-72789708D01*
X136266499Y-72789708D01*
X136295647Y-72936240D01*
X136295650Y-72936250D01*
X136352822Y-73074277D01*
X136352829Y-73074290D01*
X136435834Y-73198515D01*
X136435837Y-73198519D01*
X136541480Y-73304162D01*
X136541484Y-73304165D01*
X136665709Y-73387170D01*
X136665722Y-73387177D01*
X136803749Y-73444349D01*
X136803754Y-73444351D01*
X136803758Y-73444351D01*
X136803759Y-73444352D01*
X136950291Y-73473500D01*
X136950294Y-73473500D01*
X137099708Y-73473500D01*
X137208717Y-73451816D01*
X137246246Y-73444351D01*
X137384284Y-73387174D01*
X137508516Y-73304165D01*
X137614165Y-73198516D01*
X137697174Y-73074284D01*
X137754351Y-72936246D01*
X137776435Y-72825223D01*
X137783500Y-72789708D01*
X137783500Y-72640291D01*
X137754352Y-72493759D01*
X137754351Y-72493758D01*
X137754351Y-72493754D01*
X137713291Y-72394625D01*
X137697177Y-72355722D01*
X137697170Y-72355709D01*
X137614165Y-72231484D01*
X137614162Y-72231480D01*
X137508519Y-72125837D01*
X137508515Y-72125834D01*
X137384290Y-72042829D01*
X137384277Y-72042822D01*
X137246250Y-71985650D01*
X137246240Y-71985647D01*
X137099708Y-71956500D01*
X137099706Y-71956500D01*
X136950294Y-71956500D01*
X136950292Y-71956500D01*
X136803759Y-71985647D01*
X136803749Y-71985650D01*
X136665722Y-72042822D01*
X136665709Y-72042829D01*
X136541484Y-72125834D01*
X136541480Y-72125837D01*
X136435837Y-72231480D01*
X136435834Y-72231484D01*
X136352829Y-72355709D01*
X136352822Y-72355722D01*
X136295650Y-72493749D01*
X136295647Y-72493759D01*
X136266500Y-72640291D01*
X136266500Y-72640294D01*
X136266500Y-72789706D01*
X136266500Y-72789708D01*
X136266499Y-72789708D01*
X111000500Y-72789708D01*
X111000500Y-67160516D01*
X161641500Y-67160516D01*
X161641500Y-67339483D01*
X161676411Y-67514992D01*
X161676414Y-67515004D01*
X161723031Y-67627548D01*
X161730500Y-67697017D01*
X161723031Y-67722452D01*
X161676414Y-67834995D01*
X161676411Y-67835007D01*
X161641500Y-68010516D01*
X161641500Y-68189483D01*
X161676411Y-68364992D01*
X161676413Y-68365000D01*
X161744896Y-68530332D01*
X161744901Y-68530342D01*
X161844321Y-68679134D01*
X161844324Y-68679138D01*
X161970861Y-68805675D01*
X161970865Y-68805678D01*
X162119657Y-68905098D01*
X162119661Y-68905100D01*
X162119664Y-68905102D01*
X162285000Y-68973587D01*
X162460516Y-69008499D01*
X162460520Y-69008500D01*
X162460521Y-69008500D01*
X162639480Y-69008500D01*
X162639481Y-69008499D01*
X162815000Y-68973587D01*
X162927550Y-68926966D01*
X162997015Y-68919498D01*
X163022442Y-68926963D01*
X163135000Y-68973587D01*
X163310516Y-69008499D01*
X163310520Y-69008500D01*
X163310521Y-69008500D01*
X163489480Y-69008500D01*
X163489481Y-69008499D01*
X163665000Y-68973587D01*
X163830336Y-68905102D01*
X163979135Y-68805678D01*
X164105678Y-68679135D01*
X164205102Y-68530336D01*
X164273587Y-68365000D01*
X164308500Y-68189479D01*
X164308500Y-68010521D01*
X164273587Y-67835000D01*
X164226966Y-67722449D01*
X164219498Y-67652985D01*
X164226963Y-67627557D01*
X164273587Y-67515000D01*
X164308500Y-67339479D01*
X164308500Y-67160521D01*
X164273587Y-66985000D01*
X164205102Y-66819664D01*
X164205100Y-66819661D01*
X164205098Y-66819657D01*
X164105678Y-66670865D01*
X164105675Y-66670861D01*
X163979138Y-66544324D01*
X163979134Y-66544321D01*
X163830342Y-66444901D01*
X163830332Y-66444896D01*
X163665000Y-66376413D01*
X163664992Y-66376411D01*
X163489483Y-66341500D01*
X163489479Y-66341500D01*
X163310521Y-66341500D01*
X163310516Y-66341500D01*
X163135007Y-66376411D01*
X163134995Y-66376414D01*
X163022452Y-66423031D01*
X162952983Y-66430500D01*
X162927548Y-66423031D01*
X162815004Y-66376414D01*
X162814992Y-66376411D01*
X162639483Y-66341500D01*
X162639479Y-66341500D01*
X162460521Y-66341500D01*
X162460516Y-66341500D01*
X162285007Y-66376411D01*
X162284999Y-66376413D01*
X162119667Y-66444896D01*
X162119657Y-66444901D01*
X161970865Y-66544321D01*
X161970861Y-66544324D01*
X161844324Y-66670861D01*
X161844321Y-66670865D01*
X161744901Y-66819657D01*
X161744896Y-66819667D01*
X161676413Y-66984999D01*
X161676411Y-66985007D01*
X161641500Y-67160516D01*
X111000500Y-67160516D01*
X111000500Y-64741868D01*
X111000207Y-64741575D01*
X103771457Y-64741575D01*
X103704418Y-64721890D01*
X103683911Y-64705391D01*
X102036954Y-63063509D01*
X102003375Y-63002238D01*
X102000500Y-62975693D01*
X102000500Y-57200516D01*
X104466500Y-57200516D01*
X104466500Y-57379483D01*
X104501411Y-57554992D01*
X104501413Y-57555000D01*
X104569896Y-57720332D01*
X104569901Y-57720342D01*
X104669321Y-57869134D01*
X104669324Y-57869138D01*
X104795861Y-57995675D01*
X104795865Y-57995678D01*
X104944657Y-58095098D01*
X104944661Y-58095100D01*
X104944664Y-58095102D01*
X105110000Y-58163587D01*
X105285516Y-58198499D01*
X105285520Y-58198500D01*
X105285521Y-58198500D01*
X105464480Y-58198500D01*
X105464481Y-58198499D01*
X105640000Y-58163587D01*
X105805336Y-58095102D01*
X105954135Y-57995678D01*
X106080678Y-57869135D01*
X106180102Y-57720336D01*
X106248587Y-57555000D01*
X106283500Y-57379479D01*
X106283500Y-57200521D01*
X106248587Y-57025000D01*
X106180102Y-56859664D01*
X106180100Y-56859661D01*
X106180098Y-56859657D01*
X106080678Y-56710865D01*
X106080675Y-56710861D01*
X105954138Y-56584324D01*
X105954134Y-56584321D01*
X105805342Y-56484901D01*
X105805332Y-56484896D01*
X105640000Y-56416413D01*
X105639992Y-56416411D01*
X105464483Y-56381500D01*
X105464479Y-56381500D01*
X105285521Y-56381500D01*
X105285516Y-56381500D01*
X105110007Y-56416411D01*
X105109999Y-56416413D01*
X104944667Y-56484896D01*
X104944657Y-56484901D01*
X104795865Y-56584321D01*
X104795861Y-56584324D01*
X104669324Y-56710861D01*
X104669321Y-56710865D01*
X104569901Y-56859657D01*
X104569896Y-56859667D01*
X104501413Y-57024999D01*
X104501411Y-57025007D01*
X104466500Y-57200516D01*
X102000500Y-57200516D01*
X102000500Y-51503051D01*
X102000649Y-51496967D01*
X102002042Y-51468607D01*
X102015574Y-51193147D01*
X102016099Y-51186343D01*
X102023372Y-51117139D01*
X102024020Y-51112025D01*
X102063409Y-50846485D01*
X102064757Y-50839010D01*
X102078089Y-50776289D01*
X102079050Y-50772133D01*
X102145828Y-50505541D01*
X102148165Y-50497410D01*
X102164658Y-50446651D01*
X102165774Y-50443380D01*
X102262190Y-50173915D01*
X102265631Y-50165331D01*
X102279392Y-50134423D01*
X102280498Y-50132013D01*
X102411126Y-49855824D01*
X102416838Y-49845139D01*
X102587145Y-49560998D01*
X102593032Y-49552189D01*
X109486500Y-49552189D01*
X109486500Y-61947815D01*
X109489438Y-62002666D01*
X109492322Y-62029489D01*
X109492322Y-62029494D01*
X109501113Y-62083741D01*
X109501118Y-62083759D01*
X109552188Y-62220681D01*
X109552196Y-62220698D01*
X109586214Y-62282995D01*
X109586216Y-62282999D01*
X109586220Y-62283005D01*
X109673806Y-62400004D01*
X109673810Y-62400008D01*
X109673815Y-62400014D01*
X110349981Y-63076180D01*
X110349990Y-63076188D01*
X110349996Y-63076194D01*
X110389598Y-63111768D01*
X110390887Y-63112926D01*
X110401050Y-63121115D01*
X110411851Y-63129820D01*
X110456451Y-63161982D01*
X110456455Y-63161983D01*
X110456459Y-63161986D01*
X110589394Y-63222696D01*
X110589398Y-63222697D01*
X110589400Y-63222698D01*
X110657521Y-63242700D01*
X110802190Y-63263500D01*
X110802193Y-63263500D01*
X119197815Y-63263500D01*
X119252666Y-63260561D01*
X119252677Y-63260559D01*
X119252692Y-63260559D01*
X119279475Y-63257680D01*
X119279494Y-63257677D01*
X119333741Y-63248886D01*
X119333742Y-63248885D01*
X119333752Y-63248884D01*
X119403957Y-63222698D01*
X119470681Y-63197811D01*
X119470686Y-63197808D01*
X119470693Y-63197806D01*
X119533005Y-63163780D01*
X119650004Y-63076194D01*
X120326194Y-62400004D01*
X120362917Y-62359123D01*
X120379820Y-62338149D01*
X120411982Y-62293549D01*
X120472698Y-62160600D01*
X120492700Y-62092479D01*
X120513500Y-61947810D01*
X120513500Y-59924708D01*
X157041499Y-59924708D01*
X157070647Y-60071240D01*
X157070650Y-60071250D01*
X157127822Y-60209277D01*
X157127829Y-60209290D01*
X157210834Y-60333515D01*
X157210837Y-60333519D01*
X157316480Y-60439162D01*
X157316484Y-60439165D01*
X157440709Y-60522170D01*
X157440722Y-60522177D01*
X157578749Y-60579349D01*
X157578754Y-60579351D01*
X157578758Y-60579351D01*
X157578759Y-60579352D01*
X157725291Y-60608500D01*
X157725294Y-60608500D01*
X157874708Y-60608500D01*
X157973292Y-60588889D01*
X158021246Y-60579351D01*
X158159284Y-60522174D01*
X158283516Y-60439165D01*
X158389165Y-60333516D01*
X158472174Y-60209284D01*
X158529351Y-60071246D01*
X158558500Y-59924706D01*
X158558500Y-59775294D01*
X158558500Y-59775291D01*
X158529352Y-59628759D01*
X158529351Y-59628758D01*
X158529351Y-59628754D01*
X158529349Y-59628749D01*
X158472177Y-59490722D01*
X158472170Y-59490709D01*
X158389165Y-59366484D01*
X158389162Y-59366480D01*
X158283519Y-59260837D01*
X158283515Y-59260834D01*
X158159290Y-59177829D01*
X158159277Y-59177822D01*
X158021250Y-59120650D01*
X158021240Y-59120647D01*
X157874708Y-59091500D01*
X157874706Y-59091500D01*
X157725294Y-59091500D01*
X157725292Y-59091500D01*
X157578759Y-59120647D01*
X157578749Y-59120650D01*
X157440722Y-59177822D01*
X157440709Y-59177829D01*
X157316484Y-59260834D01*
X157316480Y-59260837D01*
X157210837Y-59366480D01*
X157210834Y-59366484D01*
X157127829Y-59490709D01*
X157127822Y-59490722D01*
X157070650Y-59628749D01*
X157070647Y-59628759D01*
X157041500Y-59775291D01*
X157041500Y-59775294D01*
X157041500Y-59924706D01*
X157041500Y-59924708D01*
X157041499Y-59924708D01*
X120513500Y-59924708D01*
X120513500Y-57210167D01*
X166231500Y-57210167D01*
X166231500Y-57409832D01*
X166262735Y-57607042D01*
X166262735Y-57607045D01*
X166324433Y-57796932D01*
X166324435Y-57796935D01*
X166415082Y-57974839D01*
X166532443Y-58136372D01*
X166673628Y-58277557D01*
X166835161Y-58394918D01*
X167013065Y-58485565D01*
X167013067Y-58485566D01*
X167202955Y-58547264D01*
X167202956Y-58547264D01*
X167202959Y-58547265D01*
X167400167Y-58578500D01*
X167400168Y-58578500D01*
X167599832Y-58578500D01*
X167599833Y-58578500D01*
X167797041Y-58547265D01*
X167797044Y-58547264D01*
X167797045Y-58547264D01*
X167986932Y-58485566D01*
X167986932Y-58485565D01*
X167986935Y-58485565D01*
X168164839Y-58394918D01*
X168326372Y-58277557D01*
X168467557Y-58136372D01*
X168584918Y-57974839D01*
X168675565Y-57796935D01*
X168675566Y-57796932D01*
X168737264Y-57607045D01*
X168737264Y-57607044D01*
X168737265Y-57607041D01*
X168768500Y-57409833D01*
X168768500Y-57210167D01*
X168737265Y-57012959D01*
X168737264Y-57012955D01*
X168737264Y-57012954D01*
X168675566Y-56823067D01*
X168584917Y-56645160D01*
X168467557Y-56483628D01*
X168326372Y-56342443D01*
X168164839Y-56225082D01*
X167986932Y-56134433D01*
X167797044Y-56072735D01*
X167649135Y-56049308D01*
X167599833Y-56041500D01*
X167400167Y-56041500D01*
X167335805Y-56051694D01*
X167202957Y-56072735D01*
X167202954Y-56072735D01*
X167013067Y-56134433D01*
X166835160Y-56225082D01*
X166742999Y-56292041D01*
X166673628Y-56342443D01*
X166673626Y-56342445D01*
X166673625Y-56342445D01*
X166532445Y-56483625D01*
X166532445Y-56483626D01*
X166532443Y-56483628D01*
X166482041Y-56552999D01*
X166415082Y-56645160D01*
X166324433Y-56823067D01*
X166262735Y-57012954D01*
X166262735Y-57012957D01*
X166231500Y-57210167D01*
X120513500Y-57210167D01*
X120513500Y-54210167D01*
X169231500Y-54210167D01*
X169231500Y-54409832D01*
X169262735Y-54607042D01*
X169262735Y-54607045D01*
X169324433Y-54796932D01*
X169324435Y-54796935D01*
X169415082Y-54974839D01*
X169532443Y-55136372D01*
X169673628Y-55277557D01*
X169835161Y-55394918D01*
X169959947Y-55458500D01*
X170013067Y-55485566D01*
X170202955Y-55547264D01*
X170202956Y-55547264D01*
X170202959Y-55547265D01*
X170400167Y-55578500D01*
X170400168Y-55578500D01*
X170599832Y-55578500D01*
X170599833Y-55578500D01*
X170797041Y-55547265D01*
X170797044Y-55547264D01*
X170797045Y-55547264D01*
X170986932Y-55485566D01*
X170986932Y-55485565D01*
X170986935Y-55485565D01*
X171164839Y-55394918D01*
X171326372Y-55277557D01*
X171467557Y-55136372D01*
X171584918Y-54974839D01*
X171675565Y-54796935D01*
X171675566Y-54796932D01*
X171737264Y-54607045D01*
X171737264Y-54607044D01*
X171737265Y-54607041D01*
X171768500Y-54409833D01*
X171768500Y-54210167D01*
X172231500Y-54210167D01*
X172231500Y-54409832D01*
X172262735Y-54607042D01*
X172262735Y-54607045D01*
X172324433Y-54796932D01*
X172324435Y-54796935D01*
X172415082Y-54974839D01*
X172532443Y-55136372D01*
X172673628Y-55277557D01*
X172835161Y-55394918D01*
X172959947Y-55458500D01*
X173013067Y-55485566D01*
X173202955Y-55547264D01*
X173202956Y-55547264D01*
X173202959Y-55547265D01*
X173400167Y-55578500D01*
X173400168Y-55578500D01*
X173599832Y-55578500D01*
X173599833Y-55578500D01*
X173797041Y-55547265D01*
X173797044Y-55547264D01*
X173797045Y-55547264D01*
X173986932Y-55485566D01*
X173986932Y-55485565D01*
X173986935Y-55485565D01*
X174164839Y-55394918D01*
X174326372Y-55277557D01*
X174467557Y-55136372D01*
X174584918Y-54974839D01*
X174675565Y-54796935D01*
X174675566Y-54796932D01*
X174737264Y-54607045D01*
X174737264Y-54607044D01*
X174737265Y-54607041D01*
X174768500Y-54409833D01*
X174768500Y-54210167D01*
X175231500Y-54210167D01*
X175231500Y-54409832D01*
X175262735Y-54607042D01*
X175262735Y-54607045D01*
X175324433Y-54796932D01*
X175324435Y-54796935D01*
X175415082Y-54974839D01*
X175532443Y-55136372D01*
X175673628Y-55277557D01*
X175835161Y-55394918D01*
X175959947Y-55458500D01*
X176013067Y-55485566D01*
X176202955Y-55547264D01*
X176202956Y-55547264D01*
X176202959Y-55547265D01*
X176400167Y-55578500D01*
X176400168Y-55578500D01*
X176599832Y-55578500D01*
X176599833Y-55578500D01*
X176797041Y-55547265D01*
X176797044Y-55547264D01*
X176797045Y-55547264D01*
X176986932Y-55485566D01*
X176986932Y-55485565D01*
X176986935Y-55485565D01*
X177164839Y-55394918D01*
X177326372Y-55277557D01*
X177467557Y-55136372D01*
X177584918Y-54974839D01*
X177675565Y-54796935D01*
X177675566Y-54796932D01*
X177737264Y-54607045D01*
X177737264Y-54607044D01*
X177737265Y-54607041D01*
X177768500Y-54409833D01*
X177768500Y-54210167D01*
X178231500Y-54210167D01*
X178231500Y-54409832D01*
X178262735Y-54607042D01*
X178262735Y-54607045D01*
X178324433Y-54796932D01*
X178324435Y-54796935D01*
X178415082Y-54974839D01*
X178532443Y-55136372D01*
X178673628Y-55277557D01*
X178835161Y-55394918D01*
X178959947Y-55458500D01*
X179013067Y-55485566D01*
X179202955Y-55547264D01*
X179202956Y-55547264D01*
X179202959Y-55547265D01*
X179400167Y-55578500D01*
X179400168Y-55578500D01*
X179599832Y-55578500D01*
X179599833Y-55578500D01*
X179797041Y-55547265D01*
X179797044Y-55547264D01*
X179797045Y-55547264D01*
X179986932Y-55485566D01*
X179986932Y-55485565D01*
X179986935Y-55485565D01*
X180164839Y-55394918D01*
X180326372Y-55277557D01*
X180467557Y-55136372D01*
X180584918Y-54974839D01*
X180675565Y-54796935D01*
X180675566Y-54796932D01*
X180737264Y-54607045D01*
X180737264Y-54607044D01*
X180737265Y-54607041D01*
X180768500Y-54409833D01*
X180768500Y-54210167D01*
X181231500Y-54210167D01*
X181231500Y-54409832D01*
X181262735Y-54607042D01*
X181262735Y-54607045D01*
X181324433Y-54796932D01*
X181324435Y-54796935D01*
X181415082Y-54974839D01*
X181532443Y-55136372D01*
X181673628Y-55277557D01*
X181835161Y-55394918D01*
X181959947Y-55458500D01*
X182013067Y-55485566D01*
X182202955Y-55547264D01*
X182202956Y-55547264D01*
X182202959Y-55547265D01*
X182400167Y-55578500D01*
X182400168Y-55578500D01*
X182599832Y-55578500D01*
X182599833Y-55578500D01*
X182797041Y-55547265D01*
X182797044Y-55547264D01*
X182797045Y-55547264D01*
X182986932Y-55485566D01*
X182986932Y-55485565D01*
X182986935Y-55485565D01*
X183164839Y-55394918D01*
X183326372Y-55277557D01*
X183467557Y-55136372D01*
X183584918Y-54974839D01*
X183675565Y-54796935D01*
X183675566Y-54796932D01*
X183737264Y-54607045D01*
X183737264Y-54607044D01*
X183737265Y-54607041D01*
X183768500Y-54409833D01*
X183768500Y-54210167D01*
X183737265Y-54012959D01*
X183737264Y-54012955D01*
X183737264Y-54012954D01*
X183675566Y-53823067D01*
X183584917Y-53645160D01*
X183467557Y-53483628D01*
X183326372Y-53342443D01*
X183164839Y-53225082D01*
X182986932Y-53134433D01*
X182797044Y-53072735D01*
X182649135Y-53049308D01*
X182599833Y-53041500D01*
X182400167Y-53041500D01*
X182334431Y-53051911D01*
X182202957Y-53072735D01*
X182202954Y-53072735D01*
X182013067Y-53134433D01*
X181835160Y-53225082D01*
X181742999Y-53292041D01*
X181673628Y-53342443D01*
X181673626Y-53342445D01*
X181673625Y-53342445D01*
X181532445Y-53483625D01*
X181532445Y-53483626D01*
X181532443Y-53483628D01*
X181482041Y-53552999D01*
X181415082Y-53645160D01*
X181324433Y-53823067D01*
X181262735Y-54012954D01*
X181262735Y-54012957D01*
X181231500Y-54210167D01*
X180768500Y-54210167D01*
X180737265Y-54012959D01*
X180737264Y-54012955D01*
X180737264Y-54012954D01*
X180675566Y-53823067D01*
X180584917Y-53645160D01*
X180467557Y-53483628D01*
X180326372Y-53342443D01*
X180164839Y-53225082D01*
X179986932Y-53134433D01*
X179797044Y-53072735D01*
X179649135Y-53049308D01*
X179599833Y-53041500D01*
X179400167Y-53041500D01*
X179334431Y-53051911D01*
X179202957Y-53072735D01*
X179202954Y-53072735D01*
X179013067Y-53134433D01*
X178835160Y-53225082D01*
X178742999Y-53292041D01*
X178673628Y-53342443D01*
X178673626Y-53342445D01*
X178673625Y-53342445D01*
X178532445Y-53483625D01*
X178532445Y-53483626D01*
X178532443Y-53483628D01*
X178482041Y-53552999D01*
X178415082Y-53645160D01*
X178324433Y-53823067D01*
X178262735Y-54012954D01*
X178262735Y-54012957D01*
X178231500Y-54210167D01*
X177768500Y-54210167D01*
X177737265Y-54012959D01*
X177737264Y-54012955D01*
X177737264Y-54012954D01*
X177675566Y-53823067D01*
X177584917Y-53645160D01*
X177467557Y-53483628D01*
X177326372Y-53342443D01*
X177164839Y-53225082D01*
X176986932Y-53134433D01*
X176797044Y-53072735D01*
X176649135Y-53049308D01*
X176599833Y-53041500D01*
X176400167Y-53041500D01*
X176334431Y-53051911D01*
X176202957Y-53072735D01*
X176202954Y-53072735D01*
X176013067Y-53134433D01*
X175835160Y-53225082D01*
X175742999Y-53292041D01*
X175673628Y-53342443D01*
X175673626Y-53342445D01*
X175673625Y-53342445D01*
X175532445Y-53483625D01*
X175532445Y-53483626D01*
X175532443Y-53483628D01*
X175482041Y-53552999D01*
X175415082Y-53645160D01*
X175324433Y-53823067D01*
X175262735Y-54012954D01*
X175262735Y-54012957D01*
X175231500Y-54210167D01*
X174768500Y-54210167D01*
X174737265Y-54012959D01*
X174737264Y-54012955D01*
X174737264Y-54012954D01*
X174675566Y-53823067D01*
X174584917Y-53645160D01*
X174467557Y-53483628D01*
X174326372Y-53342443D01*
X174164839Y-53225082D01*
X173986932Y-53134433D01*
X173797044Y-53072735D01*
X173649135Y-53049308D01*
X173599833Y-53041500D01*
X173400167Y-53041500D01*
X173334431Y-53051911D01*
X173202957Y-53072735D01*
X173202954Y-53072735D01*
X173013067Y-53134433D01*
X172835160Y-53225082D01*
X172742999Y-53292041D01*
X172673628Y-53342443D01*
X172673626Y-53342445D01*
X172673625Y-53342445D01*
X172532445Y-53483625D01*
X172532445Y-53483626D01*
X172532443Y-53483628D01*
X172482041Y-53552999D01*
X172415082Y-53645160D01*
X172324433Y-53823067D01*
X172262735Y-54012954D01*
X172262735Y-54012957D01*
X172231500Y-54210167D01*
X171768500Y-54210167D01*
X171737265Y-54012959D01*
X171737264Y-54012955D01*
X171737264Y-54012954D01*
X171675566Y-53823067D01*
X171584917Y-53645160D01*
X171467557Y-53483628D01*
X171326372Y-53342443D01*
X171164839Y-53225082D01*
X170986932Y-53134433D01*
X170797044Y-53072735D01*
X170649135Y-53049308D01*
X170599833Y-53041500D01*
X170400167Y-53041500D01*
X170334431Y-53051911D01*
X170202957Y-53072735D01*
X170202954Y-53072735D01*
X170013067Y-53134433D01*
X169835160Y-53225082D01*
X169742999Y-53292041D01*
X169673628Y-53342443D01*
X169673626Y-53342445D01*
X169673625Y-53342445D01*
X169532445Y-53483625D01*
X169532445Y-53483626D01*
X169532443Y-53483628D01*
X169482041Y-53552999D01*
X169415082Y-53645160D01*
X169324433Y-53823067D01*
X169262735Y-54012954D01*
X169262735Y-54012957D01*
X169231500Y-54210167D01*
X120513500Y-54210167D01*
X120513500Y-49895258D01*
X167889500Y-49895258D01*
X167889500Y-50124741D01*
X167914446Y-50314215D01*
X167919452Y-50352238D01*
X167954797Y-50484149D01*
X167978842Y-50573887D01*
X168066650Y-50785876D01*
X168066657Y-50785890D01*
X168181392Y-50984617D01*
X168321081Y-51166661D01*
X168321089Y-51166670D01*
X168483330Y-51328911D01*
X168483338Y-51328918D01*
X168665382Y-51468607D01*
X168665385Y-51468608D01*
X168665388Y-51468611D01*
X168864112Y-51583344D01*
X168864117Y-51583346D01*
X168864123Y-51583349D01*
X168955480Y-51621190D01*
X169076113Y-51671158D01*
X169297762Y-51730548D01*
X169525266Y-51760500D01*
X169525273Y-51760500D01*
X169754727Y-51760500D01*
X169754734Y-51760500D01*
X169982238Y-51730548D01*
X170203887Y-51671158D01*
X170415888Y-51583344D01*
X170614612Y-51468611D01*
X170796661Y-51328919D01*
X170796665Y-51328914D01*
X170796670Y-51328911D01*
X170958911Y-51166670D01*
X170958914Y-51166665D01*
X170958919Y-51166661D01*
X171098611Y-50984612D01*
X171213344Y-50785888D01*
X171301158Y-50573887D01*
X171360548Y-50352238D01*
X171390500Y-50124734D01*
X171390500Y-49895266D01*
X171390499Y-49895258D01*
X184589500Y-49895258D01*
X184589500Y-50124741D01*
X184614446Y-50314215D01*
X184619452Y-50352238D01*
X184654797Y-50484149D01*
X184678842Y-50573887D01*
X184766650Y-50785876D01*
X184766657Y-50785890D01*
X184881392Y-50984617D01*
X185021081Y-51166661D01*
X185021089Y-51166670D01*
X185183330Y-51328911D01*
X185183338Y-51328918D01*
X185365382Y-51468607D01*
X185365385Y-51468608D01*
X185365388Y-51468611D01*
X185564112Y-51583344D01*
X185564117Y-51583346D01*
X185564123Y-51583349D01*
X185655480Y-51621190D01*
X185776113Y-51671158D01*
X185997762Y-51730548D01*
X186225266Y-51760500D01*
X186225273Y-51760500D01*
X186454727Y-51760500D01*
X186454734Y-51760500D01*
X186682238Y-51730548D01*
X186903887Y-51671158D01*
X187115888Y-51583344D01*
X187314612Y-51468611D01*
X187496661Y-51328919D01*
X187496665Y-51328914D01*
X187496670Y-51328911D01*
X187658911Y-51166670D01*
X187658914Y-51166665D01*
X187658919Y-51166661D01*
X187798611Y-50984612D01*
X187913344Y-50785888D01*
X188001158Y-50573887D01*
X188060548Y-50352238D01*
X188090500Y-50124734D01*
X188090500Y-49895266D01*
X188060548Y-49667762D01*
X188001158Y-49446113D01*
X187932069Y-49279318D01*
X187913349Y-49234123D01*
X187913346Y-49234117D01*
X187913344Y-49234112D01*
X187798611Y-49035388D01*
X187798608Y-49035385D01*
X187798607Y-49035382D01*
X187658918Y-48853338D01*
X187658911Y-48853330D01*
X187496670Y-48691089D01*
X187496661Y-48691081D01*
X187314617Y-48551392D01*
X187115890Y-48436657D01*
X187115876Y-48436650D01*
X186903887Y-48348842D01*
X186682238Y-48289452D01*
X186644215Y-48284446D01*
X186454741Y-48259500D01*
X186454734Y-48259500D01*
X186225266Y-48259500D01*
X186225258Y-48259500D01*
X186008715Y-48288009D01*
X185997762Y-48289452D01*
X185904076Y-48314554D01*
X185776112Y-48348842D01*
X185564123Y-48436650D01*
X185564109Y-48436657D01*
X185365382Y-48551392D01*
X185183338Y-48691081D01*
X185021081Y-48853338D01*
X184881392Y-49035382D01*
X184766657Y-49234109D01*
X184766650Y-49234123D01*
X184678842Y-49446112D01*
X184619453Y-49667759D01*
X184619451Y-49667770D01*
X184589500Y-49895258D01*
X171390499Y-49895258D01*
X171360548Y-49667762D01*
X171301158Y-49446113D01*
X171232069Y-49279318D01*
X171213349Y-49234123D01*
X171213346Y-49234117D01*
X171213344Y-49234112D01*
X171098611Y-49035388D01*
X171098608Y-49035385D01*
X171098607Y-49035382D01*
X170958918Y-48853338D01*
X170958911Y-48853330D01*
X170796670Y-48691089D01*
X170796661Y-48691081D01*
X170614617Y-48551392D01*
X170415890Y-48436657D01*
X170415876Y-48436650D01*
X170203887Y-48348842D01*
X169982238Y-48289452D01*
X169944215Y-48284446D01*
X169754741Y-48259500D01*
X169754734Y-48259500D01*
X169525266Y-48259500D01*
X169525258Y-48259500D01*
X169308715Y-48288009D01*
X169297762Y-48289452D01*
X169204076Y-48314554D01*
X169076112Y-48348842D01*
X168864123Y-48436650D01*
X168864109Y-48436657D01*
X168665382Y-48551392D01*
X168483338Y-48691081D01*
X168321081Y-48853338D01*
X168181392Y-49035382D01*
X168066657Y-49234109D01*
X168066650Y-49234123D01*
X167978842Y-49446112D01*
X167919453Y-49667759D01*
X167919451Y-49667770D01*
X167889500Y-49895258D01*
X120513500Y-49895258D01*
X120513500Y-49552190D01*
X120513431Y-49550894D01*
X120510561Y-49497333D01*
X120510559Y-49497320D01*
X120510559Y-49497308D01*
X120507680Y-49470525D01*
X120498884Y-49416248D01*
X120495627Y-49407516D01*
X120447811Y-49279318D01*
X120447803Y-49279301D01*
X120413785Y-49217004D01*
X120413784Y-49217003D01*
X120413780Y-49216995D01*
X120326194Y-49099996D01*
X120326189Y-49099991D01*
X120326184Y-49099985D01*
X119900018Y-48673819D01*
X119900002Y-48673805D01*
X119859123Y-48637083D01*
X119859112Y-48637073D01*
X119846852Y-48627194D01*
X119838149Y-48620180D01*
X119796675Y-48590272D01*
X119793551Y-48588019D01*
X119793540Y-48588013D01*
X119660605Y-48527303D01*
X119592483Y-48507301D01*
X119592471Y-48507298D01*
X119447810Y-48486500D01*
X110552190Y-48486500D01*
X110552185Y-48486500D01*
X110497333Y-48489438D01*
X110485356Y-48490725D01*
X110470525Y-48492320D01*
X110470517Y-48492321D01*
X110470510Y-48492322D01*
X110470505Y-48492322D01*
X110416258Y-48501113D01*
X110416240Y-48501118D01*
X110279318Y-48552188D01*
X110279301Y-48552196D01*
X110217004Y-48586214D01*
X110216998Y-48586218D01*
X110216996Y-48586219D01*
X110216995Y-48586220D01*
X110206740Y-48593897D01*
X110099997Y-48673805D01*
X110099985Y-48673815D01*
X109673819Y-49099981D01*
X109637073Y-49140887D01*
X109620180Y-49161851D01*
X109588019Y-49206448D01*
X109588013Y-49206459D01*
X109527303Y-49339394D01*
X109507301Y-49407516D01*
X109507298Y-49407528D01*
X109486500Y-49552189D01*
X102593032Y-49552189D01*
X102593897Y-49550894D01*
X102593898Y-49550893D01*
X102791232Y-49284818D01*
X102798935Y-49275433D01*
X103021405Y-49029975D01*
X103029975Y-49021405D01*
X103275433Y-48798935D01*
X103284818Y-48791232D01*
X103550905Y-48593888D01*
X103560998Y-48587145D01*
X103845139Y-48416838D01*
X103855824Y-48411126D01*
X104132013Y-48280498D01*
X104134423Y-48279392D01*
X104165331Y-48265631D01*
X104173915Y-48262190D01*
X104443380Y-48165774D01*
X104446651Y-48164658D01*
X104497410Y-48148165D01*
X104505541Y-48145828D01*
X104772133Y-48079050D01*
X104776289Y-48078089D01*
X104839010Y-48064757D01*
X104846485Y-48063409D01*
X105112025Y-48024020D01*
X105117139Y-48023372D01*
X105186343Y-48016099D01*
X105193147Y-48015574D01*
X105496967Y-48000648D01*
X105503051Y-48000500D01*
X194496949Y-48000500D01*
X194503032Y-48000648D01*
G37*
%TD.AperFunction*%
%TD*%
M02*
