%TF.GenerationSoftware,KiCad,Pcbnew,9.0.7-9.0.7~ubuntu22.04.1*%
%TF.CreationDate,2026-03-18T15:25:34+04:00*%
%TF.ProjectId,GPSComputer_3.2.01,47505343-6f6d-4707-9574-65725f332e32,rev?*%
%TF.SameCoordinates,Original*%
%TF.FileFunction,Soldermask,Top*%
%TF.FilePolarity,Negative*%
%FSLAX46Y46*%
G04 Gerber Fmt 4.6, Leading zero omitted, Abs format (unit mm)*
G04 Created by KiCad (PCBNEW 9.0.7-9.0.7~ubuntu22.04.1) date 2026-03-18 15:25:34*
%MOMM*%
%LPD*%
G01*
G04 APERTURE LIST*
G04 Aperture macros list*
%AMRoundRect*
0 Rectangle with rounded corners*
0 $1 Rounding radius*
0 $2 $3 $4 $5 $6 $7 $8 $9 X,Y pos of 4 corners*
0 Add a 4 corners polygon primitive as box body*
4,1,4,$2,$3,$4,$5,$6,$7,$8,$9,$2,$3,0*
0 Add four circle primitives for the rounded corners*
1,1,$1+$1,$2,$3*
1,1,$1+$1,$4,$5*
1,1,$1+$1,$6,$7*
1,1,$1+$1,$8,$9*
0 Add four rect primitives between the rounded corners*
20,1,$1+$1,$2,$3,$4,$5,0*
20,1,$1+$1,$4,$5,$6,$7,0*
20,1,$1+$1,$6,$7,$8,$9,0*
20,1,$1+$1,$8,$9,$2,$3,0*%
G04 Aperture macros list end*
%ADD10C,0.836200*%
%ADD11C,1.576200*%
%ADD12C,0.010000*%
%ADD13RoundRect,0.250000X0.385000X1.350000X-0.385000X1.350000X-0.385000X-1.350000X0.385000X-1.350000X0*%
%ADD14RoundRect,0.250000X0.425000X1.600000X-0.425000X1.600000X-0.425000X-1.600000X0.425000X-1.600000X0*%
%ADD15R,1.676400X0.355600*%
%ADD16RoundRect,0.135000X-0.135000X-0.185000X0.135000X-0.185000X0.135000X0.185000X-0.135000X0.185000X0*%
%ADD17RoundRect,0.147500X-0.147500X-0.172500X0.147500X-0.172500X0.147500X0.172500X-0.147500X0.172500X0*%
%ADD18R,1.475000X0.450000*%
%ADD19RoundRect,0.140000X0.140000X0.170000X-0.140000X0.170000X-0.140000X-0.170000X0.140000X-0.170000X0*%
%ADD20RoundRect,0.140000X-0.140000X-0.170000X0.140000X-0.170000X0.140000X0.170000X-0.140000X0.170000X0*%
%ADD21C,0.800000*%
%ADD22C,6.400000*%
%ADD23RoundRect,0.140000X-0.170000X0.140000X-0.170000X-0.140000X0.170000X-0.140000X0.170000X0.140000X0*%
%ADD24RoundRect,0.135000X0.135000X0.185000X-0.135000X0.185000X-0.135000X-0.185000X0.135000X-0.185000X0*%
%ADD25RoundRect,0.250000X-0.262500X-0.450000X0.262500X-0.450000X0.262500X0.450000X-0.262500X0.450000X0*%
%ADD26RoundRect,0.250000X1.100000X-0.325000X1.100000X0.325000X-1.100000X0.325000X-1.100000X-0.325000X0*%
%ADD27C,1.000000*%
%ADD28R,1.000000X3.150000*%
%ADD29RoundRect,0.135000X-0.185000X0.135000X-0.185000X-0.135000X0.185000X-0.135000X0.185000X0.135000X0*%
%ADD30RoundRect,0.075000X-0.700000X-0.075000X0.700000X-0.075000X0.700000X0.075000X-0.700000X0.075000X0*%
%ADD31RoundRect,0.075000X-0.075000X-0.700000X0.075000X-0.700000X0.075000X0.700000X-0.075000X0.700000X0*%
%ADD32RoundRect,0.135000X0.185000X-0.135000X0.185000X0.135000X-0.185000X0.135000X-0.185000X-0.135000X0*%
%ADD33RoundRect,0.250000X-1.100000X0.325000X-1.100000X-0.325000X1.100000X-0.325000X1.100000X0.325000X0*%
%ADD34RoundRect,0.225000X-0.225000X-0.250000X0.225000X-0.250000X0.225000X0.250000X-0.225000X0.250000X0*%
%ADD35R,1.300000X1.600000*%
%ADD36RoundRect,0.140000X0.170000X-0.140000X0.170000X0.140000X-0.170000X0.140000X-0.170000X-0.140000X0*%
%ADD37RoundRect,0.250000X-0.385000X-1.350000X0.385000X-1.350000X0.385000X1.350000X-0.385000X1.350000X0*%
%ADD38RoundRect,0.250000X-0.425000X-1.600000X0.425000X-1.600000X0.425000X1.600000X-0.425000X1.600000X0*%
%ADD39R,1.200000X0.750000*%
%ADD40RoundRect,0.250000X-0.325000X-0.450000X0.325000X-0.450000X0.325000X0.450000X-0.325000X0.450000X0*%
%ADD41RoundRect,0.250000X0.262500X0.450000X-0.262500X0.450000X-0.262500X-0.450000X0.262500X-0.450000X0*%
%ADD42RoundRect,0.250000X0.250000X0.475000X-0.250000X0.475000X-0.250000X-0.475000X0.250000X-0.475000X0*%
%ADD43R,0.800000X1.800000*%
%ADD44RoundRect,0.225000X-0.250000X0.225000X-0.250000X-0.225000X0.250000X-0.225000X0.250000X0.225000X0*%
%ADD45RoundRect,0.218750X0.256250X-0.218750X0.256250X0.218750X-0.256250X0.218750X-0.256250X-0.218750X0*%
%ADD46R,0.450000X1.475000*%
%ADD47R,1.000000X0.300000*%
%ADD48R,1.300000X2.000000*%
%ADD49RoundRect,0.250000X0.325000X0.450000X-0.325000X0.450000X-0.325000X-0.450000X0.325000X-0.450000X0*%
%ADD50RoundRect,0.250000X-0.250000X-0.475000X0.250000X-0.475000X0.250000X0.475000X-0.250000X0.475000X0*%
%ADD51RoundRect,0.147500X0.147500X0.172500X-0.147500X0.172500X-0.147500X-0.172500X0.147500X-0.172500X0*%
%ADD52C,3.000000*%
G04 APERTURE END LIST*
D10*
%TO.C,J4*%
X167918100Y-57310000D02*
G75*
G02*
X167081900Y-57310000I-418100J0D01*
G01*
X167081900Y-57310000D02*
G75*
G02*
X167918100Y-57310000I418100J0D01*
G01*
D11*
X170428100Y-50010000D02*
G75*
G02*
X168851900Y-50010000I-788100J0D01*
G01*
X168851900Y-50010000D02*
G75*
G02*
X170428100Y-50010000I788100J0D01*
G01*
D10*
X170918100Y-54310000D02*
G75*
G02*
X170081900Y-54310000I-418100J0D01*
G01*
X170081900Y-54310000D02*
G75*
G02*
X170918100Y-54310000I418100J0D01*
G01*
X170918100Y-57310000D02*
G75*
G02*
X170081900Y-57310000I-418100J0D01*
G01*
X170081900Y-57310000D02*
G75*
G02*
X170918100Y-57310000I418100J0D01*
G01*
X173918100Y-54310000D02*
G75*
G02*
X173081900Y-54310000I-418100J0D01*
G01*
X173081900Y-54310000D02*
G75*
G02*
X173918100Y-54310000I418100J0D01*
G01*
X173918100Y-57310000D02*
G75*
G02*
X173081900Y-57310000I-418100J0D01*
G01*
X173081900Y-57310000D02*
G75*
G02*
X173918100Y-57310000I418100J0D01*
G01*
X176918100Y-54310000D02*
G75*
G02*
X176081900Y-54310000I-418100J0D01*
G01*
X176081900Y-54310000D02*
G75*
G02*
X176918100Y-54310000I418100J0D01*
G01*
X176918100Y-57310000D02*
G75*
G02*
X176081900Y-57310000I-418100J0D01*
G01*
X176081900Y-57310000D02*
G75*
G02*
X176918100Y-57310000I418100J0D01*
G01*
X179918100Y-54310000D02*
G75*
G02*
X179081900Y-54310000I-418100J0D01*
G01*
X179081900Y-54310000D02*
G75*
G02*
X179918100Y-54310000I418100J0D01*
G01*
X179918100Y-57310000D02*
G75*
G02*
X179081900Y-57310000I-418100J0D01*
G01*
X179081900Y-57310000D02*
G75*
G02*
X179918100Y-57310000I418100J0D01*
G01*
X182918100Y-54310000D02*
G75*
G02*
X182081900Y-54310000I-418100J0D01*
G01*
X182081900Y-54310000D02*
G75*
G02*
X182918100Y-54310000I418100J0D01*
G01*
X182918100Y-57310000D02*
G75*
G02*
X182081900Y-57310000I-418100J0D01*
G01*
X182081900Y-57310000D02*
G75*
G02*
X182918100Y-57310000I418100J0D01*
G01*
X185918100Y-54310000D02*
G75*
G02*
X185081900Y-54310000I-418100J0D01*
G01*
X185081900Y-54310000D02*
G75*
G02*
X185918100Y-54310000I418100J0D01*
G01*
X185918100Y-57310000D02*
G75*
G02*
X185081900Y-57310000I-418100J0D01*
G01*
X185081900Y-57310000D02*
G75*
G02*
X185918100Y-57310000I418100J0D01*
G01*
D11*
X187128100Y-50010000D02*
G75*
G02*
X185551900Y-50010000I-788100J0D01*
G01*
X185551900Y-50010000D02*
G75*
G02*
X187128100Y-50010000I788100J0D01*
G01*
D10*
X188918100Y-54310000D02*
G75*
G02*
X188081900Y-54310000I-418100J0D01*
G01*
X188081900Y-54310000D02*
G75*
G02*
X188918100Y-54310000I418100J0D01*
G01*
X188918100Y-57310000D02*
G75*
G02*
X188081900Y-57310000I-418100J0D01*
G01*
X188081900Y-57310000D02*
G75*
G02*
X188918100Y-57310000I418100J0D01*
G01*
D12*
X168336200Y-55146200D02*
X166663800Y-55146200D01*
X166663800Y-53473800D01*
X168336200Y-53473800D01*
X168336200Y-55146200D01*
G36*
X168336200Y-55146200D02*
G01*
X166663800Y-55146200D01*
X166663800Y-53473800D01*
X168336200Y-53473800D01*
X168336200Y-55146200D01*
G37*
%TD*%
D13*
%TO.C,J2*%
X141175000Y-49765000D03*
D14*
X138350000Y-50015000D03*
X144000000Y-50015000D03*
%TD*%
D15*
%TO.C,U5*%
X120161700Y-77505001D03*
X120161700Y-78154999D03*
X120161700Y-78805001D03*
X120161700Y-79454999D03*
X120161700Y-80104998D03*
X120161700Y-80754999D03*
X120161700Y-81404998D03*
X120161700Y-82054999D03*
X125800500Y-82054999D03*
X125800500Y-81405001D03*
X125800500Y-80754999D03*
X125800500Y-80105001D03*
X125800500Y-79455002D03*
X125800500Y-78805001D03*
X125800500Y-78155002D03*
X125800500Y-77505001D03*
%TD*%
D16*
%TO.C,R7*%
X156050000Y-59850000D03*
X157070000Y-59850000D03*
%TD*%
D17*
%TO.C,L3*%
X125540000Y-137750000D03*
X126510000Y-137750000D03*
%TD*%
D18*
%TO.C,IC3*%
X153474000Y-113800000D03*
X153474000Y-114450000D03*
X153474000Y-115100000D03*
X153474000Y-115750000D03*
X159350000Y-115750000D03*
X159350000Y-115100000D03*
X159350000Y-114450000D03*
X159350000Y-113800000D03*
%TD*%
D19*
%TO.C,C13*%
X131780000Y-97200000D03*
X130820000Y-97200000D03*
%TD*%
D20*
%TO.C,C10*%
X127970000Y-89625000D03*
X128930000Y-89625000D03*
%TD*%
D21*
%TO.C,H4*%
X103100000Y-140500000D03*
X103802944Y-138802944D03*
X103802944Y-142197056D03*
X105500000Y-138100000D03*
D22*
X105500000Y-140500000D03*
D21*
X105500000Y-142900000D03*
X107197056Y-138802944D03*
X107197056Y-142197056D03*
X107900000Y-140500000D03*
%TD*%
D23*
%TO.C,C14*%
X144150000Y-100870000D03*
X144150000Y-101830000D03*
%TD*%
D24*
%TO.C,R16*%
X124550000Y-136700000D03*
X123530000Y-136700000D03*
%TD*%
D25*
%TO.C,R3*%
X137037500Y-128450000D03*
X138862500Y-128450000D03*
%TD*%
D26*
%TO.C,C23*%
X110550000Y-123450000D03*
X110550000Y-120500000D03*
%TD*%
D21*
%TO.C,H2*%
X192100000Y-51500000D03*
X192802944Y-49802944D03*
X192802944Y-53197056D03*
X194500000Y-49100000D03*
D22*
X194500000Y-51500000D03*
D21*
X194500000Y-53900000D03*
X196197056Y-49802944D03*
X196197056Y-53197056D03*
X196900000Y-51500000D03*
%TD*%
D27*
%TO.C,TP4*%
X183750000Y-81300000D03*
%TD*%
D24*
%TO.C,R18*%
X111360000Y-131000000D03*
X110340000Y-131000000D03*
%TD*%
%TO.C,R21*%
X139160000Y-131000000D03*
X138140000Y-131000000D03*
%TD*%
D28*
%TO.C,J5*%
X111100000Y-55950000D03*
X111100000Y-50900000D03*
X113640000Y-55950000D03*
X113640000Y-50900000D03*
X116180000Y-55950000D03*
X116180000Y-50900000D03*
X118720000Y-55950000D03*
X118720000Y-50900000D03*
X121260000Y-55950000D03*
X121260000Y-50900000D03*
X123800000Y-55950000D03*
X123800000Y-50900000D03*
X126340000Y-55950000D03*
X126340000Y-50900000D03*
X128880000Y-55950000D03*
X128880000Y-50900000D03*
%TD*%
D18*
%TO.C,IC1*%
X143918000Y-76855000D03*
X143918000Y-76205000D03*
X143918000Y-75555000D03*
X143918000Y-74905000D03*
X138042000Y-74905000D03*
X138042000Y-75555000D03*
X138042000Y-76205000D03*
X138042000Y-76855000D03*
%TD*%
D29*
%TO.C,R20*%
X127625000Y-109040000D03*
X127625000Y-110060000D03*
%TD*%
D30*
%TO.C,U7*%
X133575000Y-91000000D03*
X133575000Y-91500000D03*
X133575000Y-92000000D03*
X133575000Y-92500000D03*
X133575000Y-93000000D03*
X133575000Y-93500000D03*
X133575000Y-94000000D03*
X133575000Y-94500000D03*
X133575000Y-95000000D03*
X133575000Y-95500000D03*
X133575000Y-96000000D03*
X133575000Y-96500000D03*
X133575000Y-97000000D03*
X133575000Y-97500000D03*
X133575000Y-98000000D03*
X133575000Y-98500000D03*
D31*
X135500000Y-100425000D03*
X136000000Y-100425000D03*
X136500000Y-100425000D03*
X137000000Y-100425000D03*
X137500000Y-100425000D03*
X138000000Y-100425000D03*
X138500000Y-100425000D03*
X139000000Y-100425000D03*
X139500000Y-100425000D03*
X140000000Y-100425000D03*
X140500000Y-100425000D03*
X141000000Y-100425000D03*
X141500000Y-100425000D03*
X142000000Y-100425000D03*
X142500000Y-100425000D03*
X143000000Y-100425000D03*
D30*
X144925000Y-98500000D03*
X144925000Y-98000000D03*
X144925000Y-97500000D03*
X144925000Y-97000000D03*
X144925000Y-96500000D03*
X144925000Y-96000000D03*
X144925000Y-95500000D03*
X144925000Y-95000000D03*
X144925000Y-94500000D03*
X144925000Y-94000000D03*
X144925000Y-93500000D03*
X144925000Y-93000000D03*
X144925000Y-92500000D03*
X144925000Y-92000000D03*
X144925000Y-91500000D03*
X144925000Y-91000000D03*
D31*
X143000000Y-89075000D03*
X142500000Y-89075000D03*
X142000000Y-89075000D03*
X141500000Y-89075000D03*
X141000000Y-89075000D03*
X140500000Y-89075000D03*
X140000000Y-89075000D03*
X139500000Y-89075000D03*
X139000000Y-89075000D03*
X138500000Y-89075000D03*
X138000000Y-89075000D03*
X137500000Y-89075000D03*
X137000000Y-89075000D03*
X136500000Y-89075000D03*
X136000000Y-89075000D03*
X135500000Y-89075000D03*
%TD*%
D21*
%TO.C,H3*%
X192100000Y-140500000D03*
X192802944Y-138802944D03*
X192802944Y-142197056D03*
X194500000Y-138100000D03*
D22*
X194500000Y-140500000D03*
D21*
X194500000Y-142900000D03*
X196197056Y-138802944D03*
X196197056Y-142197056D03*
X196900000Y-140500000D03*
%TD*%
D27*
%TO.C,TP1*%
X180375000Y-76550000D03*
%TD*%
D32*
%TO.C,R14*%
X106750000Y-60000000D03*
X106750000Y-58980000D03*
%TD*%
D33*
%TO.C,C5*%
X160400000Y-67650000D03*
X160400000Y-70600000D03*
%TD*%
D34*
%TO.C,C21*%
X147225000Y-90750000D03*
X148775000Y-90750000D03*
%TD*%
D35*
%TO.C,Y1*%
X127450000Y-91150000D03*
X127450000Y-94450000D03*
X129450000Y-94450000D03*
X129450000Y-91150000D03*
%TD*%
D29*
%TO.C,R19*%
X129625000Y-110790000D03*
X129625000Y-111810000D03*
%TD*%
D16*
%TO.C,R8*%
X137030000Y-73500000D03*
X138050000Y-73500000D03*
%TD*%
D36*
%TO.C,C19*%
X145400000Y-89600000D03*
X145400000Y-88640000D03*
%TD*%
D20*
%TO.C,C7*%
X143140000Y-53710000D03*
X144100000Y-53710000D03*
%TD*%
D37*
%TO.C,J1*%
X154400000Y-142250000D03*
D38*
X157225000Y-142000000D03*
X151575000Y-142000000D03*
%TD*%
D24*
%TO.C,R22*%
X160360000Y-117150000D03*
X159340000Y-117150000D03*
%TD*%
D39*
%TO.C,D1*%
X139137500Y-114750000D03*
X135737500Y-114750000D03*
%TD*%
D36*
%TO.C,C17*%
X134500000Y-88080000D03*
X134500000Y-87120000D03*
%TD*%
D20*
%TO.C,C16*%
X136695000Y-102200000D03*
X137655000Y-102200000D03*
%TD*%
D19*
%TO.C,C22*%
X124550000Y-137750000D03*
X123590000Y-137750000D03*
%TD*%
D40*
%TO.C,D5*%
X105875000Y-128450000D03*
X107925000Y-128450000D03*
%TD*%
D41*
%TO.C,R5*%
X158167500Y-62300000D03*
X156342500Y-62300000D03*
%TD*%
D19*
%TO.C,C15*%
X132780000Y-89950000D03*
X131820000Y-89950000D03*
%TD*%
%TO.C,C2*%
X152425000Y-137750000D03*
X151465000Y-137750000D03*
%TD*%
D42*
%TO.C,C1*%
X142787500Y-116700000D03*
X140887500Y-116700000D03*
%TD*%
D21*
%TO.C,H1*%
X103100000Y-51500000D03*
X103802944Y-49802944D03*
X103802944Y-53197056D03*
X105500000Y-49100000D03*
D22*
X105500000Y-51500000D03*
D21*
X105500000Y-53900000D03*
X107197056Y-49802944D03*
X107197056Y-53197056D03*
X107900000Y-51500000D03*
%TD*%
D16*
%TO.C,R9*%
X135240000Y-75570000D03*
X136260000Y-75570000D03*
%TD*%
D43*
%TO.C,U3*%
X154075000Y-57800000D03*
X152975000Y-57800000D03*
X151875000Y-57800000D03*
X150775000Y-57800000D03*
X149675000Y-57800000D03*
X148575000Y-57800000D03*
X147475000Y-57800000D03*
X144475000Y-57800000D03*
X143375000Y-57800000D03*
X142275000Y-57800000D03*
X141175000Y-57800000D03*
X140075000Y-57800000D03*
X140075000Y-69800000D03*
X141175000Y-69800000D03*
X142275000Y-69800000D03*
X143375000Y-69800000D03*
X144475000Y-69800000D03*
X147475000Y-69800000D03*
X148575000Y-69800000D03*
X149675000Y-69800000D03*
X150775000Y-69800000D03*
X151875000Y-69800000D03*
X152975000Y-69800000D03*
X154075000Y-69800000D03*
%TD*%
D44*
%TO.C,C20*%
X142500000Y-102450000D03*
X142500000Y-104000000D03*
%TD*%
D27*
%TO.C,TP2*%
X183560000Y-77325000D03*
%TD*%
D39*
%TO.C,D4*%
X111687500Y-114300000D03*
X108287500Y-114300000D03*
%TD*%
D24*
%TO.C,R23*%
X162160000Y-115100000D03*
X161140000Y-115100000D03*
%TD*%
D27*
%TO.C,TP3*%
X176825000Y-76250000D03*
%TD*%
D45*
%TO.C,D7*%
X105375000Y-60002500D03*
X105375000Y-58427500D03*
%TD*%
D32*
%TO.C,R12*%
X141000000Y-103245000D03*
X141000000Y-102225000D03*
%TD*%
D46*
%TO.C,IC2*%
X126350000Y-117688000D03*
X127000000Y-117688000D03*
X127650000Y-117688000D03*
X128300000Y-117688000D03*
X128300000Y-111812000D03*
X127650000Y-111812000D03*
X127000000Y-111812000D03*
X126350000Y-111812000D03*
%TD*%
D47*
%TO.C,RCS1*%
X183000000Y-68242500D03*
X183000000Y-67742500D03*
X183000000Y-67242500D03*
X183000000Y-66742500D03*
X183000000Y-66242500D03*
D48*
X185700000Y-70542500D03*
X185700000Y-63942500D03*
%TD*%
D49*
%TO.C,D3*%
X161750000Y-62300000D03*
X159700000Y-62300000D03*
%TD*%
D41*
%TO.C,R15*%
X115150000Y-114300000D03*
X113325000Y-114300000D03*
%TD*%
D26*
%TO.C,C26*%
X135050000Y-123450000D03*
X135050000Y-120500000D03*
%TD*%
D25*
%TO.C,R6*%
X152667500Y-74870000D03*
X154492500Y-74870000D03*
%TD*%
D26*
%TO.C,C24*%
X107350000Y-123450000D03*
X107350000Y-120500000D03*
%TD*%
D42*
%TO.C,C9*%
X115137500Y-116250000D03*
X113237500Y-116250000D03*
%TD*%
D20*
%TO.C,C4*%
X138050000Y-78310000D03*
X139010000Y-78310000D03*
%TD*%
D36*
%TO.C,C18*%
X133400000Y-88080000D03*
X133400000Y-87120000D03*
%TD*%
D50*
%TO.C,C8*%
X152650000Y-72810000D03*
X154550000Y-72810000D03*
%TD*%
D37*
%TO.C,J3*%
X126500000Y-142250000D03*
D38*
X129325000Y-142000000D03*
X123675000Y-142000000D03*
%TD*%
D36*
%TO.C,C28*%
X127690000Y-77480000D03*
X127690000Y-76520000D03*
%TD*%
D25*
%TO.C,R17*%
X109537500Y-128450000D03*
X111362500Y-128450000D03*
%TD*%
D36*
%TO.C,C25*%
X124975000Y-111800000D03*
X124975000Y-110840000D03*
%TD*%
D39*
%TO.C,D9*%
X156200000Y-74860000D03*
X159600000Y-74860000D03*
%TD*%
D40*
%TO.C,D2*%
X133375000Y-128450000D03*
X135425000Y-128450000D03*
%TD*%
D41*
%TO.C,R1*%
X142800000Y-114750000D03*
X140975000Y-114750000D03*
%TD*%
D17*
%TO.C,L1*%
X153415000Y-137750000D03*
X154385000Y-137750000D03*
%TD*%
D51*
%TO.C,L2*%
X142150000Y-54760000D03*
X141180000Y-54760000D03*
%TD*%
D19*
%TO.C,C11*%
X128930000Y-95975000D03*
X127970000Y-95975000D03*
%TD*%
D26*
%TO.C,C6*%
X138250000Y-123450000D03*
X138250000Y-120500000D03*
%TD*%
D20*
%TO.C,C27*%
X159370000Y-112450000D03*
X160330000Y-112450000D03*
%TD*%
D43*
%TO.C,U1*%
X141500000Y-133000000D03*
X142600000Y-133000000D03*
X143700000Y-133000000D03*
X144800000Y-133000000D03*
X145900000Y-133000000D03*
X147000000Y-133000000D03*
X148100000Y-133000000D03*
X151100000Y-133000000D03*
X152200000Y-133000000D03*
X153300000Y-133000000D03*
X154400000Y-133000000D03*
X155500000Y-133000000D03*
X155500000Y-121000000D03*
X154400000Y-121000000D03*
X153300000Y-121000000D03*
X152200000Y-121000000D03*
X151100000Y-121000000D03*
X148100000Y-121000000D03*
X147000000Y-121000000D03*
X145900000Y-121000000D03*
X144800000Y-121000000D03*
X143700000Y-121000000D03*
X142600000Y-121000000D03*
X141500000Y-121000000D03*
%TD*%
D24*
%TO.C,R2*%
X152435000Y-136700000D03*
X151415000Y-136700000D03*
%TD*%
D16*
%TO.C,R4*%
X143140000Y-54750000D03*
X144160000Y-54750000D03*
%TD*%
D33*
%TO.C,C3*%
X157250000Y-67645000D03*
X157250000Y-70595000D03*
%TD*%
D43*
%TO.C,U2*%
X113600000Y-133000000D03*
X114700000Y-133000000D03*
X115800000Y-133000000D03*
X116900000Y-133000000D03*
X118000000Y-133000000D03*
X119100000Y-133000000D03*
X120200000Y-133000000D03*
X123200000Y-133000000D03*
X124300000Y-133000000D03*
X125400000Y-133000000D03*
X126500000Y-133000000D03*
X127600000Y-133000000D03*
X127600000Y-121000000D03*
X126500000Y-121000000D03*
X125400000Y-121000000D03*
X124300000Y-121000000D03*
X123200000Y-121000000D03*
X120200000Y-121000000D03*
X119100000Y-121000000D03*
X118000000Y-121000000D03*
X116900000Y-121000000D03*
X115800000Y-121000000D03*
X114700000Y-121000000D03*
X113600000Y-121000000D03*
%TD*%
D29*
%TO.C,R13*%
X131100000Y-92740000D03*
X131100000Y-93760000D03*
%TD*%
D52*
%TO.C,J4*%
X186340000Y-50010000D03*
X169640000Y-50010000D03*
%TD*%
M02*
