%TF.GenerationSoftware,KiCad,Pcbnew,9.0.3-9.0.3-0~ubuntu22.04.1*%
%TF.CreationDate,2025-10-17T13:32:11+04:00*%
%TF.ProjectId,GPSComputer_3.2.01,47505343-6f6d-4707-9574-65725f332e32,rev?*%
%TF.SameCoordinates,Original*%
%TF.FileFunction,Profile,NP*%
%FSLAX46Y46*%
G04 Gerber Fmt 4.6, Leading zero omitted, Abs format (unit mm)*
G04 Created by KiCad (PCBNEW 9.0.3-9.0.3-0~ubuntu22.04.1) date 2025-10-17 13:32:11*
%MOMM*%
%LPD*%
G01*
G04 APERTURE LIST*
%TA.AperFunction,Profile*%
%ADD10C,0.100000*%
%TD*%
G04 APERTURE END LIST*
D10*
X102000000Y-106464700D02*
X102000000Y-140500000D01*
X102000000Y-63027375D02*
X102000000Y-51500000D01*
X194500000Y-48000000D02*
G75*
G02*
X198000000Y-51500000I0J-3500000D01*
G01*
X105500000Y-144000000D02*
X194500000Y-144000000D01*
X193000000Y-61500000D02*
X193000000Y-98742075D01*
X193000000Y-61500000D02*
X196280000Y-61500000D01*
X198000000Y-100456775D02*
X198000000Y-140500000D01*
X198000000Y-59785300D02*
X198000000Y-51500000D01*
X103720000Y-104750000D02*
X102000000Y-106464700D01*
X102000000Y-63027375D02*
X103720000Y-64742075D01*
X107000000Y-104750000D02*
X103720000Y-104750000D01*
X103720000Y-64742075D02*
X107000000Y-64742075D01*
X198000000Y-140500000D02*
G75*
G02*
X194500000Y-144000000I-3500000J0D01*
G01*
X198000000Y-100456775D02*
X196280000Y-98742075D01*
X196280000Y-98742075D02*
X193000000Y-98742075D01*
X105500000Y-48000000D02*
X194500000Y-48000000D01*
X105500000Y-144000000D02*
G75*
G02*
X102000000Y-140500000I0J3500000D01*
G01*
X196280000Y-61500000D02*
X198000000Y-59785300D01*
X107000000Y-64742075D02*
X107000000Y-104750000D01*
X102000000Y-51500000D02*
G75*
G02*
X105500000Y-48000000I3500000J0D01*
G01*
M02*
